<?xml version="1.0" encoding="UTF-8" standalone="no"?>
<svg width="50px" height="50px" viewBox="0 0 50 50" version="1.1" xmlns="http://www.w3.org/2000/svg" xmlns:xlink="http://www.w3.org/1999/xlink" xmlns:sketch="http://www.bohemiancoding.com/sketch/ns">
    <!-- Generator: Sketch 3.1.1 (8761) - http://www.bohemiancoding.com/sketch -->
    <title>alipay_L</title>
    <desc>Created with Sketch.</desc>
    <defs></defs>
    <g id="Page-1" stroke="none" stroke-width="1" fill="none" fill-rule="evenodd" sketch:type="MSPage">
        <g id="Artboard-1" sketch:type="MSArtboardGroup" transform="translate(-675.000000, -326.000000)" fill="#2F4074">
            <g id="line-icons" sketch:type="MSLayerGroup" transform="translate(475.000000, 225.000000)">
                <g id="row-2-line-icons-" transform="translate(2.000000, 101.000000)" sketch:type="MSShapeGroup">
                    <path d="M223,50 C236.807119,50 248,38.8071194 248,25 C248,11.1928806 236.807119,0 223,0 C209.192881,0 198,11.1928806 198,25 C198,38.8071194 209.192881,50 223,50 Z M223,48 C235.70255,48 246,37.7025499 246,25 C246,12.2974501 235.70255,2 223,2 C210.29745,2 200,12.2974501 200,25 C200,37.7025499 210.29745,48 223,48 Z M220.557375,15.7491315 L220.557375,11.6526888 L225.08829,11.6526888 L225.08829,15.7491315 L234.336317,15.7491315 L234.336317,17.549083 L225.088289,17.6111505 L225.08829,20.1559103 L232.724459,20.2179773 C232.724459,20.2179773 232.586205,21.6455257 231.618426,24.2419775 C230.650646,26.8384292 229.743337,28.1625933 229.743337,28.1625933 L244.558535,33.0239866 C244.558535,33.0239866 244.027285,34.4146116 243.38666,35.6333616 C242.746035,36.8521116 241.85541,38.1646116 241.85541,38.1646116 L227.695116,31.4521607 C227.695116,31.4521607 225.017234,34.413656 222.286272,35.7170694 C219.55531,37.0204827 216.419011,37.8313708 213.023247,37.030483 C209.627483,36.2295952 207.216574,34.0580194 207.631336,30.0486505 C208.046099,26.0392816 212.331976,24.6567404 215.857456,24.65674 C219.382936,24.65674 226.071728,26.9413479 226.071728,26.9413479 C226.071728,26.9413479 226.633863,25.6817482 227.179689,24.2419775 C227.725515,22.8022068 227.881318,21.6455257 227.881318,21.6455257 L213.636658,21.6455257 L213.636658,20.2179773 L220.557375,20.2179773 L220.557375,17.4870159 L211.930019,17.5490832 L211.930019,15.7491315 L220.557375,15.7491315 Z M224.366583,29.7964412 C224.366583,29.7964412 220.12593,34.8348415 215.129517,34.8348411 C210.133104,34.8348407 209.083437,32.4416013 209.083437,30.7201479 C209.083437,28.9986945 210.122443,27.1279919 214.373757,26.8573747 C218.625071,26.5867575 224.366583,29.7964412 224.366583,29.7964412 Z" id="alipay_L"></path>
                </g>
            </g>
        </g>
    </g>
</svg>