<?xml version="1.0" encoding="UTF-8" standalone="no"?>
<svg width="50px" height="50px" viewBox="0 0 50 50" version="1.1" xmlns="http://www.w3.org/2000/svg" xmlns:xlink="http://www.w3.org/1999/xlink" xmlns:sketch="http://www.bohemiancoding.com/sketch/ns">
    <!-- Generator: Sketch 3.1.1 (8761) - http://www.bohemiancoding.com/sketch -->
    <title>dianpin_L</title>
    <desc>Created with Sketch.</desc>
    <defs></defs>
    <g id="Page-1" stroke="none" stroke-width="1" fill="none" fill-rule="evenodd" sketch:type="MSPage">
        <g id="Artboard-1" sketch:type="MSArtboardGroup" transform="translate(-477.000000, -326.000000)" fill="#2F4074">
            <g id="line-icons" sketch:type="MSLayerGroup" transform="translate(475.000000, 225.000000)">
                <g id="row-2-line-icons-" transform="translate(2.000000, 101.000000)" sketch:type="MSShapeGroup">
                    <path d="M26.4222845,22.5625766 C33.5524335,21.9191964 40.3255453,26.4722149 42.2417635,33.6236388 L13.2639888,41.3882102 C11.3477705,34.2367863 14.9369481,26.9072007 21.4335284,23.8993098 C15.9250704,24.152374 10.7889128,20.559991 9.30306154,15.0147186 L32.4852814,8.80306154 C33.9711326,14.3483339 31.3192811,20.0275076 26.4222845,22.5625766 L26.4222845,22.5625766 Z M25,50 C38.8071194,50 50,38.8071194 50,25 C50,11.1928806 38.8071194,0 25,0 C11.1928806,0 0,11.1928806 0,25 C0,38.8071194 11.1928806,50 25,50 Z M25,48 C37.7025499,48 48,37.7025499 48,25 C48,12.2974501 37.7025499,2 25,2 C12.2974501,2 2,12.2974501 2,25 C2,37.7025499 12.2974501,48 25,48 Z M37.4121344,34.917734 C35.9827162,29.5830727 30.499347,26.417248 25.1646857,27.8466662 C19.8300244,29.2760844 16.6641997,34.7594536 18.0936179,40.0941149 L37.4121344,34.917734 Z M13.1667648,13.9794424 C14.3102994,18.2471715 18.6969948,20.7798312 22.9647238,19.6362967 C27.2324529,18.4927621 29.7651126,14.1060668 28.6215781,9.83833772 L13.1667648,13.9794424 Z M22.8353143,19.1533338 C25.5026449,18.4386247 27.0855573,15.6969401 26.3708482,13.0296094 C25.6561391,10.3622788 22.9144545,8.77936643 20.2471238,9.49407552 C17.5797932,10.2087846 15.9968808,12.9504692 16.7115899,15.6177999 C17.426299,18.2851305 20.1679836,19.8680429 22.8353143,19.1533338 Z" id="dianpin_L"></path>
                </g>
            </g>
        </g>
    </g>
</svg>