<?xml version="1.0" encoding="UTF-8" standalone="no"?>
<svg width="50px" height="50px" viewBox="0 0 50 50" version="1.1" xmlns="http://www.w3.org/2000/svg" xmlns:xlink="http://www.w3.org/1999/xlink" xmlns:sketch="http://www.bohemiancoding.com/sketch/ns">
    <!-- Generator: Sketch 3.1.1 (8761) - http://www.bohemiancoding.com/sketch -->
    <title>douban_L</title>
    <desc>Created with Sketch.</desc>
    <defs></defs>
    <g id="Page-1" stroke="none" stroke-width="1" fill="none" fill-rule="evenodd" sketch:type="MSPage">
        <g id="Artboard-1" sketch:type="MSArtboardGroup" transform="translate(-977.000000, -326.000000)" fill="#2F4074">
            <g id="line-icons" sketch:type="MSLayerGroup" transform="translate(475.000000, 225.000000)">
                <g id="row-2-line-icons-" transform="translate(2.000000, 101.000000)" sketch:type="MSShapeGroup">
                    <path d="M525,50 C538.807119,50 550,38.8071194 550,25 C550,11.1928806 538.807119,0 525,0 C511.192881,0 500,11.1928806 500,25 C500,38.8071194 511.192881,50 525,50 Z M525,48 C537.70255,48 548,37.7025499 548,25 C548,12.2974501 537.70255,2 525,2 C512.29745,2 502,12.2974501 502,25 C502,37.7025499 512.29745,48 525,48 Z M537.509766,15.5546875 L512.724609,15.5546875 L512.724609,13.0351562 L537.509766,13.0351562 L537.509766,15.5546875 Z M538.081055,37.8056641 L511.977539,37.8056641 L511.977539,35.2568359 L519.785156,35.2568359 C518.82812,33.1767474 517.817388,31.3798904 516.75293,29.8662109 L518.759766,28.5771484 L515.244141,28.5771484 L515.244141,18.5136719 L535.078125,18.5136719 L535.078125,28.5771484 L531.386719,28.5771484 L533.393555,29.8955078 C532.446284,31.9755963 531.459966,33.7626878 530.43457,35.2568359 L538.081055,35.2568359 L538.081055,37.8056641 Z M532.294922,26.0429688 L532.294922,21.1064453 L518.012695,21.1064453 L518.012695,26.0429688 L532.294922,26.0429688 Z M530.90332,28.5771484 L519.272461,28.5771484 C520.522467,30.657237 521.660151,32.8837772 522.685547,35.2568359 L527.431641,35.2568359 C528.886726,33.0009653 530.043941,30.774425 530.90332,28.5771484 Z" id="douban_L"></path>
                </g>
            </g>
        </g>
    </g>
</svg>