<?xml version="1.0" encoding="UTF-8" standalone="no"?>
<svg width="50px" height="50px" viewBox="0 0 50 50" version="1.1" xmlns="http://www.w3.org/2000/svg" xmlns:xlink="http://www.w3.org/1999/xlink" xmlns:sketch="http://www.bohemiancoding.com/sketch/ns">
    <!-- Generator: Sketch 3.1.1 (8761) - http://www.bohemiancoding.com/sketch -->
    <title>dribbble_L</title>
    <desc>Created with Sketch.</desc>
    <defs></defs>
    <g id="Page-1" stroke="none" stroke-width="1" fill="none" fill-rule="evenodd" sketch:type="MSPage">
        <g id="Artboard-1" sketch:type="MSArtboardGroup" transform="translate(-975.000000, -525.000000)" fill="#2F4074">
            <g id="line-icons" sketch:type="MSLayerGroup" transform="translate(475.000000, 225.000000)">
                <g id="row-4-line-icons" transform="translate(0.000000, 300.000000)" sketch:type="MSShapeGroup">
                    <path d="M525,50 C538.807119,50 550,38.8071194 550,25 C550,11.1928806 538.807119,0 525,0 C511.192881,0 500,11.1928806 500,25 C500,38.8071194 511.192881,50 525,50 Z M525,48 C537.70255,48 548,37.7025499 548,25 C548,12.2974501 537.70255,2 525,2 C512.29745,2 502,12.2974501 502,25 C502,37.7025499 512.29745,48 525,48 Z M536.228293,15.9016487 C538.260232,18.4622222 539.49044,21.7235842 539.522502,25.2749343 C539.041575,25.1699881 534.218595,24.1610514 529.364664,24.7907288 C529.262178,24.5330466 529.157653,24.2742174 529.050162,24.0140502 C528.747336,23.2803823 528.4219,22.5514934 528.082564,21.8346476 C533.47617,19.5632975 535.920834,16.3308005 536.228293,15.9016487 Z M524.936247,10.3698925 C528.642811,10.3698925 532.030425,11.8041577 534.606672,14.1617204 C534.344247,14.5470968 532.148108,17.5916846 526.960958,19.5971326 C524.570409,15.0668578 521.920958,11.3451852 521.517683,10.7883393 C522.614641,10.5155556 523.759228,10.3698925 524.936247,10.3698925 Z M518.734054,11.7997611 C519.11861,12.3437993 521.725436,16.0698686 524.142672,20.5018877 C517.318888,22.3712306 511.308695,22.3442772 510.656154,22.3352927 C511.602069,17.6660454 514.652757,13.7853286 518.734054,11.7997611 Z M510.347954,25.4171565 C510.347954,25.2632736 510.350919,25.1101553 510.355367,24.9574194 C510.993822,24.9708005 518.062981,25.0648507 525.348232,22.8160573 C525.765961,23.6590681 526.164788,24.5146953 526.530996,25.3695579 C526.338069,25.4255675 526.146069,25.4852091 525.956108,25.5486738 C518.43234,28.0570609 514.428695,34.8946237 514.098255,35.4780406 C511.768309,32.8104182 510.347954,29.281816 510.347954,25.4171565 Z M524.936247,40.4642294 C521.563645,40.4642294 518.45532,39.2773238 515.981931,37.2879331 C516.244355,36.7341458 519.198116,30.8485544 527.426317,27.891135 C527.458378,27.8796655 527.49044,27.8687694 527.522502,27.8576822 C529.570564,33.3473835 530.417514,37.9481959 530.634533,39.2683393 C528.882996,40.037945 526.95688,40.4642294 524.936247,40.4642294 Z M533.087166,37.8908483 C532.937606,36.9753883 532.161081,32.5707049 530.253127,27.1624373 C534.824618,26.4075508 538.840865,27.6432019 539.339954,27.8054958 C538.689637,31.9924492 536.359876,35.608411 533.087166,37.8908483 Z" id="dribbble_L"></path>
                </g>
            </g>
        </g>
    </g>
</svg>