<?xml version="1.0" encoding="UTF-8" standalone="no"?>
<svg width="50px" height="50px" viewBox="0 0 50 50" version="1.1" xmlns="http://www.w3.org/2000/svg" xmlns:xlink="http://www.w3.org/1999/xlink" xmlns:sketch="http://www.bohemiancoding.com/sketch/ns">
    <!-- Generator: Sketch 3.1.1 (8761) - http://www.bohemiancoding.com/sketch -->
    <title>googleplus_L</title>
    <desc>Created with Sketch.</desc>
    <defs></defs>
    <g id="Page-1" stroke="none" stroke-width="1" fill="none" fill-rule="evenodd" sketch:type="MSPage">
        <g id="Artboard-1" sketch:type="MSArtboardGroup" transform="translate(-775.000000, -525.000000)" fill="#2F4074">
            <g id="line-icons" sketch:type="MSLayerGroup" transform="translate(475.000000, 225.000000)">
                <g id="row-4-line-icons" transform="translate(0.000000, 300.000000)" sketch:type="MSShapeGroup">
                    <path d="M325,50 C338.807119,50 350,38.8071194 350,25 C350,11.1928806 338.807119,0 325,0 C311.192881,0 300,11.1928806 300,25 C300,38.8071194 311.192881,50 325,50 Z M325,48 C337.70255,48 348,37.7025499 348,25 C348,12.2974501 337.70255,2 325,2 C312.29745,2 302,12.2974501 302,25 C302,37.7025499 312.29745,48 325,48 Z M321.262,12.154 C321.490001,12.3313342 321.755998,12.5656652 322.06,12.857 C322.364002,13.1483348 322.655332,13.5029979 322.934,13.921 C323.212668,14.3390021 323.453332,14.8266639 323.656,15.384 C323.858668,15.9413361 323.96,16.5746631 323.96,17.284 C323.96,17.9933369 323.871334,18.6139973 323.694,19.146 C323.516666,19.6780027 323.276002,20.1529979 322.972,20.571 C322.667998,20.9890021 322.326002,21.3689983 321.946,21.711 C321.565998,22.0530017 321.173335,22.3759985 320.768,22.68 C320.514665,22.9333346 320.274001,23.1993319 320.046,23.478 C319.817999,23.7566681 319.704,24.1113312 319.704,24.542 C319.704,24.9726688 319.817999,25.3083321 320.046,25.549 C320.274001,25.7896679 320.489332,25.9986658 320.692,26.176 L322.06,27.24 C322.465335,27.5946684 322.864331,27.9493316 323.257,28.304 C323.649669,28.6586684 323.991665,29.0386646 324.283,29.444 C324.574335,29.8493354 324.808666,30.3053308 324.986,30.812 C325.163334,31.3186692 325.252,31.90133 325.252,32.56 C325.252,33.4466711 325.036669,34.3206624 324.606,35.182 C324.175331,36.0433376 323.542004,36.8096633 322.706,37.481 C321.869996,38.1523367 320.825006,38.6969979 319.571,39.115 C318.316994,39.5330021 316.879341,39.742 315.258,39.742 C313.889993,39.742 312.693005,39.5900015 311.667,39.286 C310.640995,38.9819985 309.786003,38.5766692 309.102,38.07 C308.417997,37.5633308 307.911335,36.9870032 307.582,36.341 C307.252665,35.6949968 307.088,35.0173369 307.088,34.308 C307.088,33.6239966 307.296998,32.8450044 307.715,31.971 C308.133002,31.0969956 308.899328,30.33067 310.014,29.672 C310.59667,29.3173316 311.223663,29.0323344 311.895,28.817 C312.566337,28.6016656 313.23133,28.4306673 313.89,28.304 C314.54867,28.1773327 315.16933,28.0886669 315.752,28.038 C316.33467,27.9873331 316.841331,27.9493335 317.272,27.924 C316.993332,27.5693316 316.733668,27.1956686 316.493,26.803 C316.252332,26.4103314 316.132,25.9226696 316.132,25.34 C316.132,25.010665 316.17,24.7383344 316.246,24.523 C316.322,24.3076656 316.410666,24.0860011 316.512,23.858 C316.309332,23.8833335 316.106668,23.9023333 315.904,23.915 C315.701332,23.9276667 315.498668,23.934 315.296,23.934 C314.282662,23.934 313.383337,23.7630017 312.598,23.421 C311.812663,23.0789983 311.154003,22.6293361 310.622,22.072 C310.089997,21.5146639 309.684668,20.8750036 309.406,20.153 C309.127332,19.4309964 308.988,18.7026703 308.988,17.968 C308.988,17.0813289 309.190665,16.1883378 309.596,15.289 C310.001335,14.3896622 310.609329,13.5853369 311.42,12.876 C312.509339,11.9893289 313.655661,11.4193346 314.859,11.166 C316.062339,10.9126654 317.183328,10.786 318.222,10.786 L326.05,10.786 L323.618,12.154 L321.262,12.154 Z M317.082,22.87 C317.563336,22.87 318.038331,22.7686677 318.507,22.566 C318.975669,22.3633323 319.361998,22.1100015 319.666,21.806 C320.096669,21.3753312 320.362666,20.8940027 320.464,20.362 C320.565334,19.8299973 320.616,19.3866684 320.616,19.032 C320.616,18.3479966 320.514668,17.6006707 320.312,16.79 C320.109332,15.9793293 319.805335,15.2193369 319.4,14.51 C318.994665,13.8006631 318.494336,13.211669 317.899,12.743 C317.303664,12.274331 316.613337,12.04 315.828,12.04 C315.321331,12.04 314.827336,12.1539989 314.346,12.382 C313.864664,12.6100011 313.472002,12.9139981 313.168,13.294 C312.838665,13.6993354 312.617001,14.1426643 312.503,14.624 C312.388999,15.1053357 312.332,15.5993308 312.332,16.106 C312.332,16.7393365 312.426999,17.4486627 312.617,18.234 C312.807001,19.0193373 313.098331,19.7539966 313.491,20.438 C313.883669,21.1220034 314.377664,21.698331 314.973,22.167 C315.568336,22.635669 316.271329,22.87 317.082,22.87 Z M322.706,34.042 C322.706,33.5606643 322.623667,33.1236686 322.459,32.731 C322.294333,32.3383314 322.047335,31.9520019 321.718,31.572 C321.388665,31.1919981 320.958003,30.7993354 320.426,30.394 C319.893997,29.9886646 319.273337,29.5326692 318.564,29.026 C318.411999,29.0006665 318.279001,28.988 318.165,28.988 L317.69,28.988 C317.614,28.988 317.436668,28.9943333 317.158,29.007 C316.879332,29.0196667 316.550002,29.0449998 316.17,29.083 C315.789998,29.1210002 315.384669,29.1843329 314.954,29.273 C314.523331,29.3616671 314.105335,29.4693327 313.7,29.596 C313.497332,29.6720004 313.212335,29.7923325 312.845,29.957 C312.477665,30.1216675 312.116668,30.3559985 311.762,30.66 C311.407332,30.9640015 311.097001,31.3439977 310.831,31.8 C310.564999,32.2560023 310.432,32.8259966 310.432,33.51 C310.432,34.8780068 311.033661,35.9926624 312.237,36.854 C313.440339,37.7153376 315.06799,38.146 317.12,38.146 C318.944009,38.146 320.330995,37.7596705 321.281,36.987 C322.231005,36.2143295 322.706,35.2326726 322.706,34.042 Z M344.024,18.044 L336.842,18.044 L336.842,25.264 L334.562,25.264 L334.562,18.044 L327.342,18.044 L327.342,15.764 L334.562,15.764 L334.562,8.658 L336.842,8.658 L336.842,15.764 L344.024,15.764 L344.024,18.044 Z" id="googleplus_L"></path>
                </g>
            </g>
        </g>
    </g>
</svg>