<?xml version="1.0" encoding="UTF-8" standalone="no"?>
<svg width="50px" height="50px" viewBox="0 0 50 50" version="1.1" xmlns="http://www.w3.org/2000/svg" xmlns:xlink="http://www.w3.org/1999/xlink" xmlns:sketch="http://www.bohemiancoding.com/sketch/ns">
    <!-- Generator: Sketch 3.1.1 (8761) - http://www.bohemiancoding.com/sketch -->
    <title>zhihu_L</title>
    <desc>Created with Sketch.</desc>
    <defs></defs>
    <g id="Page-1" stroke="none" stroke-width="1" fill="none" fill-rule="evenodd" sketch:type="MSPage">
        <g id="Artboard-1" sketch:type="MSArtboardGroup" transform="translate(-775.000000, -326.000000)" fill="#2F4074">
            <g id="line-icons" sketch:type="MSLayerGroup" transform="translate(475.000000, 225.000000)">
                <g id="row-2-line-icons-" transform="translate(2.000000, 101.000000)" sketch:type="MSShapeGroup">
                    <path d="M323,50 C336.807119,50 348,38.8071194 348,25 C348,11.1928806 336.807119,0 323,0 C309.192881,0 298,11.1928806 298,25 C298,38.8071194 309.192881,50 323,50 Z M323,48 C335.70255,48 346,37.7025499 346,25 C346,12.2974501 335.70255,2 323,2 C310.29745,2 300,12.2974501 300,25 C300,37.7025499 310.29745,48 323,48 Z M314.390365,10.6746981 C314.390365,10.6746981 312.26893,10.7994883 311.520188,12.109787 C310.771446,13.4200855 308.338034,20.1587641 308.338034,20.1587641 C308.338034,20.1587641 309.149171,20.5331349 310.521865,19.5348122 C311.894558,18.5364897 312.331325,16.7894246 312.331325,16.7894246 L314.827132,16.6646344 L314.889527,23.7776838 C314.889527,23.7776838 310.58426,23.7152879 309.710728,23.7776834 C308.837195,23.840079 308.338034,26.1486999 308.338034,26.1486999 L314.889527,26.1486999 C314.889527,26.1486999 314.32797,30.0795958 312.643301,32.949774 C310.958631,35.8199522 307.776477,38.0661775 307.776477,38.0661775 C307.776477,38.0661775 310.085099,39.0021059 312.331325,37.6918067 C314.577551,36.3815074 316.2337,30.6189768 316.2337,30.6189768 L321.503415,37.067855 C321.503415,37.067855 321.9843,33.9985601 321.418088,33.1315462 C320.851875,32.2645323 317.773092,28.778784 317.773092,28.778784 L316.428336,29.9642927 L317.385334,26.1486999 L323.125689,26.1487002 C323.125689,26.1487002 323.12569,23.9024741 322.002576,23.7776834 C320.879463,23.6528928 317.385334,23.7776834 317.385334,23.7776834 L317.385334,16.7894246 L322.564133,16.7894247 C322.564133,16.7894247 322.501738,14.4808034 321.503415,14.4808034 C320.505092,14.4808034 313.080067,14.4808034 313.080067,14.4808034 L314.390365,10.6746981 Z M324.351066,14.2603489 L336.158072,14.2603489 L336.158072,35.2696454 L330.939926,35.2696454 L327.227668,37.9070298 L326.460556,35.2696454 L324.351066,35.2696454 L324.351066,14.2603489 Z M326.850898,16.5986274 L333.758338,16.5986274 L333.758338,32.8834384 L331.304594,32.8834384 L328.17695,35.2413543 L327.495037,32.8834384 L326.850898,32.8834384 L326.850898,16.5986274 Z" id="zhihu_L"></path>
                </g>
            </g>
        </g>
    </g>
</svg>