<?xml version="1.0" encoding="UTF-8" standalone="no"?>
<svg width="51px" height="38px" viewBox="0 0 51 38" version="1.1" xmlns="http://www.w3.org/2000/svg" xmlns:xlink="http://www.w3.org/1999/xlink" xmlns:sketch="http://www.bohemiancoding.com/sketch/ns">
    <!-- Generator: Sketch 3.1.1 (8761) - http://www.bohemiancoding.com/sketch -->
    <title>alipay_s</title>
    <desc>Created with Sketch.</desc>
    <defs></defs>
    <g id="Page-1" stroke="none" stroke-width="1" fill="none" fill-rule="evenodd" sketch:type="MSPage">
        <g id="shape-icons" sketch:type="MSLayerGroup" transform="translate(-199.000000, -107.000000)" fill="#606974">
            <g id="row-2-shape-icons-" transform="translate(3.000000, 102.000000)" sketch:type="MSShapeGroup">
                <path d="M213.969426,11.1911051 L213.969426,5.51910751 L220.092283,5.51910751 L220.092283,11.1911051 L232.589618,11.1911051 L232.589618,13.6833457 L220.092282,13.7692854 L220.092283,17.2927988 L230.411431,17.3787378 C230.411431,17.3787378 230.224601,19.3553433 228.916791,22.9504303 C227.608982,26.5455174 226.382888,28.3789753 226.382888,28.3789753 L246.403425,35.1101353 C246.403425,35.1101353 245.68552,37.0356161 244.81981,38.7231161 C243.954101,40.410616 242.750554,42.2279237 242.750554,42.2279237 L223.615022,32.933761 C223.615022,32.933761 219.996262,37.0342929 216.305773,38.8390192 C212.615284,40.6437453 208.377042,41.7665134 203.788172,40.6575919 C199.199301,39.5486703 195.941316,36.541873 196.501806,30.9904392 C197.062296,25.4390053 202.854022,23.5247174 207.618184,23.5247169 C212.382347,23.5247169 221.421254,26.6880201 221.421254,26.6880201 C221.421254,26.6880201 222.180897,24.943959 222.918499,22.9504303 C223.656102,20.9569017 223.866646,19.3553433 223.866646,19.3553433 L204.617105,19.3553433 L204.617105,17.3787378 L213.969426,17.3787378 L213.969426,13.5974067 L202.310837,13.683346 L202.310837,11.1911051 L213.969426,11.1911051 Z M219.117004,30.6412263 C219.117004,30.6412263 213.386392,37.6174729 206.634482,37.6174723 C199.882572,37.6174717 198.464104,34.3037557 198.464104,31.9202048 C198.464104,29.5366539 199.868167,26.9464503 205.613185,26.5717496 C211.358203,26.1970489 219.117004,30.6412263 219.117004,30.6412263 Z" id="alipay_s"></path>
            </g>
        </g>
    </g>
</svg>