<?xml version="1.0" encoding="UTF-8" standalone="no"?>
<svg width="34px" height="45px" viewBox="0 0 34 45" version="1.1" xmlns="http://www.w3.org/2000/svg" xmlns:xlink="http://www.w3.org/1999/xlink" xmlns:sketch="http://www.bohemiancoding.com/sketch/ns">
    <!-- Generator: Sketch 3.1.1 (8761) - http://www.bohemiancoding.com/sketch -->
    <title>bitcoin_s</title>
    <desc>Created with Sketch.</desc>
    <defs></defs>
    <g id="Page-1" stroke="none" stroke-width="1" fill="none" fill-rule="evenodd" sketch:type="MSPage">
        <g id="shape-icons" sketch:type="MSLayerGroup" transform="translate(-207.000000, -504.000000)" fill="#F9934A">
            <g id="row-6-shape-icons" transform="translate(5.000000, 502.000000)" sketch:type="MSShapeGroup">
                <path d="M209.087318,7.06693789 L208.132574,10.8962073 C208.132574,10.8962073 212.013823,11.8639111 212.444909,11.9713931 C212.875996,12.0788752 212.821379,12.297932 212.78496,12.4439969 C212.748542,12.5900619 207.897171,32.0478484 207.83304,32.3050657 C207.768908,32.562283 207.730702,32.7155191 207.367991,32.6250855 C207.00528,32.5346519 203.245587,31.5972551 203.245587,31.5972551 L202.184603,35.8526304 L209.794768,37.7500577 L208.255443,43.9239549 L212.313855,44.9358307 L213.85318,38.7619335 L216.380133,39.3919721 L214.840807,45.5658702 L218.705559,46.5294615 L220.244884,40.3555643 C220.244884,40.3555643 221.219143,40.5984747 223.152854,41.0806026 C225.086565,41.5627306 232.423539,41.658566 234.02405,35.2392701 C235.62456,28.8199742 230.337588,26.1036926 230.337588,26.1036926 C230.337588,26.1036926 234.823127,24.7248017 235.500322,20.57983 C236.177517,16.4348583 233.226425,14.5172015 231.576309,13.4557543 C229.926193,12.394307 227.405906,11.634275 227.405906,11.634275 L229.014588,5.18220501 L225.298481,4.25567555 L223.6898,10.7077455 L220.716914,9.9665218 L222.325595,3.51445185 L218.564472,2.57669845 L216.95579,9.0287684 L209.087318,7.06693789 Z M219.730225,13.7897487 L217.783529,21.5975197 C217.783529,21.5975197 221.80004,22.5989478 222.833951,22.8567313 C223.867862,23.1145147 227.155731,23.2604543 227.970909,19.9909504 C228.786087,16.7214464 225.125987,15.1350631 224.337241,14.9384068 C223.548496,14.7417505 219.730225,13.7897487 219.730225,13.7897487 Z M216.833475,25.6686036 L214.789444,33.866763 C214.789444,33.866763 220.918596,35.3949323 221.703128,35.590538 C222.48766,35.7861437 225.930323,35.5560217 226.696834,32.4817121 C227.463345,29.4074024 225.370805,27.7971991 223.992325,27.4535055 C222.613845,27.1098119 216.833475,25.6686036 216.833475,25.6686036 Z" id="bitcoin_s"></path>
            </g>
        </g>
    </g>
</svg>