<?xml version="1.0" encoding="UTF-8" standalone="no"?>
<svg width="50px" height="49px" viewBox="0 0 50 49" version="1.1" xmlns="http://www.w3.org/2000/svg" xmlns:xlink="http://www.w3.org/1999/xlink" xmlns:sketch="http://www.bohemiancoding.com/sketch/ns">
    <!-- Generator: Sketch 3.1.1 (8761) - http://www.bohemiancoding.com/sketch -->
    <title>dianpin_s</title>
    <desc>Created with Sketch.</desc>
    <defs></defs>
    <g id="Page-1" stroke="none" stroke-width="1" fill="none" fill-rule="evenodd" sketch:type="MSPage">
        <g id="shape-icons" sketch:type="MSLayerGroup" transform="translate(-3.000000, -103.000000)" fill="#F9934A">
            <g id="row-2-shape-icons-" transform="translate(3.000000, 102.000000)" sketch:type="MSShapeGroup">
                <path d="M25.8694528,21.6232199 C36.4566437,20.6678978 46.5136885,27.4284403 49.3589822,38.0472213 L6.33137725,49.5764333 C3.48608347,38.9576523 8.81546842,28.0743284 18.4619058,23.6080661 C10.2826803,23.983828 2.65626446,18.6496836 0.450000473,10.4157943 L34.8720845,1.19242472 C37.0783484,9.426314 33.1407508,17.8590265 25.8694528,21.6232199 L25.8694528,21.6232199 Z M42.1877147,39.9687566 C40.0652453,32.0475928 31.9232728,27.3468228 24.0021091,29.4692923 C16.0809453,31.5917617 11.3801753,39.7337342 13.5026447,47.6548979 L42.1877147,39.9687566 Z M6.18701447,8.87856606 C7.88499001,15.2154971 14.398568,18.9761131 20.735499,17.2781375 C27.07243,15.580162 30.833046,9.06658398 29.1350705,2.72965298 L6.18701447,8.87856606 Z M20.5433455,16.5610108 C24.5039273,15.4997761 26.8543123,11.4287898 25.7930776,7.46820793 C24.7318429,3.50762606 20.6608567,1.15724106 16.7002748,2.21847577 C12.7396929,3.27971048 10.3893079,7.35069673 11.4505426,11.3112786 C12.5117774,15.2718605 16.5827636,17.6222455 20.5433455,16.5610108 Z" id="dianpin_s"></path>
            </g>
        </g>
    </g>
</svg>