<?xml version="1.0" encoding="UTF-8" standalone="no"?>
<svg width="38px" height="35px" viewBox="0 0 38 35" version="1.1" xmlns="http://www.w3.org/2000/svg" xmlns:xlink="http://www.w3.org/1999/xlink" xmlns:sketch="http://www.bohemiancoding.com/sketch/ns">
    <!-- Generator: Sketch 3.1.1 (8761) - http://www.bohemiancoding.com/sketch -->
    <title>douban_s</title>
    <desc>Created with Sketch.</desc>
    <defs></defs>
    <g id="Page-1" stroke="none" stroke-width="1" fill="none" fill-rule="evenodd" sketch:type="MSPage">
        <g id="shape-icons" sketch:type="MSLayerGroup" transform="translate(-508.000000, -109.000000)" fill="#58CC6A">
            <g id="row-2-shape-icons-" transform="translate(3.000000, 102.000000)" sketch:type="MSShapeGroup">
                <path d="M541.321214,10.5765625 L507.003305,10.5765625 L507.003305,7.04921875 L541.321214,7.04921875 L541.321214,10.5765625 Z M542.11223,41.7279297 L505.9689,41.7279297 L505.9689,38.1595703 L516.779447,38.1595703 C515.45432,35.2474464 514.054845,32.7318465 512.58098,30.6126953 L515.359675,28.8080078 L510.491887,28.8080078 L510.491887,14.7191406 L537.954327,14.7191406 L537.954327,28.8080078 L532.843149,28.8080078 L535.621845,30.6537109 C534.31024,33.5658349 532.944568,36.067763 531.52479,38.1595703 L542.11223,38.1595703 L542.11223,41.7279297 Z M534.100661,25.2601563 L534.100661,18.3490234 L514.32527,18.3490234 L514.32527,25.2601563 L534.100661,25.2601563 Z M532.173828,28.8080078 L516.069561,28.8080078 C517.800339,31.7201317 519.375594,34.8372881 520.795373,38.1595703 L527.366887,38.1595703 C529.381621,35.0013514 530.983918,31.8841951 532.173828,28.8080078 Z" id="douban_s"></path>
            </g>
        </g>
    </g>
</svg>