<?xml version="1.0" encoding="UTF-8" standalone="no"?>
<svg width="50px" height="51px" viewBox="0 0 50 51" version="1.1" xmlns="http://www.w3.org/2000/svg" xmlns:xlink="http://www.w3.org/1999/xlink" xmlns:sketch="http://www.bohemiancoding.com/sketch/ns">
    <!-- Generator: Sketch 3.1.1 (8761) - http://www.bohemiancoding.com/sketch -->
    <title>dribbble_S</title>
    <desc>Created with Sketch.</desc>
    <defs></defs>
    <g id="Page-1" stroke="none" stroke-width="1" fill="none" fill-rule="evenodd" sketch:type="MSPage">
        <g id="shape-icons" sketch:type="MSLayerGroup" transform="translate(-500.000000, -301.000000)" fill="#F46799">
            <g id="row-4-shape-icons" transform="translate(14.000000, 301.000000)" sketch:type="MSShapeGroup">
                <path d="M529.713822,9.83608124 C533.100386,14.1037037 535.150734,19.539307 535.20417,25.4582238 C534.402625,25.2833134 526.364324,23.6017523 518.27444,24.6512147 C518.103629,24.2217443 517.929421,23.7903624 517.75027,23.3567503 C517.24556,22.1339705 516.703166,20.9191557 516.137606,19.7244126 C525.12695,15.9388292 529.20139,10.5513341 529.713822,9.83608124 Z M510.893745,0.616487455 C517.071351,0.616487455 522.717375,3.00692951 527.01112,6.93620072 C526.573745,7.57849462 522.913514,12.6528076 514.268263,15.995221 C510.284015,8.44476304 505.868263,2.24197531 505.196139,1.31389885 C507.024402,0.859259259 508.932046,0.616487455 510.893745,0.616487455 Z M500.556757,2.99960175 C501.197683,3.90633214 505.542394,10.1164476 509.57112,17.5031462 C498.198147,20.6187176 488.181158,20.5737953 487.093591,20.5588212 C488.670116,12.7767423 493.754595,6.30888092 500.556757,2.99960175 Z M486.579923,25.6952609 C486.579923,25.4387893 486.584865,25.1835922 486.592278,24.9290323 C487.656371,24.9513341 499.438301,25.1080844 511.580386,21.3600956 C512.276602,22.7651135 512.941313,24.1911589 513.55166,25.6159299 C513.230116,25.7092792 512.910116,25.8086818 512.593514,25.9144564 C500.0539,30.0951016 493.381158,41.4910394 492.830425,42.463401 C488.947181,38.0173636 486.579923,32.13636 486.579923,25.6952609 Z M510.893745,50.7737157 C505.272741,50.7737157 500.092201,48.7955396 495.969884,45.4798885 C496.407259,44.5569096 501.330193,34.7475906 515.043861,29.8185583 C515.097297,29.7994425 515.150734,29.7812824 515.20417,29.7628037 C518.617606,38.9123059 520.029189,46.5803266 520.390888,48.7805655 C517.47166,50.0632417 514.261467,50.7737157 510.893745,50.7737157 Z M524.47861,46.4847471 C524.229344,44.9589805 522.935135,37.6178415 519.755212,28.6040621 C527.374363,27.345918 534.068108,29.4053365 534.899923,29.6758264 C533.816062,36.654082 529.933127,42.680685 524.47861,46.4847471 Z" id="dribbble_S"></path>
            </g>
        </g>
    </g>
</svg>