<?xml version="1.0" encoding="UTF-8" standalone="no"?>
<svg width="51px" height="47px" viewBox="0 0 51 47" version="1.1" xmlns="http://www.w3.org/2000/svg" xmlns:xlink="http://www.w3.org/1999/xlink" xmlns:sketch="http://www.bohemiancoding.com/sketch/ns">
    <!-- Generator: Sketch 3.1.1 (8761) - http://www.bohemiancoding.com/sketch -->
    <title>dropbox_s</title>
    <desc>Created with Sketch.</desc>
    <defs></defs>
    <g id="Page-1" stroke="none" stroke-width="1" fill="none" fill-rule="evenodd" sketch:type="MSPage">
        <g id="shape-icons" sketch:type="MSLayerGroup" transform="translate(-500.000000, -204.000000)" fill="#60ACEC">
            <g id="row-3-shape-icons" transform="translate(0.000000, 201.000000)" sketch:type="MSShapeGroup">
                <path d="M533.458862,3.60660542 L550.501184,12.7406187 L542.753246,19.5285843 L525.816776,10.3945709 L533.458862,3.60660542 Z M542.435687,20.2807971 L550.374657,27.4805488 L533.54404,36.0772672 L525.816776,29.0924335 L542.435687,20.2807971 Z M508.351042,20.1733381 L524.969953,29.0924335 L517.136835,36.1847262 L500.412071,27.3730898 L508.351042,20.1733381 Z M517.242688,3.51719619 L524.969953,10.5020299 L508.351042,19.5285843 L500.517924,12.6512095 L517.242688,3.51719619 Z M508.774453,33.8206287 L508.774453,40.8591919 L524.440688,49.1872629 L524.440688,32.5311209 L517.560247,38.7637417 L508.774453,33.8206287 Z M526.240188,32.5311209 L526.240188,48.9723449 L541.906422,39.9457905 L541.906422,34.1952486 L533.226482,38.763742 L526.240188,32.5311209 Z" id="dropbox_s"></path>
            </g>
        </g>
    </g>
</svg>