<?xml version="1.0" encoding="UTF-8" standalone="no"?>
<svg width="41px" height="50px" viewBox="0 0 41 50" version="1.1" xmlns="http://www.w3.org/2000/svg" xmlns:xlink="http://www.w3.org/1999/xlink" xmlns:sketch="http://www.bohemiancoding.com/sketch/ns">
    <!-- Generator: Sketch 3.1.1 (8761) - http://www.bohemiancoding.com/sketch -->
    <title>evernote_s</title>
    <desc>Created with Sketch.</desc>
    <defs></defs>
    <g id="Page-1" stroke="none" stroke-width="1" fill="none" fill-rule="evenodd" sketch:type="MSPage">
        <g id="shape-icons" sketch:type="MSLayerGroup" transform="translate(-305.000000, -201.000000)" fill="#89C642">
            <g id="row-3-shape-icons" transform="translate(0.000000, 201.000000)" sketch:type="MSShapeGroup">
                <path d="M329.095892,4.52685901 C329.095892,4.52685901 340.61401,3.93944578 343.265752,6.71356582 C345.050105,8.58026676 344.525295,9.70028733 344.735219,12.8470118 C344.945143,15.9937362 345.732357,23.5672086 345.312509,29.7006545 C344.776783,37.5269508 342.898385,45.2209395 340.746666,47.5143149 C338.594946,49.8076904 329.794585,50.1379092 326.944172,48.3676639 C324.801192,47.0367691 324.897415,40.3141828 326.471844,38.3408132 C328.137006,36.2537198 332.82204,37.0607897 332.82204,37.0607897 L332.559635,40.2608484 C332.559635,40.2608484 330.460397,39.9408426 329.620701,40.7408573 C328.781006,41.540872 329.214214,43.8374561 329.988068,44.2609219 C330.761922,44.6843877 335.183683,44.9542679 336.863074,43.940916 C338.542465,42.927564 337.550103,37.5161022 337.072998,35.9941034 C336.595894,34.4721047 334.396469,34.0207339 334.396469,34.0207339 C334.396469,34.0207339 329.979328,33.9362915 327.836349,32.847379 C325.693369,31.7584666 325.527186,26.6072644 325.527186,26.6072644 C325.527186,26.6072644 325.369743,34.7140799 323.113062,35.3540917 C320.876194,35.9884844 309.887859,33.4340564 308.995683,32.2607016 C307.440639,30.2155701 305.269534,18.340446 305.269534,15.1937215 C305.269534,12.0469971 307.287375,11.8623032 308.418392,11.6203226 C309.549409,11.378342 314.506184,11.7803255 315.345879,11.0336451 C316.185575,10.2869648 315.411721,4.12957148 316.185575,2.98016394 C316.959428,1.83075633 317.682578,0.44684066 323.113062,0.686788503 C328.543546,0.926735647 329.095892,4.52685901 329.095892,4.52685901 Z M314.086336,6.28689132 C314.169244,4.33495686 314.29626,2.39348651 314.29626,2.39348651 L306.634039,10.2869648 C306.634039,10.2869648 309.133751,9.96441513 310.727554,9.86029027 C312.321358,9.7561654 313.981374,9.80695595 313.981374,9.80695595 C313.981374,9.80695595 314.003428,8.23882579 314.086336,6.28689132 Z M335.515021,23.5677083 C337.180646,23.6979167 338.461896,24.3489583 338.461896,24.3489583 C338.461896,24.3489583 338.504604,23.6707299 338.504604,23.6111111 C338.504604,22.0769867 337.238141,20.8333333 335.728562,20.8333333 C334.218984,20.8333333 332.973875,22.0769867 332.973875,23.6111111 C332.973875,23.6360523 333.849396,23.4375 335.515021,23.5677083 Z" id="evernote_s"></path>
            </g>
        </g>
    </g>
</svg>