<?xml version="1.0" encoding="UTF-8" standalone="no"?>
<svg width="25px" height="52px" viewBox="0 0 25 52" version="1.1" xmlns="http://www.w3.org/2000/svg" xmlns:xlink="http://www.w3.org/1999/xlink" xmlns:sketch="http://www.bohemiancoding.com/sketch/ns">
    <!-- Generator: Sketch 3.1.1 (8761) - http://www.bohemiancoding.com/sketch -->
    <title>facebook_s</title>
    <desc>Created with Sketch.</desc>
    <defs></defs>
    <g id="Page-1" stroke="none" stroke-width="1" fill="none" fill-rule="evenodd" sketch:type="MSPage">
        <g id="shape-icons" sketch:type="MSLayerGroup" transform="translate(-13.000000, -301.000000)" fill="#667EB9">
            <g id="row-4-shape-icons" transform="translate(14.000000, 301.000000)" sketch:type="MSShapeGroup">
                <path d="M15.3456,0.786727273 C13.7356,0.786727273 12.19,0.981454545 10.3868,1.69545455 C6.716,3.18836364 4.8484,6.69345455 4.8484,12.1458182 L4.8484,17.4683636 L-0.3036,17.4683636 L-0.3036,26.3609091 L4.8484,26.3609091 L4.8484,52 L15.3456,52 L15.3456,26.3609091 L22.494,26.3609091 L23.46,17.4683636 L15.3456,17.4683636 L15.3456,13.444 C15.3456,12.2107273 15.4744,11.302 15.7964,10.7827273 C16.2472,10.0038182 17.1488,9.61436364 18.5656,9.61436364 L23.3312,9.61436364 L23.3312,0.786727273 L15.3456,0.786727273 Z" id="facebook_s"></path>
            </g>
        </g>
    </g>
</svg>