<?xml version="1.0" encoding="UTF-8" standalone="no"?>
<svg width="50px" height="42px" viewBox="0 0 50 42" version="1.1" xmlns="http://www.w3.org/2000/svg" xmlns:xlink="http://www.w3.org/1999/xlink" xmlns:sketch="http://www.bohemiancoding.com/sketch/ns">
    <!-- Generator: Sketch 3.1.1 (8761) - http://www.bohemiancoding.com/sketch -->
    <title>google-plus_s</title>
    <desc>Created with Sketch.</desc>
    <defs></defs>
    <g id="Page-1" stroke="none" stroke-width="1" fill="none" fill-rule="evenodd" sketch:type="MSPage">
        <g id="shape-icons" sketch:type="MSLayerGroup" transform="translate(-304.000000, -305.000000)" fill="#F35E46">
            <g id="row-4-shape-icons" transform="translate(14.000000, 301.000000)" sketch:type="MSShapeGroup">
                <path d="M309.442217,9.17924694 C309.741322,9.41315194 310.090271,9.72223606 310.489077,10.1065086 C310.887882,10.4907811 311.270065,10.958584 311.635637,11.5099315 C312.001209,12.061279 312.316925,12.7045081 312.582796,13.4396381 C312.848666,14.1747681 312.981599,15.0101306 312.981599,15.9457506 C312.981599,16.8813706 312.865283,17.7000258 312.632646,18.4017408 C312.400009,19.1034558 312.084293,19.7299777 311.685488,20.2813252 C311.286682,20.8326727 310.838032,21.3338902 310.339525,21.7849927 C309.841018,22.2360952 309.325902,22.66213 308.794162,23.06311 C308.461824,23.39726 308.146107,23.7481123 307.847003,24.1156773 C307.547899,24.4832423 307.398349,24.9510452 307.398349,25.5191002 C307.398349,26.0871552 307.547899,26.5298974 307.847003,26.8473399 C308.146107,27.1647824 308.42859,27.440452 308.694461,27.674357 L310.489077,29.07778 C311.020818,29.54559 311.544242,30.0133929 312.059366,30.4812029 C312.57449,30.9490129 313.023139,31.4502304 313.405328,31.9848704 C313.787517,32.5195104 314.094925,33.1209714 314.327561,33.7892714 C314.560198,34.4575714 314.676514,35.2261049 314.676514,36.0948949 C314.676514,37.2644199 314.394031,38.4172201 313.829057,39.5533301 C313.264082,40.6894401 312.43325,41.7002287 311.336534,42.5857262 C310.239819,43.4712237 308.868945,44.1896354 307.223872,44.7409829 C305.578799,45.2923304 303.69281,45.568 301.565846,45.568 C299.771221,45.568 298.200948,45.367513 296.854979,44.966533 C295.50901,44.565553 294.387386,44.030921 293.490074,43.362621 C292.592761,42.694321 291.928095,41.9341412 291.496056,41.0820587 C291.064016,40.2299762 290.848,39.3361383 290.848,38.4005183 C290.848,37.4983133 291.122175,36.4708175 291.670532,35.318 C292.21889,34.1651825 293.224197,33.1543939 294.686485,32.2856039 C295.450862,31.8177939 296.273386,31.4418808 297.154082,31.1578533 C298.034777,30.8738258 298.907152,30.6482779 299.77123,30.4812029 C300.635309,30.3141279 301.449525,30.1971772 302.213902,30.1303472 C302.97828,30.0635172 303.642946,30.0133954 304.20792,29.9799804 C303.842348,29.5121704 303.501707,29.0193066 303.185986,28.5013741 C302.870265,27.9834416 302.712407,27.3402125 302.712407,26.5716675 C302.712407,26.1372725 302.762257,25.7780666 302.861958,25.4940391 C302.96166,25.2100116 303.077976,24.9176348 303.210911,24.6168998 C302.945041,24.6503148 302.679174,24.6753756 302.413304,24.6920831 C302.147434,24.7087906 301.881567,24.7171443 301.615697,24.7171443 C300.286345,24.7171443 299.106563,24.4915964 298.076315,24.0404939 C297.046067,23.5893914 296.182001,22.996284 295.484092,22.261154 C294.786182,21.526024 294.254449,20.6823079 293.888877,19.7299804 C293.523306,18.7776529 293.340522,17.8169861 293.340522,16.8479511 C293.340522,15.6784261 293.606389,14.500565 294.13813,13.3143325 C294.66987,12.1281 295.46747,11.0671897 296.530951,10.1315697 C297.960004,8.96204468 299.463811,8.21021846 301.042417,7.87606846 C302.621022,7.54191846 304.091596,7.37484597 305.454181,7.37484597 L315.723374,7.37484597 L312.532945,9.17924694 L309.442217,9.17924694 Z M303.958668,23.3137213 C304.59011,23.3137213 305.213235,23.1800633 305.82806,22.9127433 C306.442885,22.6454233 306.949693,22.3112783 307.348499,21.9102983 C307.913473,21.3422433 308.262423,20.7073678 308.395358,20.0056528 C308.528293,19.3039378 308.59476,18.7191841 308.59476,18.2513741 C308.59476,17.3491691 308.461827,16.3634414 308.195956,15.2941614 C307.930086,14.2248814 307.531286,13.2224464 306.999545,12.2868264 C306.467805,11.3512064 305.811447,10.5743193 305.030453,9.95614181 C304.249458,9.33796431 303.343851,9.0288802 302.313603,9.0288802 C301.648927,9.0288802 301.000878,9.17924544 300.369436,9.47998044 C299.737994,9.78071544 299.222877,10.1816894 298.824072,10.6829144 C298.392032,11.2175544 298.101241,11.8023082 297.951689,12.4371932 C297.802137,13.0720782 297.727362,13.7236609 297.727362,14.3919609 C297.727362,15.2273359 297.851987,16.1629418 298.10124,17.1988068 C298.350494,18.2346718 298.732677,19.2036923 299.247801,20.1058973 C299.762924,21.0081023 300.410974,21.7682822 301.191968,22.3864597 C301.972962,23.0046372 302.895186,23.3137213 303.958668,23.3137213 Z M311.336534,38.0496626 C311.336534,37.4147776 311.228526,36.8383775 311.012506,36.320445 C310.796487,35.8025125 310.472462,35.2929414 310.040423,34.7917164 C309.608383,34.2904914 309.043417,33.7725667 308.345507,33.2379267 C307.647598,32.7032867 306.833382,32.1018257 305.902835,31.4335257 C305.703433,31.4001107 305.528958,31.3834034 305.379406,31.3834034 L304.756275,31.3834034 C304.656574,31.3834034 304.423941,31.391757 304.058369,31.4084645 C303.692797,31.425172 303.260764,31.4585865 302.762257,31.508709 C302.26375,31.5588315 301.732017,31.6423678 301.167043,31.7593203 C300.602068,31.8762728 300.053719,32.0182844 299.521978,32.1853594 C299.256108,32.2856044 298.882233,32.4443233 298.400343,32.6615208 C297.918453,32.8787183 297.444878,33.1878024 296.979605,33.5887824 C296.514332,33.9897624 296.107224,34.4909799 295.758269,35.0924499 C295.409314,35.6939199 295.234839,36.4457461 295.234839,37.3479511 C295.234839,39.1523611 296.02413,40.622599 297.602736,41.758709 C299.181341,42.894819 301.316581,43.4628655 304.008518,43.4628655 C306.401352,43.4628655 308.220875,42.9532944 309.467143,41.9341369 C310.71341,40.9149794 311.336534,39.6201676 311.336534,38.0496626 Z M339.302636,16.9481956 L329.880901,16.9481956 L329.880901,26.471423 L326.889874,26.471423 L326.889874,16.9481956 L317.418289,16.9481956 L317.418289,13.9408606 L326.889874,13.9408606 L326.889874,4.568 L329.880901,4.568 L329.880901,13.9408606 L339.302636,13.9408606 L339.302636,16.9481956 Z" id="google-plus_s"></path>
            </g>
        </g>
    </g>
</svg>