<?xml version="1.0" encoding="UTF-8" standalone="no"?>
<svg width="27px" height="49px" viewBox="0 0 27 49" version="1.1" xmlns="http://www.w3.org/2000/svg" xmlns:xlink="http://www.w3.org/1999/xlink" xmlns:sketch="http://www.bohemiancoding.com/sketch/ns">
    <!-- Generator: Sketch 3.1.1 (8761) - http://www.bohemiancoding.com/sketch -->
    <title>instapaper_s</title>
    <desc>Created with Sketch.</desc>
    <defs></defs>
    <g id="Page-1" stroke="none" stroke-width="1" fill="none" fill-rule="evenodd" sketch:type="MSPage">
        <g id="shape-icons" sketch:type="MSLayerGroup" transform="translate(-412.000000, -502.000000)" fill="#708B97">
            <g id="row-6-shape-icons" transform="translate(5.000000, 502.000000)" sketch:type="MSShapeGroup">
                <path d="M433.757568,48.6000977 L407.242432,48.6000977 L407.242432,45.972168 C407.84888,45.9272459 408.741693,45.8598637 409.920898,45.7700195 C411.100104,45.6801753 411.914304,45.5454111 412.363525,45.3657227 C413.194584,45.0288069 413.761717,44.5852078 414.064941,44.0349121 C414.368166,43.4846164 414.519775,42.7827191 414.519775,41.9291992 L414.519775,8.03564453 C414.519775,7.27196884 414.373781,6.59814745 414.081787,6.01416016 C413.789793,5.43017286 413.217045,4.95849789 412.363525,4.59912109 C411.82446,4.3745106 411.027105,4.14428829 409.971436,3.90844727 C408.915766,3.67260624 408.006107,3.50976607 407.242432,3.41992188 L407.242432,0.791992188 L433.757568,0.791992188 L433.757568,3.41992188 C433.083737,3.48730502 432.24146,3.58276305 431.230713,3.70629883 C430.219966,3.8298346 429.366459,4.00390513 428.670166,4.22851562 C427.794185,4.52050927 427.210207,4.97533871 426.918213,5.59301758 C426.626219,6.21069645 426.480225,6.91259373 426.480225,7.69873047 L426.480225,41.5585938 C426.480225,42.3671915 426.631834,43.0578585 426.935059,43.6306152 C427.238283,44.203372 427.816646,44.6694318 428.670166,45.0288086 C429.141848,45.230958 429.922358,45.4274893 431.011719,45.6184082 C432.10108,45.8093271 433.016354,45.9272459 433.757568,45.972168 L433.757568,48.6000977 Z" id="instapaper_s"></path>
            </g>
        </g>
    </g>
</svg>