<?xml version="1.0" encoding="UTF-8" standalone="no"?>
<svg width="42px" height="42px" viewBox="0 0 42 42" version="1.1" xmlns="http://www.w3.org/2000/svg" xmlns:xlink="http://www.w3.org/1999/xlink" xmlns:sketch="http://www.bohemiancoding.com/sketch/ns">
    <!-- Generator: Sketch 3.1.1 (8761) - http://www.bohemiancoding.com/sketch -->
    <title>instagram_s</title>
    <desc>Created with Sketch.</desc>
    <defs></defs>
    <g id="Page-1" stroke="none" stroke-width="1" fill="none" fill-rule="evenodd" sketch:type="MSPage">
        <g id="shape-icons" sketch:type="MSLayerGroup" transform="translate(-204.000000, -205.000000)" fill="#D7C5B0">
            <g id="row-3-shape-icons" transform="translate(0.000000, 201.000000)" sketch:type="MSShapeGroup">
                <path d="M236.290273,19.4 L246,19.4 L246,39.9972738 C246,43.3153947 243.315831,46 240.004742,46 L209.995258,46 C206.69118,46 204,43.3124879 204,39.9972738 L204,19.4 L213.709727,19.4 C212.871388,21.0869425 212.4,22.9884219 212.4,25 C212.4,31.9587882 218.041212,37.6 225,37.6 C231.958788,37.6 237.6,31.9587882 237.6,25 C237.6,22.9884219 237.128612,21.0869425 236.290273,19.4 L236.290273,19.4 Z M215.608352,16.6 L204,16.6 L204,8.00403121 C204,5.79189164 205.794492,4 208.008111,4 L241.991889,4 C244.208748,4 246,5.79266583 246,8.00403121 L246,16.6 L234.391648,16.6 C232.084501,14.0222526 228.731699,12.4 225,12.4 C221.268301,12.4 217.915499,14.0222526 215.608352,16.6 L215.608352,16.6 Z M213.8,4 L213.8,12.4 L215.2,12.4 L215.2,4 L213.8,4 Z M211,4 L211,12.4 L212.4,12.4 L212.4,4 L211,4 Z M208.2,4 L208.2,12.4 L209.6,12.4 L209.6,4 L208.2,4 Z M235.802929,6.8 C235.249027,6.8 234.8,7.23788135 234.8,7.80292933 L234.8,12.7970707 C234.8,13.3509732 235.237881,13.8 235.802929,13.8 L240.797071,13.8 C241.350973,13.8 241.8,13.3621186 241.8,12.7970707 L241.8,7.80292933 C241.8,7.24902676 241.362119,6.8 240.797071,6.8 L235.802929,6.8 Z M225,34.8 C230.412391,34.8 234.8,30.4123908 234.8,25 C234.8,19.5876092 230.412391,15.2 225,15.2 C219.587609,15.2 215.2,19.5876092 215.2,25 C215.2,30.4123908 219.587609,34.8 225,34.8 Z" id="instagram_s"></path>
            </g>
        </g>
    </g>
</svg>