<?xml version="1.0" encoding="UTF-8" standalone="no"?>
<svg width="50px" height="48px" viewBox="0 0 50 48" version="1.1" xmlns="http://www.w3.org/2000/svg" xmlns:xlink="http://www.w3.org/1999/xlink" xmlns:sketch="http://www.bohemiancoding.com/sketch/ns">
    <!-- Generator: Sketch 3.1.1 (8761) - http://www.bohemiancoding.com/sketch -->
    <title>line_s</title>
    <desc>Created with Sketch.</desc>
    <defs></defs>
    <g id="Page-1" stroke="none" stroke-width="1" fill="none" fill-rule="evenodd" sketch:type="MSPage">
        <g id="shape-icons" sketch:type="MSLayerGroup" transform="translate(0.000000, -404.000000)" fill="#6FE344">
            <g id="row-5-shape-icons" transform="translate(0.000000, 402.000000)" sketch:type="MSShapeGroup">
                <path d="M22.9960767,42.668856 C22.996431,42.6688789 23.4383374,43.7268941 23.1146812,45.7951416 C22.945554,46.8759086 21.9908021,47.8834294 22.0892906,48.6347249 C22.182986,49.3494568 23.1405482,49.945708 23.6373052,49.7118172 C34.7604209,44.4746604 43.5591578,36.0205905 43.9379737,35.6628198 C47.715679,32.0949855 50,27.4481515 50,22.3666667 C50,11.1184667 38.8071194,2 25,2 C11.1928806,2 0,11.1184667 0,22.3666667 C0,33.0653352 10.1259383,41.8372837 22.9960767,42.668856 Z M11.2533569,18.1611905 L11.2533569,26.3234627 L15.8462524,26.3234627 C16.2124652,26.3234627 16.4934784,26.4127088 16.6893005,26.5912036 C16.8851226,26.7696984 16.9830322,26.9940885 16.9830322,27.2643807 C16.9830322,27.5397727 16.8863942,27.7628878 16.6931152,27.9337329 C16.4998363,28.1045779 16.2175515,28.1899991 15.8462524,28.1899991 L10.3759766,28.1899991 C9.88260658,28.1899991 9.52784328,28.080354 9.31167603,27.8610603 C9.09550877,27.6417667 8.98742676,27.2873323 8.98742676,26.7977465 L8.98742676,18.1611905 C8.98742676,17.7022039 9.09042255,17.357969 9.29641724,17.1284757 C9.50241192,16.8989824 9.77325272,16.7842374 10.1089478,16.7842374 C10.4497291,16.7842374 10.7256561,16.8977074 10.9367371,17.1246508 C11.147818,17.3515942 11.2533569,17.697104 11.2533569,18.1611905 Z M17.6630496,26.9966398 L17.6630496,18.1611905 C17.6630496,17.7022039 17.7673169,17.357969 17.9758547,17.1284757 C18.1843926,16.8989824 18.4539618,16.7842374 18.7845706,16.7842374 C19.1253519,16.7842374 19.4012789,16.8977074 19.6123599,17.1246508 C19.8234408,17.3515942 19.9289797,17.697104 19.9289797,18.1611905 L19.9289797,26.9966398 C19.9289797,27.4607263 19.8234408,27.807511 19.6123599,28.0370043 C19.4012789,28.2664977 19.1253519,28.3812426 18.7845706,28.3812426 C18.4590481,28.3812426 18.1907504,28.2652227 17.9796694,28.0331795 C17.7685885,27.8011362 17.6630496,27.4556264 17.6630496,26.9966398 Z M24.9873164,18.1458911 L29.3437007,24.7552661 L29.3437007,18.0846932 C29.3437007,17.6512057 29.4365241,17.3260951 29.6221736,17.1093514 C29.8078231,16.8926076 30.0583191,16.7842374 30.3736689,16.7842374 C30.6991914,16.7842374 30.9560451,16.8926076 31.1442378,17.1093514 C31.3324305,17.3260951 31.4265254,17.6512057 31.4265254,18.0846932 L31.4265254,26.9048429 C31.4265254,27.8891143 31.0196284,28.3812426 30.2058223,28.3812426 C30.0023707,28.3812426 29.8192671,28.3519189 29.6565059,28.2932706 C29.4937446,28.2346223 29.3411583,28.1415514 29.1987422,28.0140551 C29.0563261,27.8865588 28.9240846,27.7373904 28.8020137,27.5665454 C28.6799427,27.3957003 28.5578737,27.221033 28.4358027,27.0425382 L24.18623,20.5096606 L24.18623,27.0807869 C24.18623,27.5091745 24.0870488,27.8330102 23.8886836,28.0523038 C23.6903183,28.2715975 23.4360077,28.3812426 23.1257441,28.3812426 C22.805308,28.3812426 22.5484542,28.2703225 22.3551753,28.048479 C22.1618963,27.8266354 22.0652583,27.5040746 22.0652583,27.0807869 L22.0652583,18.4289314 C22.0652583,18.0617421 22.105948,17.7736048 22.1873286,17.5645109 C22.2839681,17.3350175 22.4441838,17.1476008 22.6679805,17.002255 C22.8917772,16.8569092 23.1333722,16.7842374 23.3927729,16.7842374 C23.5962245,16.7842374 23.7704272,16.817386 23.9153865,16.883684 C24.0603457,16.9499821 24.187501,17.0392282 24.2968562,17.1514249 C24.4062114,17.2636217 24.5181081,17.4089653 24.6325496,17.5874601 C24.746991,17.7659549 24.8652455,17.9520967 24.9873164,18.1458911 Z M35.8287341,18.7272713 L35.8287341,21.4811775 L40.5284411,21.4811775 C40.8743088,21.4811775 41.132434,21.5589491 41.3028247,21.7144946 C41.4732154,21.8700401 41.5584094,22.075306 41.5584094,22.3302986 C41.5584094,22.5852912 41.4744869,22.7931071 41.3066394,22.9537524 C41.1387919,23.1143977 40.8793951,23.1947192 40.5284411,23.1947192 L35.8287341,23.1947192 L35.8287341,26.3846606 L41.1082751,26.3846606 C41.4643153,26.3846606 41.732613,26.4675319 41.9131763,26.6332771 C42.0937395,26.7990223 42.1840198,27.0195876 42.1840198,27.2949796 C42.1840198,27.5601719 42.0937395,27.7756374 41.9131763,27.9413826 C41.732613,28.1071278 41.4643153,28.1899991 41.1082751,28.1899991 L34.9513537,28.1899991 C34.4579838,28.1899991 34.1032205,28.080354 33.8870532,27.8610603 C33.670886,27.6417667 33.5628039,27.2873323 33.5628039,26.7977465 L33.5628039,18.3677335 C33.5628039,18.041343 33.611123,17.7748797 33.7077624,17.5683357 C33.8044019,17.3617917 33.9557167,17.2113484 34.1617114,17.1170011 C34.3677061,17.0226538 34.6309176,16.9754809 34.9513537,16.9754809 L40.9327991,16.9754809 C41.2939255,16.9754809 41.5622232,17.0558024 41.7377002,17.2164477 C41.9131771,17.377093 42.0009143,17.5874588 42.0009143,17.8475512 C42.0009143,18.1127435 41.9131771,18.3256591 41.7377002,18.4863045 C41.5622232,18.6469498 41.2939255,18.7272713 40.9327991,18.7272713 L35.8287341,18.7272713 Z" id="line_s"></path>
            </g>
        </g>
    </g>
</svg>