<?xml version="1.0" encoding="UTF-8" standalone="no"?>
<svg width="42px" height="41px" viewBox="0 0 42 41" version="1.1" xmlns="http://www.w3.org/2000/svg" xmlns:xlink="http://www.w3.org/1999/xlink" xmlns:sketch="http://www.bohemiancoding.com/sketch/ns">
    <!-- Generator: Sketch 3.1.1 (8761) - http://www.bohemiancoding.com/sketch -->
    <title>linkedin_s</title>
    <desc>Created with Sketch.</desc>
    <defs></defs>
    <g id="Page-1" stroke="none" stroke-width="1" fill="none" fill-rule="evenodd" sketch:type="MSPage">
        <g id="shape-icons" sketch:type="MSLayerGroup" transform="translate(-104.000000, -203.000000)" fill="#38A6D7">
            <g id="row-3-shape-icons" transform="translate(0.000000, 201.000000)" sketch:type="MSShapeGroup">
                <path d="M112.785056,43 L112.785056,14.4401709 L104.293129,14.4401709 L104.293129,43 L112.785056,43 Z M108.539093,2 C105.801564,2 104.013789,3.92735043 104.069657,6.497151 C104.013789,8.95014245 105.801564,10.9358974 108.483225,10.9358974 C111.276622,10.9358974 113.064396,8.95014245 113.064396,6.497151 C113.008528,3.92735043 111.276622,2 108.539093,2 L108.539093,2 Z M119.600946,43 L128.092873,43 L128.092873,26.5299145 C128.092873,25.7122507 128.204609,24.8361823 128.428081,24.3105413 C128.98676,22.6752137 130.383459,20.9814815 132.729912,20.9814815 C135.802649,20.9814815 137.031744,23.4928775 137.031744,27.1723647 L137.031744,43 L145.523671,43 L145.523671,26.0626781 C145.523671,17.6524217 141.333575,13.7977208 135.746781,13.7977208 C131.221478,13.7977208 128.428081,16.542735 127.310722,18.3532764 L127.143118,18.3532764 L126.752042,14.4401709 L119.377474,14.4401709 C119.48921,16.951567 119.600946,19.988604 119.600946,23.5512821 L119.600946,43 Z" id="linkedin_s"></path>
            </g>
        </g>
    </g>
</svg>