<?xml version="1.0" encoding="UTF-8" standalone="no"?>
<svg width="50px" height="52px" viewBox="0 0 50 52" version="1.1" xmlns="http://www.w3.org/2000/svg" xmlns:xlink="http://www.w3.org/1999/xlink" xmlns:sketch="http://www.bohemiancoding.com/sketch/ns">
    <!-- Generator: Sketch 3.1.1 (8761) - http://www.bohemiancoding.com/sketch -->
    <title>path_s</title>
    <desc>Created with Sketch.</desc>
    <defs></defs>
    <g id="Page-1" stroke="none" stroke-width="1" fill="none" fill-rule="evenodd" sketch:type="MSPage">
        <g id="shape-icons" sketch:type="MSLayerGroup" transform="translate(-100.000000, -401.000000)" fill="#FA6980">
            <g id="row-5-shape-icons" transform="translate(0.000000, 402.000000)" sketch:type="MSShapeGroup">
                <path d="M149.173538,19.8111111 C149.173538,16.292575 148.448623,13.2432228 146.998769,10.662963 C145.548916,8.08270315 143.654781,5.94815659 141.316308,4.25925926 C138.977834,2.57036193 136.300323,1.3154362 133.283692,0.494444444 C130.267062,-0.326547315 127.192016,-0.737037037 124.058462,-0.737037037 C120.971677,-0.737037037 118.00186,-0.267905926 115.148923,0.67037037 C112.295986,1.60864667 109.793857,2.96912689 107.642462,4.75185185 C105.491066,6.53457681 103.772314,8.72776476 102.486154,11.3314815 C101.199994,13.9351982 100.556923,16.9024525 100.556923,20.2333333 C100.556923,21.5000063 100.615384,22.6728341 100.732308,23.7518519 C100.849231,24.8308696 101.071383,25.8395015 101.398769,26.7777778 C101.726155,27.7160541 102.170459,28.6308597 102.731692,29.5222222 C103.292926,30.4135847 104.017842,31.3518469 104.906462,32.337037 L111.290462,26.8481481 C110.355072,25.9098719 109.723694,24.90124 109.396308,23.8222222 C109.068921,22.7432045 108.905231,21.5469201 108.905231,20.2333333 C108.905231,18.1222117 109.349534,16.2691438 110.238154,14.6740741 C111.126774,13.0790044 112.307685,11.7302524 113.780923,10.6277778 C115.254161,9.52530313 116.90276,8.70432369 118.726769,8.16481481 C120.550778,7.62530594 122.421529,7.35555556 124.339077,7.35555556 C126.350164,7.35555556 128.326144,7.59012111 130.267077,8.05925926 C132.20801,8.52839741 133.926762,9.27900719 135.423385,10.3111111 C136.920007,11.343215 138.124303,12.6685104 139.036308,14.287037 C139.948312,15.9055636 140.404308,17.864186 140.404308,20.162963 C140.404308,21.664205 140.135387,23.012957 139.597538,24.2092593 C139.05969,25.4055615 138.311389,26.4259217 137.352615,27.2703704 C136.393841,28.114819 135.294775,28.7598743 134.055385,29.2055556 C132.815994,29.6512368 131.494776,29.8740741 130.091692,29.8740741 C128.501531,29.8740741 127.00493,29.6395085 125.601846,29.1703704 L125.601846,13.6888889 L116.832615,13.6888889 L116.832615,40.0074074 C116.832615,41.7901324 115.944009,42.6814815 114.166769,42.6814815 C113.371688,42.6814815 112.623388,42.5055573 111.921846,42.1537037 C111.220304,41.8018501 110.61231,41.3444473 110.097846,40.7814815 L110.097846,48.3814815 C110.378463,48.8037058 110.775997,49.1555541 111.290462,49.437037 C111.804926,49.7185199 112.377843,49.9530855 113.009231,50.1407407 C113.640619,50.328396 114.260305,50.4574071 114.868308,50.5277778 C115.476311,50.5981485 116.014152,50.6333333 116.481846,50.6333333 C119.708939,50.6333333 122.035685,49.7537125 123.462154,47.9944444 C124.888623,46.2351764 125.601846,43.8074229 125.601846,40.7111111 L125.601846,35.9259259 C126.677544,36.4419779 127.811686,36.7586414 129.004308,36.8759259 C130.196929,36.9932105 131.37784,37.0518519 132.547077,37.0518519 C133.622775,37.0518519 134.698456,36.8993842 135.774154,36.5944444 C136.849852,36.2895046 137.85538,35.9024715 138.790769,35.4333333 C141.924323,33.9320913 144.438144,31.8327295 146.332308,29.1351852 C148.226471,26.4376408 149.173538,23.3296472 149.173538,19.8111111 L149.173538,19.8111111 Z" id="path_s"></path>
            </g>
        </g>
    </g>
</svg>