<?xml version="1.0" encoding="UTF-8" standalone="no"?>
<svg width="38px" height="48px" viewBox="0 0 38 48" version="1.1" xmlns="http://www.w3.org/2000/svg" xmlns:xlink="http://www.w3.org/1999/xlink" xmlns:sketch="http://www.bohemiancoding.com/sketch/ns">
    <!-- Generator: Sketch 3.1.1 (8761) - http://www.bohemiancoding.com/sketch -->
    <title>pinterest_s</title>
    <desc>Created with Sketch.</desc>
    <defs></defs>
    <g id="Page-1" stroke="none" stroke-width="1" fill="none" fill-rule="evenodd" sketch:type="MSPage">
        <g id="shape-icons" sketch:type="MSLayerGroup" transform="translate(-407.000000, -302.000000)" fill="#EA5768">
            <g id="row-4-shape-icons" transform="translate(14.000000, 301.000000)" sketch:type="MSShapeGroup">
                <path d="M393,18.0501053 C393,22.7465263 394.805995,26.9225263 398.677083,28.4787368 C399.31072,28.7338947 399.882789,28.4888421 400.064928,27.7941053 C400.193195,27.3166316 400.495904,26.1065263 400.631867,25.6037895 C400.816571,24.9216842 400.744741,24.6791579 400.231675,24.0854737 C399.115755,22.7869474 398.402592,21.1094737 398.402592,18.7296842 C398.402592,11.8328421 403.641003,5.65852632 412.050165,5.65852632 C419.492197,5.65852632 423.581339,10.1376842 423.581339,16.1174737 C423.581339,23.9869474 420.046309,30.6311579 414.795072,30.6311579 C411.89368,30.6311579 409.723408,28.2690526 410.421179,25.3713684 C411.252347,21.9153684 412.865941,18.184 412.865941,15.6854737 C412.865941,13.4547368 411.647408,11.5877895 409.128251,11.5877895 C406.165291,11.5877895 403.782096,14.6117895 403.782096,18.6538947 C403.782096,21.2307368 404.667136,22.9738947 404.667136,22.9738947 C404.667136,22.9738947 401.632347,35.6307368 401.101323,37.8488421 C400.04184,42.2623158 400.942272,47.6736842 401.019232,48.2193684 C401.065408,48.5427368 401.486123,48.6185263 401.678523,48.376 C401.950448,48.0248421 405.480347,43.7326316 406.680923,39.4454737 C407.022112,38.2303158 408.633141,31.9397895 408.633141,31.9397895 C409.595141,33.7486316 412.406747,35.3452632 415.400491,35.3452632 C424.312459,35.3452632 430.356384,27.3444211 430.356384,16.6353684 C430.356384,8.53852632 423.394069,1 412.809504,1 C399.641648,1 393,10.2993684 393,18.0501053 Z" id="pinterest_s"></path>
            </g>
        </g>
    </g>
</svg>