<?xml version="1.0" encoding="UTF-8" standalone="no"?>
<svg width="46px" height="42px" viewBox="0 0 46 42" version="1.1" xmlns="http://www.w3.org/2000/svg" xmlns:xlink="http://www.w3.org/1999/xlink" xmlns:sketch="http://www.bohemiancoding.com/sketch/ns">
    <!-- Generator: Sketch 3.1.1 (8761) - http://www.bohemiancoding.com/sketch -->
    <title>pocket_s</title>
    <desc>Created with Sketch.</desc>
    <defs></defs>
    <g id="Page-1" stroke="none" stroke-width="1" fill="none" fill-rule="evenodd" sketch:type="MSPage">
        <g id="shape-icons" sketch:type="MSLayerGroup" transform="translate(-302.000000, -506.000000)" fill="#FA6980">
            <g id="row-6-shape-icons" transform="translate(5.000000, 502.000000)" sketch:type="MSShapeGroup">
                <path d="M299.006141,4 C297.89818,4 297,4.90221048 297,5.9906387 C297,5.9906387 297,20.0926551 297,24.9493986 C297,29.806142 301.992244,45.8987996 320,45.8987971 C338.007756,45.8987939 343,29.3040804 343,24.9493986 C343,20.5947168 343,5.99502124 343,5.99502124 C343,4.89320143 342.101758,4 340.993859,4 L299.006141,4 Z M320,25.1317499 L310.586588,15.5536761 C309.811753,14.7652872 308.502076,14.7069696 307.667383,15.4182729 L305.646284,17.1406011 C304.808887,17.8542088 304.744914,19.0816967 305.512055,19.8844643 C305.512055,19.8844643 317.714498,32.8835038 320,32.883504 C322.285503,32.8835041 334.390583,19.8844643 334.390583,19.8844643 C335.147842,19.0826782 335.104709,17.8156814 334.310791,17.070089 L332.626994,15.4887849 C331.825667,14.7362344 330.543168,14.7494125 329.749255,15.5312145 L320,25.1317499 Z" id="pocket_s"></path>
            </g>
        </g>
    </g>
</svg>