<?xml version="1.0" encoding="UTF-8" standalone="no"?>
<svg width="45px" height="48px" viewBox="0 0 45 48" version="1.1" xmlns="http://www.w3.org/2000/svg" xmlns:xlink="http://www.w3.org/1999/xlink" xmlns:sketch="http://www.bohemiancoding.com/sketch/ns">
    <!-- Generator: Sketch 3.1.1 (8761) - http://www.bohemiancoding.com/sketch -->
    <title>qq_s</title>
    <desc>Created with Sketch.</desc>
    <defs></defs>
    <g id="Page-1" stroke="none" stroke-width="1" fill="none" fill-rule="evenodd" sketch:type="MSPage">
        <g id="shape-icons" sketch:type="MSLayerGroup" transform="translate(-203.000000, -2.000000)" fill="#68A5E1">
            <g id="row-1-shape-icons" sketch:type="MSShapeGroup">
                <path d="M208.705576,20.9650702 C208.458645,21.6176748 208.820685,22.0308331 208.705576,24.5154747 C208.674614,25.1837801 205.792798,28.2088576 204.649114,31.3507561 C203.514543,34.467617 203.358421,37.7236659 205.110075,39.0033699 C206.861729,40.283074 208.492463,34.7436856 208.705576,35.5496975 C208.798553,35.9013446 208.914498,36.2671788 209.054059,36.6430275 C209.614626,38.1526851 210.556184,39.8239113 211.920586,41.3862998 C212.197753,41.7036859 210.232272,42.2873296 209.054059,44.2915853 C207.875845,46.295841 209.391622,49.9399417 215.251231,49.9399407 C222.811001,49.9399407 224.500752,47.282051 224.654847,47.2936972 C225.217738,47.3362395 225.25664,47.2936978 225.853347,47.293698 C226.583359,47.2936981 226.281316,47.352385 226.959655,47.2936972 C227.325997,47.2620025 231.000105,50.4746679 236.086695,49.9399407 C244.752773,49.0289199 243.427573,46.1245648 242.747333,44.2915853 C242.037364,42.3785 239.526928,41.4820625 239.637748,41.3595889 C241.713723,39.0653113 242.042675,37.6567697 242.747333,35.5496981 C243.037005,34.6835179 245.047886,40.3151589 246.596619,39.0033699 C247.241966,38.4567553 248.532659,36.1791895 247.241966,31.3507561 C245.951274,26.5223227 243.455688,25.4208733 243.509911,24.5154744 C243.622766,22.6310609 243.557243,21.3077656 243.46208,20.9650702 C243.001118,19.3050714 242.037363,19.6716048 242.037363,19.3050714 C242.037363,9.7477439 234.850307,2 225.984622,2 C217.118938,2 209.931881,9.7477439 209.931881,19.3050714 C209.931881,20.063654 209.25873,19.503159 208.705576,20.9650702 Z" id="qq_s"></path>
            </g>
        </g>
    </g>
</svg>