<?xml version="1.0" encoding="UTF-8" standalone="no"?>
<svg width="43px" height="50px" viewBox="0 0 43 50" version="1.1" xmlns="http://www.w3.org/2000/svg" xmlns:xlink="http://www.w3.org/1999/xlink" xmlns:sketch="http://www.bohemiancoding.com/sketch/ns">
    <!-- Generator: Sketch 3.1.1 (8761) - http://www.bohemiancoding.com/sketch -->
    <title>quora_s</title>
    <desc>Created with Sketch.</desc>
    <defs></defs>
    <g id="Page-1" stroke="none" stroke-width="1" fill="none" fill-rule="evenodd" sketch:type="MSPage">
        <g id="shape-icons" sketch:type="MSLayerGroup" transform="translate(-4.000000, -502.000000)" fill="#BF4747">
            <g id="row-6-shape-icons" transform="translate(5.000000, 502.000000)" sketch:type="MSShapeGroup">
                <path d="M37.848125,48.8867975 C37.848125,48.8867975 32.9121125,50.1505729 29.8803359,48.4483257 C27.5331728,47.1304675 25.6239174,44.2136719 25.4641196,44.0739232 C24.0632685,44.5974042 20.9408772,44.5974042 20.2824503,44.5974042 C13.961552,44.5974042 8.90114678,42.593896 5.10108292,38.5868196 C1.30101906,34.5797431 -0.598984375,29.2402047 -0.598984375,22.5680444 C-0.598984375,15.8202788 1.31042501,10.4618394 5.12930107,6.49256552 C8.94817713,2.52329165 14.1026419,0.538684476 20.59285,0.538684476 C27.083058,0.538684476 32.2328198,2.5280169 36.0422898,6.50674143 C39.8517597,10.485466 41.7564661,15.8675316 41.7564661,22.6530998 C41.7564661,31.4973465 38.5540542,37.8570091 32.1491411,41.732247 C32.1209367,41.7493118 32.723125,42.9392169 33.850625,43.5440556 C34.978125,44.1488943 37.105,44.0739232 37.105,44.0739232 L37.848125,48.8867975 Z M23.0374095,37.9429801 C23.5449501,37.8069933 22.5080801,36.5975544 21.3200003,35.7410249 C19.8144088,34.6555899 17.4173428,34.5196296 17.4173428,34.5196296 L17.4173428,31.0960773 C17.4173428,31.0960773 20.7112986,30.1945551 23.6558949,31.0960773 C26.6004911,31.9975995 27.8145229,34.782947 28.0097847,34.5196296 C28.0899261,34.4115562 28.3691203,34.0735273 28.4471133,33.9610632 C30.4449123,31.0802848 31.4437969,27.1680605 31.4437969,22.2242731 C31.4437969,17.4105853 30.4449123,13.5541172 28.4471133,10.6547531 C26.4493142,7.75538902 23.7899463,6.30572873 20.4689297,6.30572873 C17.1306161,6.30572873 14.4625998,7.75538902 12.4648008,10.6547531 C10.4670017,13.5541172 9.46811719,17.4291707 9.46811719,22.2800298 C9.46811719,27.0937176 10.4626776,30.9641247 12.4518281,33.8913673 C14.4409787,36.8186099 17.0700774,38.2822092 20.3392031,38.2822092 C21.2939422,38.2822092 22.1933437,38.1691332 23.0374095,37.9429801 Z" id="quora_s"></path>
            </g>
        </g>
    </g>
</svg>