<?xml version="1.0" encoding="UTF-8" standalone="no"?>
<svg width="51px" height="48px" viewBox="0 0 51 48" version="1.1" xmlns="http://www.w3.org/2000/svg" xmlns:xlink="http://www.w3.org/1999/xlink" xmlns:sketch="http://www.bohemiancoding.com/sketch/ns">
    <!-- Generator: Sketch 3.1.1 (8761) - http://www.bohemiancoding.com/sketch -->
    <title>qzone_s</title>
    <desc>Created with Sketch.</desc>
    <defs></defs>
    <g id="Page-1" stroke="none" stroke-width="1" fill="none" fill-rule="evenodd" sketch:type="MSPage">
        <g id="shape-icons" sketch:type="MSLayerGroup" transform="translate(-299.000000, 0.000000)" fill="#F5BE3F">
            <g id="row-1-shape-icons" sketch:type="MSShapeGroup">
                <path d="M324.871976,39.7332109 C324.871976,39.7332109 310.328604,48.6468898 309.429792,47.9187034 C308.53098,47.1905169 312.378986,30.5815536 312.378986,30.5815536 C312.378986,30.5815536 299.353048,19.6462701 299.885995,18.3033162 C300.418942,16.9603623 317.150886,15.7738578 317.150886,15.7738578 C317.150886,15.7738578 323.366911,2.17920909e-07 324.871977,9.38626238e-16 C326.377042,-2.21222939e-07 332.593072,15.7738617 332.593072,15.7738617 C332.593072,15.7738617 349.395097,16.9673064 349.857962,18.3033288 C350.320828,19.6393512 337.364966,30.5815569 337.364966,30.5815569 C337.364966,30.5815569 337.526774,31.6434886 337.712696,32.4343914 C337.725024,32.4868373 331.665898,32.6260281 326.699507,32.4343914 C324.090732,32.3337271 320.951315,31.8460746 320.951315,31.8460746 L335.328922,21.5095475 C335.328922,21.5095475 330.129247,20.5651941 324.871977,20.3770194 C319.114572,20.1709432 313.220677,20.7279567 312.378986,20.9432841 C311.850543,21.0784741 316.101523,21.0680242 320.951315,21.5095475 C324.345924,21.8185916 328.814068,22.6420756 328.814068,22.6420756 L314.436461,33.433323 C314.436461,33.433323 317.306538,33.9466637 327.509617,33.7243385 C337.712697,33.5020142 341.186879,32.7092545 341.189515,32.7207642 C341.196208,32.7499901 340.499333,33.106625 339.73639,33.2520142 C338.901748,33.4110664 338.077868,33.6915848 338.085343,33.7243385 C339.177598,38.5100763 341.046028,47.1686198 340.314161,47.9187038 C339.302562,48.9554811 324.871976,39.7332109 324.871976,39.7332109 Z" id="qzone_s"></path>
            </g>
        </g>
    </g>
</svg>