<?xml version="1.0" encoding="UTF-8" standalone="no"?>
<svg width="50px" height="36px" viewBox="0 0 50 36" version="1.1" xmlns="http://www.w3.org/2000/svg" xmlns:xlink="http://www.w3.org/1999/xlink" xmlns:sketch="http://www.bohemiancoding.com/sketch/ns">
    <!-- Generator: Sketch 3.1.1 (8761) - http://www.bohemiancoding.com/sketch -->
    <title>readability_s</title>
    <desc>Created with Sketch.</desc>
    <defs></defs>
    <g id="Page-1" stroke="none" stroke-width="1" fill="none" fill-rule="evenodd" sketch:type="MSPage">
        <g id="shape-icons" sketch:type="MSLayerGroup" transform="translate(-501.000000, -509.000000)" fill="#BF4747">
            <g id="row-6-shape-icons" transform="translate(5.000000, 502.000000)" sketch:type="MSShapeGroup">
                <path d="M521,27.0351181 C528.089071,27.0459394 532.816075,30.2898619 532.816075,30.2565804 C532.816075,30.09405 533.363565,26.0117212 533.504365,25.2 C534.067513,21.9534304 536.004743,20.6156621 535.994612,20.5478798 C534.834648,12.7863731 530.072395,6.99999844 521,7 C511.961988,7.00000156 507.201511,12.742599 506.018731,20.459722 C506.002626,20.5648012 508.006452,21.9035494 508.349292,23.9770441 C508.503764,24.9112917 509.1857,29.9038628 509.1857,30.2565804 C509.1857,30.3338849 513.91093,27.0242962 521,27.0351181 Z M521.085305,27.8517286 C513.809547,27.8517291 509.457692,31.3473562 509.457692,31.3473562 L510.137669,38.0703345 L531.896944,38.0703349 L532.712918,31.3473562 C532.712918,31.3473562 528.361062,27.8517282 521.085305,27.8517286 Z M532.576922,39.1999996 C532.664364,39.9329487 532.576922,42.3823195 532.576922,42.3823195 L536.869968,42.3823195 L536.869968,39.1999996 C536.869968,39.1999996 539.976092,31.6172266 540.202777,31.6172266 C543.271025,31.6172266 545.524016,28.9782119 545.524016,25.8854172 C545.524016,22.7926224 543.036709,20.2854172 539.96846,20.2854172 C537.130395,20.2854172 534.817159,22.4309604 534.46035,25.2001331 C534.43141,25.4247295 532.550497,38.9785031 532.576922,39.1999996 Z M501.767663,31.4411545 C501.878137,31.4411545 505.252998,39.1999996 505.252998,39.1999996 L505.252998,42.281942 L509.4354,42.281942 L509.4354,39.1999996 C509.4354,39.1999996 507.596562,25.3652989 507.582442,25.2024933 C507.33428,22.3411234 504.951286,20.0966011 502.048215,20.0966011 C498.979967,20.0966011 496.49266,22.6038064 496.49266,25.6966011 C496.49266,28.7893959 498.699415,31.4411545 501.767663,31.4411545 Z" id="readability_s"></path>
            </g>
        </g>
    </g>
</svg>