<?xml version="1.0" encoding="UTF-8" standalone="no"?>
<svg width="51px" height="42px" viewBox="0 0 51 42" version="1.1" xmlns="http://www.w3.org/2000/svg" xmlns:xlink="http://www.w3.org/1999/xlink" xmlns:sketch="http://www.bohemiancoding.com/sketch/ns">
    <!-- Generator: Sketch 3.1.1 (8761) - http://www.bohemiancoding.com/sketch -->
    <title>reddit_s</title>
    <desc>Created with Sketch.</desc>
    <defs></defs>
    <g id="Page-1" stroke="none" stroke-width="1" fill="none" fill-rule="evenodd" sketch:type="MSPage">
        <g id="shape-icons" sketch:type="MSLayerGroup" transform="translate(-99.000000, -505.000000)" fill="#708A97">
            <g id="row-6-shape-icons" transform="translate(5.000000, 502.000000)" sketch:type="MSShapeGroup">
                <path d="M130.729632,8.36527999 C130.28024,8.20459255 125.412327,6.51655932 123.303128,8.01721189 C121.090766,9.59126179 121.206705,14.6456853 121.42498,14.6610385 C126.257059,15.0009204 130.617114,16.4799006 133.96446,18.7142787 C134.270533,18.9185851 137.160669,16.3700556 140.308285,16.8986364 C143.455901,17.4272172 145.632998,20.4696301 144.682555,23.752291 C143.732112,27.0349518 140.615179,28.0327186 140.685289,28.9951159 C140.704541,29.2593839 140.714286,29.5254361 140.714286,29.7931034 C140.714286,38.1916409 131.120388,45 119.285714,45 C107.45104,45 97.8571429,38.1916409 97.8571429,29.7931034 C97.8571429,29.371524 97.8813167,28.9539513 97.9287345,28.5410454 C97.9343251,28.4923633 95.7678115,27.2303019 94.9093067,25.2713387 C94.0900984,23.4020429 94.470787,21.0849874 95.3112831,19.7512828 C96.650716,17.6258621 98.3078345,16.8986364 100.536976,16.8986364 C102.766117,16.8986364 105.254987,18.2985625 105.356305,18.2370009 C108.984636,16.0323894 113.663441,14.6733803 118.786398,14.5902541 C118.952378,14.5875608 118.390509,8.46543126 121.882194,6.16510023 C125.373878,3.86476896 131.208277,6.16365399 131.270496,6.16510024 C131.283432,6.16540092 131.280403,6.21786689 131.266013,6.306456 C132.183909,4.3513548 134.150574,3 136.428571,3 C139.584484,3 142.142857,5.5936606 142.142857,8.79310345 C142.142857,11.9925463 139.584484,14.5862069 136.428571,14.5862069 C133.272658,14.5862069 130.714286,11.9925463 130.714286,8.79310345 C130.714286,8.64921003 130.719461,8.50654193 130.729632,8.36527999 L130.729632,8.36527999 Z M127.857143,29.0689655 C129.435099,29.0689655 130.714286,27.7721352 130.714286,26.1724138 C130.714286,24.5726924 129.435099,23.2758621 127.857143,23.2758621 C126.279186,23.2758621 125,24.5726924 125,26.1724138 C125,27.7721352 126.279186,29.0689655 127.857143,29.0689655 Z M110.714286,29.0689655 C112.292242,29.0689655 113.571429,27.7721352 113.571429,26.1724138 C113.571429,24.5726924 112.292242,23.2758621 110.714286,23.2758621 C109.136329,23.2758621 107.857143,24.5726924 107.857143,26.1724138 C107.857143,27.7721352 109.136329,29.0689655 110.714286,29.0689655 Z M120,36.0470963 C114.845785,36.0470961 111.899751,33.8668046 111.899751,33.8668046 C111.668523,33.7167026 111.378066,33.7958486 111.252965,34.0397461 L110.746637,35.026884 C110.620655,35.272499 110.684134,35.6208081 110.900445,35.796086 C110.900445,35.796086 113.438983,38.3990874 120,38.3990871 C126.561016,38.3990868 128.939137,35.6061528 128.939137,35.6061528 C129.130546,35.4212959 129.155242,35.0920336 128.990587,34.8656255 L128.361671,34.0008351 C128.198677,33.77671 127.895631,33.726855 127.655483,33.8956934 C127.655483,33.8956934 125.154214,36.0470965 120,36.0470963 Z M136.428571,11.6896552 C138.006528,11.6896552 139.285714,10.3928249 139.285714,8.79310345 C139.285714,7.19338202 138.006528,5.89655172 136.428571,5.89655172 C134.850615,5.89655172 133.571429,7.19338202 133.571429,8.79310345 C133.571429,10.3928249 134.850615,11.6896552 136.428571,11.6896552 Z" id="reddit_s"></path>
            </g>
        </g>
    </g>
</svg>