<?xml version="1.0" encoding="UTF-8" standalone="no"?>
<svg width="50px" height="29px" viewBox="0 0 50 29" version="1.1" xmlns="http://www.w3.org/2000/svg" xmlns:xlink="http://www.w3.org/1999/xlink" xmlns:sketch="http://www.bohemiancoding.com/sketch/ns">
    <!-- Generator: Sketch 3.1.1 (8761) - http://www.bohemiancoding.com/sketch -->
    <title>renren_s</title>
    <desc>Created with Sketch.</desc>
    <defs></defs>
    <g id="Page-1" stroke="none" stroke-width="1" fill="none" fill-rule="evenodd" sketch:type="MSPage">
        <g id="shape-icons" sketch:type="MSLayerGroup" transform="translate(0.000000, -213.000000)" fill="#71A8DD">
            <g id="row-3-shape-icons" transform="translate(0.000000, 201.000000)" sketch:type="MSShapeGroup">
                <path d="M24.9503634,35.7630915 C24.4381558,35.6509712 21.8113596,34.3366404 19.3213701,30.9668536 C17.1010648,27.9620388 16.6664853,26.4999995 16.6664852,24.0177078 C16.6664851,21.535416 16.6630189,12.1998618 16.6664851,12.200452 C19.9648588,12.7620701 22.8799861,14.4708965 25.0000001,16.9088864 C27.1251199,14.4650253 30.0491872,12.7538438 33.3573522,12.1964142 C33.369451,12.1943756 33.3573522,21.1002102 33.3573523,23.8001053 C33.3573523,26.5000004 32.6872519,28.0462416 30.3631487,31.2308444 C28.0390455,34.4154471 24.9951381,35.817642 24.9813988,35.8009364 C24.971039,35.7883399 24.9606938,35.7757249 24.9503634,35.7630915 Z M17.0458491,35.6834283 C15.6163292,33.7821673 14.2857145,30.9552922 14.2857145,30.9552922 C14.2857145,30.9552922 13.2399678,33.5218842 11.6481801,35.6834283 C10.0882712,37.8016834 7.98083924,39.5153543 8.06111074,39.5548578 C9.94257624,40.4807705 12.0544051,41 14.2857143,41 C16.5305611,41 18.6544733,40.474451 20.5445376,39.5379601 C20.6107011,39.5051773 18.4753688,37.5846895 17.0458491,35.6834283 Z M3.31375466,35.7864373 C3.327494,35.8031429 6.6104741,34.4154471 8.93457731,31.2308444 C11.2586805,28.0462416 11.9287809,26.5000004 11.9287809,23.8001053 C11.9287808,21.1002102 11.9408796,12.1943756 11.9287808,12.1964142 C5.16050651,13.3368762 0,19.3067472 0,26.5 C0,30.0330229 1.24490029,33.2709221 3.31375466,35.7864373 Z M38.4744205,35.6834283 C37.0449006,33.7821673 35.714286,30.9552922 35.714286,30.9552922 C35.714286,30.9552922 34.6685392,33.5218842 33.0767516,35.6834283 C31.5168427,37.8016834 29.4094107,39.5153543 29.4896822,39.5548578 C31.3711477,40.4807705 33.4829765,41 35.7142857,41 C37.9591325,41 40.0830448,40.474451 41.973109,39.5379601 C42.0392725,39.5051773 39.9039403,37.5846895 38.4744205,35.6834283 Z M40.7499415,30.9668536 C43.4768736,34.6573028 46.5998114,35.8918162 46.6976975,35.772495 C48.759693,33.2589634 50,30.026499 50,26.5 C50,19.3151942 44.8516065,13.350898 38.0950565,12.200452 C38.0915903,12.1998618 38.0950566,21.535416 38.0950566,24.0177078 C38.0950567,26.4999995 38.5296362,27.9620388 40.7499415,30.9668536 Z M24.9503634,35.7630915 C24.9991041,35.7737607 25.0286971,35.7735438 25.0372024,35.763176 C27.0991979,33.2496444 28.5714286,30.026499 28.5714286,26.5 C28.5714286,22.8226314 27.2227266,19.4649942 25.0000001,16.9088864 C22.7772736,19.4649942 21.4285714,22.8226312 21.4285714,26.5 C21.4285714,30.0153312 22.8977196,33.2528413 24.9503634,35.7630915 Z" id="renren_s"></path>
            </g>
        </g>
    </g>
</svg>