<?xml version="1.0" encoding="UTF-8" standalone="no"?>
<svg width="48px" height="40px" viewBox="0 0 48 40" version="1.1" xmlns="http://www.w3.org/2000/svg" xmlns:xlink="http://www.w3.org/1999/xlink" xmlns:sketch="http://www.bohemiancoding.com/sketch/ns">
    <!-- Generator: Sketch 3.1.1 (8761) - http://www.bohemiancoding.com/sketch -->
    <title>sina_weibo_s</title>
    <desc>Created with Sketch.</desc>
    <defs></defs>
    <g id="Page-1" stroke="none" stroke-width="1" fill="none" fill-rule="evenodd" sketch:type="MSPage">
        <g id="shape-icons" sketch:type="MSLayerGroup" transform="translate(-502.000000, -6.000000)" fill="#F56467">
            <g id="row-1-shape-icons" sketch:type="MSShapeGroup">
                <path d="M523.257143,46 C534.997139,46 544.422691,39.7639665 544.422691,32.0714286 C544.422691,25.5727764 536.409753,25.5727764 536.409753,25.1532838 C536.409753,24.7337912 540.4,20.9583659 536.409753,18.6092113 C532.419505,16.2600567 525.120843,19.831636 525.340331,19.4481951 C528.479421,13.9642857 523.992634,12.232935 521.705595,12.232935 C516.253491,12.232935 502,24.3788906 502,32.0714286 C502,39.7639665 511.517146,46 523.257143,46 Z M523.831442,41.7333198 C531.331922,40.6791962 536.848134,35.810686 536.152248,30.8591975 C535.456361,25.9077089 528.811895,22.7482708 521.311415,23.8023944 C513.810935,24.8565181 508.294723,29.7250282 508.990609,34.6765168 C509.686496,39.6280054 516.330962,42.7874435 523.831442,41.7333198 Z M522.446241,40.3845163 C526.90726,39.517382 529.928684,35.7537008 529.194782,31.9780986 C528.460879,28.2024964 524.249563,25.8447176 519.788544,26.7118519 C515.327525,27.5789862 512.3061,31.3426673 513.040003,35.1182695 C513.773906,38.8938717 517.985222,41.2516505 522.446241,40.3845163 Z M522.571429,33.4642857 C523.328848,33.4642857 523.942857,32.8406824 523.942857,32.0714286 C523.942857,31.3021748 523.328848,30.6785714 522.571429,30.6785714 C521.814009,30.6785714 521.2,31.3021748 521.2,32.0714286 C521.2,32.8406824 521.814009,33.4642857 522.571429,33.4642857 Z M519.422721,36.6415388 C520.79563,36.0013405 521.513274,34.6345924 521.025623,33.5888214 C520.537972,32.5430503 519.02969,32.2142687 517.65678,32.854467 C516.28387,33.4946653 515.566227,34.8614133 516.053878,35.9071844 C516.541529,36.9529555 518.049811,37.2817371 519.422721,36.6415388 Z M541.614032,15.2532764 C539.135804,12.9880202 535.897729,13.8140916 535.897729,13.8140916 C535.354588,13.8970415 534.914286,14.4118834 534.914286,14.9596916 L534.914286,15.3485493 C534.914286,15.8982968 535.354096,16.3107955 535.922172,16.2942762 C535.922172,16.2942762 538.640158,15.9244638 539.96188,17.5185326 C541.283602,19.1126015 540.248712,21.6908319 540.248712,21.6908319 C540.090299,22.2130179 540.41364,22.6363333 540.95689,22.6363333 L541.858137,22.6363332 C542.407666,22.6363331 542.941088,22.2052183 543.029754,21.6513378 C543.029754,21.6513378 544.092261,17.5185327 541.614032,15.2532764 Z M546.24006,10.7227642 C541.696641,6.36004828 535.027829,6.96996229 535.027829,6.96996229 C534.207702,6.98655166 533.542857,7.66555564 533.542857,8.49274022 L533.542857,9.230024 C533.542857,10.0544417 534.204642,10.6844271 535.048665,10.6697051 C535.048665,10.6697051 541.448818,9.99054748 544.174869,13.964286 C546.90092,17.9380247 545.723085,22.9241888 545.723085,22.9241888 C545.597996,23.7382618 546.163257,24.3981984 546.995962,24.3981984 L547.631955,24.3981984 C548.460035,24.3981984 549.226221,23.7401754 549.314538,22.9187751 C549.314538,22.9187751 550.78348,15.0854798 546.24006,10.7227642 Z" id="sina_weibo_s"></path>
            </g>
        </g>
    </g>
</svg>