<?xml version="1.0" encoding="UTF-8" standalone="no"?>
<svg width="51px" height="48px" viewBox="0 0 51 48" version="1.1" xmlns="http://www.w3.org/2000/svg" xmlns:xlink="http://www.w3.org/1999/xlink" xmlns:sketch="http://www.bohemiancoding.com/sketch/ns">
    <!-- Generator: Sketch 3.1.1 (8761) - http://www.bohemiancoding.com/sketch -->
    <title>snapchat_s</title>
    <desc>Created with Sketch.</desc>
    <defs></defs>
    <g id="Page-1" stroke="none" stroke-width="1" fill="none" fill-rule="evenodd" sketch:type="MSPage">
        <g id="shape-icons" sketch:type="MSLayerGroup" transform="translate(-199.000000, -401.000000)" fill="#FEFF30">
            <g id="row-5-shape-icons" transform="translate(0.000000, 402.000000)" sketch:type="MSShapeGroup">
                <path d="M208.557331,23.0134006 C206.890842,22.2942793 205.477974,21.9610391 204.992897,21.4318968 C203.74446,20.070048 205.992175,18.8662314 206.983425,19.3976576 C209.677419,20.8419545 211.195937,19.7650027 211.195937,19.7650027 C211.195937,19.7650027 211.195937,12.9225157 211.195937,9.71016218 C211.195937,6.49780866 214.800395,-0.197495896 224.293914,-0.197494538 C233.71659,-0.197493194 237.304258,6.54871332 237.304257,9.71016218 C237.304257,12.871611 237.304257,19.3976576 237.304257,19.3976576 C237.304257,19.3976576 238.091208,20.1040016 239.479948,20.1040014 C240.868689,20.1040014 241.709425,19.2823387 242.62776,19.3976576 C243.546095,19.5129764 244.94233,20.6876608 242.812926,21.9900754 C240.683522,23.2924898 237.813461,22.6412796 237.813461,25.8042887 C237.813461,28.9672979 242.693825,34.1769575 247.951265,36.0375506 C253.208705,37.8981437 242.369784,39.4780089 242.369784,39.4780089 C242.369784,39.4780089 242.025973,42.6484434 241.563059,42.9682579 C241.337834,43.1238597 239.618825,42.0379614 236.05439,42.2705355 C232.489956,42.5031097 230.499428,47.0150485 224.293914,47.0150485 C218.0884,47.0150494 216.974856,43.1078675 213.279048,42.2705355 C209.58324,41.4332033 207.307464,42.9217443 206.983425,42.6426566 C206.659385,42.3635689 206.844551,39.4780076 205.918724,39.4780076 C204.992897,39.4780076 195.503171,37.2004217 200.96555,36.0375506 C206.427929,34.8746799 210.82038,27.8509423 210.825606,25.8042887 C210.829408,24.3158195 210.223819,23.732522 208.557331,23.0134006 Z" id="snapchat_s"></path>
            </g>
        </g>
    </g>
</svg>