<?xml version="1.0" encoding="UTF-8" standalone="no"?>
<svg width="51px" height="39px" viewBox="0 0 51 39" version="1.1" xmlns="http://www.w3.org/2000/svg" xmlns:xlink="http://www.w3.org/1999/xlink" xmlns:sketch="http://www.bohemiancoding.com/sketch/ns">
    <!-- Generator: Sketch 3.1.1 (8761) - http://www.bohemiancoding.com/sketch -->
    <title>taobao_s</title>
    <desc>Created with Sketch.</desc>
    <defs></defs>
    <g id="Page-1" stroke="none" stroke-width="1" fill="none" fill-rule="evenodd" sketch:type="MSPage">
        <g id="shape-icons" sketch:type="MSLayerGroup" transform="translate(-99.000000, -107.000000)" fill="#FC8848">
            <g id="row-2-shape-icons-" transform="translate(3.000000, 102.000000)" sketch:type="MSShapeGroup">
                <path d="M105.571429,13.6666667 C107.938363,13.6666667 109.857143,11.7265674 109.857143,9.33333333 C109.857143,6.9400993 107.938363,5 105.571429,5 C103.204494,5 101.285714,6.9400993 101.285714,9.33333333 C101.285714,11.7265674 103.204494,13.6666667 105.571429,13.6666667 Z M101.665281,15.6415128 L98.4040778,20.2967201 C98.4040778,20.2967201 105.406072,23.788125 105.981578,26.6006464 C106.557085,29.4131677 96.3898054,37.8507305 96.3898054,37.8507305 L103.649089,43.1848226 C103.649089,43.1848226 111.161136,29.8980843 110.585629,25.5338282 C110.010122,21.169572 101.665281,15.6415128 101.665281,15.6415128 Z M112.695819,11.5682066 C114.518256,8.46473515 115.18968,5.36126366 115.18968,5.36126366 L120.465156,7.49490029 L118.930472,10.5013883 C118.930472,10.5013883 119.314143,10.8893222 120.656991,10.6953552 C121.999839,10.5013882 130.82427,6.04014806 136.867087,7.10696636 C142.992412,8.18835075 146.746613,13.0229578 146.746613,16.8053144 L146.746613,34.9412261 C146.746613,34.9412261 146.075188,40.4692853 141.37522,42.4089544 C136.675251,44.3486238 129.481422,42.8938714 129.481422,42.8938714 L129.865093,39.8873837 C129.865093,39.8873837 134.181391,40.857218 136.867087,39.9843669 C139.552784,39.1115156 140.320126,36.977879 140.320126,36.977879 L140.320126,15.3505624 C140.320126,15.3505624 139.936455,13.1199423 137.442594,11.5682066 C134.948733,10.0164708 133.701802,10.2104378 131.016106,10.5983717 C128.33041,10.9863057 124.205947,12.9259753 124.205947,12.9259753 L121.903922,17.484199 L137.442594,17.484199 L137.442594,20.587671 L127.946739,20.587671 L127.946739,24.4670092 L137.826265,24.4670092 L137.826265,27.1825473 L128.138574,27.5704812 L128.138574,34.9412261 L132.742625,32.9045727 L132.358954,29.7041178 L136.099746,28.9282499 L138.88136,36.2989946 L134.277309,38.4326312 L133.701802,35.8140772 C133.701802,35.8140772 124.995042,39.5226143 121.502667,39.8134173 C118.010292,40.1042203 114.579405,39.2618033 112.916088,36.8754685 C111.252772,34.4891335 111.640724,29.7041178 111.640724,29.7041178 L117.84855,29.8606676 C117.84855,29.8606676 117.364523,32.587351 118.586114,34.31192 C119.807705,36.036489 122.575346,35.6201102 122.575346,35.6201102 L122.575346,27.3765142 L112.983573,27.0855638 L112.983573,24.4670092 L122.671263,24.4670097 L122.575346,20.5876704 L119.601896,20.0057695 C119.601896,20.0057695 117.108035,23.8851088 115.477434,23.7881254 C113.846832,23.6911419 113.654997,21.4605218 113.654997,21.4605218 L118.930472,14.865645 L116.05294,14.5746945 L111.736642,19.7148191 L108.475439,16.8053144 C108.475439,16.8053144 110.873383,14.6716783 112.695819,11.5682066 Z" id="taobao_s"></path>
            </g>
        </g>
    </g>
</svg>