<?xml version="1.0" encoding="UTF-8" standalone="no"?>
<svg width="52px" height="48px" viewBox="0 0 52 48" version="1.1" xmlns="http://www.w3.org/2000/svg" xmlns:xlink="http://www.w3.org/1999/xlink" xmlns:sketch="http://www.bohemiancoding.com/sketch/ns">
    <!-- Generator: Sketch 3.1.1 (8761) - http://www.bohemiancoding.com/sketch -->
    <title>tencent_weibo_s</title>
    <desc>Created with Sketch.</desc>
    <defs></defs>
    <g id="Page-1" stroke="none" stroke-width="1" fill="none" fill-rule="evenodd" sketch:type="MSPage">
        <g id="shape-icons" sketch:type="MSLayerGroup" transform="translate(-400.000000, -5.000000)" fill="#38A6D7">
            <g id="row-1-shape-icons" sketch:type="MSShapeGroup">
                <path d="M410.304494,35.5629166 C409.625694,37.0942899 412.435053,37.4677379 414.295626,37.4677376 C423.838076,37.4677376 427.771109,29.3934562 428.06817,24.4179221 C428.428433,18.3837904 423.99293,9.86987301 414.504571,9.86987301 C405.016213,9.86987301 400.385427,17.3509284 400.385427,24.4179228 C400.385427,28.8192978 402.417446,31.1635439 403.784634,30.4046897 C405.151821,29.6458356 402.996199,27.0510441 402.996196,24.4179228 C402.99619,19.9907575 405.610335,12.4158086 414.295625,12.4158099 C422.83989,12.4158112 425.751093,19.7998117 425.513443,24.4179221 C425.275793,29.0360326 420.825899,34.9248431 414.295626,34.9248446 C413.903592,34.9248447 410.983294,34.0315433 410.304494,35.5629166 Z M410.215665,25.0749186 C410.269521,25.2094821 405.332234,29.8213056 403.107939,37.6270969 C400.883645,45.4328881 401.757885,49.773065 402.002026,51.105058 C402.246166,52.437051 404.003979,52.8329609 404.223705,51.105058 C404.443432,49.3771552 403.573725,44.1666665 405.374659,38.3792052 C407.438237,31.7477123 411.586199,27.0026505 411.792065,27.1600524 C412.568927,27.7540305 413.432974,27.9485881 414.504571,27.9485881 C417.093406,27.9485881 419.044049,25.9076677 419.044049,23.3119293 C419.044049,20.7161908 417.093406,18.8028852 414.504571,18.8028852 C411.915737,18.8028852 409.880244,20.7161908 409.880244,23.3119293 C409.880244,23.938948 409.999015,24.5335932 410.215665,25.0749186 Z M447.230793,15.2322916 C447.719075,13.1026041 447.414437,11.5715551 446.336368,9.53439166 C445.113061,7.22278191 440.494515,4.07497732 435.577826,6.86302546 C430.661137,9.6510733 431.086034,16.0149592 433.724071,18.7910004 C436.362107,21.5670416 440.119835,21.3295097 440.119835,21.3295097 C440.393076,21.3284577 440.593668,21.1134747 440.565746,20.8275958 L440.543351,20.5983 C440.516379,20.3221526 440.27095,20.0854266 440.004247,20.0641116 C440.004247,20.0641116 438.661457,20.030209 437.245441,19.4916673 C436.586225,19.2409529 433.98004,17.9984374 433.316613,14.8975356 C432.653186,11.7966337 434.432028,9.20783072 436.415363,8.1088541 C439.200339,6.56568436 442.177082,6.86041657 444.691731,9.7244791 C446.164914,11.4023637 446.180989,14.4979166 445.580686,15.9177083 C444.980384,17.3374999 444.520043,17.6515376 444.520043,17.6515376 C444.33171,17.8431251 444.354511,18.1514323 444.559248,18.3299389 L444.92187,18.6461034 C445.131855,18.8291866 445.4491,18.8009184 445.612819,18.5892936 C445.612819,18.5892936 446.742512,17.3619791 447.230793,15.2322916 Z M439.468001,15.9369047 C439.503894,15.9369047 440.901162,19.9266492 444.378029,22.8798902 C447.854896,25.833131 450.920095,26.566894 451.079159,26.5384685 C451.19282,26.518157 452.281621,25.7069732 450.913302,25.2912263 C449.544984,24.8754794 446.679191,23.24726 445.025387,21.7989461 C441.749716,18.930287 440.924643,15.5876605 441.021058,15.5256068 C441.468707,15.237494 442.08143,14.8143865 442.08143,13.6166666 C442.08143,12.4189467 441.376538,10.8647844 439.468001,10.8647841 C437.559463,10.8647838 436.9375,12.4189468 436.9375,13.6166667 C436.9375,14.8143865 438.266724,15.9369047 439.468001,15.9369047 Z" id="tencent_weibo_s"></path>
            </g>
        </g>
    </g>
</svg>