<?xml version="1.0" encoding="UTF-8" standalone="no"?>
<svg width="32px" height="50px" viewBox="0 0 32 50" version="1.1" xmlns="http://www.w3.org/2000/svg" xmlns:xlink="http://www.w3.org/1999/xlink" xmlns:sketch="http://www.bohemiancoding.com/sketch/ns">
    <!-- Generator: Sketch 3.1.1 (8761) - http://www.bohemiancoding.com/sketch -->
    <title>tumblr_s</title>
    <desc>Created with Sketch.</desc>
    <defs></defs>
    <g id="Page-1" stroke="none" stroke-width="1" fill="none" fill-rule="evenodd" sketch:type="MSPage">
        <g id="shape-icons" sketch:type="MSLayerGroup" transform="translate(-509.000000, -401.000000)" fill="#708A97">
            <g id="row-5-shape-icons" transform="translate(0.000000, 402.000000)" sketch:type="MSShapeGroup">
                <path d="M526.644634,-0.1859375 L526.644634,12.140625 L538.444901,12.140625 L538.444901,19.7953125 L526.644634,19.7953125 L526.644634,32.3015625 C526.644634,35.12866 526.797327,36.9434856 527.102719,37.7460937 C527.40811,38.5487019 527.97613,39.1895809 528.806795,39.66875 C529.906204,40.3156282 531.164398,40.6390625 532.581414,40.6390625 C535.09784,40.6390625 537.602013,39.8364664 540.094007,38.23125 L540.094007,45.921875 C537.968482,46.9041716 536.044545,47.5929668 534.322137,47.9882812 C532.599729,48.3835957 530.736869,48.58125 528.733501,48.58125 C526.461389,48.58125 524.451943,48.2997424 522.705104,47.7367187 C520.958265,47.1736951 519.467977,46.371099 518.234195,45.3289062 C517.000414,44.2867135 516.14533,43.1786517 515.66892,42.0046875 C515.192509,40.8307233 514.954307,39.1296986 514.954307,36.9015625 L514.954307,19.7953125 L509.457288,19.7953125 L509.457288,12.8953125 C511.411794,12.2723927 513.085314,11.3799537 514.477899,10.2179687 C515.870484,9.05598377 516.9882,7.66042481 517.83108,6.03125 C518.673961,4.40207519 519.254196,2.32970008 519.571803,-0.1859375 L526.644634,-0.1859375 Z" id="tumblr_s"></path>
            </g>
        </g>
    </g>
</svg>