<?xml version="1.0" encoding="UTF-8" standalone="no"?>
<svg width="48px" height="42px" viewBox="0 0 48 42" version="1.1" xmlns="http://www.w3.org/2000/svg" xmlns:xlink="http://www.w3.org/1999/xlink" xmlns:sketch="http://www.bohemiancoding.com/sketch/ns">
    <!-- Generator: Sketch 3.1.1 (8761) - http://www.bohemiancoding.com/sketch -->
    <title>twitter_s</title>
    <desc>Created with Sketch.</desc>
    <defs></defs>
    <g id="Page-1" stroke="none" stroke-width="1" fill="none" fill-rule="evenodd" sketch:type="MSPage">
        <g id="shape-icons" sketch:type="MSLayerGroup" transform="translate(-103.000000, -306.000000)" fill="#5DD7FC">
            <g id="row-4-shape-icons" transform="translate(14.000000, 301.000000)" sketch:type="MSShapeGroup">
                <path d="M99.2985121,15.2618546 C106.741091,19.0366687 113.030929,18.818891 113.030929,18.818891 C113.030929,18.818891 110.646413,10.4707438 118.016734,6.76852282 C125.387056,3.06630129 130.458896,9.30812694 130.458896,9.30812694 C130.458896,9.30812694 131.744311,8.95363414 132.702072,8.59914133 C133.659833,8.24464854 135.046065,7.61162565 135.046065,7.61162565 L132.774931,11.6842392 L136.272133,11.3118189 C136.272133,11.3118189 135.841094,11.9449678 134.441455,13.23457 C133.041817,14.5241722 132.464958,15.1903963 132.464958,15.1903963 C132.464958,15.1903963 132.964946,25.2390511 127.695926,32.9755782 C122.426906,40.7121049 115.619023,45.3553672 105.729479,46.3326127 C95.839934,47.3098583 89.3991591,43.2837244 89.3991591,43.2837244 C89.3991591,43.2837244 93.7243456,43.0357409 96.4804481,41.977058 C99.2365507,40.9183753 103.200447,38.1296513 103.200447,38.1296513 C103.200447,38.1296513 97.5643188,36.3874294 95.5410934,34.4274297 C93.517868,32.4674301 93.0120616,31.3059488 93.0120616,31.3059488 L98.5759315,31.2333563 C98.5759315,31.2333563 92.7230294,28.1118754 91.0610942,25.6437277 C89.3991589,23.1755801 89.1823849,20.7800249 89.1823849,20.7800249 L93.4599385,22.5153771 C93.4599385,22.5153771 89.9049657,17.6585439 89.3991591,13.8837298 C88.8933527,10.1089157 90.0494815,8.07632351 90.0494815,8.07632351 C90.0494815,8.07632351 91.8559328,11.4870404 99.2985121,15.2618546 Z" id="twitter_s"></path>
            </g>
        </g>
    </g>
</svg>