<?xml version="1.0" encoding="UTF-8" standalone="no"?>
<svg width="43px" height="49px" viewBox="0 0 43 49" version="1.1" xmlns="http://www.w3.org/2000/svg" xmlns:xlink="http://www.w3.org/1999/xlink" xmlns:sketch="http://www.bohemiancoding.com/sketch/ns">
    <!-- Generator: Sketch 3.1.1 (8761) - http://www.bohemiancoding.com/sketch -->
    <title>vine_s</title>
    <desc>Created with Sketch.</desc>
    <defs></defs>
    <g id="Page-1" stroke="none" stroke-width="1" fill="none" fill-rule="evenodd" sketch:type="MSPage">
        <g id="shape-icons" sketch:type="MSLayerGroup" transform="translate(-303.000000, -402.000000)" fill="#2ED1A8">
            <g id="row-5-shape-icons" transform="translate(0.000000, 402.000000)" sketch:type="MSShapeGroup">
                <path d="M308.936543,29.980618 C305.183767,20.5995266 303.128675,8 303.128675,8 L311.527746,8 C311.527746,8 312.153209,17.5019986 316.352745,27.6795956 C320.552281,37.8571927 324.215704,40.6892209 324.215704,40.6892209 C324.215704,40.6892209 327.179068,37.3561901 329.130055,34.6711636 C331.081041,31.9861371 332.704127,29.007109 332.704127,29.007109 C332.704127,29.007109 329.058986,27.5655418 326.433359,23.5384915 C324.768259,20.9846462 323.669936,16.4855302 323.669936,13.5511334 C323.669936,5.98961074 327.484238,0.509835506 334.937923,0.509835506 C342.391607,0.509835506 345.64856,5.93760827 345.648559,11.3178998 C345.648558,16.6981913 343.694401,21.0420325 343.694401,21.0420325 C343.694401,21.0420325 341.457037,21.0420331 339.472044,20.1074734 C337.48705,19.1729137 336.993015,18.2985062 336.993015,18.2985062 C336.993015,18.2985062 337.975885,15.3216061 337.975885,12.5459508 C337.975885,9.77029541 336.444532,7.76851852 334.937922,7.76851852 C333.431313,7.76851878 331.112294,8.23112915 331.112294,13.5511334 C331.112294,18.8711377 334.778708,23.0134839 337.975885,23.9999997 C341.173063,24.9865155 345.648559,24.8227536 345.648559,24.8227536 L345.648559,30.1477536 C345.648559,30.1477536 344.493928,30.5612498 342.973078,30.6886258 C341.452227,30.8160016 339.918991,30.6886258 339.918991,30.6886258 C339.918991,30.6886258 338.361228,33.9579756 335.116626,38.3881985 C331.783578,42.9391873 326.751196,48.3002927 324.215704,48.3002927 C319.212001,48.3002935 312.68932,39.3617093 308.936543,29.980618 Z" id="vine_s"></path>
            </g>
        </g>
    </g>
</svg>