<?xml version="1.0" encoding="UTF-8" standalone="no"?>
<svg width="50px" height="42px" viewBox="0 0 50 42" version="1.1" xmlns="http://www.w3.org/2000/svg" xmlns:xlink="http://www.w3.org/1999/xlink" xmlns:sketch="http://www.bohemiancoding.com/sketch/ns">
    <!-- Generator: Sketch 3.1.1 (8761) - http://www.bohemiancoding.com/sketch -->
    <title>wechat_s</title>
    <desc>Created with Sketch.</desc>
    <defs></defs>
    <g id="Page-1" stroke="none" stroke-width="1" fill="none" fill-rule="evenodd" sketch:type="MSPage">
        <g id="shape-icons" sketch:type="MSLayerGroup" transform="translate(0.000000, -5.000000)" fill="#8DC81B">
            <g id="row-1-shape-icons" sketch:type="MSShapeGroup">
                <path d="M21.2216684,36.0866573 C20.166664,36.2549064 19.0794762,36.342801 17.96875,36.342801 C15.7520611,36.342801 13.6291221,35.992729 11.6686505,35.3525171 C10.6826956,35.0305435 7.0801267,38.8381922 6.18509709,38.3770742 C5.65186168,38.102352 7.79402049,33.601282 7.29800972,33.2814889 C2.8707959,30.4271313 0,25.841658 0,20.6714005 C0,12.0163246 8.04488291,5 17.96875,5 C27.3261034,5 35.0128767,11.2381219 35.8599968,19.2061716 C43.7312065,19.5169611 50,25.013954 50,31.7495684 C50,35.9324805 47.5823857,39.6377075 43.8647522,41.9198058 C43.1645537,42.3496281 45.3808004,45.9737477 44.5958353,46.2962852 C44.1120282,46.4950787 40.6509768,43.4275136 40.1395537,43.5816734 C38.5819603,44.0511833 36.9043959,44.3068292 35.15625,44.3068292 C28.7602336,44.3068292 23.3090492,40.8846519 21.2216684,36.0866573 L21.2216684,36.0866573 Z M20.4001165,33.1218383 C19.608996,33.2322054 18.7967909,33.289611 17.96875,33.289611 C15.8965381,33.289611 13.9235016,32.9300944 12.1319034,32.2807116 C11.9531898,32.2159351 11.3159109,32.0218782 10.9711617,32.2807124 C10.1961807,32.8625602 9.15697592,34.0703025 9.15697592,34.0703025 C9.15697592,34.0703025 9.5374243,33.1908944 9.66494769,31.9066911 C9.72321592,31.3199102 8.83585464,30.9084729 8.65876144,30.7875825 C5.28396412,28.4838203 3.125,24.6779005 3.125,20.7217286 C3.125,13.7806784 9.77077284,8.15384615 17.96875,8.15384615 C25.6231987,8.15384615 31.9244433,13.059291 32.7263454,19.3597349 C25.6842978,20.3407096 20.3125,25.5144448 20.3125,31.7495684 C20.3125,32.213292 20.3422131,32.6711447 20.4001165,33.1218383 L20.4001165,33.1218383 Z M11.71875,17.6153846 C13.0131674,17.6153846 14.0625,16.5563659 14.0625,15.25 C14.0625,13.9436341 13.0131674,12.8846154 11.71875,12.8846154 C10.4243326,12.8846154 9.375,13.9436341 9.375,15.25 C9.375,16.5563659 10.4243326,17.6153846 11.71875,17.6153846 Z M24.21875,17.6153846 C25.5131674,17.6153846 26.5625,16.5563659 26.5625,15.25 C26.5625,13.9436341 25.5131674,12.8846154 24.21875,12.8846154 C22.9243326,12.8846154 21.875,13.9436341 21.875,15.25 C21.875,16.5563659 22.9243326,17.6153846 24.21875,17.6153846 Z M29.6875,28.6538462 C30.550445,28.6538462 31.25,27.9478337 31.25,27.0769231 C31.25,26.2060125 30.550445,25.5 29.6875,25.5 C28.824555,25.5 28.125,26.2060125 28.125,27.0769231 C28.125,27.9478337 28.824555,28.6538462 29.6875,28.6538462 Z M39.0625,28.6538462 C39.925445,28.6538462 40.625,27.9478337 40.625,27.0769231 C40.625,26.2060125 39.925445,25.5 39.0625,25.5 C38.199555,25.5 37.5,26.2060125 37.5,27.0769231 C37.5,27.9478337 38.199555,28.6538462 39.0625,28.6538462 Z" id="wechat_s"></path>
            </g>
        </g>
    </g>
</svg>