<?xml version="1.0" encoding="UTF-8" standalone="no"?>
<svg width="50px" height="50px" viewBox="0 0 50 50" version="1.1" xmlns="http://www.w3.org/2000/svg" xmlns:xlink="http://www.w3.org/1999/xlink" xmlns:sketch="http://www.bohemiancoding.com/sketch/ns">
    <!-- Generator: Sketch 3.1.1 (8761) - http://www.bohemiancoding.com/sketch -->
    <title>wechat moment-s</title>
    <desc>Created with Sketch.</desc>
    <defs></defs>
    <g id="Page-1" stroke="none" stroke-width="1" fill="none" fill-rule="evenodd" sketch:type="MSPage">
        <g id="shape-icons" sketch:type="MSLayerGroup" transform="translate(-100.000000, -1.000000)">
            <g id="row-1-shape-icons" sketch:type="MSShapeGroup">
                <g id="wechat-moment-s" transform="translate(100.000000, 1.000000)">
                    <path d="M25,50 C38.8071194,50 50,38.8071194 50,25 C50,11.1928806 38.8071194,0 25,0 C11.1928806,0 0,11.1928806 0,25 C0,38.8071194 11.1928806,50 25,50 Z M25,33 C29.4182782,33 33,29.4182782 33,25 C33,20.5817218 29.4182782,17 25,17 C20.5817218,17 17,20.5817218 17,25 C17,29.4182782 20.5817218,33 25,33 Z" id="Oval-207" fill="#FFFFFF"></path>
                    <path d="M32.7502296,19.074476 L17.2624619,3.43086869 C17.2624619,3.43086869 20.3460577,2.01110906 25.0063461,2.0111083 C29.6666346,2.01110753 32.7502296,3.25001774 32.7502296,3.25001774 L32.7502296,19.074476 Z" id="Path" fill="#FC6B4F"></path>
                    <path d="M34.5462526,26.3245761 L34.6564479,4.31136973 C34.6564479,4.31136973 37.840801,5.48787951 41.1361231,8.78320055 C44.4314452,12.0785216 45.7358344,15.1349943 45.7358344,15.1349943 L34.5462526,26.3245761 Z" id="Path" fill="#7838F2"></path>
                    <path d="M30.7539276,32.8763605 L46.3975349,17.3885928 C46.3975349,17.3885928 47.8172945,20.4721885 47.8172953,25.132477 C47.8172961,29.7927655 46.5783858,32.8763605 46.5783858,32.8763605 L30.7539276,32.8763605 Z" id="Path" fill="#5698F3"></path>
                    <path d="M23.5947471,34.8918828 L45.6079534,35.002078 C45.6079534,35.002078 44.4314436,38.1864311 41.1361226,41.4817532 C37.8408016,44.7770754 34.7843288,46.0814645 34.7843288,46.0814645 L23.5947471,34.8918828 Z" id="Path" fill="#20E9F4"></path>
                    <path d="M17.2624619,31.1904773 L32.7502296,46.8340846 C32.7502296,46.8340846 29.6666339,48.2538442 25.0063454,48.253845 C20.3460569,48.2538458 17.2624619,47.0149355 17.2624619,47.0149355 L17.2624619,31.1904773 Z" id="Path" fill="#00FD60"></path>
                    <path d="M15.4664389,23.9403772 L15.3562436,45.9535836 C15.3562436,45.9535836 12.1718905,44.7770738 8.87656842,41.4817527 C5.5812463,38.1864317 4.27685717,35.129959 4.27685717,35.129959 L15.4664389,23.9403772 Z" id="Path" fill="#ABFB5B"></path>
                    <path d="M19.2587639,17.3885928 L3.61515663,32.8763605 C3.61515663,32.8763605 2.195397,29.7927648 2.19539624,25.1324763 C2.19539546,20.4721878 3.43430568,17.3885928 3.43430568,17.3885928 L19.2587639,17.3885928 Z" id="Path" fill="#F0E254"></path>
                    <path d="M26.4179444,15.3730705 L4.4047381,15.2628753 C4.4047381,15.2628753 5.58124788,12.0785222 8.87656892,8.78320005 C12.1718899,5.48787793 15.2283627,4.1834888 15.2283627,4.1834888 L26.4179444,15.3730705 Z" id="Path" fill="#F6B351"></path>
                </g>
            </g>
        </g>
    </g>
</svg>