<?xml version="1.0" encoding="UTF-8" standalone="no"?>
<svg width="50px" height="50px" viewBox="0 0 50 50" version="1.1" xmlns="http://www.w3.org/2000/svg" xmlns:xlink="http://www.w3.org/1999/xlink" xmlns:sketch="http://www.bohemiancoding.com/sketch/ns">
    <!-- Generator: Sketch 3.1.1 (8761) - http://www.bohemiancoding.com/sketch -->
    <title>whatsapp_s</title>
    <desc>Created with Sketch.</desc>
    <defs></defs>
    <g id="Page-1" stroke="none" stroke-width="1" fill="none" fill-rule="evenodd" sketch:type="MSPage">
        <g id="shape-icons" sketch:type="MSLayerGroup" transform="translate(-400.000000, -402.000000)" fill="#6DD65B">
            <g id="row-5-shape-icons" transform="translate(0.000000, 402.000000)" sketch:type="MSShapeGroup">
                <path d="M404.840863,37.2044729 C405.149826,37.6818633 400.095607,49.2258422 400.465517,49.5091408 C400.684787,49.6770704 413.128476,45.0820575 413.348709,45.2065145 C416.929937,47.2303251 421.078168,48.3870968 425.5,48.3870968 C439.030977,48.3870968 450,37.5552769 450,24.1935484 C450,10.8318199 439.030977,0 425.5,0 C411.969023,0 401,10.8318199 401,24.1935484 C401,28.9830254 402.40935,33.4474483 404.840863,37.2044729 Z M409.61754,35.5373784 C409.783006,35.7628944 406.871861,43.0528048 407.044104,43.1803703 C407.187364,43.2864709 414.467147,40.2012153 414.902093,40.4778156 C417.957653,42.4209702 421.595498,43.5483871 425.5,43.5483871 C436.324782,43.5483871 445.1,34.8829312 445.1,24.1935484 C445.1,13.5041656 436.324782,4.83870968 425.5,4.83870968 C414.675218,4.83870968 405.9,13.5041656 405.9,24.1935484 C405.9,28.430721 407.278812,32.3498828 409.61754,35.5373784 Z M419.801892,14.7828644 C421.136801,16.7131037 421.851932,18.9258168 421.851932,20.008634 C421.851932,21.0914512 420.087944,22.6450586 420.087944,22.6450586 C420.087944,22.6450586 420.434043,25.0931675 423.866667,27.8237501 C427.299292,30.5543326 428.860207,30.1776998 428.860207,30.1776998 C428.860207,30.1776998 430.528844,27.0234058 431.816079,27.4193544 C433.103314,27.8153031 435.153351,28.7653288 436.917339,29.7539892 C438.681326,30.7426494 436.583612,35.1209944 433.723091,35.6388642 C430.862571,36.156734 426.238064,35.591785 421.327503,31.3546746 C416.416942,27.1175642 414.998072,24.3212289 414.366903,21.7034787 C412.698266,14.7828644 418.466983,12.8526249 419.801892,14.7828644 Z" id="whatsapp_s"></path>
            </g>
        </g>
    </g>
</svg>