<?xml version="1.0" encoding="UTF-8" standalone="no"?>
<svg width="60px" height="19px" viewBox="0 0 60 19" version="1.1" xmlns="http://www.w3.org/2000/svg" xmlns:xlink="http://www.w3.org/1999/xlink" xmlns:sketch="http://www.bohemiancoding.com/sketch/ns">
    <!-- Generator: Sketch 3.1.1 (8761) - http://www.bohemiancoding.com/sketch -->
    <title>youku_S </title>
    <desc>Created with Sketch.</desc>
    <defs></defs>
    <g id="Page-1" stroke="none" stroke-width="1" fill="none" fill-rule="evenodd" sketch:type="MSPage">
        <g id="shape-icons" sketch:type="MSLayerGroup" transform="translate(-394.000000, -119.000000)">
            <g id="row-2-shape-icons-" transform="translate(3.000000, 102.000000)" sketch:type="MSShapeGroup">
                <g id="youku_S-" transform="translate(392.000000, 17.000000)">
                    <path d="M18.2659165,0.42072517 C19.6078786,0.397301135 20.7650511,0.666206255 21.7374689,1.2274486 C22.7098866,1.78869094 23.4525868,2.59771903 23.9655917,3.65455715 C24.4785966,4.71139527 24.7476389,5.95843975 24.7727269,7.395728 C24.7912702,8.45807149 24.6727512,9.42590268 24.4171663,10.2992506 C24.1615814,11.1725985 23.7686111,11.93269 23.2382436,12.5795479 C22.7078762,13.2264058 22.0512989,13.7254358 21.2684921,14.0766529 C20.4856854,14.4278699 19.5851739,14.6123624 18.5669308,14.6301359 C17.5545735,14.6478067 16.6451472,14.4902186 15.8386248,14.1573669 C15.0321024,13.8245152 14.3555391,13.3471926 13.8089146,12.7253846 C13.26229,12.1035767 12.8443947,11.351388 12.5552159,10.468796 C12.2660372,9.58620401 12.1124512,8.62937332 12.0944534,7.59827523 C12.0760192,6.54218082 12.2018408,5.57109672 12.471922,4.68499379 C12.7420032,3.79889086 13.1423852,3.04179542 13.6730799,2.41368476 C14.2037746,1.7855741 14.8547116,1.30070707 15.6259104,0.959069123 C16.3971092,0.617431174 17.2771024,0.437984984 18.2659165,0.42072517 Z M22.1233508,7.47466413 C22.1057892,6.46856236 21.9375446,5.59949999 21.6186119,4.86745095 C21.2996791,4.13540191 20.8529301,3.58530805 20.2783513,3.21715287 C19.7037725,2.84899769 19.0486306,2.67134383 18.3129058,2.68418595 C17.7890697,2.69332954 17.3067971,2.80645004 16.8660734,3.02355084 C16.4253498,3.24065164 16.0480961,3.5519675 15.7343011,3.95750774 C15.4205061,4.36304799 15.1763375,4.87832018 15.0017882,5.50333979 C14.8272388,6.1283594 14.7467281,6.82830163 14.7602538,7.60318746 C14.7738886,8.38432238 14.8789142,9.08883967 15.0753337,9.71676047 C15.2717532,10.3446813 15.5428025,10.8634621 15.8884896,11.2731185 C16.2341767,11.6827749 16.6280601,11.9868814 17.0701517,12.1854471 C17.5122432,12.3840128 17.9951998,12.4787224 18.5190358,12.4695788 C19.1900168,12.4578668 19.8034363,12.2690092 20.3593126,11.9030003 C20.9151889,11.5369914 21.3529041,10.9792728 21.6724714,10.2298277 C21.9920388,9.4803826 22.1423304,8.56200393 22.1233508,7.47466413 Z M25.3422698,8.72162324 L25.3422698,2.11224824 C25.3422698,1.54974543 25.4614736,1.12787464 25.6998847,0.846623238 C25.9382959,0.565371832 26.2517577,0.424748238 26.6402796,0.424748238 C27.0464615,0.424748238 27.3687532,0.565371832 27.6071644,0.846623238 C27.8455755,1.12787464 27.9647793,1.54974543 27.9647793,2.11224824 L27.9647793,8.87162324 C27.9647793,9.64037708 28.0457201,10.2825582 28.2076043,10.7981857 C28.3694884,11.3138133 28.6564604,11.7138093 29.0685291,11.9981857 C29.4805977,12.2825622 30.0574852,12.4247482 30.7992088,12.4247482 C31.8234937,12.4247482 32.5475463,12.1356886 32.9713883,11.5575607 C33.3952304,10.9794328 33.6071482,10.1028791 33.6071482,8.92787324 L33.6071482,2.11224824 C33.6071482,1.54349539 33.7248803,1.12006213 33.9603481,0.841935738 C34.1958159,0.563809348 34.5107494,0.424748238 34.9051579,0.424748238 C35.2995665,0.424748238 35.6189149,0.563809348 35.8632128,0.841935738 C36.1075106,1.12006213 36.2296577,1.54349539 36.2296577,2.11224824 L36.2296577,8.72162324 C36.2296577,9.79662861 36.131057,10.6934946 35.9338527,11.4122482 C35.7366485,12.1310018 35.3643206,12.7622455 34.816858,13.3059982 C34.3459224,13.7685006 33.798468,14.1059972 33.1744783,14.3184982 C32.5504886,14.5309993 31.8205494,14.6372482 30.9846387,14.6372482 C29.9897873,14.6372482 29.133286,14.5231869 28.4151092,14.2950607 C27.6969324,14.0669346 27.1112151,13.7138131 26.6579396,13.2356857 C26.204664,12.7575583 25.8720708,12.1450645 25.6601498,11.3981857 C25.4482287,10.651307 25.3422698,9.75912843 25.3422698,8.72162324 Z M1.32910424,17.7679686 C0.615265917,17.1117186 1.021974,16.0054686 1.021974,16.0054686 L4.35435467,10.4647417 L0.459061614,4.22527066 C0.113218285,3.63933023 -0.131443804,3.18230355 -0.274931993,2.85417691 C-0.418420182,2.52605027 -0.490163201,2.24089687 -0.490163201,1.99870816 C-0.490163201,1.60026866 -0.344837599,1.2565221 -0.0541820361,0.967458156 C0.236473527,0.678394211 0.59518862,0.533864406 1.021974,0.533864406 C1.47083449,0.533864406 1.81115394,0.668628684 2.04294255,0.938161281 C2.27473117,1.20769388 2.62240887,1.74479788 3.0859861,2.54948941 L6.11026051,7.76433316 L9.16764741,2.54948941 C9.35160663,2.2291753 9.50613005,1.95964675 9.63122232,1.74089566 C9.75631459,1.52214456 9.89428193,1.31706849 10.0451285,1.12566128 C10.195975,0.934254074 10.3633754,0.787771164 10.5473346,0.686208156 C10.7312939,0.584645148 10.9557207,0.533864406 11.220622,0.533864406 C11.6326907,0.533864406 11.9766892,0.676441106 12.2526281,0.961598781 C12.5285669,1.24675646 12.6665342,1.57683128 12.6665342,1.95183316 C12.6665342,2.25652218 12.5966308,2.56120663 12.4568218,2.86589566 C12.3170128,3.17058468 12.0778694,3.59245546 11.7393844,4.13152066 L3.3130298,17.5549906 C3.3130298,17.9518505 2.04294255,18.4242186 1.32910424,17.7679686 Z" id="youku-L" fill="#FF6A49"></path>
                    <path d="M39.4679276,2.15332031 L39.4679276,6.83821615 L44.6007643,1.29654948 C44.8472826,1.02918703 45.0571134,0.831706367 45.2302632,0.704101562 C45.4034129,0.576496758 45.6337866,0.512695312 45.9213913,0.512695312 C46.2970381,0.512695312 46.6007793,0.626626465 46.8326238,0.854492188 C47.0644684,1.08235791 47.1803889,1.36034992 47.1803889,1.68847656 C47.1803889,2.08344382 46.9837642,2.47536698 46.5905089,2.86425781 L43.4122001,5.98144531 L47.0747388,11.413737 C47.332996,11.790475 47.526686,12.1201158 47.6558146,12.4026693 C47.7849432,12.6852228 47.8495066,12.9601766 47.8495066,13.2275391 C47.8495066,13.5252836 47.7365207,13.7835276 47.5105457,14.0022786 C47.2845706,14.2210297 46.9778947,14.3304036 46.5905089,14.3304036 C46.226601,14.3304036 45.9301966,14.2498923 45.7012868,14.0888672 C45.472377,13.9278421 45.2786869,13.7136515 45.1202109,13.4462891 C44.9617349,13.1789266 44.8208694,12.9358735 44.6976103,12.7171224 L41.6073433,7.7952474 L39.4679276,9.91894531 L39.4679276,12.6806641 C39.4679276,13.2396946 39.3446704,13.654404 39.0981521,13.9248047 C38.8516338,14.1952053 38.5346865,14.3304036 38.1473007,14.3304036 C37.9242604,14.3304036 37.7100275,14.2696404 37.5045956,14.148112 C37.2991637,14.0265836 37.1406901,13.8625227 37.0291699,13.6559245 C36.9469971,13.4857847 36.8971073,13.2883041 36.8794988,13.0634766 C36.8618904,12.838649 36.8530863,12.5135655 36.8530863,12.0882161 L36.8530863,2.15332031 C36.8530863,1.60644258 36.9690068,1.19629043 37.2008514,0.922851562 C37.4326959,0.649412695 37.7481759,0.512695312 38.1473007,0.512695312 C38.540556,0.512695312 38.8589707,0.647893613 39.1025542,0.918294271 C39.3461377,1.18869493 39.4679276,1.60036616 39.4679276,2.15332031 Z M47.686831,2.17510374 C47.6772867,1.62830929 47.7889657,1.2161453 48.0218714,0.938599401 C48.254777,0.661053498 48.5648886,0.518902271 48.9522155,0.512141456 C49.3571481,0.505073331 49.6808345,0.636161572 49.9232845,0.905410111 C50.1657345,1.17465865 50.2917298,1.58267402 50.3012741,2.12946846 L50.4159646,8.70008216 C50.4290085,9.4473679 50.5205967,10.070207 50.6907318,10.5686183 C50.860867,11.0670295 51.1537434,11.4508616 51.5693698,11.720126 C51.9849961,11.9893904 52.5625217,12.1175672 53.3019639,12.1046601 C54.3230983,12.0868362 55.0400192,11.7932493 55.4527481,11.2238907 C55.865477,10.6545321 56.06187,9.79876918 56.0419329,8.65657635 L55.926288,2.03128348 C55.9166376,1.47841354 56.026823,1.06475631 56.2568474,0.790299374 C56.4868718,0.515842436 56.798477,0.375184451 57.1916724,0.3683212 C57.5848679,0.361457948 57.9055935,0.491078556 58.1538591,0.757186911 C58.4021247,1.02329527 58.5310807,1.43277827 58.5407311,1.98564821 L58.6528764,8.41045078 C58.6711167,9.45543571 58.588037,10.3289718 58.4036348,11.0310852 C58.2192327,11.7331986 57.8587607,12.3532933 57.3222082,12.8913879 C56.8605687,13.3491693 56.3205246,13.6867675 55.7020599,13.9041926 C55.0835952,14.1216177 54.3577039,14.2376015 53.5243643,14.2521475 C52.5325729,14.2694592 51.6767707,14.1734874 50.9569322,13.9642292 C50.2370936,13.7549709 49.6471862,13.421903 49.1871922,12.9650153 C48.7271982,12.5081276 48.3852354,11.9185258 48.1612935,11.196192 C47.9373515,10.4738582 47.8165804,9.60843828 47.7989764,8.59990631 L47.686831,2.17510374 Z" id="Path" fill="#3DBCF4"></path>
                </g>
            </g>
        </g>
    </g>
</svg>