<?xml version="1.0" encoding="UTF-8" standalone="no"?>
<svg width="45px" height="44px" viewBox="0 0 45 44" version="1.1" xmlns="http://www.w3.org/2000/svg" xmlns:xlink="http://www.w3.org/1999/xlink" xmlns:sketch="http://www.bohemiancoding.com/sketch/ns">
    <!-- Generator: Sketch 3.1.1 (8761) - http://www.bohemiancoding.com/sketch -->
    <title>zhihu_s</title>
    <desc>Created with Sketch.</desc>
    <defs></defs>
    <g id="Page-1" stroke="none" stroke-width="1" fill="none" fill-rule="evenodd" sketch:type="MSPage">
        <g id="shape-icons" sketch:type="MSLayerGroup" transform="translate(-303.000000, -104.000000)" fill="#49C1FB">
            <g id="row-2-shape-icons-" transform="translate(3.000000, 102.000000)" sketch:type="MSShapeGroup">
                <path d="M310.813775,2.49397475 C310.813775,2.49397475 307.555856,2.68809295 306.406002,4.72633526 C305.256149,6.76457749 301.519123,17.2469663 301.519123,17.2469663 C301.519123,17.2469663 302.764799,17.8293209 304.872864,16.2763745 C306.980929,14.7234284 307.651677,12.0057716 307.651677,12.0057716 L311.484524,11.8116535 L311.580345,22.876397 C311.580345,22.876397 304.968685,22.7793368 303.627189,22.8763965 C302.285693,22.9734561 301.519123,26.5646444 301.519123,26.5646444 L311.580345,26.5646444 C311.580345,26.5646444 310.717954,32.6793713 308.130783,37.1440928 C305.543612,41.6088145 300.656733,45.1029429 300.656733,45.1029429 C300.656733,45.1029429 304.202116,46.5588314 307.651677,44.5205882 C311.101239,42.4823449 313.644611,33.5184083 313.644611,33.5184083 L321.737387,43.5499967 C321.737387,43.5499967 322.47589,38.7755379 321.606349,37.4268496 C320.736808,36.0781613 316.008677,30.6558862 316.008677,30.6558862 L313.943516,32.5000109 L315.413191,26.5646444 L324.228737,26.5646448 C324.228737,26.5646448 324.228738,23.0705153 322.503957,22.8763965 C320.779176,22.6822776 315.413191,22.8763965 315.413191,22.8763965 L315.413191,12.0057716 L323.366347,12.0057718 C323.366347,12.0057718 323.270526,8.41458312 321.737387,8.41458312 C320.204248,8.41458311 308.801531,8.41458312 308.801531,8.41458312 L310.813775,2.49397475 Z M326.110566,8.07165391 L344.242754,8.07165391 L344.242754,40.7527817 L336.229172,40.7527817 L330.528204,44.8553796 L329.35014,40.7527817 L326.110566,40.7527817 L326.110566,8.07165391 Z M329.949594,11.7089759 L340.557447,11.7089759 L340.557447,37.0409041 L336.789198,37.0409041 L331.986031,40.7087733 L330.938807,37.0409041 L329.949594,37.0409041 L329.949594,11.7089759 Z" id="zhihu_s"></path>
            </g>
        </g>
    </g>
</svg>