<?xml version="1.0" encoding="UTF-8" standalone="no"?>
<svg width="60px" height="60px" viewBox="0 0 60 60" version="1.1" xmlns="http://www.w3.org/2000/svg" xmlns:xlink="http://www.w3.org/1999/xlink" xmlns:sketch="http://www.bohemiancoding.com/sketch/ns">
    <!-- Generator: Sketch 3.1.1 (8761) - http://www.bohemiancoding.com/sketch -->
    <title>alipay_r</title>
    <desc>Created with Sketch.</desc>
    <defs></defs>
    <g id="Page-1" stroke="none" stroke-width="1" fill="none" fill-rule="evenodd" sketch:type="MSPage">
        <g id="rounded-icons" sketch:type="MSLayerGroup" transform="translate(-200.000000, -100.000000)" fill="#606974">
            <g id="row-2-rounded-icons-" transform="translate(0.000000, 100.000000)" sketch:type="MSShapeGroup">
                <path d="M241.500047,0 L218.500012,0 C211.980746,0 207.847634,0.025253709 203.940926,3.9316685 C200.024726,7.84780978 200,12.0007266 200,18.5000117 L200,41.5000469 C200,48.0196053 200.025605,52.1530691 203.931669,56.0591324 C207.849861,59.9772658 212.00102,60 218.500012,60 L241.500047,60 C248.019605,60 252.151839,59.9756252 256.059132,56.0683315 C259.974571,52.1528347 260,47.9989805 260,41.4999883 L260,18.5000117 C260,11.9806877 259.974922,7.84745822 256.068331,3.94092624 C252.150491,0.0229685706 247.999039,0 241.500047,0 Z M225.969426,17.1911051 L225.969426,11.5191075 L232.092283,11.5191075 L232.092283,17.1911051 L244.589618,17.1911051 L244.589618,19.6833457 L232.092282,19.7692854 L232.092283,23.2927988 L242.411431,23.3787378 C242.411431,23.3787378 242.224601,25.3553433 240.916791,28.9504303 C239.608982,32.5455174 238.382888,34.3789753 238.382888,34.3789753 L258.403425,41.1101353 C258.403425,41.1101353 257.68552,43.0356161 256.81981,44.7231161 C255.954101,46.410616 254.750554,48.2279237 254.750554,48.2279237 L235.615022,38.933761 C235.615022,38.933761 231.996262,43.0342929 228.305773,44.8390192 C224.615284,46.6437453 220.377042,47.7665134 215.788172,46.6575919 C211.199301,45.5486703 207.941316,42.541873 208.501806,36.9904392 C209.062296,31.4390053 214.854022,29.5247174 219.618184,29.5247169 C224.382347,29.5247169 233.421254,32.6880201 233.421254,32.6880201 C233.421254,32.6880201 234.180897,30.943959 234.918499,28.9504303 C235.656102,26.9569017 235.866646,25.3553433 235.866646,25.3553433 L216.617105,25.3553433 L216.617105,23.3787378 L225.969426,23.3787378 L225.969426,19.5974067 L214.310837,19.683346 L214.310837,17.1911051 L225.969426,17.1911051 Z M231.117004,36.6412263 C231.117004,36.6412263 225.386392,43.6174729 218.634482,43.6174723 C211.882572,43.6174717 210.464104,40.3037557 210.464104,37.9202048 C210.464104,35.5366539 211.868167,32.9464503 217.613185,32.5717496 C223.358203,32.1970489 231.117004,36.6412263 231.117004,36.6412263 Z" id="alipay_r"></path>
            </g>
        </g>
    </g>
</svg>