<?xml version="1.0" encoding="UTF-8" standalone="no"?>
<svg width="60px" height="60px" viewBox="0 0 60 60" version="1.1" xmlns="http://www.w3.org/2000/svg" xmlns:xlink="http://www.w3.org/1999/xlink" xmlns:sketch="http://www.bohemiancoding.com/sketch/ns">
    <!-- Generator: Sketch 3.1.1 (8761) - http://www.bohemiancoding.com/sketch -->
    <title>bitcoin_r</title>
    <desc>Created with Sketch.</desc>
    <defs></defs>
    <g id="Page-1" stroke="none" stroke-width="1" fill="none" fill-rule="evenodd" sketch:type="MSPage">
        <g id="rounded-icons" sketch:type="MSLayerGroup" transform="translate(-200.000000, -500.000000)" fill="#F9934A">
            <g id="row-6-rounded-icons" transform="translate(0.000000, 500.000000)" sketch:type="MSShapeGroup">
                <path d="M241.500047,0 L218.500012,0 C211.980746,0 207.847634,0.025253709 203.940926,3.9316685 C200.024726,7.84780978 200,12.0007266 200,18.5000117 L200,41.5000469 C200,48.0196053 200.025605,52.1530691 203.931669,56.0591324 C207.849861,59.9772658 212.00102,60 218.500012,60 L241.500047,60 C248.019605,60 252.151839,59.9756252 256.059132,56.0683315 C259.974571,52.1528347 260,47.9989805 260,41.4999883 L260,18.5000117 C260,11.9806877 259.974922,7.84745822 256.068331,3.94092624 C252.150491,0.0229685706 247.999039,0 241.500047,0 Z M219.087318,13.0669379 L218.132574,16.8962073 C218.132574,16.8962073 222.013823,17.8639111 222.444909,17.9713931 C222.875996,18.0788752 222.821379,18.297932 222.78496,18.4439969 C222.748542,18.5900619 217.897171,38.0478484 217.83304,38.3050657 C217.768908,38.562283 217.730702,38.7155191 217.367991,38.6250855 C217.00528,38.5346519 213.245587,37.5972551 213.245587,37.5972551 L212.184603,41.8526304 L219.794768,43.7500577 L218.255443,49.9239549 L222.313855,50.9358307 L223.85318,44.7619335 L226.380133,45.3919721 L224.840807,51.5658702 L228.705559,52.5294615 L230.244884,46.3555643 C230.244884,46.3555643 231.219143,46.5984747 233.152854,47.0806026 C235.086565,47.5627306 242.423539,47.658566 244.02405,41.2392701 C245.62456,34.8199742 240.337588,32.1036926 240.337588,32.1036926 C240.337588,32.1036926 244.823127,30.7248017 245.500322,26.57983 C246.177517,22.4348583 243.226425,20.5172015 241.576309,19.4557543 C239.926193,18.394307 237.405906,17.634275 237.405906,17.634275 L239.014588,11.182205 L235.298481,10.2556756 L233.6898,16.7077455 L230.716914,15.9665218 L232.325595,9.51445185 L228.564472,8.57669845 L226.95579,15.0287684 L219.087318,13.0669379 Z M229.730225,19.7897487 L227.783529,27.5975197 C227.783529,27.5975197 231.80004,28.5989478 232.833951,28.8567313 C233.867862,29.1145147 237.155731,29.2604543 237.970909,25.9909504 C238.786087,22.7214464 235.125987,21.1350631 234.337241,20.9384068 C233.548496,20.7417505 229.730225,19.7897487 229.730225,19.7897487 Z M226.833475,31.6686036 L224.789444,39.866763 C224.789444,39.866763 230.918596,41.3949323 231.703128,41.590538 C232.48766,41.7861437 235.930323,41.5560217 236.696834,38.4817121 C237.463345,35.4074024 235.370805,33.7971991 233.992325,33.4535055 C232.613845,33.1098119 226.833475,31.6686036 226.833475,31.6686036 Z" id="bitcoin_r"></path>
            </g>
        </g>
    </g>
</svg>