<?xml version="1.0" encoding="UTF-8" standalone="no"?>
<svg width="60px" height="60px" viewBox="0 0 60 60" version="1.1" xmlns="http://www.w3.org/2000/svg" xmlns:xlink="http://www.w3.org/1999/xlink" xmlns:sketch="http://www.bohemiancoding.com/sketch/ns">
    <!-- Generator: Sketch 3.1.1 (8761) - http://www.bohemiancoding.com/sketch -->
    <title>dianpin_r</title>
    <desc>Created with Sketch.</desc>
    <defs></defs>
    <g id="Page-1" stroke="none" stroke-width="1" fill="none" fill-rule="evenodd" sketch:type="MSPage">
        <g id="rounded-icons" sketch:type="MSLayerGroup" transform="translate(0.000000, -100.000000)" fill="#F9934A">
            <g id="row-2-rounded-icons-" transform="translate(0.000000, 100.000000)" sketch:type="MSShapeGroup">
                <path d="M33.8694528,27.6232199 C44.4566437,26.6678978 54.5136885,33.4284403 57.3589822,44.0472213 L14.3313772,55.5764333 C11.4860835,44.9576523 16.8154684,34.0743284 26.4619058,29.6080661 C18.2826803,29.983828 10.6562645,24.6496836 8.45000047,16.4157943 L42.8720845,7.19242472 C45.0783484,15.426314 41.1407508,23.8590265 33.8694528,27.6232199 L33.8694528,27.6232199 Z M41.5000469,0 L18.5000117,0 C11.9807462,0 7.847634,0.025253709 3.94092624,3.9316685 C0.0247263693,7.84780978 0,12.0007266 0,18.5000117 L0,41.5000469 C0,48.0196053 0.0256052687,52.1530691 3.9316685,56.0591324 C7.84986055,59.9772658 12.0010195,60 18.5000117,60 L41.5000469,60 C48.0196053,60 52.1518387,59.9756252 56.0591324,56.0683315 C59.9745705,52.1528347 60,47.9989805 60,41.4999883 L60,18.5000117 C60,11.9806877 59.9749221,7.84745822 56.0683315,3.94092624 C52.150491,0.0229685706 47.9990391,0 41.5000469,0 Z M50.1877147,45.9687566 C48.0652453,38.0475928 39.9232728,33.3468228 32.0021091,35.4692923 C24.0809453,37.5917617 19.3801753,45.7337342 21.5026447,53.6548979 L50.1877147,45.9687566 Z M14.1870145,14.8785661 C15.88499,21.2154971 22.398568,24.9761131 28.735499,23.2781375 C35.07243,21.580162 38.833046,15.066584 37.1350705,8.72965298 L14.1870145,14.8785661 Z M28.5433455,22.5610108 C32.5039273,21.4997761 34.8543123,17.4287898 33.7930776,13.4682079 C32.7318429,9.50762606 28.6608567,7.15724106 24.7002748,8.21847577 C20.7396929,9.27971048 18.3893079,13.3506967 19.4505426,17.3112786 C20.5117774,21.2718605 24.5827636,23.6222455 28.5433455,22.5610108 Z" id="dianpin_r"></path>
            </g>
        </g>
    </g>
</svg>