<?xml version="1.0" encoding="UTF-8" standalone="no"?>
<svg width="60px" height="60px" viewBox="0 0 60 60" version="1.1" xmlns="http://www.w3.org/2000/svg" xmlns:xlink="http://www.w3.org/1999/xlink" xmlns:sketch="http://www.bohemiancoding.com/sketch/ns">
    <!-- Generator: Sketch 3.1.1 (8761) - http://www.bohemiancoding.com/sketch -->
    <title>douban_r</title>
    <desc>Created with Sketch.</desc>
    <defs></defs>
    <g id="Page-1" stroke="none" stroke-width="1" fill="none" fill-rule="evenodd" sketch:type="MSPage">
        <g id="rounded-icons" sketch:type="MSLayerGroup" transform="translate(-501.000000, -100.000000)" fill="#58CC6A">
            <g id="row-2-rounded-icons-" transform="translate(0.000000, 100.000000)" sketch:type="MSShapeGroup">
                <path d="M542.500047,0 L519.500012,0 C512.980746,0 508.847634,0.025253709 504.940926,3.9316685 C501.024726,7.84780978 501,12.0007266 501,18.5000117 L501,41.5000469 C501,48.0196053 501.025605,52.1530691 504.931669,56.0591324 C508.849861,59.9772658 513.00102,60 519.500012,60 L542.500047,60 C549.019605,60 553.151839,59.9756252 557.059132,56.0683315 C560.974571,52.1528347 561,47.9989805 561,41.4999883 L561,18.5000117 C561,11.9806877 560.974922,7.84745822 557.068331,3.94092624 C553.150491,0.0229685706 548.999039,0 542.500047,0 Z M547.321214,16.5765625 L513.003305,16.5765625 L513.003305,13.0492187 L547.321214,13.0492187 L547.321214,16.5765625 Z M548.11223,47.7279297 L511.9689,47.7279297 L511.9689,44.1595703 L522.779447,44.1595703 C521.45432,41.2474464 520.054845,38.7318465 518.58098,36.6126953 L521.359675,34.8080078 L516.491887,34.8080078 L516.491887,20.7191406 L543.954327,20.7191406 L543.954327,34.8080078 L538.843149,34.8080078 L541.621845,36.6537109 C540.31024,39.5658349 538.944568,42.067763 537.52479,44.1595703 L548.11223,44.1595703 L548.11223,47.7279297 Z M540.100661,31.2601562 L540.100661,24.3490234 L520.32527,24.3490234 L520.32527,31.2601562 L540.100661,31.2601562 Z M538.173828,34.8080078 L522.069561,34.8080078 C523.800339,37.7201317 525.375594,40.8372881 526.795373,44.1595703 L533.366887,44.1595703 C535.381621,41.0013514 536.983918,37.8841951 538.173828,34.8080078 Z" id="douban_r"></path>
            </g>
        </g>
    </g>
</svg>