<?xml version="1.0" encoding="UTF-8" standalone="no"?>
<svg width="60px" height="60px" viewBox="0 0 60 60" version="1.1" xmlns="http://www.w3.org/2000/svg" xmlns:xlink="http://www.w3.org/1999/xlink" xmlns:sketch="http://www.bohemiancoding.com/sketch/ns">
    <!-- Generator: Sketch 3.1.1 (8761) - http://www.bohemiancoding.com/sketch -->
    <title>dribbble_r</title>
    <desc>Created with Sketch.</desc>
    <defs></defs>
    <g id="Page-1" stroke="none" stroke-width="1" fill="none" fill-rule="evenodd" sketch:type="MSPage">
        <g id="rounded-icons" sketch:type="MSLayerGroup" transform="translate(-500.000000, -300.000000)" fill="#F46799">
            <g id="row-4-rounded-icons" transform="translate(0.000000, 300.000000)" sketch:type="MSShapeGroup">
                <path d="M541.500047,0 L518.500012,0 C511.980746,0 507.847634,0.025253709 503.940926,3.9316685 C500.024726,7.84780978 500,12.0007266 500,18.5000117 L500,41.5000469 C500,48.0196053 500.025605,52.1530691 503.931669,56.0591324 C507.849861,59.9772658 512.00102,60 518.500012,60 L541.500047,60 C548.019605,60 552.151839,59.9756252 556.059132,56.0683315 C559.974571,52.1528347 560,47.9989805 560,41.4999883 L560,18.5000117 C560,11.9806877 559.974922,7.84745822 556.068331,3.94092624 C552.150491,0.0229685706 547.999039,0 541.500047,0 Z M548.713822,14.8360812 C552.100386,19.1037037 554.150734,24.539307 554.20417,30.4582238 C553.402625,30.2833134 545.364324,28.6017523 537.27444,29.6512147 C537.103629,29.2217443 536.929421,28.7903624 536.75027,28.3567503 C536.24556,27.1339705 535.703166,25.9191557 535.137606,24.7244126 C544.12695,20.9388292 548.20139,15.5513341 548.713822,14.8360812 Z M529.893745,5.61648746 C536.071351,5.61648746 541.717375,8.00692951 546.01112,11.9362007 C545.573745,12.5784946 541.913514,17.6528076 533.268263,20.995221 C529.284015,13.444763 524.868263,7.24197531 524.196139,6.31389885 C526.024402,5.85925926 527.932046,5.61648746 529.893745,5.61648746 Z M519.556757,7.99960175 C520.197683,8.90633214 524.542394,15.1164476 528.57112,22.5031462 C517.198147,25.6187176 507.181158,25.5737953 506.093591,25.5588212 C507.670116,17.7767423 512.754595,11.3088809 519.556757,7.99960175 Z M505.579923,30.6952609 C505.579923,30.4387893 505.584865,30.1835922 505.592278,29.9290323 C506.656371,29.9513341 518.438301,30.1080844 530.580386,26.3600956 C531.276602,27.7651135 531.941313,29.1911589 532.55166,30.6159299 C532.230116,30.7092792 531.910116,30.8086818 531.593514,30.9144564 C519.0539,35.0951016 512.381158,46.4910394 511.830425,47.463401 C507.947181,43.0173636 505.579923,37.13636 505.579923,30.6952609 Z M529.893745,55.7737157 C524.272741,55.7737157 519.092201,53.7955396 514.969884,50.4798885 C515.407259,49.5569096 520.330193,39.7475906 534.043861,34.8185583 C534.097297,34.7994425 534.150734,34.7812824 534.20417,34.7628037 C537.617606,43.9123059 539.029189,51.5803266 539.390888,53.7805655 C536.47166,55.0632417 533.261467,55.7737157 529.893745,55.7737157 Z M543.47861,51.4847471 C543.229344,49.9589805 541.935135,42.6178415 538.755212,33.6040621 C546.374363,32.345918 553.068108,34.4053365 553.899923,34.6758264 C552.816062,41.654082 548.933127,47.680685 543.47861,51.4847471 Z" id="dribbble_r"></path>
            </g>
        </g>
    </g>
</svg>