<?xml version="1.0" encoding="UTF-8" standalone="no"?>
<svg width="60px" height="60px" viewBox="0 0 60 60" version="1.1" xmlns="http://www.w3.org/2000/svg" xmlns:xlink="http://www.w3.org/1999/xlink" xmlns:sketch="http://www.bohemiancoding.com/sketch/ns">
    <!-- Generator: Sketch 3.1.1 (8761) - http://www.bohemiancoding.com/sketch -->
    <title>dropbox_r</title>
    <desc>Created with Sketch.</desc>
    <defs></defs>
    <g id="Page-1" stroke="none" stroke-width="1" fill="none" fill-rule="evenodd" sketch:type="MSPage">
        <g id="rounded-icons" sketch:type="MSLayerGroup" transform="translate(-500.000000, -200.000000)" fill="#60ACEC">
            <g id="row-3-rounded-icons" transform="translate(0.000000, 200.000000)" sketch:type="MSShapeGroup">
                <path d="M541.500047,0 L518.500012,0 C511.980746,0 507.847634,0.025253709 503.940926,3.9316685 C500.024726,7.84780978 500,12.0007266 500,18.5000117 L500,41.5000469 C500,48.0196053 500.025605,52.1530691 503.931669,56.0591324 C507.849861,59.9772658 512.00102,60 518.500012,60 L541.500047,60 C548.019605,60 552.151839,59.9756252 556.059132,56.0683315 C559.974571,52.1528347 560,47.9989805 560,41.4999883 L560,18.5000117 C560,11.9806877 559.974922,7.84745822 556.068331,3.94092624 C552.150491,0.0229685706 547.999039,0 541.500047,0 Z M538.458862,8.60660542 L555.501184,17.7406187 L547.753246,24.5285843 L530.816776,15.3945709 L538.458862,8.60660542 Z M547.435687,25.2807971 L555.374657,32.4805488 L538.54404,41.0772672 L530.816776,34.0924335 L547.435687,25.2807971 Z M513.351042,25.1733381 L529.969953,34.0924335 L522.136835,41.1847262 L505.412071,32.3730898 L513.351042,25.1733381 Z M522.242688,8.51719619 L529.969953,15.5020299 L513.351042,24.5285843 L505.517924,17.6512095 L522.242688,8.51719619 Z M513.774453,38.8206287 L513.774453,45.8591919 L529.440688,54.1872629 L529.440688,37.5311209 L522.560247,43.7637417 L513.774453,38.8206287 Z M531.240188,37.5311209 L531.240188,53.9723449 L546.906422,44.9457905 L546.906422,39.1952486 L538.226482,43.763742 L531.240188,37.5311209 Z" id="dropbox_r"></path>
            </g>
        </g>
    </g>
</svg>