<?xml version="1.0" encoding="UTF-8" standalone="no"?>
<svg width="60px" height="60px" viewBox="0 0 60 60" version="1.1" xmlns="http://www.w3.org/2000/svg" xmlns:xlink="http://www.w3.org/1999/xlink" xmlns:sketch="http://www.bohemiancoding.com/sketch/ns">
    <!-- Generator: Sketch 3.1.1 (8761) - http://www.bohemiancoding.com/sketch -->
    <title>email_r</title>
    <desc>Created with Sketch.</desc>
    <defs></defs>
    <g id="Page-1" stroke="none" stroke-width="1" fill="none" fill-rule="evenodd" sketch:type="MSPage">
        <g id="rounded-icons" sketch:type="MSLayerGroup" transform="translate(-201.000000, -300.000000)" fill="#708B97">
            <g id="row-4-rounded-icons" transform="translate(0.000000, 300.000000)" sketch:type="MSShapeGroup">
                <path d="M242.500047,0 L219.500012,0 C212.980746,0 208.847634,0.025253709 204.940926,3.9316685 C201.024726,7.84780978 201,12.0007266 201,18.5000117 L201,41.5000469 C201,48.0196053 201.025605,52.1530691 204.931669,56.0591324 C208.849861,59.9772658 213.00102,60 219.500012,60 L242.500047,60 C249.019605,60 253.151839,59.9756252 257.059132,56.0683315 C260.974571,52.1528347 261,47.9989805 261,41.4999883 L261,18.5000117 C261,11.9806877 260.974922,7.84745822 257.068331,3.94092624 C253.150491,0.0229685706 248.999039,0 242.500047,0 Z M207.588542,14.9714335 L231.072271,36.8394049 L254.333333,14.9714335 L207.588542,14.9714335 Z M206,18.154086 L218.996747,30.0838658 L206,41.7878474 L206,18.154086 Z M256.000001,17.9790602 L256,41.7878465 L242.647524,30.0511213 L256.000001,17.9790602 Z M240.436257,32.0360816 L231.018364,40.8117887 L221.457898,32.0360816 L207.635558,45 L254.401171,45 L240.436257,32.0360816 Z" id="email_r"></path>
            </g>
        </g>
    </g>
</svg>