<?xml version="1.0" encoding="UTF-8" standalone="no"?>
<svg width="60px" height="60px" viewBox="0 0 60 60" version="1.1" xmlns="http://www.w3.org/2000/svg" xmlns:xlink="http://www.w3.org/1999/xlink" xmlns:sketch="http://www.bohemiancoding.com/sketch/ns">
    <!-- Generator: Sketch 3.1.1 (8761) - http://www.bohemiancoding.com/sketch -->
    <title>evernote_r</title>
    <desc>Created with Sketch.</desc>
    <defs></defs>
    <g id="Page-1" stroke="none" stroke-width="1" fill="none" fill-rule="evenodd" sketch:type="MSPage">
        <g id="rounded-icons" sketch:type="MSLayerGroup" transform="translate(-298.000000, -200.000000)" fill="#89C642">
            <g id="row-3-rounded-icons" transform="translate(0.000000, 200.000000)" sketch:type="MSShapeGroup">
                <path d="M339.500047,0 L316.500012,0 C309.980746,0 305.847634,0.025253709 301.940926,3.9316685 C298.024726,7.84780978 298,12.0007266 298,18.5000117 L298,41.5000469 C298,48.0196053 298.025605,52.1530691 301.931669,56.0591324 C305.849861,59.9772658 310.00102,60 316.500012,60 L339.500047,60 C346.019605,60 350.151839,59.9756252 354.059132,56.0683315 C357.974571,52.1528347 358,47.9989805 358,41.4999883 L358,18.5000117 C358,11.9806877 357.974922,7.84745822 354.068331,3.94092624 C350.150491,0.0229685706 345.999039,0 339.500047,0 Z M331.095892,9.52685901 C331.095892,9.52685901 342.61401,8.93944578 345.265752,11.7135658 C347.050105,13.5802668 346.525295,14.7002873 346.735219,17.8470118 C346.945143,20.9937362 347.732357,28.5672086 347.312509,34.7006545 C346.776783,42.5269508 344.898385,50.2209395 342.746666,52.5143149 C340.594946,54.8076904 331.794585,55.1379092 328.944172,53.3676639 C326.801192,52.0367691 326.897415,45.3141828 328.471844,43.3408132 C330.137006,41.2537198 334.82204,42.0607897 334.82204,42.0607897 L334.559635,45.2608484 C334.559635,45.2608484 332.460397,44.9408426 331.620701,45.7408573 C330.781006,46.540872 331.214214,48.8374561 331.988068,49.2609219 C332.761922,49.6843877 337.183683,49.9542679 338.863074,48.940916 C340.542465,47.927564 339.550103,42.5161022 339.072998,40.9941034 C338.595894,39.4721047 336.396469,39.0207339 336.396469,39.0207339 C336.396469,39.0207339 331.979328,38.9362915 329.836349,37.847379 C327.693369,36.7584666 327.527186,31.6072644 327.527186,31.6072644 C327.527186,31.6072644 327.369743,39.7140799 325.113062,40.3540917 C322.876194,40.9884844 311.887859,38.4340564 310.995683,37.2607016 C309.440639,35.2155701 307.269534,23.340446 307.269534,20.1937215 C307.269534,17.0469971 309.287375,16.8623032 310.418392,16.6203226 C311.549409,16.378342 316.506184,16.7803255 317.345879,16.0336451 C318.185575,15.2869648 317.411721,9.12957148 318.185575,7.98016394 C318.959428,6.83075633 319.682578,5.44684066 325.113062,5.6867885 C330.543546,5.92673565 331.095892,9.52685901 331.095892,9.52685901 Z M316.086336,11.2868913 C316.169244,9.33495686 316.29626,7.39348651 316.29626,7.39348651 L308.634039,15.2869648 C308.634039,15.2869648 311.133751,14.9644151 312.727554,14.8602903 C314.321358,14.7561654 315.981374,14.806956 315.981374,14.806956 C315.981374,14.806956 316.003428,13.2388258 316.086336,11.2868913 Z M337.515021,28.5677083 C339.180646,28.6979167 340.461896,29.3489583 340.461896,29.3489583 C340.461896,29.3489583 340.504604,28.6707299 340.504604,28.6111111 C340.504604,27.0769867 339.238141,25.8333333 337.728562,25.8333333 C336.218984,25.8333333 334.973875,27.0769867 334.973875,28.6111111 C334.973875,28.6360523 335.849396,28.4375 337.515021,28.5677083 Z" id="evernote_r"></path>
            </g>
        </g>
    </g>
</svg>