<?xml version="1.0" encoding="UTF-8" standalone="no"?>
<svg width="60px" height="60px" viewBox="0 0 60 60" version="1.1" xmlns="http://www.w3.org/2000/svg" xmlns:xlink="http://www.w3.org/1999/xlink" xmlns:sketch="http://www.bohemiancoding.com/sketch/ns">
    <!-- Generator: Sketch 3.1.1 (8761) - http://www.bohemiancoding.com/sketch -->
    <title>facebook_r</title>
    <desc>Created with Sketch.</desc>
    <defs></defs>
    <g id="Page-1" stroke="none" stroke-width="1" fill="none" fill-rule="evenodd" sketch:type="MSPage">
        <g id="rounded-icons" sketch:type="MSLayerGroup" transform="translate(0.000000, -300.000000)" fill="#667EB9">
            <g id="row-4-rounded-icons" transform="translate(0.000000, 300.000000)" sketch:type="MSShapeGroup">
                <path d="M41.5000469,0 L18.5000117,0 C11.9807462,0 7.847634,0.025253709 3.94092624,3.9316685 C0.0247263693,7.84780978 0,12.0007266 0,18.5000117 L0,41.5000469 C0,48.0196053 0.0256052687,52.1530691 3.9316685,56.0591324 C7.84986055,59.9772658 12.0010195,60 18.5000117,60 L41.5000469,60 C48.0196053,60 52.1518387,59.9756252 56.0591324,56.0683315 C59.9745705,52.1528347 60,47.9989805 60,41.4999883 L60,18.5000117 C60,11.9806877 59.9749221,7.84745822 56.0683315,3.94092624 C52.150491,0.0229685706 47.9990391,0 41.5000469,0 Z M40.3456,8.78672727 C38.7356,8.78672727 37.19,8.98145455 35.3868,9.69545455 C31.716,11.1883636 29.8484,14.6934545 29.8484,20.1458182 L29.8484,25.4683636 L24.6964,25.4683636 L24.6964,34.3609091 L29.8484,34.3609091 L29.8484,60 L40.3456,60 L40.3456,34.3609091 L47.494,34.3609091 L48.46,25.4683636 L40.3456,25.4683636 L40.3456,21.444 C40.3456,20.2107273 40.4744,19.302 40.7964,18.7827273 C41.2472,18.0038182 42.1488,17.6143636 43.5656,17.6143636 L48.3312,17.6143636 L48.3312,8.78672727 L40.3456,8.78672727 Z" id="facebook_r"></path>
            </g>
        </g>
    </g>
</svg>