<?xml version="1.0" encoding="UTF-8" standalone="no"?>
<svg width="60px" height="60px" viewBox="0 0 60 60" version="1.1" xmlns="http://www.w3.org/2000/svg" xmlns:xlink="http://www.w3.org/1999/xlink" xmlns:sketch="http://www.bohemiancoding.com/sketch/ns">
    <!-- Generator: Sketch 3.1.1 (8761) - http://www.bohemiancoding.com/sketch -->
    <title>google-plus_r</title>
    <desc>Created with Sketch.</desc>
    <defs></defs>
    <g id="Page-1" stroke="none" stroke-width="1" fill="none" fill-rule="evenodd" sketch:type="MSPage">
        <g id="rounded-icons" sketch:type="MSLayerGroup" transform="translate(-300.000000, -300.000000)" fill="#F35E46">
            <g id="row-4-rounded-icons" transform="translate(0.000000, 300.000000)" sketch:type="MSShapeGroup">
                <path d="M341.500047,0 L318.500012,0 C311.980746,0 307.847634,0.025253709 303.940926,3.9316685 C300.024726,7.84780978 300,12.0007266 300,18.5000117 L300,41.5000469 C300,48.0196053 300.025605,52.1530691 303.931669,56.0591324 C307.849861,59.9772658 312.00102,60 318.500012,60 L341.500047,60 C348.019605,60 352.151839,59.9756252 356.059132,56.0683315 C359.974571,52.1528347 360,47.9989805 360,41.4999883 L360,18.5000117 C360,11.9806877 359.974922,7.84745822 356.068331,3.94092624 C352.150491,0.0229685706 347.999039,0 341.500047,0 Z M325.442217,15.1792469 C325.741322,15.4131519 326.090271,15.7222361 326.489077,16.1065086 C326.887882,16.4907811 327.270065,16.958584 327.635637,17.5099315 C328.001209,18.061279 328.316925,18.7045081 328.582796,19.4396381 C328.848666,20.1747681 328.981599,21.0101306 328.981599,21.9457506 C328.981599,22.8813706 328.865283,23.7000258 328.632646,24.4017408 C328.400009,25.1034558 328.084293,25.7299777 327.685488,26.2813252 C327.286682,26.8326727 326.838032,27.3338902 326.339525,27.7849927 C325.841018,28.2360952 325.325902,28.66213 324.794162,29.06311 C324.461824,29.39726 324.146107,29.7481123 323.847003,30.1156773 C323.547899,30.4832423 323.398349,30.9510452 323.398349,31.5191002 C323.398349,32.0871552 323.547899,32.5298974 323.847003,32.8473399 C324.146107,33.1647824 324.42859,33.440452 324.694461,33.674357 L326.489077,35.07778 C327.020818,35.54559 327.544242,36.0133929 328.059366,36.4812029 C328.57449,36.9490129 329.023139,37.4502304 329.405328,37.9848704 C329.787517,38.5195104 330.094925,39.1209714 330.327561,39.7892714 C330.560198,40.4575714 330.676514,41.2261049 330.676514,42.0948949 C330.676514,43.2644199 330.394031,44.4172201 329.829057,45.5533301 C329.264082,46.6894401 328.43325,47.7002287 327.336534,48.5857262 C326.239819,49.4712237 324.868945,50.1896354 323.223872,50.7409829 C321.578799,51.2923304 319.69281,51.568 317.565846,51.568 C315.771221,51.568 314.200948,51.367513 312.854979,50.966533 C311.50901,50.565553 310.387386,50.030921 309.490074,49.362621 C308.592761,48.694321 307.928095,47.9341412 307.496056,47.0820587 C307.064016,46.2299762 306.848,45.3361383 306.848,44.4005183 C306.848,43.4983133 307.122175,42.4708175 307.670532,41.318 C308.21889,40.1651825 309.224197,39.1543939 310.686485,38.2856039 C311.450862,37.8177939 312.273386,37.4418808 313.154082,37.1578533 C314.034777,36.8738258 314.907152,36.6482779 315.77123,36.4812029 C316.635309,36.3141279 317.449525,36.1971772 318.213902,36.1303472 C318.97828,36.0635172 319.642946,36.0133954 320.20792,35.9799804 C319.842348,35.5121704 319.501707,35.0193066 319.185986,34.5013741 C318.870265,33.9834416 318.712407,33.3402125 318.712407,32.5716675 C318.712407,32.1372725 318.762257,31.7780666 318.861958,31.4940391 C318.96166,31.2100116 319.077976,30.9176348 319.210911,30.6168998 C318.945041,30.6503148 318.679174,30.6753756 318.413304,30.6920831 C318.147434,30.7087906 317.881567,30.7171443 317.615697,30.7171443 C316.286345,30.7171443 315.106563,30.4915964 314.076315,30.0404939 C313.046067,29.5893914 312.182001,28.996284 311.484092,28.261154 C310.786182,27.526024 310.254449,26.6823079 309.888877,25.7299804 C309.523306,24.7776529 309.340522,23.8169861 309.340522,22.8479511 C309.340522,21.6784261 309.606389,20.500565 310.13813,19.3143325 C310.66987,18.1281 311.46747,17.0671897 312.530951,16.1315697 C313.960004,14.9620447 315.463811,14.2102185 317.042417,13.8760685 C318.621022,13.5419185 320.091596,13.374846 321.454181,13.374846 L331.723374,13.374846 L328.532945,15.1792469 L325.442217,15.1792469 Z M319.958668,29.3137213 C320.59011,29.3137213 321.213235,29.1800633 321.82806,28.9127433 C322.442885,28.6454233 322.949693,28.3112783 323.348499,27.9102983 C323.913473,27.3422433 324.262423,26.7073678 324.395358,26.0056528 C324.528293,25.3039378 324.59476,24.7191841 324.59476,24.2513741 C324.59476,23.3491691 324.461827,22.3634414 324.195956,21.2941614 C323.930086,20.2248814 323.531286,19.2224464 322.999545,18.2868264 C322.467805,17.3512064 321.811447,16.5743193 321.030453,15.9561418 C320.249458,15.3379643 319.343851,15.0288802 318.313603,15.0288802 C317.648927,15.0288802 317.000878,15.1792454 316.369436,15.4799804 C315.737994,15.7807154 315.222877,16.1816894 314.824072,16.6829144 C314.392032,17.2175544 314.101241,17.8023082 313.951689,18.4371932 C313.802137,19.0720782 313.727362,19.7236609 313.727362,20.3919609 C313.727362,21.2273359 313.851987,22.1629418 314.10124,23.1988068 C314.350494,24.2346718 314.732677,25.2036923 315.247801,26.1058973 C315.762924,27.0081023 316.410974,27.7682822 317.191968,28.3864597 C317.972962,29.0046372 318.895186,29.3137213 319.958668,29.3137213 Z M327.336534,44.0496626 C327.336534,43.4147776 327.228526,42.8383775 327.012506,42.320445 C326.796487,41.8025125 326.472462,41.2929414 326.040423,40.7917164 C325.608383,40.2904914 325.043417,39.7725667 324.345507,39.2379267 C323.647598,38.7032867 322.833382,38.1018257 321.902835,37.4335257 C321.703433,37.4001107 321.528958,37.3834034 321.379406,37.3834034 L320.756275,37.3834034 C320.656574,37.3834034 320.423941,37.391757 320.058369,37.4084645 C319.692797,37.425172 319.260764,37.4585865 318.762257,37.508709 C318.26375,37.5588315 317.732017,37.6423678 317.167043,37.7593203 C316.602068,37.8762728 316.053719,38.0182844 315.521978,38.1853594 C315.256108,38.2856044 314.882233,38.4443233 314.400343,38.6615208 C313.918453,38.8787183 313.444878,39.1878024 312.979605,39.5887824 C312.514332,39.9897624 312.107224,40.4909799 311.758269,41.0924499 C311.409314,41.6939199 311.234839,42.4457461 311.234839,43.3479511 C311.234839,45.1523611 312.02413,46.622599 313.602736,47.758709 C315.181341,48.894819 317.316581,49.4628655 320.008518,49.4628655 C322.401352,49.4628655 324.220875,48.9532944 325.467143,47.9341369 C326.71341,46.9149794 327.336534,45.6201676 327.336534,44.0496626 Z M355.302636,22.9481956 L345.880901,22.9481956 L345.880901,32.471423 L342.889874,32.471423 L342.889874,22.9481956 L333.418289,22.9481956 L333.418289,19.9408606 L342.889874,19.9408606 L342.889874,10.568 L345.880901,10.568 L345.880901,19.9408606 L355.302636,19.9408606 L355.302636,22.9481956 Z" id="google-plus_r"></path>
            </g>
        </g>
    </g>
</svg>