<?xml version="1.0" encoding="UTF-8" standalone="no"?>
<svg width="60px" height="60px" viewBox="0 0 60 60" version="1.1" xmlns="http://www.w3.org/2000/svg" xmlns:xlink="http://www.w3.org/1999/xlink" xmlns:sketch="http://www.bohemiancoding.com/sketch/ns">
    <!-- Generator: Sketch 3.1.1 (8761) - http://www.bohemiancoding.com/sketch -->
    <title>instagram_r</title>
    <desc>Created with Sketch.</desc>
    <defs></defs>
    <g id="Page-1" stroke="none" stroke-width="1" fill="none" fill-rule="evenodd" sketch:type="MSPage">
        <g id="rounded-icons" sketch:type="MSLayerGroup" transform="translate(-200.000000, -200.000000)" fill="#D7C5B0">
            <g id="row-3-rounded-icons" transform="translate(0.000000, 200.000000)" sketch:type="MSShapeGroup">
                <path d="M241.290273,24.4 L251,24.4 L251,44.9972738 C251,48.3153947 248.315831,51 245.004742,51 L214.995258,51 C211.69118,51 209,48.3124879 209,44.9972738 L209,24.4 L218.709727,24.4 C217.871388,26.0869425 217.4,27.9884219 217.4,30 C217.4,36.9587882 223.041212,42.6 230,42.6 C236.958788,42.6 242.6,36.9587882 242.6,30 C242.6,27.9884219 242.128612,26.0869425 241.290273,24.4 L241.290273,24.4 Z M220.608352,21.6 L209,21.6 L209,13.0040312 C209,10.7918916 210.794492,9 213.008111,9 L246.991889,9 C249.208748,9 251,10.7926658 251,13.0040312 L251,21.6 L239.391648,21.6 C237.084501,19.0222526 233.731699,17.4 230,17.4 C226.268301,17.4 222.915499,19.0222526 220.608352,21.6 L220.608352,21.6 Z M241.500047,0 L218.500012,0 C211.980746,0 207.847634,0.025253709 203.940926,3.9316685 C200.024726,7.84780978 200,12.0007266 200,18.5000117 L200,41.5000469 C200,48.0196053 200.025605,52.1530691 203.931669,56.0591324 C207.849861,59.9772658 212.00102,60 218.500012,60 L241.500047,60 C248.019605,60 252.151839,59.9756252 256.059132,56.0683315 C259.974571,52.1528347 260,47.9989805 260,41.4999883 L260,18.5000117 C260,11.9806877 259.974922,7.84745822 256.068331,3.94092624 C252.150491,0.0229685706 247.999039,0 241.500047,0 Z M218.8,9 L218.8,17.4 L220.2,17.4 L220.2,9 L218.8,9 Z M216,9 L216,17.4 L217.4,17.4 L217.4,9 L216,9 Z M213.2,9 L213.2,17.4 L214.6,17.4 L214.6,9 L213.2,9 Z M240.802929,11.8 C240.249027,11.8 239.8,12.2378814 239.8,12.8029293 L239.8,17.7970707 C239.8,18.3509732 240.237881,18.8 240.802929,18.8 L245.797071,18.8 C246.350973,18.8 246.8,18.3621186 246.8,17.7970707 L246.8,12.8029293 C246.8,12.2490268 246.362119,11.8 245.797071,11.8 L240.802929,11.8 Z M230,39.8 C235.412391,39.8 239.8,35.4123908 239.8,30 C239.8,24.5876092 235.412391,20.2 230,20.2 C224.587609,20.2 220.2,24.5876092 220.2,30 C220.2,35.4123908 224.587609,39.8 230,39.8 Z" id="instagram_r"></path>
            </g>
        </g>
    </g>
</svg>