<?xml version="1.0" encoding="UTF-8" standalone="no"?>
<svg width="60px" height="60px" viewBox="0 0 60 60" version="1.1" xmlns="http://www.w3.org/2000/svg" xmlns:xlink="http://www.w3.org/1999/xlink" xmlns:sketch="http://www.bohemiancoding.com/sketch/ns">
    <!-- Generator: Sketch 3.1.1 (8761) - http://www.bohemiancoding.com/sketch -->
    <title>instapaper_r</title>
    <desc>Created with Sketch.</desc>
    <defs></defs>
    <g id="Page-1" stroke="none" stroke-width="1" fill="none" fill-rule="evenodd" sketch:type="MSPage">
        <g id="rounded-icons" sketch:type="MSLayerGroup" transform="translate(-400.000000, -500.000000)" fill="#708B97">
            <g id="row-6-rounded-icons" transform="translate(0.000000, 500.000000)" sketch:type="MSShapeGroup">
                <path d="M441.500047,0 L418.500012,0 C411.980746,0 407.847634,0.025253709 403.940926,3.9316685 C400.024726,7.84780978 400,12.0007266 400,18.5000117 L400,41.5000469 C400,48.0196053 400.025605,52.1530691 403.931669,56.0591324 C407.849861,59.9772658 412.00102,60 418.500012,60 L441.500047,60 C448.019605,60 452.151839,59.9756252 456.059132,56.0683315 C459.974571,52.1528347 460,47.9989805 460,41.4999883 L460,18.5000117 C460,11.9806877 459.974922,7.84745822 456.068331,3.94092624 C452.150491,0.0229685706 447.999039,0 441.500047,0 Z M443.757568,54.6000977 L417.242432,54.6000977 L417.242432,51.972168 C417.84888,51.9272459 418.741693,51.8598637 419.920898,51.7700195 C421.100104,51.6801753 421.914304,51.5454111 422.363525,51.3657227 C423.194584,51.0288069 423.761717,50.5852078 424.064941,50.0349121 C424.368166,49.4846164 424.519775,48.7827191 424.519775,47.9291992 L424.519775,14.0356445 C424.519775,13.2719688 424.373781,12.5981475 424.081787,12.0141602 C423.789793,11.4301729 423.217045,10.9584979 422.363525,10.5991211 C421.82446,10.3745106 421.027105,10.1442883 419.971436,9.90844727 C418.915766,9.67260624 418.006107,9.50976607 417.242432,9.41992188 L417.242432,6.79199219 L443.757568,6.79199219 L443.757568,9.41992188 C443.083737,9.48730502 442.24146,9.58276305 441.230713,9.70629883 C440.219966,9.8298346 439.366459,10.0039051 438.670166,10.2285156 C437.794185,10.5205093 437.210207,10.9753387 436.918213,11.5930176 C436.626219,12.2106964 436.480225,12.9125937 436.480225,13.6987305 L436.480225,47.5585938 C436.480225,48.3671915 436.631834,49.0578585 436.935059,49.6306152 C437.238283,50.203372 437.816646,50.6694318 438.670166,51.0288086 C439.141848,51.230958 439.922358,51.4274893 441.011719,51.6184082 C442.10108,51.8093271 443.016354,51.9272459 443.757568,51.972168 L443.757568,54.6000977 Z" id="instapaper_r"></path>
            </g>
        </g>
    </g>
</svg>