<?xml version="1.0" encoding="UTF-8" standalone="no"?>
<svg width="60px" height="60px" viewBox="0 0 60 60" version="1.1" xmlns="http://www.w3.org/2000/svg" xmlns:xlink="http://www.w3.org/1999/xlink" xmlns:sketch="http://www.bohemiancoding.com/sketch/ns">
    <!-- Generator: Sketch 3.1.1 (8761) - http://www.bohemiancoding.com/sketch -->
    <title>line_r</title>
    <desc>Created with Sketch.</desc>
    <defs></defs>
    <g id="Page-1" stroke="none" stroke-width="1" fill="none" fill-rule="evenodd" sketch:type="MSPage">
        <g id="rounded-icons" sketch:type="MSLayerGroup" transform="translate(0.000000, -400.000000)" fill="#6FE344">
            <g id="row-5-rounded-icons" transform="translate(0.000000, 400.000000)" sketch:type="MSShapeGroup">
                <path d="M41.5000469,0 L18.5000117,0 C11.9807462,0 7.847634,0.025253709 3.94092624,3.9316685 C0.0247263693,7.84780978 0,12.0007266 0,18.5000117 L0,41.5000469 C0,48.0196053 0.0256052687,52.1530691 3.9316685,56.0591324 C7.84986055,59.9772658 12.0010195,60 18.5000117,60 L41.5000469,60 C48.0196053,60 52.1518387,59.9756252 56.0591324,56.0683315 C59.9745705,52.1528347 60,47.9989805 60,41.4999883 L60,18.5000117 C60,11.9806877 59.9749221,7.84745822 56.0683315,3.94092624 C52.150491,0.0229685706 47.9990391,0 41.5000469,0 Z M27.9960767,48.668856 C27.996431,48.6688789 28.4383374,49.7268941 28.1146812,51.7951416 C27.945554,52.8759086 26.9908021,53.8834294 27.0892906,54.6347249 C27.182986,55.3494568 28.1405482,55.945708 28.6373052,55.7118172 C39.7604209,50.4746604 48.5591578,42.0205905 48.9379737,41.6628198 C52.715679,38.0949855 55,33.4481515 55,28.3666667 C55,17.1184667 43.8071194,8 30,8 C16.1928806,8 5,17.1184667 5,28.3666667 C5,39.0653352 15.1259383,47.8372837 27.9960767,48.668856 Z M16.2533569,24.1611905 L16.2533569,32.3234627 L20.8462524,32.3234627 C21.2124652,32.3234627 21.4934784,32.4127088 21.6893005,32.5912036 C21.8851226,32.7696984 21.9830322,32.9940885 21.9830322,33.2643807 C21.9830322,33.5397727 21.8863942,33.7628878 21.6931152,33.9337329 C21.4998363,34.1045779 21.2175515,34.1899991 20.8462524,34.1899991 L15.3759766,34.1899991 C14.8826066,34.1899991 14.5278433,34.080354 14.311676,33.8610603 C14.0955088,33.6417667 13.9874268,33.2873323 13.9874268,32.7977465 L13.9874268,24.1611905 C13.9874268,23.7022039 14.0904226,23.357969 14.2964172,23.1284757 C14.5024119,22.8989824 14.7732527,22.7842374 15.1089478,22.7842374 C15.4497291,22.7842374 15.7256561,22.8977074 15.9367371,23.1246508 C16.147818,23.3515942 16.2533569,23.697104 16.2533569,24.1611905 Z M22.6630496,32.9966398 L22.6630496,24.1611905 C22.6630496,23.7022039 22.7673169,23.357969 22.9758547,23.1284757 C23.1843926,22.8989824 23.4539618,22.7842374 23.7845706,22.7842374 C24.1253519,22.7842374 24.4012789,22.8977074 24.6123599,23.1246508 C24.8234408,23.3515942 24.9289797,23.697104 24.9289797,24.1611905 L24.9289797,32.9966398 C24.9289797,33.4607263 24.8234408,33.807511 24.6123599,34.0370043 C24.4012789,34.2664977 24.1253519,34.3812426 23.7845706,34.3812426 C23.4590481,34.3812426 23.1907504,34.2652227 22.9796694,34.0331795 C22.7685885,33.8011362 22.6630496,33.4556264 22.6630496,32.9966398 Z M29.9873164,24.1458911 L34.3437007,30.7552661 L34.3437007,24.0846932 C34.3437007,23.6512057 34.4365241,23.3260951 34.6221736,23.1093514 C34.8078231,22.8926076 35.0583191,22.7842374 35.3736689,22.7842374 C35.6991914,22.7842374 35.9560451,22.8926076 36.1442378,23.1093514 C36.3324305,23.3260951 36.4265254,23.6512057 36.4265254,24.0846932 L36.4265254,32.9048429 C36.4265254,33.8891143 36.0196284,34.3812426 35.2058223,34.3812426 C35.0023707,34.3812426 34.8192671,34.3519189 34.6565059,34.2932706 C34.4937446,34.2346223 34.3411583,34.1415514 34.1987422,34.0140551 C34.0563261,33.8865588 33.9240846,33.7373904 33.8020137,33.5665454 C33.6799427,33.3957003 33.5578737,33.221033 33.4358027,33.0425382 L29.18623,26.5096606 L29.18623,33.0807869 C29.18623,33.5091745 29.0870488,33.8330102 28.8886836,34.0523038 C28.6903183,34.2715975 28.4360077,34.3812426 28.1257441,34.3812426 C27.805308,34.3812426 27.5484542,34.2703225 27.3551753,34.048479 C27.1618963,33.8266354 27.0652583,33.5040746 27.0652583,33.0807869 L27.0652583,24.4289314 C27.0652583,24.0617421 27.105948,23.7736048 27.1873286,23.5645109 C27.2839681,23.3350175 27.4441838,23.1476008 27.6679805,23.002255 C27.8917772,22.8569092 28.1333722,22.7842374 28.3927729,22.7842374 C28.5962245,22.7842374 28.7704272,22.817386 28.9153865,22.883684 C29.0603457,22.9499821 29.187501,23.0392282 29.2968562,23.1514249 C29.4062114,23.2636217 29.5181081,23.4089653 29.6325496,23.5874601 C29.746991,23.7659549 29.8652455,23.9520967 29.9873164,24.1458911 Z M40.8287341,24.7272713 L40.8287341,27.4811775 L45.5284411,27.4811775 C45.8743088,27.4811775 46.132434,27.5589491 46.3028247,27.7144946 C46.4732154,27.8700401 46.5584094,28.075306 46.5584094,28.3302986 C46.5584094,28.5852912 46.4744869,28.7931071 46.3066394,28.9537524 C46.1387919,29.1143977 45.8793951,29.1947192 45.5284411,29.1947192 L40.8287341,29.1947192 L40.8287341,32.3846606 L46.1082751,32.3846606 C46.4643153,32.3846606 46.732613,32.4675319 46.9131763,32.6332771 C47.0937395,32.7990223 47.1840198,33.0195876 47.1840198,33.2949796 C47.1840198,33.5601719 47.0937395,33.7756374 46.9131763,33.9413826 C46.732613,34.1071278 46.4643153,34.1899991 46.1082751,34.1899991 L39.9513537,34.1899991 C39.4579838,34.1899991 39.1032205,34.080354 38.8870532,33.8610603 C38.670886,33.6417667 38.5628039,33.2873323 38.5628039,32.7977465 L38.5628039,24.3677335 C38.5628039,24.041343 38.611123,23.7748797 38.7077624,23.5683357 C38.8044019,23.3617917 38.9557167,23.2113484 39.1617114,23.1170011 C39.3677061,23.0226538 39.6309176,22.9754809 39.9513537,22.9754809 L45.9327991,22.9754809 C46.2939255,22.9754809 46.5622232,23.0558024 46.7377002,23.2164477 C46.9131771,23.377093 47.0009143,23.5874588 47.0009143,23.8475512 C47.0009143,24.1127435 46.9131771,24.3256591 46.7377002,24.4863045 C46.5622232,24.6469498 46.2939255,24.7272713 45.9327991,24.7272713 L40.8287341,24.7272713 Z" id="line_r"></path>
            </g>
        </g>
    </g>
</svg>