<?xml version="1.0" encoding="UTF-8" standalone="no"?>
<svg width="60px" height="60px" viewBox="0 0 60 60" version="1.1" xmlns="http://www.w3.org/2000/svg" xmlns:xlink="http://www.w3.org/1999/xlink" xmlns:sketch="http://www.bohemiancoding.com/sketch/ns">
    <!-- Generator: Sketch 3.1.1 (8761) - http://www.bohemiancoding.com/sketch -->
    <title>linkedin_r</title>
    <desc>Created with Sketch.</desc>
    <defs></defs>
    <g id="Page-1" stroke="none" stroke-width="1" fill="none" fill-rule="evenodd" sketch:type="MSPage">
        <g id="rounded-icons" sketch:type="MSLayerGroup" transform="translate(-100.000000, -200.000000)" fill="#38A6D7">
            <g id="row-3-rounded-icons" transform="translate(0.000000, 200.000000)" sketch:type="MSShapeGroup">
                <path d="M141.500047,0 L118.500012,0 C111.980746,0 107.847634,0.025253709 103.940926,3.9316685 C100.024726,7.84780978 100,12.0007266 100,18.5000117 L100,41.5000469 C100,48.0196053 100.025605,52.1530691 103.931669,56.0591324 C107.849861,59.9772658 112.00102,60 118.500012,60 L141.500047,60 C148.019605,60 152.151839,59.9756252 156.059132,56.0683315 C159.974571,52.1528347 160,47.9989805 160,41.4999883 L160,18.5000117 C160,11.9806877 159.974922,7.84745822 156.068331,3.94092624 C152.150491,0.0229685706 147.999039,0 141.500047,0 Z M117.785056,48 L117.785056,19.4401709 L109.293129,19.4401709 L109.293129,48 L117.785056,48 Z M113.539093,7 C110.801564,7 109.013789,8.92735043 109.069657,11.497151 C109.013789,13.9501425 110.801564,15.9358974 113.483225,15.9358974 C116.276622,15.9358974 118.064396,13.9501425 118.064396,11.497151 C118.008528,8.92735043 116.276622,7 113.539093,7 Z M124.600946,48 L133.092873,48 L133.092873,31.5299145 C133.092873,30.7122507 133.204609,29.8361823 133.428081,29.3105413 C133.98676,27.6752137 135.383459,25.9814815 137.729912,25.9814815 C140.802649,25.9814815 142.031744,28.4928775 142.031744,32.1723647 L142.031744,48 L150.523671,48 L150.523671,31.0626781 C150.523671,22.6524217 146.333575,18.7977208 140.746781,18.7977208 C136.221478,18.7977208 133.428081,21.542735 132.310722,23.3532764 L132.143118,23.3532764 L131.752042,19.4401709 L124.377474,19.4401709 C124.48921,21.951567 124.600946,24.988604 124.600946,28.5512821 L124.600946,48 Z" id="linkedin_r"></path>
            </g>
        </g>
    </g>
</svg>