<?xml version="1.0" encoding="UTF-8" standalone="no"?>
<svg width="60px" height="60px" viewBox="0 0 60 60" version="1.1" xmlns="http://www.w3.org/2000/svg" xmlns:xlink="http://www.w3.org/1999/xlink" xmlns:sketch="http://www.bohemiancoding.com/sketch/ns">
    <!-- Generator: Sketch 3.1.1 (8761) - http://www.bohemiancoding.com/sketch -->
    <title>path_r</title>
    <desc>Created with Sketch.</desc>
    <defs></defs>
    <g id="Page-1" stroke="none" stroke-width="1" fill="none" fill-rule="evenodd" sketch:type="MSPage">
        <g id="rounded-icons" sketch:type="MSLayerGroup" transform="translate(-100.000000, -400.000000)" fill="#FA6980">
            <g id="row-5-rounded-icons" transform="translate(0.000000, 400.000000)" sketch:type="MSShapeGroup">
                <path d="M141.500047,0 L118.500012,0 C111.980746,0 107.847634,0.025253709 103.940926,3.9316685 C100.024726,7.84780978 100,12.0007266 100,18.5000117 L100,41.5000469 C100,48.0196053 100.025605,52.1530691 103.931669,56.0591324 C107.849861,59.9772658 112.00102,60 118.500012,60 L141.500047,60 C148.019605,60 152.151839,59.9756252 156.059132,56.0683315 C159.974571,52.1528347 160,47.9989805 160,41.4999883 L160,18.5000117 C160,11.9806877 159.974922,7.84745822 156.068331,3.94092624 C152.150491,0.0229685706 147.999039,0 141.500047,0 Z M151.852814,16.0958904 C150.421349,13.5844623 148.551238,11.5068575 146.242424,9.8630137 C143.93361,8.21916986 141.290058,6.99772089 138.311688,6.19863014 C135.333318,5.39953938 132.297274,5 129.203463,5 C126.155829,5 123.223679,5.45661644 120.406926,6.36986301 C117.590174,7.28310959 115.11978,8.60729726 112.995671,10.3424658 C110.871562,12.0776342 109.17461,14.2123161 107.904762,16.7465753 C106.634914,19.2808346 106,22.1689336 106,25.4109589 C106,26.6438418 106.057719,27.7853829 106.17316,28.8356164 C106.288601,29.88585 106.507935,30.8675753 106.831169,31.7808219 C107.154403,32.6940685 107.593071,33.5844705 108.147186,34.4520548 C108.701301,35.319639 109.417023,36.2328719 110.294372,37.1917808 L116.597403,31.8493151 C115.673877,30.9360685 115.050507,29.9543432 114.727273,28.9041096 C114.404039,27.853876 114.242424,26.6895041 114.242424,25.4109589 C114.242424,23.3561541 114.681092,21.5525192 115.558442,20 C116.435791,18.4474808 117.601724,17.1347086 119.056277,16.0616438 C120.51083,14.9885791 122.138519,14.1895003 123.939394,13.6643836 C125.740269,13.1392668 127.587292,12.8767123 129.480519,12.8767123 C131.466099,12.8767123 133.417018,13.1050205 135.333333,13.5616438 C137.249649,14.0182671 138.946602,14.7488534 140.424242,15.7534247 C141.901883,16.7579959 143.090905,18.0479373 143.991342,19.6232877 C144.891779,21.198638 145.341991,23.1050116 145.341991,25.3424658 C145.341991,26.8036603 145.076482,28.1164325 144.545455,29.2808219 C144.014427,30.4452113 143.275618,31.4383521 142.329004,32.260274 C141.382391,33.0821959 140.297264,33.7100435 139.073593,34.1438356 C137.849922,34.5776277 136.545461,34.7945205 135.160173,34.7945205 C133.59018,34.7945205 132.112561,34.5662123 130.727273,34.109589 L130.727273,19.0410959 L122.069264,19.0410959 L122.069264,44.6575342 C122.069264,46.3927027 121.191928,47.260274 119.437229,47.260274 C118.652233,47.260274 117.913423,47.0890428 117.220779,46.7465753 C116.528135,46.4041079 115.927852,45.9589068 115.419913,45.4109589 L115.419913,52.8082192 C115.696971,53.2191801 116.089464,53.5616425 116.597403,53.8356164 C117.105342,54.1095904 117.670993,54.3378986 118.294372,54.5205479 C118.917752,54.7031973 119.529579,54.8287668 120.12987,54.8972603 C120.730162,54.9657538 121.261181,55 121.722944,55 C124.909107,55 127.206342,54.1438442 128.614719,52.4315068 C130.023095,50.7191695 130.727273,48.3561795 130.727273,45.3424658 L130.727273,40.6849315 C131.789327,41.1872171 132.909085,41.4954332 134.08658,41.609589 C135.264075,41.7237449 136.430009,41.7808219 137.584416,41.7808219 C138.64647,41.7808219 139.708508,41.6324216 140.770563,41.3356164 C141.832617,41.0388113 142.825392,40.6621027 143.748918,40.2054795 C146.842728,38.7442849 149.324666,36.7009264 151.194805,34.0753425 C153.064944,31.4497586 154,28.4246747 154,25 C154,21.5753253 153.284278,18.6073185 151.852814,16.0958904 Z" id="path_r"></path>
            </g>
        </g>
    </g>
</svg>