<?xml version="1.0" encoding="UTF-8" standalone="no"?>
<svg width="60px" height="60px" viewBox="0 0 60 60" version="1.1" xmlns="http://www.w3.org/2000/svg" xmlns:xlink="http://www.w3.org/1999/xlink" xmlns:sketch="http://www.bohemiancoding.com/sketch/ns">
    <!-- Generator: Sketch 3.1.1 (8761) - http://www.bohemiancoding.com/sketch -->
    <title>pinterest_r</title>
    <desc>Created with Sketch.</desc>
    <defs></defs>
    <g id="Page-1" stroke="none" stroke-width="1" fill="none" fill-rule="evenodd" sketch:type="MSPage">
        <g id="rounded-icons" sketch:type="MSLayerGroup" transform="translate(-400.000000, -300.000000)" fill="#EA5768">
            <g id="row-4-rounded-icons" transform="translate(0.000000, 300.000000)" sketch:type="MSShapeGroup">
                <path d="M441.500047,0 L418.500012,0 C411.980746,0 407.847634,0.025253709 403.940926,3.9316685 C400.024726,7.84780978 400,12.0007266 400,18.5000117 L400,41.5000469 C400,48.0196053 400.025605,52.1530691 403.931669,56.0591324 C407.849861,59.9772658 412.00102,60 418.500012,60 L441.500047,60 C448.019605,60 452.151839,59.9756252 456.059132,56.0683315 C459.974571,52.1528347 460,47.9989805 460,41.4999883 L460,18.5000117 C460,11.9806877 459.974922,7.84745822 456.068331,3.94092624 C452.150491,0.0229685706 447.999039,0 441.500047,0 Z M412,24.0501053 C412,28.7465263 413.805995,32.9225263 417.677083,34.4787368 C418.31072,34.7338947 418.882789,34.4888421 419.064928,33.7941053 C419.193195,33.3166316 419.495904,32.1065263 419.631867,31.6037895 C419.816571,30.9216842 419.744741,30.6791579 419.231675,30.0854737 C418.115755,28.7869474 417.402592,27.1094737 417.402592,24.7296842 C417.402592,17.8328421 422.641003,11.6585263 431.050165,11.6585263 C438.492197,11.6585263 442.581339,16.1376842 442.581339,22.1174737 C442.581339,29.9869474 439.046309,36.6311579 433.795072,36.6311579 C430.89368,36.6311579 428.723408,34.2690526 429.421179,31.3713684 C430.252347,27.9153684 431.865941,24.184 431.865941,21.6854737 C431.865941,19.4547368 430.647408,17.5877895 428.128251,17.5877895 C425.165291,17.5877895 422.782096,20.6117895 422.782096,24.6538947 C422.782096,27.2307368 423.667136,28.9738947 423.667136,28.9738947 C423.667136,28.9738947 420.632347,41.6307368 420.101323,43.8488421 C419.04184,48.2623158 419.942272,53.6736842 420.019232,54.2193684 C420.065408,54.5427368 420.486123,54.6185263 420.678523,54.376 C420.950448,54.0248421 424.480347,49.7326316 425.680923,45.4454737 C426.022112,44.2303158 427.633141,37.9397895 427.633141,37.9397895 C428.595141,39.7486316 431.406747,41.3452632 434.400491,41.3452632 C443.312459,41.3452632 449.356384,33.3444211 449.356384,22.6353684 C449.356384,14.5385263 442.394069,7 431.809504,7 C418.641648,7 412,16.2993684 412,24.0501053 Z" id="pinterest_r"></path>
            </g>
        </g>
    </g>
</svg>