<?xml version="1.0" encoding="UTF-8" standalone="no"?>
<svg width="60px" height="60px" viewBox="0 0 60 60" version="1.1" xmlns="http://www.w3.org/2000/svg" xmlns:xlink="http://www.w3.org/1999/xlink" xmlns:sketch="http://www.bohemiancoding.com/sketch/ns">
    <!-- Generator: Sketch 3.1.1 (8761) - http://www.bohemiancoding.com/sketch -->
    <title>pocket_r</title>
    <desc>Created with Sketch.</desc>
    <defs></defs>
    <g id="Page-1" stroke="none" stroke-width="1" fill="none" fill-rule="evenodd" sketch:type="MSPage">
        <g id="rounded-icons" sketch:type="MSLayerGroup" transform="translate(-300.000000, -500.000000)" fill="#FA6980">
            <g id="row-6-rounded-icons" transform="translate(0.000000, 500.000000)" sketch:type="MSShapeGroup">
                <path d="M341.500047,0 L318.500012,0 C311.980746,0 307.847634,0.025253709 303.940926,3.9316685 C300.024726,7.84780978 300,12.0007266 300,18.5000117 L300,41.5000469 C300,48.0196053 300.025605,52.1530691 303.931669,56.0591324 C307.849861,59.9772658 312.00102,60 318.500012,60 L341.500047,60 C348.019605,60 352.151839,59.9756252 356.059132,56.0683315 C359.974571,52.1528347 360,47.9989805 360,41.4999883 L360,18.5000117 C360,11.9806877 359.974922,7.84745822 356.068331,3.94092624 C352.150491,0.0229685706 347.999039,0 341.500047,0 Z M309.006141,10 C307.89818,10 307,10.9022105 307,11.9906387 C307,11.9906387 307,26.0926551 307,30.9493986 C307,35.806142 311.992244,51.8987996 330,51.8987971 C348.007756,51.8987939 353,35.3040804 353,30.9493986 C353,26.5947168 353,11.9950212 353,11.9950212 C353,10.8932014 352.101758,10 350.993859,10 L309.006141,10 Z M330,31.1317499 L320.586588,21.5536761 C319.811753,20.7652872 318.502076,20.7069696 317.667383,21.4182729 L315.646284,23.1406011 C314.808887,23.8542088 314.744914,25.0816967 315.512055,25.8844643 C315.512055,25.8844643 327.714498,38.8835038 330,38.883504 C332.285503,38.8835041 344.390583,25.8844643 344.390583,25.8844643 C345.147842,25.0826782 345.104709,23.8156814 344.310791,23.070089 L342.626994,21.4887849 C341.825667,20.7362344 340.543168,20.7494125 339.749255,21.5312145 L330,31.1317499 Z" id="pocket_r"></path>
            </g>
        </g>
    </g>
</svg>