<?xml version="1.0" encoding="UTF-8" standalone="no"?>
<svg width="60px" height="60px" viewBox="0 0 60 60" version="1.1" xmlns="http://www.w3.org/2000/svg" xmlns:xlink="http://www.w3.org/1999/xlink" xmlns:sketch="http://www.bohemiancoding.com/sketch/ns">
    <!-- Generator: Sketch 3.1.1 (8761) - http://www.bohemiancoding.com/sketch -->
    <title>qq_r</title>
    <desc>Created with Sketch.</desc>
    <defs></defs>
    <g id="Page-1" stroke="none" stroke-width="1" fill="none" fill-rule="evenodd" sketch:type="MSPage">
        <g id="rounded-icons" sketch:type="MSLayerGroup" transform="translate(-200.000000, 0.000000)" fill="#68A5E1">
            <g id="row-1-rounded-icons" sketch:type="MSShapeGroup">
                <path d="M241.500047,0 L218.500012,0 C211.980746,0 207.847634,0.025253709 203.940926,3.9316685 C200.024726,7.84780978 200,12.0007266 200,18.5000117 L200,41.5000469 C200,48.0196053 200.025605,52.1530691 203.931669,56.0591324 C207.849861,59.9772658 212.00102,60 218.500012,60 L241.500047,60 C248.019605,60 252.151839,59.9756252 256.059132,56.0683315 C259.974571,52.1528347 260,47.9989805 260,41.4999883 L260,18.5000117 C260,11.9806877 259.974922,7.84745822 256.068331,3.94092624 C252.150491,0.0229685706 247.999039,0 241.500047,0 Z M213.705576,24.9650702 C213.458645,25.6176748 213.820685,26.0308331 213.705576,28.5154747 C213.674614,29.1837801 210.792798,32.2088576 209.649114,35.3507561 C208.514543,38.467617 208.358421,41.7236659 210.110075,43.0033699 C211.861729,44.283074 213.492463,38.7436856 213.705576,39.5496975 C213.798553,39.9013446 213.914498,40.2671788 214.054059,40.6430275 C214.614626,42.1526851 215.556184,43.8239113 216.920586,45.3862998 C217.197753,45.7036859 215.232272,46.2873296 214.054059,48.2915853 C212.875845,50.295841 214.391622,53.9399417 220.251231,53.9399407 C227.811001,53.9399407 229.500752,51.282051 229.654847,51.2936972 C230.217738,51.3362395 230.25664,51.2936978 230.853347,51.293698 C231.583359,51.2936981 231.281316,51.352385 231.959655,51.2936972 C232.325997,51.2620025 236.000105,54.4746679 241.086695,53.9399407 C249.752773,53.0289199 248.427573,50.1245648 247.747333,48.2915853 C247.037364,46.3785 244.526928,45.4820625 244.637748,45.3595889 C246.713723,43.0653113 247.042675,41.6567697 247.747333,39.5496981 C248.037005,38.6835179 250.047886,44.3151589 251.596619,43.0033699 C252.241966,42.4567553 253.532659,40.1791895 252.241966,35.3507561 C250.951274,30.5223227 248.455688,29.4208733 248.509911,28.5154744 C248.622766,26.6310609 248.557243,25.3077656 248.46208,24.9650702 C248.001118,23.3050714 247.037363,23.6716048 247.037363,23.3050714 C247.037363,13.7477439 239.850307,6 230.984622,6 C222.118938,6 214.931881,13.7477439 214.931881,23.3050714 C214.931881,24.063654 214.25873,23.503159 213.705576,24.9650702 Z" id="qq_r"></path>
            </g>
        </g>
    </g>
</svg>