<?xml version="1.0" encoding="UTF-8" standalone="no"?>
<svg width="60px" height="60px" viewBox="0 0 60 60" version="1.1" xmlns="http://www.w3.org/2000/svg" xmlns:xlink="http://www.w3.org/1999/xlink" xmlns:sketch="http://www.bohemiancoding.com/sketch/ns">
    <!-- Generator: Sketch 3.1.1 (8761) - http://www.bohemiancoding.com/sketch -->
    <title>quora_r</title>
    <desc>Created with Sketch.</desc>
    <defs></defs>
    <g id="Page-1" stroke="none" stroke-width="1" fill="none" fill-rule="evenodd" sketch:type="MSPage">
        <g id="rounded-icons" sketch:type="MSLayerGroup" transform="translate(0.000000, -500.000000)" fill="#BF4747">
            <g id="row-6-rounded-icons" transform="translate(0.000000, 500.000000)" sketch:type="MSShapeGroup">
                <path d="M41.5000469,0 L18.5000117,0 C11.9807462,0 7.847634,0.025253709 3.94092624,3.9316685 C0.0247263693,7.84780978 0,12.0007266 0,18.5000117 L0,41.5000469 C0,48.0196053 0.0256052687,52.1530691 3.9316685,56.0591324 C7.84986055,59.9772658 12.0010195,60 18.5000117,60 L41.5000469,60 C48.0196053,60 52.1518387,59.9756252 56.0591324,56.0683315 C59.9745705,52.1528347 60,47.9989805 60,41.4999883 L60,18.5000117 C60,11.9806877 59.9749221,7.84745822 56.0683315,3.94092624 C52.150491,0.0229685706 47.9990391,0 41.5000469,0 Z M47.848125,54.8867975 C47.848125,54.8867975 42.9121125,56.1505729 39.8803359,54.4483257 C37.5331728,53.1304675 35.6239174,50.2136719 35.4641196,50.0739232 C34.0632685,50.5974042 30.9408772,50.5974042 30.2824503,50.5974042 C23.961552,50.5974042 18.9011468,48.593896 15.1010829,44.5868196 C11.3010191,40.5797431 9.40101562,35.2402047 9.40101562,28.5680444 C9.40101562,21.8202788 11.310425,16.4618394 15.1293011,12.4925655 C18.9481771,8.52329165 24.1026419,6.53868448 30.59285,6.53868448 C37.083058,6.53868448 42.2328198,8.5280169 46.0422898,12.5067414 C49.8517597,16.485466 51.7564661,21.8675316 51.7564661,28.6530998 C51.7564661,37.4973465 48.5540542,43.8570091 42.1491411,47.732247 C42.1209367,47.7493118 42.723125,48.9392169 43.850625,49.5440556 C44.978125,50.1488943 47.105,50.0739232 47.105,50.0739232 L47.848125,54.8867975 Z M33.0374095,43.9429801 C33.5449501,43.8069933 32.5080801,42.5975544 31.3200003,41.7410249 C29.8144088,40.6555899 27.4173428,40.5196296 27.4173428,40.5196296 L27.4173428,37.0960773 C27.4173428,37.0960773 30.7112986,36.1945551 33.6558949,37.0960773 C36.6004911,37.9975995 37.8145229,40.782947 38.0097847,40.5196296 C38.0899261,40.4115562 38.3691203,40.0735273 38.4471133,39.9610632 C40.4449123,37.0802848 41.4437969,33.1680605 41.4437969,28.2242731 C41.4437969,23.4105853 40.4449123,19.5541172 38.4471133,16.6547531 C36.4493142,13.755389 33.7899463,12.3057287 30.4689297,12.3057287 C27.1306161,12.3057287 24.4625998,13.755389 22.4648008,16.6547531 C20.4670017,19.5541172 19.4681172,23.4291707 19.4681172,28.2800298 C19.4681172,33.0937176 20.4626776,36.9641247 22.4518281,39.8913673 C24.4409787,42.8186099 27.0700774,44.2822092 30.3392031,44.2822092 C31.2939422,44.2822092 32.1933437,44.1691332 33.0374095,43.9429801 Z" id="quora_r"></path>
            </g>
        </g>
    </g>
</svg>