<?xml version="1.0" encoding="UTF-8" standalone="no"?>
<svg width="60px" height="60px" viewBox="0 0 60 60" version="1.1" xmlns="http://www.w3.org/2000/svg" xmlns:xlink="http://www.w3.org/1999/xlink" xmlns:sketch="http://www.bohemiancoding.com/sketch/ns">
    <!-- Generator: Sketch 3.1.1 (8761) - http://www.bohemiancoding.com/sketch -->
    <title>qzone_r</title>
    <desc>Created with Sketch.</desc>
    <defs></defs>
    <g id="Page-1" stroke="none" stroke-width="1" fill="none" fill-rule="evenodd" sketch:type="MSPage">
        <g id="rounded-icons" sketch:type="MSLayerGroup" transform="translate(-300.000000, 0.000000)" fill="#F5BE3F">
            <g id="row-1-rounded-icons" sketch:type="MSShapeGroup">
                <path d="M341.500047,0 L318.500012,0 C311.980746,0 307.847634,0.025253709 303.940926,3.9316685 C300.024726,7.84780978 300,12.0007266 300,18.5000117 L300,41.5000469 C300,48.0196053 300.025605,52.1530691 303.931669,56.0591324 C307.849861,59.9772658 312.00102,60 318.500012,60 L341.500047,60 C348.019605,60 352.151839,59.9756252 356.059132,56.0683315 C359.974571,52.1528347 360,47.9989805 360,41.4999883 L360,18.5000117 C360,11.9806877 359.974922,7.84745822 356.068331,3.94092624 C352.150491,0.0229685706 347.999039,0 341.500047,0 Z M329.871976,43.7332109 C329.871976,43.7332109 315.328604,52.6468898 314.429792,51.9187034 C313.53098,51.1905169 317.378986,34.5815536 317.378986,34.5815536 C317.378986,34.5815536 304.353048,23.6462701 304.885995,22.3033162 C305.418942,20.9603623 322.150886,19.7738578 322.150886,19.7738578 C322.150886,19.7738578 328.366911,4.00000022 329.871977,4 C331.377042,3.99999978 337.593072,19.7738617 337.593072,19.7738617 C337.593072,19.7738617 354.395097,20.9673064 354.857962,22.3033288 C355.320828,23.6393512 342.364966,34.5815569 342.364966,34.5815569 C342.364966,34.5815569 342.526774,35.6434886 342.712696,36.4343914 C342.725024,36.4868373 336.665898,36.6260281 331.699507,36.4343914 C329.090732,36.3337271 325.951315,35.8460746 325.951315,35.8460746 L340.328922,25.5095475 C340.328922,25.5095475 335.129247,24.5651941 329.871977,24.3770194 C324.114572,24.1709432 318.220677,24.7279567 317.378986,24.9432841 C316.850543,25.0784741 321.101523,25.0680242 325.951315,25.5095475 C329.345924,25.8185916 333.814068,26.6420756 333.814068,26.6420756 L319.436461,37.433323 C319.436461,37.433323 322.306538,37.9466637 332.509617,37.7243385 C342.712697,37.5020142 346.186879,36.7092545 346.189515,36.7207642 C346.196208,36.7499901 345.499333,37.106625 344.73639,37.2520142 C343.901748,37.4110664 343.077868,37.6915848 343.085343,37.7243385 C344.177598,42.5100763 346.046028,51.1686198 345.314161,51.9187038 C344.302562,52.9554811 329.871976,43.7332109 329.871976,43.7332109 Z" id="qzone_r"></path>
            </g>
        </g>
    </g>
</svg>