<?xml version="1.0" encoding="UTF-8" standalone="no"?>
<svg width="60px" height="60px" viewBox="0 0 60 60" version="1.1" xmlns="http://www.w3.org/2000/svg" xmlns:xlink="http://www.w3.org/1999/xlink" xmlns:sketch="http://www.bohemiancoding.com/sketch/ns">
    <!-- Generator: Sketch 3.1.1 (8761) - http://www.bohemiancoding.com/sketch -->
    <title>readability_r</title>
    <desc>Created with Sketch.</desc>
    <defs></defs>
    <g id="Page-1" stroke="none" stroke-width="1" fill="none" fill-rule="evenodd" sketch:type="MSPage">
        <g id="rounded-icons" sketch:type="MSLayerGroup" transform="translate(-500.000000, -500.000000)" fill="#BF4747">
            <g id="row-6-rounded-icons" transform="translate(0.000000, 500.000000)" sketch:type="MSShapeGroup">
                <path d="M541.500047,0 L518.500012,0 C511.980746,0 507.847634,0.025253709 503.940926,3.9316685 C500.024726,7.84780978 500,12.0007266 500,18.5000117 L500,41.5000469 C500,48.0196053 500.025605,52.1530691 503.931669,56.0591324 C507.849861,59.9772658 512.00102,60 518.500012,60 L541.500047,60 C548.019605,60 552.151839,59.9756252 556.059132,56.0683315 C559.974571,52.1528347 560,47.9989805 560,41.4999883 L560,18.5000117 C560,11.9806877 559.974922,7.84745822 556.068331,3.94092624 C552.150491,0.0229685706 547.999039,0 541.500047,0 Z M531,33.0351181 C538.089071,33.0459394 542.816075,36.2898619 542.816075,36.2565804 C542.816075,36.09405 543.363565,32.0117212 543.504365,31.2 C544.067513,27.9534304 546.004743,26.6156621 545.994612,26.5478798 C544.834648,18.7863731 540.072395,12.9999984 531,13 C521.961988,13.0000016 517.201511,18.742599 516.018731,26.459722 C516.002626,26.5648012 518.006452,27.9035494 518.349292,29.9770441 C518.503764,30.9112917 519.1857,35.9038628 519.1857,36.2565804 C519.1857,36.3338849 523.91093,33.0242962 531,33.0351181 Z M531.085305,33.8517286 C523.809547,33.8517291 519.457692,37.3473562 519.457692,37.3473562 L520.137669,44.0703345 L541.896944,44.0703349 L542.712918,37.3473562 C542.712918,37.3473562 538.361062,33.8517282 531.085305,33.8517286 Z M542.576922,45.1999996 C542.664364,45.9329487 542.576922,48.3823195 542.576922,48.3823195 L546.869968,48.3823195 L546.869968,45.1999996 C546.869968,45.1999996 549.976092,37.6172266 550.202777,37.6172266 C553.271025,37.6172266 555.524016,34.9782119 555.524016,31.8854172 C555.524016,28.7926224 553.036709,26.2854172 549.96846,26.2854172 C547.130395,26.2854172 544.817159,28.4309604 544.46035,31.2001331 C544.43141,31.4247295 542.550497,44.9785031 542.576922,45.1999996 Z M511.767663,37.4411545 C511.878137,37.4411545 515.252998,45.1999996 515.252998,45.1999996 L515.252998,48.281942 L519.4354,48.281942 L519.4354,45.1999996 C519.4354,45.1999996 517.596562,31.3652989 517.582442,31.2024933 C517.33428,28.3411234 514.951286,26.0966011 512.048215,26.0966011 C508.979967,26.0966011 506.49266,28.6038064 506.49266,31.6966011 C506.49266,34.7893959 508.699415,37.4411545 511.767663,37.4411545 Z" id="readability_r"></path>
            </g>
        </g>
    </g>
</svg>