<?xml version="1.0" encoding="UTF-8" standalone="no"?>
<svg width="60px" height="60px" viewBox="0 0 60 60" version="1.1" xmlns="http://www.w3.org/2000/svg" xmlns:xlink="http://www.w3.org/1999/xlink" xmlns:sketch="http://www.bohemiancoding.com/sketch/ns">
    <!-- Generator: Sketch 3.1.1 (8761) - http://www.bohemiancoding.com/sketch -->
    <title>reddit_r</title>
    <desc>Created with Sketch.</desc>
    <defs></defs>
    <g id="Page-1" stroke="none" stroke-width="1" fill="none" fill-rule="evenodd" sketch:type="MSPage">
        <g id="rounded-icons" sketch:type="MSLayerGroup" transform="translate(-100.000000, -500.000000)" fill="#708A97">
            <g id="row-6-rounded-icons" transform="translate(0.000000, 500.000000)" sketch:type="MSShapeGroup">
                <path d="M140.729632,14.36528 C140.28024,14.2045926 135.412327,12.5165593 133.303128,14.0172119 C131.090766,15.5912618 131.206705,20.6456853 131.42498,20.6610385 C136.257059,21.0009204 140.617114,22.4799006 143.96446,24.7142787 C144.270533,24.9185851 147.160669,22.3700556 150.308285,22.8986364 C153.455901,23.4272172 155.632998,26.4696301 154.682555,29.752291 C153.732112,33.0349518 150.615179,34.0327186 150.685289,34.9951159 C150.704541,35.2593839 150.714286,35.5254361 150.714286,35.7931034 C150.714286,44.1916409 141.120388,51 129.285714,51 C117.45104,51 107.857143,44.1916409 107.857143,35.7931034 C107.857143,35.371524 107.881317,34.9539513 107.928735,34.5410454 C107.934325,34.4923633 105.767812,33.2303019 104.909307,31.2713387 C104.090098,29.4020429 104.470787,27.0849874 105.311283,25.7512828 C106.650716,23.6258621 108.307834,22.8986364 110.536976,22.8986364 C112.766117,22.8986364 115.254987,24.2985625 115.356305,24.2370009 C118.984636,22.0323894 123.663441,20.6733803 128.786398,20.5902541 C128.952378,20.5875608 128.390509,14.4654313 131.882194,12.1651002 C135.373878,9.86476896 141.208277,12.163654 141.270496,12.1651002 C141.283432,12.1654009 141.280403,12.2178669 141.266013,12.306456 C142.183909,10.3513548 144.150574,9 146.428571,9 C149.584484,9 152.142857,11.5936606 152.142857,14.7931034 C152.142857,17.9925463 149.584484,20.5862069 146.428571,20.5862069 C143.272658,20.5862069 140.714286,17.9925463 140.714286,14.7931034 C140.714286,14.64921 140.719461,14.5065419 140.729632,14.36528 L140.729632,14.36528 Z M141.500047,0 L118.500012,0 C111.980746,0 107.847634,0.025253709 103.940926,3.9316685 C100.024726,7.84780978 100,12.0007266 100,18.5000117 L100,41.5000469 C100,48.0196053 100.025605,52.1530691 103.931669,56.0591324 C107.849861,59.9772658 112.00102,60 118.500012,60 L141.500047,60 C148.019605,60 152.151839,59.9756252 156.059132,56.0683315 C159.974571,52.1528347 160,47.9989805 160,41.4999883 L160,18.5000117 C160,11.9806877 159.974922,7.84745822 156.068331,3.94092624 C152.150491,0.0229685706 147.999039,0 141.500047,0 Z M137.857143,35.0689655 C139.435099,35.0689655 140.714286,33.7721352 140.714286,32.1724138 C140.714286,30.5726924 139.435099,29.2758621 137.857143,29.2758621 C136.279186,29.2758621 135,30.5726924 135,32.1724138 C135,33.7721352 136.279186,35.0689655 137.857143,35.0689655 Z M120.714286,35.0689655 C122.292242,35.0689655 123.571429,33.7721352 123.571429,32.1724138 C123.571429,30.5726924 122.292242,29.2758621 120.714286,29.2758621 C119.136329,29.2758621 117.857143,30.5726924 117.857143,32.1724138 C117.857143,33.7721352 119.136329,35.0689655 120.714286,35.0689655 Z M130,42.0470963 C124.845785,42.0470961 121.899751,39.8668046 121.899751,39.8668046 C121.668523,39.7167026 121.378066,39.7958486 121.252965,40.0397461 L120.746637,41.026884 C120.620655,41.272499 120.684134,41.6208081 120.900445,41.796086 C120.900445,41.796086 123.438983,44.3990874 130,44.3990871 C136.561016,44.3990868 138.939137,41.6061528 138.939137,41.6061528 C139.130546,41.4212959 139.155242,41.0920336 138.990587,40.8656255 L138.361671,40.0008351 C138.198677,39.77671 137.895631,39.726855 137.655483,39.8956934 C137.655483,39.8956934 135.154214,42.0470965 130,42.0470963 Z M146.428571,17.6896552 C148.006528,17.6896552 149.285714,16.3928249 149.285714,14.7931034 C149.285714,13.193382 148.006528,11.8965517 146.428571,11.8965517 C144.850615,11.8965517 143.571429,13.193382 143.571429,14.7931034 C143.571429,16.3928249 144.850615,17.6896552 146.428571,17.6896552 Z" id="reddit_r"></path>
            </g>
        </g>
    </g>
</svg>