<?xml version="1.0" encoding="UTF-8" standalone="no"?>
<svg width="60px" height="60px" viewBox="0 0 60 60" version="1.1" xmlns="http://www.w3.org/2000/svg" xmlns:xlink="http://www.w3.org/1999/xlink" xmlns:sketch="http://www.bohemiancoding.com/sketch/ns">
    <!-- Generator: Sketch 3.1.1 (8761) - http://www.bohemiancoding.com/sketch -->
    <title>renren_r</title>
    <desc>Created with Sketch.</desc>
    <defs></defs>
    <g id="Page-1" stroke="none" stroke-width="1" fill="none" fill-rule="evenodd" sketch:type="MSPage">
        <g id="rounded-icons" sketch:type="MSLayerGroup" transform="translate(0.000000, -200.000000)" fill="#71A8DD">
            <g id="row-3-rounded-icons" transform="translate(0.000000, 200.000000)" sketch:type="MSShapeGroup">
                <path d="M29.9503634,40.7630915 C29.4381558,40.6509712 26.8113596,39.3366404 24.3213701,35.9668536 C22.1010648,32.9620388 21.6664853,31.4999995 21.6664852,29.0177078 C21.6664851,26.535416 21.6630189,17.1998618 21.6664851,17.200452 C24.9648588,17.7620701 27.8799861,19.4708965 30.0000001,21.9088864 C27.7772736,24.4649942 26.4285714,27.8226312 26.4285714,31.5 C26.4285714,35.0153312 27.8977196,38.2528413 29.9503634,40.7630915 Z M41.5000469,0 L18.5000117,0 C11.9807462,0 7.847634,0.025253709 3.94092624,3.9316685 C0.0247263693,7.84780978 0,12.0007266 0,18.5000117 L0,41.5000469 C0,48.0196053 0.0256052687,52.1530691 3.9316685,56.0591324 C7.84986055,59.9772658 12.0010195,60 18.5000117,60 L41.5000469,60 C48.0196053,60 52.1518387,59.9756252 56.0591324,56.0683315 C59.9745705,52.1528347 60,47.9989805 60,41.4999883 L60,18.5000117 C60,11.9806877 59.9749221,7.84745822 56.0683315,3.94092624 C52.150491,0.0229685706 47.9990391,0 41.5000469,0 Z M22.0458491,40.6834283 C20.6163292,38.7821673 19.2857145,35.9552922 19.2857145,35.9552922 C19.2857145,35.9552922 18.2399678,38.5218842 16.6481801,40.6834283 C15.0882712,42.8016834 12.9808392,44.5153543 13.0611107,44.5548578 C14.9425762,45.4807705 17.0544051,46 19.2857143,46 C21.5305611,46 23.6544733,45.474451 25.5445376,44.5379601 C25.6107011,44.5051773 23.4753688,42.5846895 22.0458491,40.6834283 Z M8.31375466,40.7864373 C8.327494,40.8031429 11.6104741,39.4154471 13.9345773,36.2308444 C16.2586805,33.0462416 16.9287809,31.5000004 16.9287809,28.8001053 C16.9287808,26.1002102 16.9408796,17.1943756 16.9287808,17.1964142 C10.1605065,18.3368762 5,24.3067472 5,31.5 C5,35.0330229 6.24490029,38.2709221 8.31375466,40.7864373 Z M43.4744205,40.6834283 C42.0449006,38.7821673 40.714286,35.9552922 40.714286,35.9552922 C40.714286,35.9552922 39.6685392,38.5218842 38.0767516,40.6834283 C36.5168427,42.8016834 34.4094107,44.5153543 34.4896822,44.5548578 C36.3711477,45.4807705 38.4829765,46 40.7142857,46 C42.9591325,46 45.0830448,45.474451 46.973109,44.5379601 C47.0392725,44.5051773 44.9039403,42.5846895 43.4744205,40.6834283 Z M45.7499415,35.9668536 C48.4768736,39.6573028 51.5998114,40.8918162 51.6976975,40.772495 C53.759693,38.2589634 55,35.026499 55,31.5 C55,24.3151942 49.8516065,18.350898 43.0950565,17.200452 C43.0915903,17.1998618 43.0950566,26.535416 43.0950566,29.0177078 C43.0950567,31.4999995 43.5296362,32.9620388 45.7499415,35.9668536 Z M29.9503634,40.7630915 C29.9991041,40.7737607 30.0286971,40.7735438 30.0372024,40.763176 C32.0991979,38.2496444 33.5714286,35.026499 33.5714286,31.5 C33.5714286,27.8226314 32.2227266,24.4649942 30.0000001,21.9088864 C32.1251199,19.4650253 35.0491872,17.7538438 38.3573522,17.1964142 C38.369451,17.1943756 38.3573522,26.1002102 38.3573523,28.8001053 C38.3573523,31.5000004 37.6872519,33.0462416 35.3631487,36.2308444 C33.0390455,39.4154471 29.9951381,40.817642 29.9813988,40.8009364 C29.971039,40.7883399 29.9606938,40.7757249 29.9503634,40.7630915 Z" id="renren_r"></path>
            </g>
        </g>
    </g>
</svg>