<?xml version="1.0" encoding="UTF-8" standalone="no"?>
<svg width="60px" height="60px" viewBox="0 0 60 60" version="1.1" xmlns="http://www.w3.org/2000/svg" xmlns:xlink="http://www.w3.org/1999/xlink" xmlns:sketch="http://www.bohemiancoding.com/sketch/ns">
    <!-- Generator: Sketch 3.1.1 (8761) - http://www.bohemiancoding.com/sketch -->
    <title>sina_weibo_r</title>
    <desc>Created with Sketch.</desc>
    <defs></defs>
    <g id="Page-1" stroke="none" stroke-width="1" fill="none" fill-rule="evenodd" sketch:type="MSPage">
        <g id="rounded-icons" sketch:type="MSLayerGroup" transform="translate(-500.000000, 0.000000)" fill="#F56467">
            <g id="row-1-rounded-icons" sketch:type="MSShapeGroup">
                <path d="M541.500047,0 L518.500012,0 C511.980746,0 507.847634,0.025253709 503.940926,3.9316685 C500.024726,7.84780978 500,12.0007266 500,18.5000117 L500,41.5000469 C500,48.0196053 500.025605,52.1530691 503.931669,56.0591324 C507.849861,59.9772658 512.00102,60 518.500012,60 L541.500047,60 C548.019605,60 552.151839,59.9756252 556.059132,56.0683315 C559.974571,52.1528347 560,47.9989805 560,41.4999883 L560,18.5000117 C560,11.9806877 559.974922,7.84745822 556.068331,3.94092624 C552.150491,0.0229685706 547.999039,0 541.500047,0 Z M528.257143,50 C539.997139,50 549.422691,43.7639665 549.422691,36.0714286 C549.422691,29.5727764 541.409753,29.5727764 541.409753,29.1532838 C541.409753,28.7337912 545.4,24.9583659 541.409753,22.6092113 C537.419505,20.2600567 530.120843,23.831636 530.340331,23.4481951 C533.479421,17.9642857 528.992634,16.232935 526.705595,16.232935 C521.253491,16.232935 507,28.3788906 507,36.0714286 C507,43.7639665 516.517146,50 528.257143,50 Z M528.831442,45.7333198 C536.331922,44.6791962 541.848134,39.810686 541.152248,34.8591975 C540.456361,29.9077089 533.811895,26.7482708 526.311415,27.8023944 C518.810935,28.8565181 513.294723,33.7250282 513.990609,38.6765168 C514.686496,43.6280054 521.330962,46.7874435 528.831442,45.7333198 Z M527.446241,44.3845163 C531.90726,43.517382 534.928684,39.7537008 534.194782,35.9780986 C533.460879,32.2024964 529.249563,29.8447176 524.788544,30.7118519 C520.327525,31.5789862 517.3061,35.3426673 518.040003,39.1182695 C518.773906,42.8938717 522.985222,45.2516505 527.446241,44.3845163 Z M527.571429,37.4642857 C528.328848,37.4642857 528.942857,36.8406824 528.942857,36.0714286 C528.942857,35.3021748 528.328848,34.6785714 527.571429,34.6785714 C526.814009,34.6785714 526.2,35.3021748 526.2,36.0714286 C526.2,36.8406824 526.814009,37.4642857 527.571429,37.4642857 Z M524.422721,40.6415388 C525.79563,40.0013405 526.513274,38.6345924 526.025623,37.5888214 C525.537972,36.5430503 524.02969,36.2142687 522.65678,36.854467 C521.28387,37.4946653 520.566227,38.8614133 521.053878,39.9071844 C521.541529,40.9529555 523.049811,41.2817371 524.422721,40.6415388 Z M546.614032,19.2532764 C544.135804,16.9880202 540.897729,17.8140916 540.897729,17.8140916 C540.354588,17.8970415 539.914286,18.4118834 539.914286,18.9596916 L539.914286,19.3485493 C539.914286,19.8982968 540.354096,20.3107955 540.922172,20.2942762 C540.922172,20.2942762 543.640158,19.9244638 544.96188,21.5185326 C546.283602,23.1126015 545.248712,25.6908319 545.248712,25.6908319 C545.090299,26.2130179 545.41364,26.6363333 545.95689,26.6363333 L546.858137,26.6363332 C547.407666,26.6363331 547.941088,26.2052183 548.029754,25.6513378 C548.029754,25.6513378 549.092261,21.5185327 546.614032,19.2532764 Z M551.24006,14.7227642 C546.696641,10.3600483 540.027829,10.9699623 540.027829,10.9699623 C539.207702,10.9865517 538.542857,11.6655556 538.542857,12.4927402 L538.542857,13.230024 C538.542857,14.0544417 539.204642,14.6844271 540.048665,14.6697051 C540.048665,14.6697051 546.448818,13.9905475 549.174869,17.964286 C551.90092,21.9380247 550.723085,26.9241888 550.723085,26.9241888 C550.597996,27.7382618 551.163257,28.3981984 551.995962,28.3981984 L552.631955,28.3981984 C553.460035,28.3981984 554.226221,27.7401754 554.314538,26.9187751 C554.314538,26.9187751 555.78348,19.0854798 551.24006,14.7227642 Z" id="sina_weibo_r"></path>
            </g>
        </g>
    </g>
</svg>