<?xml version="1.0" encoding="UTF-8" standalone="no"?>
<svg width="60px" height="60px" viewBox="0 0 60 60" version="1.1" xmlns="http://www.w3.org/2000/svg" xmlns:xlink="http://www.w3.org/1999/xlink" xmlns:sketch="http://www.bohemiancoding.com/sketch/ns">
    <!-- Generator: Sketch 3.1.1 (8761) - http://www.bohemiancoding.com/sketch -->
    <title>snapchat_r</title>
    <desc>Created with Sketch.</desc>
    <defs></defs>
    <g id="Page-1" stroke="none" stroke-width="1" fill="none" fill-rule="evenodd" sketch:type="MSPage">
        <g id="rounded-icons" sketch:type="MSLayerGroup" transform="translate(-200.000000, -400.000000)" fill="#FEFF30">
            <g id="row-5-rounded-icons" transform="translate(0.000000, 400.000000)" sketch:type="MSShapeGroup">
                <path d="M241.500047,0 L218.500012,0 C211.980746,0 207.847634,0.025253709 203.940926,3.9316685 C200.024726,7.84780978 200,12.0007266 200,18.5000117 L200,41.5000469 C200,48.0196053 200.025605,52.1530691 203.931669,56.0591324 C207.849861,59.9772658 212.00102,60 218.500012,60 L241.500047,60 C248.019605,60 252.151839,59.9756252 256.059132,56.0683315 C259.974571,52.1528347 260,47.9989805 260,41.4999883 L260,18.5000117 C260,11.9806877 259.974922,7.84745822 256.068331,3.94092624 C252.150491,0.0229685706 247.999039,0 241.500047,0 Z M213.557331,29.0134006 C211.890842,28.2942793 210.477974,27.9610391 209.992897,27.4318968 C208.74446,26.070048 210.992175,24.8662314 211.983425,25.3976576 C214.677419,26.8419545 216.195937,25.7650027 216.195937,25.7650027 C216.195937,25.7650027 216.195937,18.9225157 216.195937,15.7101622 C216.195937,12.4978087 219.800395,5.8025041 229.293914,5.80250546 C238.71659,5.80250681 242.304258,12.5487133 242.304257,15.7101622 C242.304257,18.871611 242.304257,25.3976576 242.304257,25.3976576 C242.304257,25.3976576 243.091208,26.1040016 244.479948,26.1040014 C245.868689,26.1040014 246.709425,25.2823387 247.62776,25.3976576 C248.546095,25.5129764 249.94233,26.6876608 247.812926,27.9900754 C245.683522,29.2924898 242.813461,28.6412796 242.813461,31.8042887 C242.813461,34.9672979 247.693825,40.1769575 252.951265,42.0375506 C258.208705,43.8981437 247.369784,45.4780089 247.369784,45.4780089 C247.369784,45.4780089 247.025973,48.6484434 246.563059,48.9682579 C246.337834,49.1238597 244.618825,48.0379614 241.05439,48.2705355 C237.489956,48.5031097 235.499428,53.0150485 229.293914,53.0150485 C223.0884,53.0150494 221.974856,49.1078675 218.279048,48.2705355 C214.58324,47.4332033 212.307464,48.9217443 211.983425,48.6426566 C211.659385,48.3635689 211.844551,45.4780076 210.918724,45.4780076 C209.992897,45.4780076 200.503171,43.2004217 205.96555,42.0375506 C211.427929,40.8746799 215.82038,33.8509423 215.825606,31.8042887 C215.829408,30.3158195 215.223819,29.732522 213.557331,29.0134006 Z" id="snapchat_r"></path>
            </g>
        </g>
    </g>
</svg>