<?xml version="1.0" encoding="UTF-8" standalone="no"?>
<svg width="60px" height="60px" viewBox="0 0 60 60" version="1.1" xmlns="http://www.w3.org/2000/svg" xmlns:xlink="http://www.w3.org/1999/xlink" xmlns:sketch="http://www.bohemiancoding.com/sketch/ns">
    <!-- Generator: Sketch 3.1.1 (8761) - http://www.bohemiancoding.com/sketch -->
    <title>taobao_r</title>
    <desc>Created with Sketch.</desc>
    <defs></defs>
    <g id="Page-1" stroke="none" stroke-width="1" fill="none" fill-rule="evenodd" sketch:type="MSPage">
        <g id="rounded-icons" sketch:type="MSLayerGroup" transform="translate(-100.000000, -100.000000)" fill="#FC8848">
            <g id="row-2-rounded-icons-" transform="translate(0.000000, 100.000000)" sketch:type="MSShapeGroup">
                <path d="M141.500047,0 L118.500012,0 C111.980746,0 107.847634,0.025253709 103.940926,3.9316685 C100.024726,7.84780978 100,12.0007266 100,18.5000117 L100,41.5000469 C100,48.0196053 100.025605,52.1530691 103.931669,56.0591324 C107.849861,59.9772658 112.00102,60 118.500012,60 L141.500047,60 C148.019605,60 152.151839,59.9756252 156.059132,56.0683315 C159.974571,52.1528347 160,47.9989805 160,41.4999883 L160,18.5000117 C160,11.9806877 159.974922,7.84745822 156.068331,3.94092624 C152.150491,0.0229685706 147.999039,0 141.500047,0 Z M113.571429,19.6666667 C115.938363,19.6666667 117.857143,17.7265674 117.857143,15.3333333 C117.857143,12.9400993 115.938363,11 113.571429,11 C111.204494,11 109.285714,12.9400993 109.285714,15.3333333 C109.285714,17.7265674 111.204494,19.6666667 113.571429,19.6666667 Z M109.665281,21.6415128 L106.404078,26.2967201 C106.404078,26.2967201 113.406072,29.788125 113.981578,32.6006464 C114.557085,35.4131677 104.389805,43.8507305 104.389805,43.8507305 L111.649089,49.1848226 C111.649089,49.1848226 119.161136,35.8980843 118.585629,31.5338282 C118.010122,27.169572 109.665281,21.6415128 109.665281,21.6415128 Z M120.695819,17.5682066 C122.518256,14.4647352 123.18968,11.3612637 123.18968,11.3612637 L128.465156,13.4949003 L126.930472,16.5013883 C126.930472,16.5013883 127.314143,16.8893222 128.656991,16.6953552 C129.999839,16.5013882 138.82427,12.0401481 144.867087,13.1069664 C150.992412,14.1883508 154.746613,19.0229578 154.746613,22.8053144 L154.746613,40.9412261 C154.746613,40.9412261 154.075188,46.4692853 149.37522,48.4089544 C144.675251,50.3486238 137.481422,48.8938714 137.481422,48.8938714 L137.865093,45.8873837 C137.865093,45.8873837 142.181391,46.857218 144.867087,45.9843669 C147.552784,45.1115156 148.320126,42.977879 148.320126,42.977879 L148.320126,21.3505624 C148.320126,21.3505624 147.936455,19.1199423 145.442594,17.5682066 C142.948733,16.0164708 141.701802,16.2104378 139.016106,16.5983717 C136.33041,16.9863057 132.205947,18.9259753 132.205947,18.9259753 L129.903922,23.484199 L145.442594,23.484199 L145.442594,26.587671 L135.946739,26.587671 L135.946739,30.4670092 L145.826265,30.4670092 L145.826265,33.1825473 L136.138574,33.5704812 L136.138574,40.9412261 L140.742625,38.9045727 L140.358954,35.7041178 L144.099746,34.9282499 L146.88136,42.2989946 L142.277309,44.4326312 L141.701802,41.8140772 C141.701802,41.8140772 132.995042,45.5226143 129.502667,45.8134173 C126.010292,46.1042203 122.579405,45.2618033 120.916088,42.8754685 C119.252772,40.4891335 119.640724,35.7041178 119.640724,35.7041178 L125.84855,35.8606676 C125.84855,35.8606676 125.364523,38.587351 126.586114,40.31192 C127.807705,42.036489 130.575346,41.6201102 130.575346,41.6201102 L130.575346,33.3765142 L120.983573,33.0855638 L120.983573,30.4670092 L130.671263,30.4670097 L130.575346,26.5876704 L127.601896,26.0057695 C127.601896,26.0057695 125.108035,29.8851088 123.477434,29.7881254 C121.846832,29.6911419 121.654997,27.4605218 121.654997,27.4605218 L126.930472,20.865645 L124.05294,20.5746945 L119.736642,25.7148191 L116.475439,22.8053144 C116.475439,22.8053144 118.873383,20.6716783 120.695819,17.5682066 Z" id="taobao_r"></path>
            </g>
        </g>
    </g>
</svg>