<?xml version="1.0" encoding="UTF-8" standalone="no"?>
<svg width="60px" height="60px" viewBox="0 0 60 60" version="1.1" xmlns="http://www.w3.org/2000/svg" xmlns:xlink="http://www.w3.org/1999/xlink" xmlns:sketch="http://www.bohemiancoding.com/sketch/ns">
    <!-- Generator: Sketch 3.1.1 (8761) - http://www.bohemiancoding.com/sketch -->
    <title>tencent_weibo_r</title>
    <desc>Created with Sketch.</desc>
    <defs></defs>
    <g id="Page-1" stroke="none" stroke-width="1" fill="none" fill-rule="evenodd" sketch:type="MSPage">
        <g id="rounded-icons" sketch:type="MSLayerGroup" transform="translate(-400.000000, 0.000000)" fill="#38A6D7">
            <g id="row-1-rounded-icons" sketch:type="MSShapeGroup">
                <path d="M441.500047,0 L418.500012,0 C411.980746,0 407.847634,0.025253709 403.940926,3.9316685 C400.024726,7.84780978 400,12.0007266 400,18.5000117 L400,41.5000469 C400,48.0196053 400.025605,52.1530691 403.931669,56.0591324 C407.849861,59.9772658 412.00102,60 418.500012,60 L441.500047,60 C448.019605,60 452.151839,59.9756252 456.059132,56.0683315 C459.974571,52.1528347 460,47.9989805 460,41.4999883 L460,18.5000117 C460,11.9806877 459.974922,7.84745822 456.068331,3.94092624 C452.150491,0.0229685706 447.999039,0 441.500047,0 Z M415.304494,39.5629166 C414.625694,41.0942899 417.435053,41.4677379 419.295626,41.4677376 C428.838076,41.4677376 432.771109,33.3934562 433.06817,28.4179221 C433.428433,22.3837904 428.99293,13.869873 419.504571,13.869873 C410.016213,13.869873 405.385427,21.3509284 405.385427,28.4179228 C405.385427,32.8192978 407.417446,35.1635439 408.784634,34.4046897 C410.151821,33.6458356 407.996199,31.0510441 407.996196,28.4179228 C407.99619,23.9907575 410.610335,16.4158086 419.295625,16.4158099 C427.83989,16.4158112 430.751093,23.7998117 430.513443,28.4179221 C430.275793,33.0360326 425.825899,38.9248431 419.295626,38.9248446 C418.903592,38.9248447 415.983294,38.0315433 415.304494,39.5629166 Z M415.215665,29.0749186 C415.269521,29.2094821 410.332234,33.8213056 408.107939,41.6270969 C405.883645,49.4328881 406.757885,53.773065 407.002026,55.105058 C407.246166,56.437051 409.003979,56.8329609 409.223705,55.105058 C409.443432,53.3771552 408.573725,48.1666665 410.374659,42.3792052 C412.438237,35.7477123 416.586199,31.0026505 416.792065,31.1600524 C417.568927,31.7540305 418.432974,31.9485881 419.504571,31.9485881 C422.093406,31.9485881 424.044049,29.9076677 424.044049,27.3119293 C424.044049,24.7161908 422.093406,22.8028852 419.504571,22.8028852 C416.915737,22.8028852 414.880244,24.7161908 414.880244,27.3119293 C414.880244,27.938948 414.999015,28.5335932 415.215665,29.0749186 Z M452.230793,19.2322916 C452.719075,17.1026041 452.414437,15.5715551 451.336368,13.5343917 C450.113061,11.2227819 445.494515,8.07497732 440.577826,10.8630255 C435.661137,13.6510733 436.086034,20.0149592 438.724071,22.7910004 C441.362107,25.5670416 445.119835,25.3295097 445.119835,25.3295097 C445.393076,25.3284577 445.593668,25.1134747 445.565746,24.8275958 L445.543351,24.5983 C445.516379,24.3221526 445.27095,24.0854266 445.004247,24.0641116 C445.004247,24.0641116 443.661457,24.030209 442.245441,23.4916673 C441.586225,23.2409529 438.98004,21.9984374 438.316613,18.8975356 C437.653186,15.7966337 439.432028,13.2078307 441.415363,12.1088541 C444.200339,10.5656844 447.177082,10.8604166 449.691731,13.7244791 C451.164914,15.4023637 451.180989,18.4979166 450.580686,19.9177083 C449.980384,21.3374999 449.520043,21.6515376 449.520043,21.6515376 C449.33171,21.8431251 449.354511,22.1514323 449.559248,22.3299389 L449.92187,22.6461034 C450.131855,22.8291866 450.4491,22.8009184 450.612819,22.5892936 C450.612819,22.5892936 451.742512,21.3619791 452.230793,19.2322916 Z M444.468001,19.9369047 C444.503894,19.9369047 445.901162,23.9266492 449.378029,26.8798902 C452.854896,29.833131 455.920095,30.566894 456.079159,30.5384685 C456.19282,30.518157 457.281621,29.7069732 455.913302,29.2912263 C454.544984,28.8754794 451.679191,27.24726 450.025387,25.7989461 C446.749716,22.930287 445.924643,19.5876605 446.021058,19.5256068 C446.468707,19.237494 447.08143,18.8143865 447.08143,17.6166666 C447.08143,16.4189467 446.376538,14.8647844 444.468001,14.8647841 C442.559463,14.8647838 441.9375,16.4189468 441.9375,17.6166667 C441.9375,18.8143865 443.266724,19.9369047 444.468001,19.9369047 Z" id="tencent_weibo_r"></path>
            </g>
        </g>
    </g>
</svg>