<?xml version="1.0" encoding="UTF-8" standalone="no"?>
<svg width="60px" height="60px" viewBox="0 0 60 60" version="1.1" xmlns="http://www.w3.org/2000/svg" xmlns:xlink="http://www.w3.org/1999/xlink" xmlns:sketch="http://www.bohemiancoding.com/sketch/ns">
    <!-- Generator: Sketch 3.1.1 (8761) - http://www.bohemiancoding.com/sketch -->
    <title>tumblr_r</title>
    <desc>Created with Sketch.</desc>
    <defs></defs>
    <g id="Page-1" stroke="none" stroke-width="1" fill="none" fill-rule="evenodd" sketch:type="MSPage">
        <g id="rounded-icons" sketch:type="MSLayerGroup" transform="translate(-500.000000, -400.000000)" fill="#708A97">
            <g id="row-5-rounded-icons" transform="translate(0.000000, 400.000000)" sketch:type="MSShapeGroup">
                <path d="M541.500047,0 L518.500012,0 C511.980746,0 507.847634,0.025253709 503.940926,3.9316685 C500.024726,7.84780978 500,12.0007266 500,18.5000117 L500,41.5000469 C500,48.0196053 500.025605,52.1530691 503.931669,56.0591324 C507.849861,59.9772658 512.00102,60 518.500012,60 L541.500047,60 C548.019605,60 552.151839,59.9756252 556.059132,56.0683315 C559.974571,52.1528347 560,47.9989805 560,41.4999883 L560,18.5000117 C560,11.9806877 559.974922,7.84745822 556.068331,3.94092624 C552.150491,0.0229685706 547.999039,0 541.500047,0 Z M531.644634,5.8140625 L531.644634,18.140625 L543.444901,18.140625 L543.444901,25.7953125 L531.644634,25.7953125 L531.644634,38.3015625 C531.644634,41.12866 531.797327,42.9434856 532.102719,43.7460937 C532.40811,44.5487019 532.97613,45.1895809 533.806795,45.66875 C534.906204,46.3156282 536.164398,46.6390625 537.581414,46.6390625 C540.09784,46.6390625 542.602013,45.8364664 545.094007,44.23125 L545.094007,51.921875 C542.968482,52.9041716 541.044545,53.5929668 539.322137,53.9882812 C537.599729,54.3835957 535.736869,54.58125 533.733501,54.58125 C531.461389,54.58125 529.451943,54.2997424 527.705104,53.7367187 C525.958265,53.1736951 524.467977,52.371099 523.234195,51.3289062 C522.000414,50.2867135 521.14533,49.1786517 520.66892,48.0046875 C520.192509,46.8307233 519.954307,45.1296986 519.954307,42.9015625 L519.954307,25.7953125 L514.457288,25.7953125 L514.457288,18.8953125 C516.411794,18.2723927 518.085314,17.3799537 519.477899,16.2179687 C520.870484,15.0559838 521.9882,13.6604248 522.83108,12.03125 C523.673961,10.4020752 524.254196,8.32970008 524.571803,5.8140625 L531.644634,5.8140625 Z" id="tumblr_r"></path>
            </g>
        </g>
    </g>
</svg>