<?xml version="1.0" encoding="UTF-8" standalone="no"?>
<svg width="60px" height="60px" viewBox="0 0 60 60" version="1.1" xmlns="http://www.w3.org/2000/svg" xmlns:xlink="http://www.w3.org/1999/xlink" xmlns:sketch="http://www.bohemiancoding.com/sketch/ns">
    <!-- Generator: Sketch 3.1.1 (8761) - http://www.bohemiancoding.com/sketch -->
    <title>twitter_r</title>
    <desc>Created with Sketch.</desc>
    <defs></defs>
    <g id="Page-1" stroke="none" stroke-width="1" fill="none" fill-rule="evenodd" sketch:type="MSPage">
        <g id="rounded-icons" sketch:type="MSLayerGroup" transform="translate(-100.000000, -300.000000)" fill="#5DD7FC">
            <g id="row-4-rounded-icons" transform="translate(0.000000, 300.000000)" sketch:type="MSShapeGroup">
                <path d="M141.500047,0 L118.500012,0 C111.980746,0 107.847634,0.025253709 103.940926,3.9316685 C100.024726,7.84780978 100,12.0007266 100,18.5000117 L100,41.5000469 C100,48.0196053 100.025605,52.1530691 103.931669,56.0591324 C107.849861,59.9772658 112.00102,60 118.500012,60 L141.500047,60 C148.019605,60 152.151839,59.9756252 156.059132,56.0683315 C159.974571,52.1528347 160,47.9989805 160,41.4999883 L160,18.5000117 C160,11.9806877 159.974922,7.84745822 156.068331,3.94092624 C152.150491,0.0229685706 147.999039,0 141.500047,0 Z M118.298512,20.2618546 C125.741091,24.0366687 132.030929,23.818891 132.030929,23.818891 C132.030929,23.818891 129.646413,15.4707438 137.016734,11.7685228 C144.387056,8.06630129 149.458896,14.3081269 149.458896,14.3081269 C149.458896,14.3081269 150.744311,13.9536341 151.702072,13.5991413 C152.659833,13.2446485 154.046065,12.6116257 154.046065,12.6116257 L151.774931,16.6842392 L155.272133,16.3118189 C155.272133,16.3118189 154.841094,16.9449678 153.441455,18.23457 C152.041817,19.5241722 151.464958,20.1903963 151.464958,20.1903963 C151.464958,20.1903963 151.964946,30.2390511 146.695926,37.9755782 C141.426906,45.7121049 134.619023,50.3553672 124.729479,51.3326127 C114.839934,52.3098583 108.399159,48.2837244 108.399159,48.2837244 C108.399159,48.2837244 112.724346,48.0357409 115.480448,46.977058 C118.236551,45.9183753 122.200447,43.1296513 122.200447,43.1296513 C122.200447,43.1296513 116.564319,41.3874294 114.541093,39.4274297 C112.517868,37.4674301 112.012062,36.3059488 112.012062,36.3059488 L117.575932,36.2333563 C117.575932,36.2333563 111.723029,33.1118754 110.061094,30.6437277 C108.399159,28.1755801 108.182385,25.7800249 108.182385,25.7800249 L112.459938,27.5153771 C112.459938,27.5153771 108.904966,22.6585439 108.399159,18.8837298 C107.893353,15.1089157 109.049482,13.0763235 109.049482,13.0763235 C109.049482,13.0763235 110.855933,16.4870404 118.298512,20.2618546 Z" id="twitter_r"></path>
            </g>
        </g>
    </g>
</svg>