<?xml version="1.0" encoding="UTF-8" standalone="no"?>
<svg width="60px" height="60px" viewBox="0 0 60 60" version="1.1" xmlns="http://www.w3.org/2000/svg" xmlns:xlink="http://www.w3.org/1999/xlink" xmlns:sketch="http://www.bohemiancoding.com/sketch/ns">
    <!-- Generator: Sketch 3.1.1 (8761) - http://www.bohemiancoding.com/sketch -->
    <title>vine_r</title>
    <desc>Created with Sketch.</desc>
    <defs></defs>
    <g id="Page-1" stroke="none" stroke-width="1" fill="none" fill-rule="evenodd" sketch:type="MSPage">
        <g id="rounded-icons" sketch:type="MSLayerGroup" transform="translate(-300.000000, -400.000000)" fill="#2ED1A8">
            <g id="row-5-rounded-icons" transform="translate(0.000000, 400.000000)" sketch:type="MSShapeGroup">
                <path d="M341.500047,0 L318.500012,0 C311.980746,0 307.847634,0.025253709 303.940926,3.9316685 C300.024726,7.84780978 300,12.0007266 300,18.5000117 L300,41.5000469 C300,48.0196053 300.025605,52.1530691 303.931669,56.0591324 C307.849861,59.9772658 312.00102,60 318.500012,60 L341.500047,60 C348.019605,60 352.151839,59.9756252 356.059132,56.0683315 C359.974571,52.1528347 360,47.9989805 360,41.4999883 L360,18.5000117 C360,11.9806877 359.974922,7.84745822 356.068331,3.94092624 C352.150491,0.0229685706 347.999039,0 341.500047,0 Z M313.936543,35.980618 C310.183767,26.5995266 308.128675,14 308.128675,14 L316.527746,14 C316.527746,14 317.153209,23.5019986 321.352745,33.6795956 C325.552281,43.8571927 329.215704,46.6892209 329.215704,46.6892209 C329.215704,46.6892209 332.179068,43.3561901 334.130055,40.6711636 C336.081041,37.9861371 337.704127,35.007109 337.704127,35.007109 C337.704127,35.007109 334.058986,33.5655418 331.433359,29.5384915 C329.768259,26.9846462 328.669936,22.4855302 328.669936,19.5511334 C328.669936,11.9896107 332.484238,6.50983551 339.937923,6.50983551 C347.391607,6.50983551 350.64856,11.9376083 350.648559,17.3178998 C350.648558,22.6981913 348.694401,27.0420325 348.694401,27.0420325 C348.694401,27.0420325 346.457037,27.0420331 344.472044,26.1074734 C342.48705,25.1729137 341.993015,24.2985062 341.993015,24.2985062 C341.993015,24.2985062 342.975885,21.3216061 342.975885,18.5459508 C342.975885,15.7702954 341.444532,13.7685185 339.937922,13.7685185 C338.431313,13.7685188 336.112294,14.2311291 336.112294,19.5511334 C336.112294,24.8711377 339.778708,29.0134839 342.975885,29.9999997 C346.173063,30.9865155 350.648559,30.8227536 350.648559,30.8227536 L350.648559,36.1477536 C350.648559,36.1477536 349.493928,36.5612498 347.973078,36.6886258 C346.452227,36.8160016 344.918991,36.6886258 344.918991,36.6886258 C344.918991,36.6886258 343.361228,39.9579756 340.116626,44.3881985 C336.783578,48.9391873 331.751196,54.3002927 329.215704,54.3002927 C324.212001,54.3002935 317.68932,45.3617093 313.936543,35.980618 Z" id="vine_r"></path>
            </g>
        </g>
    </g>
</svg>