<?xml version="1.0" encoding="UTF-8" standalone="no"?>
<svg width="60px" height="60px" viewBox="0 0 60 60" version="1.1" xmlns="http://www.w3.org/2000/svg" xmlns:xlink="http://www.w3.org/1999/xlink" xmlns:sketch="http://www.bohemiancoding.com/sketch/ns">
    <!-- Generator: Sketch 3.1.1 (8761) - http://www.bohemiancoding.com/sketch -->
    <title>wechat_r</title>
    <desc>Created with Sketch.</desc>
    <defs></defs>
    <g id="Page-1" stroke="none" stroke-width="1" fill="none" fill-rule="evenodd" sketch:type="MSPage">
        <g id="rounded-icons" sketch:type="MSLayerGroup" fill="#8DC81B">
            <g id="row-1-rounded-icons" sketch:type="MSShapeGroup">
                <path d="M26.2216684,40.0866573 C25.166664,40.2549064 24.0794762,40.342801 22.96875,40.342801 C20.7520611,40.342801 18.6291221,39.992729 16.6686505,39.3525171 C15.6826956,39.0305435 12.0801267,42.8381922 11.1850971,42.3770742 C10.6518617,42.102352 12.7940205,37.601282 12.2980097,37.2814889 C7.8707959,34.4271313 5,29.841658 5,24.6714005 C5,16.0163246 13.0448829,9 22.96875,9 C32.3261034,9 40.0128767,15.2381219 40.8599968,23.2061716 C48.7312065,23.5169611 55,29.013954 55,35.7495684 C55,39.9324805 52.5823857,43.6377075 48.8647522,45.9198058 C48.1645537,46.3496281 50.3808004,49.9737477 49.5958353,50.2962852 C49.1120282,50.4950787 45.6509768,47.4275136 45.1395537,47.5816734 C43.5819603,48.0511833 41.9043959,48.3068292 40.15625,48.3068292 C33.7602336,48.3068292 28.3090492,44.8846519 26.2216684,40.0866573 L26.2216684,40.0866573 Z M25.4001165,37.1218383 C24.608996,37.2322054 23.7967909,37.289611 22.96875,37.289611 C20.8965381,37.289611 18.9235016,36.9300944 17.1319034,36.2807116 C16.9531898,36.2159351 16.3159109,36.0218782 15.9711617,36.2807124 C15.1961807,36.8625602 14.1569759,38.0703025 14.1569759,38.0703025 C14.1569759,38.0703025 14.5374243,37.1908944 14.6649477,35.9066911 C14.7232159,35.3199102 13.8358546,34.9084729 13.6587614,34.7875825 C10.2839641,32.4838203 8.125,28.6779005 8.125,24.7217286 C8.125,17.7806784 14.7707728,12.1538462 22.96875,12.1538462 C30.6231987,12.1538462 36.9244433,17.059291 37.7263454,23.3597349 C30.6842978,24.3407096 25.3125,29.5144448 25.3125,35.7495684 C25.3125,36.213292 25.3422131,36.6711447 25.4001165,37.1218383 L25.4001165,37.1218383 Z M41.5000469,0 L18.5000117,0 C11.9807462,0 7.847634,0.025253709 3.94092624,3.9316685 C0.0247263693,7.84780978 0,12.0007266 0,18.5000117 L0,41.5000469 C0,48.0196053 0.0256052687,52.1530691 3.9316685,56.0591324 C7.84986055,59.9772658 12.0010195,60 18.5000117,60 L41.5000469,60 C48.0196053,60 52.1518387,59.9756252 56.0591324,56.0683315 C59.9745705,52.1528347 60,47.9989805 60,41.4999883 L60,18.5000117 C60,11.9806877 59.9749221,7.84745822 56.0683315,3.94092624 C52.150491,0.0229685706 47.9990391,0 41.5000469,0 Z M16.71875,21.6153846 C18.0131674,21.6153846 19.0625,20.5563659 19.0625,19.25 C19.0625,17.9436341 18.0131674,16.8846154 16.71875,16.8846154 C15.4243326,16.8846154 14.375,17.9436341 14.375,19.25 C14.375,20.5563659 15.4243326,21.6153846 16.71875,21.6153846 Z M29.21875,21.6153846 C30.5131674,21.6153846 31.5625,20.5563659 31.5625,19.25 C31.5625,17.9436341 30.5131674,16.8846154 29.21875,16.8846154 C27.9243326,16.8846154 26.875,17.9436341 26.875,19.25 C26.875,20.5563659 27.9243326,21.6153846 29.21875,21.6153846 Z M34.6875,32.6538462 C35.550445,32.6538462 36.25,31.9478337 36.25,31.0769231 C36.25,30.2060125 35.550445,29.5 34.6875,29.5 C33.824555,29.5 33.125,30.2060125 33.125,31.0769231 C33.125,31.9478337 33.824555,32.6538462 34.6875,32.6538462 Z M44.0625,32.6538462 C44.925445,32.6538462 45.625,31.9478337 45.625,31.0769231 C45.625,30.2060125 44.925445,29.5 44.0625,29.5 C43.199555,29.5 42.5,30.2060125 42.5,31.0769231 C42.5,31.9478337 43.199555,32.6538462 44.0625,32.6538462 Z" id="wechat_r"></path>
            </g>
        </g>
    </g>
</svg>