<?xml version="1.0" encoding="UTF-8" standalone="no"?>
<svg width="60px" height="60px" viewBox="0 0 60 60" version="1.1" xmlns="http://www.w3.org/2000/svg" xmlns:xlink="http://www.w3.org/1999/xlink" xmlns:sketch="http://www.bohemiancoding.com/sketch/ns">
    <!-- Generator: Sketch 3.1.1 (8761) - http://www.bohemiancoding.com/sketch -->
    <title>wechat moment-r</title>
    <desc>Created with Sketch.</desc>
    <defs></defs>
    <g id="Page-1" stroke="none" stroke-width="1" fill="none" fill-rule="evenodd" sketch:type="MSPage">
        <g id="rounded-icons" sketch:type="MSLayerGroup" transform="translate(-100.000000, 0.000000)">
            <g id="row-1-rounded-icons" sketch:type="MSShapeGroup">
                <g id="wechat-moment-r" transform="translate(100.000000, 0.000000)">
                    <path d="M30,55 C43.8071194,55 55,43.8071194 55,30 C55,16.1928806 43.8071194,5 30,5 C16.1928806,5 5,16.1928806 5,30 C5,43.8071194 16.1928806,55 30,55 Z M30,38 C34.4182782,38 38,34.4182782 38,30 C38,25.5817218 34.4182782,22 30,22 C25.5817218,22 22,25.5817218 22,30 C22,34.4182782 25.5817218,38 30,38 Z" id="Oval-207" fill="#FFFFFF"></path>
                    <path d="M41.5000469,0 L18.5000117,0 C11.9807462,0 7.847634,0.025253709 3.94092624,3.9316685 C0.0247263693,7.84780978 0,12.0007266 0,18.5000117 L0,41.5000469 C0,48.0196053 0.0256052687,52.1530691 3.9316685,56.0591324 C7.84986055,59.9772658 12.0010195,60 18.5000117,60 L41.5000469,60 C48.0196053,60 52.1518387,59.9756252 56.0591324,56.0683315 C59.9745705,52.1528347 60,47.9989805 60,41.4999883 L60,18.5000117 C60,11.9806877 59.9749221,7.84745822 56.0683315,3.94092624 C52.150491,0.0229685706 47.9990391,0 41.5000469,0 L41.5000469,0 Z" id="60---iPhone" fill="#708B97"></path>
                    <path d="M30,55 C43.8071194,55 55,43.8071194 55,30 C55,16.1928806 43.8071194,5 30,5 C16.1928806,5 5,16.1928806 5,30 C5,43.8071194 16.1928806,55 30,55 Z M30,37 C33.8659934,37 37,33.8659934 37,30 C37,26.1340066 33.8659934,23 30,23 C26.1340066,23 23,26.1340066 23,30 C23,33.8659934 26.1340066,37 30,37 Z" id="Oval-299" fill="#FFFFFF"></path>
                    <path d="M37.7502296,24.074476 L22.2624619,8.43086869 C22.2624619,8.43086869 25.3460577,7.01110906 30.0063461,7.0111083 C34.6666346,7.01110753 37.7502296,8.25001774 37.7502296,8.25001774 L37.7502296,24.074476 Z" id="Path" fill="#FC6B4F"></path>
                    <path d="M39.5462526,31.3245761 L39.6564479,9.31136973 C39.6564479,9.31136973 42.840801,10.4878795 46.1361231,13.7832005 C49.4314452,17.0785216 50.7358344,20.1349943 50.7358344,20.1349943 L39.5462526,31.3245761 Z" id="Path" fill="#7838F2"></path>
                    <path d="M35.7539276,37.8763605 L51.3975349,22.3885928 C51.3975349,22.3885928 52.8172945,25.4721885 52.8172953,30.132477 C52.8172961,34.7927655 51.5783858,37.8763605 51.5783858,37.8763605 L35.7539276,37.8763605 Z" id="Path" fill="#5698F3"></path>
                    <path d="M28.5947471,39.8918828 L50.6079534,40.002078 C50.6079534,40.002078 49.4314436,43.1864311 46.1361226,46.4817532 C42.8408016,49.7770754 39.7843288,51.0814645 39.7843288,51.0814645 L28.5947471,39.8918828 Z" id="Path" fill="#20E9F4"></path>
                    <path d="M22.2624619,36.1904773 L37.7502296,51.8340846 C37.7502296,51.8340846 34.6666339,53.2538442 30.0063454,53.253845 C25.3460569,53.2538458 22.2624619,52.0149355 22.2624619,52.0149355 L22.2624619,36.1904773 Z" id="Path" fill="#00FD60"></path>
                    <path d="M20.4664389,28.9403772 L20.3562436,50.9535836 C20.3562436,50.9535836 17.1718905,49.7770738 13.8765684,46.4817527 C10.5812463,43.1864317 9.27685717,40.129959 9.27685717,40.129959 L20.4664389,28.9403772 Z" id="Path" fill="#ABFB5B"></path>
                    <path d="M24.2587639,22.3885928 L8.61515663,37.8763605 C8.61515663,37.8763605 7.195397,34.7927648 7.19539624,30.1324763 C7.19539546,25.4721878 8.43430568,22.3885928 8.43430568,22.3885928 L24.2587639,22.3885928 Z" id="Path" fill="#F0E254"></path>
                    <path d="M31.4179444,20.3730705 L9.4047381,20.2628753 C9.4047381,20.2628753 10.5812479,17.0785222 13.8765689,13.7832 C17.1718899,10.4878779 20.2283627,9.1834888 20.2283627,9.1834888 L31.4179444,20.3730705 Z" id="Path" fill="#F6B351"></path>
                </g>
            </g>
        </g>
    </g>
</svg>