<?xml version="1.0" encoding="UTF-8" standalone="no"?>
<svg width="60px" height="60px" viewBox="0 0 60 60" version="1.1" xmlns="http://www.w3.org/2000/svg" xmlns:xlink="http://www.w3.org/1999/xlink" xmlns:sketch="http://www.bohemiancoding.com/sketch/ns">
    <!-- Generator: Sketch 3.1.1 (8761) - http://www.bohemiancoding.com/sketch -->
    <title>whatsapp_r</title>
    <desc>Created with Sketch.</desc>
    <defs></defs>
    <g id="Page-1" stroke="none" stroke-width="1" fill="none" fill-rule="evenodd" sketch:type="MSPage">
        <g id="rounded-icons" sketch:type="MSLayerGroup" transform="translate(-400.000000, -400.000000)" fill="#6DD65B">
            <g id="row-5-rounded-icons" transform="translate(0.000000, 400.000000)" sketch:type="MSShapeGroup">
                <path d="M441.500047,0 L418.500012,0 C411.980746,0 407.847634,0.025253709 403.940926,3.9316685 C400.024726,7.84780978 400,12.0007266 400,18.5000117 L400,41.5000469 C400,48.0196053 400.025605,52.1530691 403.931669,56.0591324 C407.849861,59.9772658 412.00102,60 418.500012,60 L441.500047,60 C448.019605,60 452.151839,59.9756252 456.059132,56.0683315 C459.974571,52.1528347 460,47.9989805 460,41.4999883 L460,18.5000117 C460,11.9806877 459.974922,7.84745822 456.068331,3.94092624 C452.150491,0.0229685706 447.999039,0 441.500047,0 Z M410.840863,42.2044729 C411.149826,42.6818633 406.095607,54.2258422 406.465517,54.5091408 C406.684787,54.6770704 419.128476,50.0820575 419.348709,50.2065145 C422.929937,52.2303251 427.078168,53.3870968 431.5,53.3870968 C445.030977,53.3870968 456,42.5552769 456,29.1935484 C456,15.8318199 445.030977,5 431.5,5 C417.969023,5 407,15.8318199 407,29.1935484 C407,33.9830254 408.40935,38.4474483 410.840863,42.2044729 Z M415.61754,40.5373784 C415.783006,40.7628944 412.871861,48.0528048 413.044104,48.1803703 C413.187364,48.2864709 420.467147,45.2012153 420.902093,45.4778156 C423.957653,47.4209702 427.595498,48.5483871 431.5,48.5483871 C442.324782,48.5483871 451.1,39.8829312 451.1,29.1935484 C451.1,18.5041656 442.324782,9.83870968 431.5,9.83870968 C420.675218,9.83870968 411.9,18.5041656 411.9,29.1935484 C411.9,33.430721 413.278812,37.3498828 415.61754,40.5373784 Z M425.801892,19.7828644 C427.136801,21.7131037 427.851932,23.9258168 427.851932,25.008634 C427.851932,26.0914512 426.087944,27.6450586 426.087944,27.6450586 C426.087944,27.6450586 426.434043,30.0931675 429.866667,32.8237501 C433.299292,35.5543326 434.860207,35.1776998 434.860207,35.1776998 C434.860207,35.1776998 436.528844,32.0234058 437.816079,32.4193544 C439.103314,32.8153031 441.153351,33.7653288 442.917339,34.7539892 C444.681326,35.7426494 442.583612,40.1209944 439.723091,40.6388642 C436.862571,41.156734 432.238064,40.591785 427.327503,36.3546746 C422.416942,32.1175642 420.998072,29.3212289 420.366903,26.7034787 C418.698266,19.7828644 424.466983,17.8526249 425.801892,19.7828644 Z" id="whatsapp_r"></path>
            </g>
        </g>
    </g>
</svg>