<?xml version="1.0" encoding="UTF-8" standalone="no"?>
<svg width="60px" height="60px" viewBox="0 0 60 60" version="1.1" xmlns="http://www.w3.org/2000/svg" xmlns:xlink="http://www.w3.org/1999/xlink" xmlns:sketch="http://www.bohemiancoding.com/sketch/ns">
    <!-- Generator: Sketch 3.1.1 (8761) - http://www.bohemiancoding.com/sketch -->
    <title>youku_r</title>
    <desc>Created with Sketch.</desc>
    <defs></defs>
    <g id="Page-1" stroke="none" stroke-width="1" fill="none" fill-rule="evenodd" sketch:type="MSPage">
        <g id="rounded-icons" sketch:type="MSLayerGroup" transform="translate(-400.000000, -100.000000)">
            <g id="row-2-rounded-icons-" transform="translate(0.000000, 100.000000)" sketch:type="MSShapeGroup">
                <g id="youku_r" transform="translate(400.000000, 0.000000)">
                    <path d="M41.5000469,0 L18.5000117,0 C11.9807462,0 7.847634,0.025253709 3.94092624,3.9316685 C0.0247263693,7.84780978 0,12.0007266 0,18.5000117 L0,41.5000469 C0,48.0196053 0.0256052687,52.1530691 3.9316685,56.0591324 C7.84986055,59.9772658 12.0010195,60 18.5000117,60 L41.5000469,60 C48.0196053,60 52.1518387,59.9756252 56.0591324,56.0683315 C59.9745705,52.1528347 60,47.9989805 60,41.4999883 L60,18.5000117 C60,11.9806877 59.9749221,7.84745822 56.0683315,3.94092624 C52.150491,0.0229685706 47.9990391,0 41.5000469,0 L41.5000469,0 Z" id="60---iPhone" fill="#49C1FB"></path>
                    <path d="M19.2511434,23.3973515 C20.518552,23.3752288 21.6114372,23.6291948 22.5298317,24.159257 C23.4482263,24.6893192 24.1496653,25.4534013 24.6341699,26.4515262 C25.1186745,27.4496511 25.3727701,28.6274153 25.3964643,29.9848542 C25.4139774,30.9881786 25.3020428,31.9022414 25.060657,32.72707 C24.8192713,33.5518986 24.4481327,34.2697628 23.9472301,34.8806842 C23.4463275,35.4916055 22.8262267,35.9629116 22.0869092,36.2946166 C21.3475917,36.6263216 20.4971087,36.8005645 19.5354346,36.8173506 C18.5793194,36.8340396 17.7204168,36.6852064 16.9587012,36.3708465 C16.1969856,36.0564866 15.5580091,35.6056819 15.0417526,35.0184188 C14.5254961,34.4311558 14.1308172,33.7207553 13.857704,32.8871962 C13.5845907,32.0536371 13.4395373,31.1499637 13.4225393,30.1761488 C13.4051292,29.1787263 13.5239607,28.2615913 13.7790374,27.4247164 C14.0341141,26.5878414 14.4122527,25.8728068 14.9134643,25.2795912 C15.414676,24.6863755 16.0294498,24.2284456 16.7578042,23.9057875 C17.4861587,23.5831294 18.3172634,23.4136525 19.2511434,23.3973515 Z M22.8942757,30.059405 C22.8776898,29.1091978 22.7187921,28.2884167 22.4175779,27.597037 C22.1163636,26.9056574 21.694434,26.3861243 21.1517762,26.0384222 C20.6091185,25.69072 19.9903733,25.5229358 19.2955221,25.5350645 C18.8007881,25.5437001 18.3453084,25.6505362 17.9290694,25.8555758 C17.5128304,26.0606154 17.1565352,26.354636 16.8601733,26.7376462 C16.5638113,27.1206564 16.3332077,27.6073024 16.1683555,28.1975987 C16.0035033,28.787895 15.9274655,29.4489515 15.9402397,30.1807882 C15.953117,30.9185267 16.0523078,31.5839041 16.2378152,32.1769404 C16.4233225,32.7699768 16.6793135,33.2599364 17.0057957,33.6468341 C17.332278,34.0337318 17.704279,34.3209435 18.1218099,34.5084778 C18.5393408,34.6960121 18.9954665,34.7854601 19.4902005,34.7768245 C20.1239048,34.7657631 20.7032454,34.5873976 21.2282397,34.2417225 C21.7532339,33.8960474 22.1666317,33.3693132 22.4684453,32.6615039 C22.7702588,31.9536947 22.9122009,31.086337 22.8942757,30.059405 Z M25.9343659,31.2370886 L25.9343659,24.9949011 C25.9343659,24.4636485 26.0469473,24.0652149 26.2721134,23.7995886 C26.4972795,23.5339623 26.7933267,23.4011511 27.160264,23.4011511 C27.5438803,23.4011511 27.8482669,23.5339623 28.073433,23.7995886 C28.2985991,24.0652149 28.4111805,24.4636485 28.4111805,24.9949011 L28.4111805,31.3787553 C28.4111805,32.1048006 28.4876246,32.7113049 28.6405151,33.1982865 C28.7934057,33.6852681 29.0644349,34.0630421 29.4536108,34.3316199 C29.8427867,34.6001976 30.3876249,34.7344844 31.0881416,34.7344844 C32.0555218,34.7344844 32.7393493,34.4614837 33.1396445,33.915474 C33.5399398,33.3694644 33.7400844,32.5416081 33.7400844,31.4318803 L33.7400844,24.9949011 C33.7400844,24.4577457 33.8512759,24.0578365 34.0736621,23.7951615 C34.2960484,23.5324866 34.5934855,23.4011511 34.9659825,23.4011511 C35.3384795,23.4011511 35.6400863,23.5324866 35.8708121,23.7951615 C36.1015378,24.0578365 36.2168989,24.4577457 36.2168989,24.9949011 L36.2168989,31.2370886 C36.2168989,32.2523715 36.1237761,33.0994116 35.9375276,33.7782344 C35.7512791,34.4570573 35.3996361,35.0532319 34.8825881,35.5667761 C34.4378156,36.0035839 33.9207753,36.3223307 33.3314517,36.5230261 C32.7421281,36.7237216 32.0527411,36.8240678 31.2632699,36.8240678 C30.323688,36.8240678 29.5147701,36.7163432 28.836492,36.5008907 C28.158214,36.2854382 27.6050365,35.9519346 27.1769429,35.5003699 C26.7488494,35.0488051 26.4347335,34.4703387 26.2345859,33.7649532 C26.0344383,33.0595677 25.9343659,32.2169546 25.9343659,31.2370886 Z M3.25526511,39.7808592 C2.58108448,39.1610675 2.96519767,38.1162759 2.96519767,38.1162759 L6.11244608,32.8833672 L2.43355819,26.9905334 C2.10692838,26.4371452 1.87585863,26.0055089 1.74034201,25.6956115 C1.60482538,25.3857141 1.53706809,25.1164026 1.53706809,24.8876688 C1.53706809,24.5113648 1.67432005,24.1867153 1.94882808,23.9137105 C2.22333611,23.6407056 2.56212259,23.5042053 2.96519767,23.5042053 C3.38912147,23.5042053 3.71053428,23.6314826 3.92944575,23.8860412 C4.14835721,24.1405998 4.47671949,24.6478647 4.91454243,25.4078511 L7.77080159,30.3329813 L10.6583337,25.4078511 C10.8320729,25.1053322 10.9780117,24.8507775 11.0961544,24.6441792 C11.2142971,24.437581 11.3445996,24.243898 11.4870658,24.0631245 C11.629532,23.8823511 11.7876323,23.7440061 11.9613716,23.6480855 C12.1351109,23.5521649 12.3470696,23.5042053 12.5972541,23.5042053 C12.9864301,23.5042053 13.3113176,23.638861 13.5719265,23.9081766 C13.8325354,24.1774922 13.9628379,24.4892295 13.9628379,24.843398 C13.9628379,25.1311598 13.896818,25.4189174 13.7647761,25.7066792 C13.6327343,25.9944411 13.4068766,26.3928746 13.0871964,26.9019917 L5.12897259,39.5797133 C5.12897259,39.9545255 3.92944575,40.4006509 3.25526511,39.7808592 Z" id="youku-L" stroke="#FFFFFF" fill="#FF6A49"></path>
                    <path d="M40.2435706,24.9995117 L40.2435706,29.3497721 L44.9097857,24.2039388 C45.1338933,23.9556737 45.3246486,23.7722988 45.4820574,23.6538086 C45.6394663,23.5353184 45.8488969,23.4760742 46.1103557,23.4760742 C46.4518528,23.4760742 46.7279812,23.5818674 46.9387489,23.793457 C47.1495167,24.0050466 47.254899,24.2631821 47.254899,24.5678711 C47.254899,24.9346264 47.0761493,25.2985551 46.7186445,25.659668 L43.8292728,28.5541992 L47.1588534,33.5984701 C47.3936327,33.9482982 47.5697146,34.2543932 47.6871042,34.5167643 C47.8044939,34.7791354 47.8631878,35.0344497 47.8631878,35.2827148 C47.8631878,35.5591919 47.7604734,35.7989899 47.5550415,36.0021159 C47.3496096,36.2052419 47.0708134,36.3068034 46.7186445,36.3068034 C46.3878191,36.3068034 46.1183605,36.2320428 45.9102607,36.0825195 C45.7021609,35.9329962 45.526079,35.734105 45.3820099,35.4858398 C45.2379408,35.2375747 45.1098813,35.0118825 44.9978275,34.8087565 L42.1884939,30.238444 L40.2435706,32.2104492 L40.2435706,34.7749023 C40.2435706,35.2940022 40.1315185,35.6790895 39.907411,35.9301758 C39.6833035,36.1812621 39.3951696,36.3068034 39.0430006,36.3068034 C38.8402367,36.3068034 38.6454795,36.2503803 38.4587233,36.1375326 C38.271967,36.0246848 38.1279001,35.8723425 38.0265181,35.6805013 C37.9518156,35.5225144 37.9064612,35.3391395 37.8904535,35.1303711 C37.8744458,34.9216027 37.8664421,34.6197394 37.8664421,34.2247721 L37.8664421,24.9995117 C37.8664421,24.4916967 37.9718244,24.1108411 38.1825922,23.8569336 C38.39336,23.6030261 38.6801599,23.4760742 39.0430006,23.4760742 C39.4005055,23.4760742 39.6899733,23.6016155 39.9114129,23.8527018 C40.1328525,24.1037881 40.2435706,24.4860543 40.2435706,24.9995117 Z M47.7136574,25.0177979 C47.7047948,24.5100602 47.8061817,24.1273769 48.0178212,23.8697365 C48.2294607,23.6120961 48.5113338,23.4802048 48.8634491,23.4740586 C49.2315697,23.467633 49.5258766,23.5894671 49.7463786,23.8395644 C49.9668807,24.0896617 50.0815613,24.4685736 50.0904239,24.9763112 L50.1969222,31.0775954 C50.2090344,31.7715036 50.2925086,32.3498816 50.4473474,32.812747 C50.6021861,33.2756123 50.8685696,33.632125 51.2465058,33.8822959 C51.6244419,34.1324669 52.1495122,34.2516837 52.8217323,34.2399501 C53.7500363,34.2237465 54.401687,33.9513755 54.776704,33.4228291 C55.1517211,32.8942826 55.3299704,32.0997175 55.3114574,31.0391098 L55.2040729,24.8870522 C55.1951118,24.3736729 55.2951403,23.9896026 55.5041615,23.7348295 C55.7131826,23.4800565 55.9964142,23.3495522 56.3538646,23.3433129 C56.7113149,23.3370736 57.0029297,23.4575438 57.2287176,23.7047273 C57.4545055,23.9519107 57.5718782,24.3321863 57.5808393,24.8455656 L57.6849743,30.8114537 C57.7019117,31.7817968 57.6266811,32.592904 57.4592803,33.2447996 C57.2918796,33.8966952 56.9643864,34.4723712 56.4767911,34.9718449 C56.0572717,35.396768 55.5664342,35.7100665 55.0042637,35.9117497 C54.4420933,36.1134329 53.7822273,36.2208847 53.0246459,36.2341083 C52.1230173,36.2498463 51.3449776,36.1604393 50.6905035,35.9658846 C50.0360295,35.7713299 49.4996333,35.4618539 49.0812989,35.0374475 C48.6629645,34.613041 48.3518867,34.0654408 48.1480563,33.3946304 C47.9442258,32.72382 47.834139,31.9201799 47.8177924,30.983686 L47.7136574,25.0177979 Z" id="Path" fill="#FFFFFF"></path>
                </g>
            </g>
        </g>
    </g>
</svg>