<?xml version="1.0" encoding="UTF-8" standalone="no"?>
<svg width="60px" height="60px" viewBox="0 0 60 60" version="1.1" xmlns="http://www.w3.org/2000/svg" xmlns:xlink="http://www.w3.org/1999/xlink" xmlns:sketch="http://www.bohemiancoding.com/sketch/ns">
    <!-- Generator: Sketch 3.1.1 (8761) - http://www.bohemiancoding.com/sketch -->
    <title>zhihu_r</title>
    <desc>Created with Sketch.</desc>
    <defs></defs>
    <g id="Page-1" stroke="none" stroke-width="1" fill="none" fill-rule="evenodd" sketch:type="MSPage">
        <g id="rounded-icons" sketch:type="MSLayerGroup" transform="translate(-300.000000, -100.000000)" fill="#49C1FB">
            <g id="row-2-rounded-icons-" transform="translate(0.000000, 100.000000)" sketch:type="MSShapeGroup">
                <path d="M341.500047,0 L318.500012,0 C311.980746,0 307.847634,0.025253709 303.940926,3.9316685 C300.024726,7.84780978 300,12.0007266 300,18.5000117 L300,41.5000469 C300,48.0196053 300.025605,52.1530691 303.931669,56.0591324 C307.849861,59.9772658 312.00102,60 318.500012,60 L341.500047,60 C348.019605,60 352.151839,59.9756252 356.059132,56.0683315 C359.974571,52.1528347 360,47.9989805 360,41.4999883 L360,18.5000117 C360,11.9806877 359.974922,7.84745822 356.068331,3.94092624 C352.150491,0.0229685706 347.999039,0 341.500047,0 Z M318.813775,8.49397475 C318.813775,8.49397475 315.555856,8.68809295 314.406002,10.7263353 C313.256149,12.7645775 309.519123,23.2469663 309.519123,23.2469663 C309.519123,23.2469663 310.764799,23.8293209 312.872864,22.2763745 C314.980929,20.7234284 315.651677,18.0057716 315.651677,18.0057716 L319.484524,17.8116535 L319.580345,28.876397 C319.580345,28.876397 312.968685,28.7793368 311.627189,28.8763965 C310.285693,28.9734561 309.519123,32.5646444 309.519123,32.5646444 L319.580345,32.5646444 C319.580345,32.5646444 318.717954,38.6793713 316.130783,43.1440928 C313.543612,47.6088145 308.656733,51.1029429 308.656733,51.1029429 C308.656733,51.1029429 312.202116,52.5588314 315.651677,50.5205882 C319.101239,48.4823449 321.644611,39.5184083 321.644611,39.5184083 L329.737387,49.5499967 C329.737387,49.5499967 330.47589,44.7755379 329.606349,43.4268496 C328.736808,42.0781613 324.008677,36.6558862 324.008677,36.6558862 L321.943516,38.5000109 L323.413191,32.5646444 L332.228737,32.5646448 C332.228737,32.5646448 332.228738,29.0705153 330.503957,28.8763965 C328.779176,28.6822776 323.413191,28.8763965 323.413191,28.8763965 L323.413191,18.0057716 L331.366347,18.0057718 C331.366347,18.0057718 331.270526,14.4145831 329.737387,14.4145831 C328.204248,14.4145831 316.801531,14.4145831 316.801531,14.4145831 L318.813775,8.49397475 Z M334.110566,14.0716539 L352.242754,14.0716539 L352.242754,46.7527817 L344.229172,46.7527817 L338.528204,50.8553796 L337.35014,46.7527817 L334.110566,46.7527817 L334.110566,14.0716539 Z M337.949594,17.7089759 L348.557447,17.7089759 L348.557447,43.0409041 L344.789198,43.0409041 L339.986031,46.7087733 L338.938807,43.0409041 L337.949594,43.0409041 L337.949594,17.7089759 Z" id="zhihu_r"></path>
            </g>
        </g>
    </g>
</svg>