<?xml version="1.0" encoding="UTF-8" standalone="no"?>
<svg width="50px" height="50px" viewBox="0 0 50 50" version="1.1" xmlns="http://www.w3.org/2000/svg" xmlns:xlink="http://www.w3.org/1999/xlink" xmlns:sketch="http://www.bohemiancoding.com/sketch/ns">
    <!-- Generator: Sketch 3.1.1 (8761) - http://www.bohemiancoding.com/sketch -->
    <title>instagram_L</title>
    <desc>Created with Sketch.</desc>
    <defs></defs>
    <g id="Page-1" stroke="none" stroke-width="1" fill="none" fill-rule="evenodd" sketch:type="MSPage">
        <g id="Artboard-1" sketch:type="MSArtboardGroup" transform="translate(-675.000000, -425.000000)" fill="#2F4074">
            <g id="line-icons" sketch:type="MSLayerGroup" transform="translate(475.000000, 225.000000)">
                <g id="row-3-line-icons" transform="translate(0.000000, 200.000000)" sketch:type="MSShapeGroup">
                    <path d="M231.70832,19 L240,19 L240,13.9999433 C240,11.7908356 238.213205,10 236.000725,10 L213.999275,10 C213.654234,10 213.319398,10.0439179 213,10.1264204 L213,10.1264204 L213,10 L214,10 L214,16 L213,16 L213,10.1264204 C211.27481,10.5720476 210,12.1433748 210,13.9999433 L210,19 L218.29168,19 C219.939642,17.1587519 222.3345,16 225,16 C227.6655,16 230.060358,17.1587519 231.70832,19 L231.70832,19 Z M233.06448,21 L240,21 L240,34.0013241 C240,37.318062 237.314226,40 234.001155,40 L215.998845,40 C212.688701,40 210,37.3143013 210,34.0013241 L210,21 L216.93552,21 C216.336706,22.2049589 216,23.5631585 216,25 C216,29.970563 220.029437,34 225,34 C229.970563,34 234,29.970563 234,25 C234,23.5631585 233.663294,22.2049589 233.06448,21 L233.06448,21 Z M225,50 C238.807119,50 250,38.8071194 250,25 C250,11.1928806 238.807119,0 225,0 C211.192881,0 200,11.1928806 200,25 C200,38.8071194 211.192881,50 225,50 Z M225,48 C237.70255,48 248,37.7025499 248,25 C248,12.2974501 237.70255,2 225,2 C212.29745,2 202,12.2974501 202,25 C202,37.7025499 212.29745,48 225,48 Z M217,10 L217,16 L218,16 L218,10 L217,10 Z M215,10 L215,16 L216,16 L216,10 L215,10 Z M232.999807,12 C232.447629,12 232,12.4437166 232,12.9998075 L232,16.0001925 C232,16.5523709 232.443717,17 232.999807,17 L236.000193,17 C236.552371,17 237,16.5562834 237,16.0001925 L237,12.9998075 C237,12.4476291 236.556283,12 236.000193,12 L232.999807,12 Z M225,32 C228.865993,32 232,28.8659934 232,25 C232,21.1340066 228.865993,18 225,18 C221.134007,18 218,21.1340066 218,25 C218,28.8659934 221.134007,32 225,32 Z" id="instagram_L"></path>
                </g>
            </g>
        </g>
    </g>
</svg>