<?xml version="1.0" encoding="UTF-8" standalone="no"?>
<svg width="50px" height="50px" viewBox="0 0 50 50" version="1.1" xmlns="http://www.w3.org/2000/svg" xmlns:xlink="http://www.w3.org/1999/xlink" xmlns:sketch="http://www.bohemiancoding.com/sketch/ns">
    <!-- Generator: Sketch 3.1.1 (8761) - http://www.bohemiancoding.com/sketch -->
    <title>taobao_L</title>
    <desc>Created with Sketch.</desc>
    <defs></defs>
    <g id="Page-1" stroke="none" stroke-width="1" fill="none" fill-rule="evenodd" sketch:type="MSPage">
        <g id="Artboard-1" sketch:type="MSArtboardGroup" transform="translate(-575.000000, -326.000000)" fill="#2F4074">
            <g id="line-icons" sketch:type="MSLayerGroup" transform="translate(475.000000, 225.000000)">
                <g id="row-2-line-icons-" transform="translate(2.000000, 101.000000)" sketch:type="MSShapeGroup">
                    <path d="M123,50 C136.807119,50 148,38.8071194 148,25 C148,11.1928806 136.807119,0 123,0 C109.192881,0 98,11.1928806 98,25 C98,38.8071194 109.192881,50 123,50 Z M123,48 C135.70255,48 146,37.7025499 146,25 C146,12.2974501 135.70255,2 123,2 C110.29745,2 100,12.2974501 100,25 C100,37.7025499 110.29745,48 123,48 Z M111,17 C112.656854,17 114,15.6568543 114,14 C114,12.3431457 112.656854,11 111,11 C109.343146,11 108,12.3431457 108,14 C108,15.6568543 109.343146,17 111,17 Z M108.265696,18.3672012 L105.982854,21.590037 C105.982854,21.590037 110.88425,24.0071635 111.287105,25.9542936 C111.689959,27.9014238 104.572864,33.7428134 104.572864,33.7428134 L109.654363,37.4356464 C109.654363,37.4356464 114.912795,28.2371353 114.50994,25.2157272 C114.107086,22.1943191 108.265696,18.3672012 108.265696,18.3672012 Z M115.987074,15.54722 C117.262779,13.3986628 117.732776,11.2501056 117.732776,11.2501056 L121.425609,12.7272387 L120.35133,14.8086534 C120.35133,14.8086534 120.6199,15.0772231 121.559894,14.9429382 C122.499888,14.8086534 128.676989,11.7201025 132.906961,12.458669 C137.194688,13.2073198 139.822629,16.5543554 139.822629,19.17291 L139.822629,31.7285411 C139.822629,31.7285411 139.352632,35.555659 136.062654,36.8985069 C132.772676,38.2413549 127.736996,37.2342187 127.736996,37.2342187 L128.005565,35.1528041 C128.005565,35.1528041 131.026974,35.8242279 132.906961,35.2199463 C134.786949,34.6156646 135.324088,33.1385316 135.324088,33.1385316 L135.324088,18.165774 C135.324088,18.165774 135.055518,16.6214985 133.309816,15.5472199 C131.564113,14.4729414 130.691262,14.6072262 128.811274,14.8757958 C126.931287,15.1443655 124.044163,16.4872137 124.044163,16.4872137 L122.432745,19.642907 L133.309816,19.642907 L133.309816,21.7914646 L126.662717,21.7914646 L126.662717,24.4771602 L133.578386,24.4771602 L133.578385,26.3571481 L126.797002,26.6257177 L126.797002,31.7285411 L130.019838,30.3185503 L129.751268,28.1028508 L132.369822,27.5657115 L134.316952,32.6685347 L131.094116,34.1456678 L130.691262,32.3328227 C130.691262,32.3328227 124.59653,34.9002715 122.151867,35.1015966 C119.707205,35.3029218 117.305583,34.71971 116.141262,33.067632 C114.97694,31.415554 115.248507,28.1028508 115.248507,28.1028508 L119.593985,28.2112314 C119.593985,28.2112314 119.255166,30.0989353 120.11028,31.2928677 C120.965394,32.4868 122.902742,32.1985379 122.902742,32.1985379 L122.902742,26.4914329 L116.188501,26.2900057 L116.188501,24.4771602 L122.969884,24.4771606 L122.902742,21.7914641 L120.821327,21.3886097 C120.821327,21.3886097 119.075625,24.0743061 117.934204,24.0071637 C116.792783,23.9400213 116.658498,22.3957458 116.658498,22.3957458 L120.35133,17.8300619 L118.337058,17.6286347 L115.31565,21.1871825 L113.032808,19.17291 C113.032808,19.17291 114.711368,17.6957773 115.987074,15.54722 Z" id="taobao_L"></path>
                </g>
            </g>
        </g>
    </g>
</svg>