<?xml version="1.0" encoding="UTF-8" standalone="no"?>
<svg width="50px" height="50px" viewBox="0 0 50 50" version="1.1" xmlns="http://www.w3.org/2000/svg" xmlns:xlink="http://www.w3.org/1999/xlink" xmlns:sketch="http://www.bohemiancoding.com/sketch/ns">
    <!-- Generator: Sketch 3.1.1 (8761) - http://www.bohemiancoding.com/sketch -->
    <title>youku_L</title>
    <desc>Created with Sketch.</desc>
    <defs></defs>
    <g id="Page-1" stroke="none" stroke-width="1" fill="none" fill-rule="evenodd" sketch:type="MSPage">
        <g id="Artboard-1" sketch:type="MSArtboardGroup" transform="translate(-877.000000, -326.000000)" fill="#2F4074">
            <g id="line-icons" sketch:type="MSLayerGroup" transform="translate(475.000000, 225.000000)">
                <g id="row-2-line-icons-" transform="translate(2.000000, 101.000000)" sketch:type="MSShapeGroup">
                    <path d="M425,50 C438.807119,50 450,38.8071194 450,25 C450,11.1928806 438.807119,0 425,0 C411.192881,0 400,11.1928806 400,25 C400,38.8071194 411.192881,50 425,50 Z M425,48 C437.70255,48 448,37.7025499 448,25 C448,12.2974501 437.70255,2 425,2 C412.29745,2 402,12.2974501 402,25 C402,37.7025499 412.29745,48 425,48 Z M417.162979,20.2805312 C418.140776,20.2634637 418.983617,20.4414876 419.691527,20.8146083 C420.399437,21.187729 420.939704,21.7262932 421.312343,22.4303172 C421.684983,23.1343412 421.879662,23.9654368 421.896388,24.923629 C421.90875,25.631858 421.821349,26.2772252 421.634182,26.85975 C421.447015,27.4422748 421.159869,27.9494417 420.772737,28.381266 C420.385605,28.8130903 419.906674,29.1464963 419.33593,29.3814941 C418.765187,29.6164918 418.108863,29.740464 417.366938,29.7534144 C416.629301,29.7662899 415.966851,29.6622115 415.379568,29.4411762 C414.792285,29.2201409 414.299848,28.9026484 413.902242,28.488689 C413.504636,28.0747297 413.200965,27.5737083 412.99122,26.9856096 C412.781475,26.397511 412.670605,25.7597719 412.658606,25.0723732 C412.646316,24.3683102 412.739042,23.7207664 412.936785,23.1297224 C413.134528,22.5386783 413.42707,22.0335008 413.814421,21.6141747 C414.201771,21.1948486 414.676577,20.8708909 415.238852,20.6422919 C415.801128,20.413693 416.442497,20.2931073 417.162979,20.2805312 Z M419.965986,24.9791274 C419.954279,24.3083929 419.832633,23.7291835 419.601046,23.2414818 C419.369459,22.7537802 419.044546,22.3875236 418.626298,22.1427012 C418.20805,21.8978787 417.730897,21.7801479 417.194824,21.789505 C416.81314,21.7961674 416.461627,21.8721046 416.140275,22.0173192 C415.818923,22.1625337 415.543715,22.3704914 415.314641,22.6411985 C415.085567,22.9119056 414.907105,23.2556941 414.77925,23.6725744 C414.651396,24.0894547 414.591978,24.5561831 414.600995,25.0727737 C414.610085,25.5935303 414.685846,26.0631082 414.828281,26.4815215 C414.970716,26.8999349 415.167645,27.2455055 415.419074,27.5182437 C415.670504,27.7909819 415.957164,27.9932994 416.279063,28.1252022 C416.600962,28.2571051 416.952749,28.3197244 417.334432,28.3130621 C417.823331,28.3045284 418.270481,28.1779564 418.675896,27.9333425 C419.081311,27.6887286 419.400839,27.3164324 419.63449,26.8164426 C419.868142,26.3164529 419.978639,25.7040206 419.965986,24.9791274 Z M422.311355,25.8144155 L422.311355,21.4081655 C422.311355,21.0331636 422.39821,20.7519164 422.571925,20.5644155 C422.745639,20.3769146 422.974037,20.2831655 423.257127,20.2831655 C423.553084,20.2831655 423.787916,20.3769146 423.96163,20.5644155 C424.135345,20.7519164 424.2222,21.0331636 424.2222,21.4081655 L424.2222,25.9144155 C424.2222,26.4269181 424.281176,26.8550388 424.39913,27.1987905 C424.517084,27.5425422 424.726182,27.8092062 425.026428,27.9987905 C425.326675,28.1883748 425.747014,28.2831655 426.287458,28.2831655 C427.033785,28.2831655 427.561353,28.0904591 427.870178,27.7050405 C428.179003,27.3196219 428.333414,26.7352527 428.333414,25.9519155 L428.333414,21.4081655 C428.333414,21.0289969 428.419197,20.7467081 428.590766,20.5612905 C428.762336,20.3758729 428.991807,20.2831655 429.279186,20.2831655 C429.566564,20.2831655 429.799252,20.3758729 429.977255,20.5612905 C430.155259,20.7467081 430.244259,21.0289969 430.244259,21.4081655 L430.244259,25.8144155 C430.244259,26.5310857 430.172415,27.1289964 430.028726,27.6081655 C429.885037,28.0873346 429.613746,28.5081637 429.214847,28.8706655 C428.871708,29.1790004 428.472815,29.4039981 428.018156,29.5456655 C427.563497,29.6873329 427.03164,29.7581655 426.422568,29.7581655 C425.697687,29.7581655 425.073612,29.6821246 424.550325,29.5300405 C424.027038,29.3779564 423.600266,29.1425421 423.269994,28.8237905 C422.939723,28.5050389 422.697385,28.0967096 422.542972,27.5987905 C422.38856,27.1008713 422.311355,26.5060856 422.311355,25.8144155 Z M432.726562,21.4765625 L432.726562,24.6890625 L436.477482,20.8890625 C436.65763,20.7057282 436.810968,20.5703129 436.9375,20.4828125 C437.064032,20.3953121 437.232383,20.3515625 437.442555,20.3515625 C437.717066,20.3515625 437.939031,20.4296867 438.108456,20.5859375 C438.277881,20.7421883 438.362592,20.9328114 438.362592,21.1578125 C438.362592,21.4286472 438.218905,21.6973945 437.931526,21.9640625 L435.608915,24.1015625 L438.285386,27.8265625 C438.474112,28.0848971 438.615655,28.3109365 438.710018,28.5046875 C438.804382,28.6984385 438.851562,28.8869782 438.851562,29.0703125 C438.851562,29.2744802 438.768996,29.4515618 438.60386,29.6015625 C438.438725,29.7515632 438.214615,29.8265625 437.931526,29.8265625 C437.665593,29.8265625 437.44899,29.7713547 437.28171,29.6609375 C437.114429,29.5505203 436.972887,29.4036468 436.857077,29.2203125 C436.741268,29.0369782 436.638328,28.8703132 436.548254,28.7203125 L434.289982,25.3453125 L432.726562,26.8015625 L432.726562,28.6953125 C432.726562,29.0786477 432.63649,29.3630199 432.456342,29.5484375 C432.276194,29.7338551 432.044579,29.8265625 431.761489,29.8265625 C431.598498,29.8265625 431.441943,29.7848963 431.29182,29.7015625 C431.141697,29.6182287 431.025889,29.5057299 430.944393,29.3640625 C430.884344,29.2473952 430.847886,29.1119799 430.835018,28.9578125 C430.822151,28.8036451 430.815717,28.5807306 430.815717,28.2890625 L430.815717,21.4765625 C430.815717,21.1015606 430.900428,20.8203134 431.069853,20.6328125 C431.239278,20.4453116 431.469821,20.3515625 431.761489,20.3515625 C432.048868,20.3515625 432.281555,20.4442699 432.459559,20.6296875 C432.637562,20.8151051 432.726562,21.0973939 432.726562,21.4765625 Z M438.736485,21.4959896 C438.729941,21.1210449 438.811875,20.8383247 438.98229,20.6478206 C439.152705,20.4573165 439.379433,20.3595956 439.662479,20.354655 C439.958392,20.3494898 440.194824,20.4391262 440.371784,20.6235669 C440.548744,20.8080075 440.640495,21.087696 440.64704,21.4626408 L440.725685,25.9682045 C440.734629,26.480629 440.801068,26.9076552 440.925003,27.249296 C441.048939,27.5909368 441.262658,27.8539109 441.566168,28.0382263 C441.869677,28.2225417 442.291606,28.309982 442.831968,28.30055 C443.578182,28.2875248 444.102306,28.0856404 444.404358,27.6948907 C444.706409,27.3041411 444.850598,26.7171661 444.836926,25.9339482 L444.757627,21.3908902 C444.75101,21.0117794 444.831853,20.7280364 445.000161,20.5396528 C445.168468,20.3512691 445.396286,20.254571 445.683621,20.2495556 C445.970956,20.2445401 446.205226,20.3331724 446.386439,20.5154552 C446.567651,20.697738 446.661564,20.9784306 446.668182,21.3575414 L446.745081,25.7631203 C446.757589,26.4796814 446.696191,27.0787548 446.560886,27.5603586 C446.425581,28.0419625 446.161677,28.4674622 445.769165,28.8368705 C445.43146,29.151147 445.036554,29.3830721 444.584437,29.5326528 C444.132319,29.6822335 443.601779,29.7623376 442.9928,29.7729673 C442.268029,29.7856182 441.642723,29.7204805 441.116861,29.5775522 C440.591,29.4346239 440.160184,29.2066937 439.8244,28.8937546 C439.488616,28.5808156 439.239188,28.1767779 439.076109,27.6816295 C438.91303,27.186481 438.825456,26.5931333 438.813385,25.9015685 L438.736485,21.4959896 Z M404.814582,31.8453124 C404.294457,31.4078124 404.590797,30.6703124 404.590797,30.6703124 L407.018878,26.9764945 L404.180641,22.8168471 C403.928648,22.4262202 403.75038,22.1215357 403.645829,21.9027846 C403.541279,21.6840335 403.489005,21.4939312 403.489005,21.3324721 C403.489005,21.0668458 403.594894,20.8376814 403.806675,20.6449721 C404.018456,20.4522628 404.279828,20.3559096 404.590797,20.3559096 C404.917852,20.3559096 405.165819,20.4457525 405.334708,20.6254409 C405.503597,20.8051293 405.756926,21.1631986 406.094704,21.6996596 L408.298288,25.1762221 L410.526,21.6996596 C410.660038,21.4861169 410.772629,21.3064312 410.863775,21.1605971 C410.954922,21.014763 411.055449,20.8780457 411.165361,20.7504409 C411.275272,20.622836 411.397246,20.5251808 411.531284,20.4574721 C411.665323,20.3897634 411.828848,20.3559096 412.021863,20.3559096 C412.32211,20.3559096 412.572759,20.4509607 412.773817,20.6410659 C412.974875,20.831171 413.075402,21.0512209 413.075402,21.3012221 C413.075402,21.5043481 413.024468,21.7074711 412.922599,21.9105971 C412.820729,22.1137231 412.646482,22.3949703 412.399851,22.7543471 L406.260135,31.7033271 C406.260135,31.9679003 405.334708,32.2828124 404.814582,31.8453124 Z" id="youku_L"></path>
                </g>
            </g>
        </g>
    </g>
</svg>