<?xml version="1.0" encoding="UTF-8" standalone="no"?>
<svg width="50px" height="50px" viewBox="0 0 50 50" version="1.1" xmlns="http://www.w3.org/2000/svg" xmlns:xlink="http://www.w3.org/1999/xlink" xmlns:sketch="http://www.bohemiancoding.com/sketch/ns">
    <!-- Generator: Sketch 3.1.1 (8761) - http://www.bohemiancoding.com/sketch -->
    <title>dianpin_F</title>
    <desc>Created with Sketch.</desc>
    <defs></defs>
    <g id="Page-1" stroke="none" stroke-width="1" fill="none" fill-rule="evenodd" sketch:type="MSPage">
        <g id="Artboard-1" sketch:type="MSArtboardGroup" transform="translate(-1175.000000, -327.000000)" fill="#2F4074">
            <g id="full-icons" sketch:type="MSLayerGroup" transform="translate(1175.000000, 225.000000)">
                <g id="row-2-full-icons" transform="translate(0.000000, 101.000000)" sketch:type="MSShapeGroup">
                    <path d="M26.4222845,23.5625766 C33.5524335,22.9191964 40.3255453,27.4722149 42.2417635,34.6236388 L13.2639888,42.3882102 C11.3477705,35.2367863 14.9369481,27.9072007 21.4335284,24.8993098 C15.9250704,25.152374 10.7889128,21.559991 9.30306154,16.0147186 L32.4852814,9.80306154 C33.9711326,15.3483339 31.3192811,21.0275076 26.4222845,23.5625766 L26.4222845,23.5625766 Z M25,51 C38.8071194,51 50,39.8071194 50,26 C50,12.1928806 38.8071194,1 25,1 C11.1928806,1 0,12.1928806 0,26 C0,39.8071194 11.1928806,51 25,51 Z M37.4121344,35.917734 C35.9827162,30.5830727 30.499347,27.417248 25.1646857,28.8466662 C19.8300244,30.2760844 16.6641997,35.7594536 18.0936179,41.0941149 L37.4121344,35.917734 Z M13.1667648,14.9794424 C14.3102994,19.2471715 18.6969948,21.7798312 22.9647238,20.6362967 C27.2324529,19.4927621 29.7651126,15.1060668 28.6215781,10.8383377 L13.1667648,14.9794424 Z M22.8353143,20.1533338 C25.5026449,19.4386247 27.0855573,16.6969401 26.3708482,14.0296094 C25.6561391,11.3622788 22.9144545,9.77936643 20.2471238,10.4940755 C17.5797932,11.2087846 15.9968808,13.9504692 16.7115899,16.6177999 C17.426299,19.2851305 20.1679836,20.8680429 22.8353143,20.1533338 Z" id="dianpin_F"></path>
                </g>
            </g>
        </g>
    </g>
</svg>