<?xml version="1.0" encoding="UTF-8" standalone="no"?>
<svg width="50px" height="50px" viewBox="0 0 50 50" version="1.1" xmlns="http://www.w3.org/2000/svg" xmlns:xlink="http://www.w3.org/1999/xlink" xmlns:sketch="http://www.bohemiancoding.com/sketch/ns">
    <!-- Generator: Sketch 3.1.1 (8761) - http://www.bohemiancoding.com/sketch -->
    <title>dribbble_F</title>
    <desc>Created with Sketch.</desc>
    <defs></defs>
    <g id="Page-1" stroke="none" stroke-width="1" fill="none" fill-rule="evenodd" sketch:type="MSPage">
        <g id="Artboard-1" sketch:type="MSArtboardGroup" transform="translate(-1675.000000, -525.000000)" fill="#2F4074">
            <g id="full-icons" sketch:type="MSLayerGroup" transform="translate(1175.000000, 225.000000)">
                <g id="row-4-full-icons" transform="translate(0.000000, 300.000000)" sketch:type="MSShapeGroup">
                    <path d="M525,50 C538.807119,50 550,38.8071194 550,25 C550,11.1928806 538.807119,0 525,0 C511.192881,0 500,11.1928806 500,25 C500,38.8071194 511.192881,50 525,50 Z M536.789708,15.4539032 C538.923243,18.1185 540.214962,21.5123548 540.248627,25.2079785 C539.743654,25.0987688 534.679524,24.0488441 529.582897,24.7041022 C529.475286,24.4359516 529.365535,24.1666075 529.25267,23.895871 C528.934703,23.1323978 528.592995,22.3738978 528.236692,21.6279301 C533.899978,19.2643065 536.466876,15.9004892 536.789708,15.4539032 Z M524.933059,9.69741935 C528.824951,9.69741935 532.381946,11.1899516 535.087005,13.6432903 C534.811459,14.0443226 532.505514,17.2125968 527.059005,19.2995161 C524.54893,14.5851989 521.767005,10.7123333 521.343568,10.1328656 C522.495373,9.849 523.697189,9.69741935 524.933059,9.69741935 Z M518.420757,11.1853763 C518.824541,11.7515161 521.561708,15.628957 524.099805,20.2410269 C516.934832,22.1863118 510.62413,22.1582634 509.938962,22.148914 C510.932173,17.2899785 514.135395,13.2516075 518.420757,11.1853763 Z M509.615351,25.3559785 C509.615351,25.1958441 509.618465,25.0365054 509.623135,24.8775645 C510.293514,24.8914892 517.71613,24.9893602 525.365643,22.6492097 C525.804259,23.5264677 526.223027,24.4168548 526.607546,25.3064462 C526.404973,25.3647312 526.203373,25.4267957 526.003914,25.4928387 C518.103957,28.103129 513.90013,35.2184677 513.553168,35.825586 C511.106724,33.0495914 509.615351,29.3776398 509.615351,25.3559785 Z M524.933059,41.0143387 C521.391827,41.0143387 518.128086,39.7792151 515.531027,37.7090054 C515.806573,37.1327204 518.908022,31.0080269 527.547632,27.9304624 C527.581297,27.9185269 527.614962,27.9071882 527.648627,27.8956505 C529.799092,33.608371 530.688389,38.3960914 530.916259,39.7698656 C529.077146,40.5707366 527.054724,41.0143387 524.933059,41.0143387 Z M533.491524,38.336414 C533.334486,37.3837634 532.519135,32.8001398 530.515784,27.1721613 C535.315849,26.3866075 539.532908,27.672457 540.056951,27.8413441 C539.374119,32.1983925 536.92787,35.9612527 533.491524,38.336414 Z" id="dribbble_F"></path>
                </g>
            </g>
        </g>
    </g>
</svg>