<?xml version="1.0" encoding="UTF-8" standalone="no"?>
<svg width="50px" height="50px" viewBox="0 0 50 50" version="1.1" xmlns="http://www.w3.org/2000/svg" xmlns:xlink="http://www.w3.org/1999/xlink" xmlns:sketch="http://www.bohemiancoding.com/sketch/ns">
    <!-- Generator: Sketch 3.1.1 (8761) - http://www.bohemiancoding.com/sketch -->
    <title>dropbox_F</title>
    <desc>Created with Sketch.</desc>
    <defs></defs>
    <g id="Page-1" stroke="none" stroke-width="1" fill="none" fill-rule="evenodd" sketch:type="MSPage">
        <g id="Artboard-1" sketch:type="MSArtboardGroup" transform="translate(-1675.000000, -425.000000)" fill="#2F4074">
            <g id="full-icons" sketch:type="MSLayerGroup" transform="translate(1175.000000, 225.000000)">
                <g id="row-3-full-icons" transform="translate(0.000000, 200.000000)" sketch:type="MSShapeGroup">
                    <path d="M525,50 C538.807119,50 550,38.8071194 550,25 C550,11.1928806 538.807119,0 525,0 C511.192881,0 500,11.1928806 500,25 C500,38.8071194 511.192881,50 525,50 Z M530.413672,10.3824252 L541.320758,16.1408249 L536.362077,20.4201944 L525.522737,14.6617947 L530.413672,10.3824252 Z M536.15884,20.8944156 L541.239781,25.4333895 L530.468186,30.8530598 L525.522737,26.4495777 L536.15884,20.8944156 Z M514.344667,20.8266697 L524.98077,26.4495777 L519.967575,30.9208057 L509.263726,25.3656436 L514.344667,20.8266697 Z M520.03532,10.3260585 L524.98077,14.7295406 L514.344667,20.4201944 L509.331472,16.0844582 L520.03532,10.3260585 Z M514.61565,29.4303963 L514.61565,33.8677514 L524.64204,39.118057 L524.64204,28.6174458 L520.238558,32.5467067 L514.61565,29.4303963 Z M525.79372,28.6174458 L525.79372,38.9825653 L535.82011,33.2919114 L535.82011,29.6665698 L530.264948,32.5467069 L525.79372,28.6174458 Z" id="dropbox_F"></path>
                </g>
            </g>
        </g>
    </g>
</svg>