<?xml version="1.0" encoding="UTF-8" standalone="no"?>
<svg width="50px" height="50px" viewBox="0 0 50 50" version="1.1" xmlns="http://www.w3.org/2000/svg" xmlns:xlink="http://www.w3.org/1999/xlink" xmlns:sketch="http://www.bohemiancoding.com/sketch/ns">
    <!-- Generator: Sketch 3.1.1 (8761) - http://www.bohemiancoding.com/sketch -->
    <title>evernote_F</title>
    <desc>Created with Sketch.</desc>
    <defs></defs>
    <g id="Page-1" stroke="none" stroke-width="1" fill="none" fill-rule="evenodd" sketch:type="MSPage">
        <g id="Artboard-1" sketch:type="MSArtboardGroup" transform="translate(-1475.000000, -425.000000)" fill="#2F4074">
            <g id="full-icons" sketch:type="MSLayerGroup" transform="translate(1175.000000, 225.000000)">
                <g id="row-3-full-icons" transform="translate(0.000000, 200.000000)" sketch:type="MSShapeGroup">
                    <path d="M325,50 C338.807119,50 350,38.8071194 350,25 C350,11.1928806 338.807119,0 325,0 C311.192881,0 300,11.1928806 300,25 C300,38.8071194 311.192881,50 325,50 Z M326.63114,10.2593385 C326.63114,10.2593385 335.059032,9.83640096 336.999331,11.8337674 C338.304955,13.1777921 337.920948,13.9842069 338.07455,16.2498485 C338.228153,18.5154901 338.804164,23.9683902 338.496958,28.3844713 C338.104963,34.0194046 336.730526,39.5590764 335.156097,41.2103068 C333.581668,42.8615371 327.142379,43.0992946 325.056711,41.824718 C323.488677,40.8664737 323.559084,36.0262116 324.711105,34.6053855 C325.929516,33.1026782 329.35759,33.6837686 329.35759,33.6837686 L329.165587,35.9878109 C329.165587,35.9878109 327.629559,35.7574066 327.015147,36.3334172 C326.400736,36.9094278 326.717718,38.5629684 327.283952,38.8678638 C327.850187,39.1727592 331.085622,39.3670729 332.314445,38.6374595 C333.543267,37.9078461 332.817148,34.0115936 332.468047,32.9157545 C332.118947,31.8199154 330.509611,31.4949284 330.509611,31.4949284 C330.509611,31.4949284 327.277557,31.4341299 325.709523,30.6501129 C324.141489,29.8660959 324.019892,26.1572304 324.019892,26.1572304 C324.019892,26.1572304 323.90469,31.9941375 322.25346,32.454946 C320.616727,32.9117088 312.576482,31.0725206 311.92367,30.2277051 C310.785833,28.7552105 309.19722,20.2051211 309.19722,17.9394795 C309.19722,15.6738379 310.673689,15.5408583 311.501262,15.3666323 C312.328836,15.1924063 315.955744,15.4818344 316.570156,14.9442245 C317.184567,14.4066146 316.618332,9.97329147 317.184567,9.14571804 C317.750801,8.31814456 318.279935,7.32172528 322.25346,7.49448772 C326.226985,7.66724967 326.63114,10.2593385 326.63114,10.2593385 Z M315.648539,11.5265618 C315.709203,10.1211689 315.802141,8.72331028 315.802141,8.72331028 L310.195638,14.4066146 C310.195638,14.4066146 312.024696,14.1743789 313.190893,14.099409 C314.357091,14.0244391 315.571737,14.0610083 315.571737,14.0610083 C315.571737,14.0610083 315.587874,12.9319546 315.648539,11.5265618 Z M331.328064,23.96875 C332.546814,24.0625 333.484314,24.53125 333.484314,24.53125 C333.484314,24.53125 333.515564,24.0429255 333.515564,24 C333.515564,22.8954304 332.588884,22 331.484314,22 C330.379744,22 329.468689,22.8954304 329.468689,24 C329.468689,24.0179577 330.109314,23.875 331.328064,23.96875 Z" id="evernote_F"></path>
                </g>
            </g>
        </g>
    </g>
</svg>