<?xml version="1.0" encoding="UTF-8" standalone="no"?>
<svg width="50px" height="50px" viewBox="0 0 50 50" version="1.1" xmlns="http://www.w3.org/2000/svg" xmlns:xlink="http://www.w3.org/1999/xlink" xmlns:sketch="http://www.bohemiancoding.com/sketch/ns">
    <!-- Generator: Sketch 3.1.1 (8761) - http://www.bohemiancoding.com/sketch -->
    <title>line_F</title>
    <desc>Created with Sketch.</desc>
    <defs></defs>
    <g id="Page-1" stroke="none" stroke-width="1" fill="none" fill-rule="evenodd" sketch:type="MSPage">
        <g id="Artboard-1" sketch:type="MSArtboardGroup" transform="translate(-1175.000000, -626.000000)" fill="#2F4074">
            <g id="full-icons" sketch:type="MSLayerGroup" transform="translate(1175.000000, 225.000000)">
                <g id="row-5-full-icons" transform="translate(0.000000, 401.000000)" sketch:type="MSShapeGroup">
                    <path d="M25,50 C38.8071194,50 50,38.8071194 50,25 C50,11.1928806 38.8071194,0 25,0 C11.1928806,0 0,11.1928806 0,25 C0,38.8071194 11.1928806,50 25,50 Z M23.7174891,35.9588442 C23.7177159,35.9588588 24.000536,36.6341877 23.793396,37.9543457 C23.6851546,38.644197 23.0741134,39.2872954 23.137146,39.7668457 C23.197111,40.2230575 23.8099508,40.6036434 24.1278753,40.4543514 C31.2466694,37.1114854 36.877861,31.7152705 37.1203032,31.4869063 C39.5380346,29.2095652 41,26.243501 41,23 C41,15.8202979 33.8365564,10 25,10 C16.1634436,10 9,15.8202979 9,23 C9,29.8289374 15.4806005,35.4280534 23.7174891,35.9588442 Z M16.2021484,20.3156535 L16.2021484,25.5256145 L19.1416016,25.5256145 C19.3759777,25.5256145 19.5558262,25.5825801 19.6811523,25.6965129 C19.8064785,25.8104458 19.8691406,25.9536735 19.8691406,26.1262004 C19.8691406,26.3019825 19.8072923,26.4443965 19.6835938,26.5534465 C19.5598952,26.6624965 19.379233,26.7170207 19.1416016,26.7170207 L15.640625,26.7170207 C15.3248682,26.7170207 15.0978197,26.6470344 14.9594727,26.5070598 C14.8211256,26.3670851 14.7519531,26.1408504 14.7519531,25.8283489 L14.7519531,20.3156535 C14.7519531,20.0226833 14.8178704,19.802959 14.949707,19.6564739 C15.0815436,19.5099887 15.2548817,19.4367473 15.4697266,19.4367473 C15.6878266,19.4367473 15.8644199,19.509175 15.9995117,19.6540324 C16.1346035,19.7988899 16.2021484,20.0194281 16.2021484,20.3156535 Z M20.3043517,25.955302 L20.3043517,20.3156535 C20.3043517,20.0226833 20.3710828,19.802959 20.504547,19.6564739 C20.6380112,19.5099887 20.8105356,19.4367473 21.0221252,19.4367473 C21.2402252,19.4367473 21.4168185,19.509175 21.5519103,19.6540324 C21.6870021,19.7988899 21.754547,20.0194281 21.754547,20.3156535 L21.754547,25.955302 C21.754547,26.2515274 21.6870021,26.4728794 21.5519103,26.6193645 C21.4168185,26.7658496 21.2402252,26.839091 21.0221252,26.839091 C20.8137908,26.839091 20.6420803,26.7650358 20.5069884,26.6169231 C20.3718966,26.4688104 20.3043517,26.2482722 20.3043517,25.955302 Z M24.9918825,20.3058879 L27.7799684,24.5246379 L27.7799684,20.2668254 C27.7799684,19.9901313 27.8393754,19.7826139 27.9581911,19.6442668 C28.0770068,19.5059198 28.2373242,19.4367473 28.4391481,19.4367473 C28.6474825,19.4367473 28.8118689,19.5059198 28.9323122,19.6442668 C29.0527555,19.7826139 29.1129762,19.9901313 29.1129762,20.2668254 L29.1129762,25.8967082 C29.1129762,26.5249666 28.8525622,26.839091 28.3317262,26.839091 C28.2015173,26.839091 28.0843309,26.8203738 27.9801637,26.7829387 C27.8759966,26.7455036 27.7783413,26.6860967 27.687195,26.604716 C27.5960487,26.5233354 27.5114141,26.4281215 27.4332887,26.3190715 C27.3551634,26.2100215 27.2770391,26.0985317 27.1989137,25.9845989 L24.4791872,21.814677 L24.4791872,26.0090129 C24.4791872,26.2824518 24.4157113,26.4891554 24.2887575,26.6291301 C24.1618037,26.7691048 23.9990449,26.839091 23.8004762,26.839091 C23.5953971,26.839091 23.4310107,26.768291 23.3073122,26.6266887 C23.1836136,26.4850864 23.1217653,26.2791966 23.1217653,26.0090129 L23.1217653,20.486552 C23.1217653,20.2521758 23.1478067,20.0682584 23.1998903,19.9347942 C23.2617396,19.7883091 23.3642776,19.6686813 23.5075075,19.5759074 C23.6507374,19.4831335 23.8053582,19.4367473 23.9713747,19.4367473 C24.1015837,19.4367473 24.2130734,19.4579059 24.3058473,19.5002239 C24.3986212,19.5425418 24.4800006,19.5995073 24.549988,19.6711223 C24.6199753,19.7427372 24.6915892,19.8355097 24.7648317,19.9494426 C24.8380743,20.0633755 24.9137571,20.1821894 24.9918825,20.3058879 Z M31.9303898,20.6769817 L31.9303898,22.4347942 L34.9382023,22.4347942 C35.1595576,22.4347942 35.3247578,22.4844356 35.4338078,22.5837199 C35.5428578,22.6830043 35.597382,22.8140251 35.597382,22.9767864 C35.597382,23.1395476 35.5436716,23.272196 35.4362492,23.3747356 C35.3288268,23.4772751 35.1628128,23.5285442 34.9382023,23.5285442 L31.9303898,23.5285442 L31.9303898,25.564677 L35.3092961,25.564677 C35.5371618,25.564677 35.7088723,25.6175736 35.8244328,25.7233684 C35.9399933,25.8291632 35.9977726,25.9699495 35.9977726,26.1457317 C35.9977726,26.3150033 35.9399933,26.4525345 35.8244328,26.5583293 C35.7088723,26.6641241 35.5371618,26.7170207 35.3092961,26.7170207 L31.3688664,26.7170207 C31.0531096,26.7170207 30.8260611,26.6470344 30.6877141,26.5070598 C30.549367,26.3670851 30.4801945,26.1408504 30.4801945,25.8283489 L30.4801945,20.4474895 C30.4801945,20.2391551 30.5111187,20.0690722 30.572968,19.9372356 C30.6348172,19.805399 30.7316587,19.7093713 30.8634953,19.6491496 C30.9953319,19.588928 31.1637872,19.5588176 31.3688664,19.5588176 L35.1969914,19.5588176 C35.4281123,19.5588176 35.5998229,19.6100866 35.7121281,19.7126262 C35.8244334,19.8151658 35.8805851,19.9494418 35.8805851,20.1154582 C35.8805851,20.2847299 35.8244334,20.4206335 35.7121281,20.5231731 C35.5998229,20.6257126 35.4281123,20.6769817 35.1969914,20.6769817 L31.9303898,20.6769817 Z" id="line_F"></path>
                </g>
            </g>
        </g>
    </g>
</svg>