<?xml version="1.0" encoding="UTF-8" standalone="no"?>
<svg width="50px" height="50px" viewBox="0 0 50 50" version="1.1" xmlns="http://www.w3.org/2000/svg" xmlns:xlink="http://www.w3.org/1999/xlink" xmlns:sketch="http://www.bohemiancoding.com/sketch/ns">
    <!-- Generator: Sketch 3.1.1 (8761) - http://www.bohemiancoding.com/sketch -->
    <title>linkedin_F</title>
    <desc>Created with Sketch.</desc>
    <defs></defs>
    <g id="Page-1" stroke="none" stroke-width="1" fill="none" fill-rule="evenodd" sketch:type="MSPage">
        <g id="Artboard-1" sketch:type="MSArtboardGroup" transform="translate(-1275.000000, -426.000000)" fill="#2F4074">
            <g id="full-icons" sketch:type="MSLayerGroup" transform="translate(1175.000000, 225.000000)">
                <g id="row-3-full-icons" transform="translate(0.000000, 200.000000)" sketch:type="MSShapeGroup">
                    <path d="M125,51 C138.807119,51 150,39.8071194 150,26 C150,12.1928806 138.807119,1 125,1 C111.192881,1 100,12.1928806 100,26 C100,39.8071194 111.192881,51 125,51 Z M117.856704,38 L117.856704,19.1923077 L112.195419,19.1923077 L112.195419,38 L117.856704,38 Z M115.026062,11 C113.201042,11 112.009193,12.2692308 112.046438,13.9615385 C112.009193,15.5769231 113.201042,16.8846154 114.988817,16.8846154 C116.851081,16.8846154 118.042931,15.5769231 118.042931,13.9615385 C118.005685,12.2692308 116.851081,11 115.026062,11 Z M122.40063,38 L128.061915,38 L128.061915,27.1538462 C128.061915,26.6153846 128.136406,26.0384615 128.285387,25.6923077 C128.65784,24.6153846 129.588972,23.5 131.153275,23.5 C133.201766,23.5 134.021163,25.1538462 134.021163,27.5769231 L134.021163,38 L139.682447,38 L139.682447,26.8461538 C139.682447,21.3076923 136.88905,18.7692308 133.164521,18.7692308 C130.147652,18.7692308 128.285387,20.5769231 127.540481,21.7692308 L127.428745,21.7692308 L127.168028,19.1923077 L122.251649,19.1923077 C122.32614,20.8461538 122.40063,22.8461538 122.40063,25.1923077 L122.40063,38 Z" id="linkedin_F"></path>
                </g>
            </g>
        </g>
    </g>
</svg>