<?xml version="1.0" encoding="UTF-8" standalone="no"?>
<svg width="50px" height="50px" viewBox="0 0 50 50" version="1.1" xmlns="http://www.w3.org/2000/svg" xmlns:xlink="http://www.w3.org/1999/xlink" xmlns:sketch="http://www.bohemiancoding.com/sketch/ns">
    <!-- Generator: Sketch 3.1.1 (8761) - http://www.bohemiancoding.com/sketch -->
    <title>path_F</title>
    <desc>Created with Sketch.</desc>
    <defs></defs>
    <g id="Page-1" stroke="none" stroke-width="1" fill="none" fill-rule="evenodd" sketch:type="MSPage">
        <g id="Artboard-1" sketch:type="MSArtboardGroup" transform="translate(-1275.000000, -626.000000)" fill="#2F4074">
            <g id="full-icons" sketch:type="MSLayerGroup" transform="translate(1175.000000, 225.000000)">
                <g id="row-5-full-icons" transform="translate(0.000000, 401.000000)" sketch:type="MSShapeGroup">
                    <path d="M125,50 C138.807119,50 150,38.8071194 150,25 C150,11.1928806 138.807119,0 125,0 C111.192881,0 100,11.1928806 100,25 C100,38.8071194 111.192881,50 125,50 Z M138.094,22.698 C138.094,20.7979905 137.701337,19.1513403 136.916,17.758 C136.130663,16.3646597 135.104673,15.2120046 133.838,14.3 C132.571327,13.3879954 131.121008,12.7103355 129.487,12.267 C127.852992,11.8236645 126.187342,11.602 124.49,11.602 C122.817992,11.602 121.209341,11.8553308 119.664,12.362 C118.118659,12.8686692 116.763339,13.6033285 115.598,14.566 C114.432661,15.5286715 113.50167,16.712993 112.805,18.119 C112.10833,19.525007 111.76,21.1273243 111.76,22.926 C111.76,23.6100034 111.791666,24.2433304 111.855,24.826 C111.918334,25.4086696 112.038666,25.9533308 112.216,26.46 C112.393334,26.9666692 112.633998,27.4606643 112.938,27.942 C113.242002,28.4233357 113.634664,28.9299973 114.116,29.462 L117.574,26.498 C117.067331,25.9913308 116.725334,25.4466696 116.548,24.864 C116.370666,24.2813304 116.282,23.6353369 116.282,22.926 C116.282,21.7859943 116.522664,20.7853376 117.004,19.924 C117.485336,19.0626624 118.124996,18.3343363 118.923,17.739 C119.721004,17.1436637 120.613995,16.7003348 121.602,16.409 C122.590005,16.1176652 123.603328,15.972 124.642,15.972 C125.731339,15.972 126.801661,16.0986654 127.853,16.352 C128.904339,16.6053346 129.835329,17.0106639 130.646,17.568 C131.456671,18.1253361 132.108998,18.8409956 132.603,19.715 C133.097002,20.5890044 133.344,21.6466605 133.344,22.888 C133.344,23.6986707 133.198335,24.4269968 132.907,25.073 C132.615665,25.7190032 132.210336,26.2699977 131.691,26.726 C131.171664,27.1820023 130.576337,27.5303321 129.905,27.771 C129.233663,28.0116679 128.518004,28.132 127.758,28.132 C126.896662,28.132 126.086004,28.0053346 125.326,27.752 L125.326,19.392 L120.576,19.392 L120.576,33.604 C120.576,34.5666715 120.094671,35.048 119.132,35.048 C118.701331,35.048 118.296002,34.9530009 117.916,34.763 C117.535998,34.5729991 117.206668,34.3260015 116.928,34.022 L116.928,38.126 C117.080001,38.3540011 117.295332,38.5439992 117.574,38.696 C117.852668,38.8480008 118.162998,38.9746662 118.505,39.076 C118.847002,39.1773338 119.182665,39.2469998 119.512,39.285 C119.841335,39.3230002 120.132665,39.342 120.386,39.342 C122.134009,39.342 123.394329,38.8670047 124.167,37.917 C124.939671,36.9669952 125.326,35.6560084 125.326,33.984 L125.326,31.4 C125.90867,31.6786681 126.522997,31.8496664 127.169,31.913 C127.815003,31.9763337 128.454664,32.008 129.088,32.008 C129.67067,32.008 130.25333,31.9256675 130.836,31.761 C131.41867,31.5963325 131.963331,31.3873346 132.47,31.134 C134.167342,30.3233293 135.528995,29.1896739 136.555,27.733 C137.581005,26.2763261 138.094,24.5980095 138.094,22.698 Z" id="path_F"></path>
                </g>
            </g>
        </g>
    </g>
</svg>