<?xml version="1.0" encoding="UTF-8" standalone="no"?>
<svg width="50px" height="50px" viewBox="0 0 50 50" version="1.1" xmlns="http://www.w3.org/2000/svg" xmlns:xlink="http://www.w3.org/1999/xlink" xmlns:sketch="http://www.bohemiancoding.com/sketch/ns">
    <!-- Generator: Sketch 3.1.1 (8761) - http://www.bohemiancoding.com/sketch -->
    <title>pinterest_F</title>
    <desc>Created with Sketch.</desc>
    <defs></defs>
    <g id="Page-1" stroke="none" stroke-width="1" fill="none" fill-rule="evenodd" sketch:type="MSPage">
        <g id="Artboard-1" sketch:type="MSArtboardGroup" transform="translate(-1575.000000, -525.000000)" fill="#2F4074">
            <g id="full-icons" sketch:type="MSLayerGroup" transform="translate(1175.000000, 225.000000)">
                <g id="row-4-full-icons" transform="translate(0.000000, 300.000000)" sketch:type="MSShapeGroup">
                    <path d="M425,50 C438.807119,50 450,38.8071194 450,25 C450,11.1928806 438.807119,0 425,0 C411.192881,0 400,11.1928806 400,25 C400,38.8071194 411.192881,50 425,50 Z M413,20.7219474 C413,23.9507368 414.220267,26.8217368 416.835867,27.8916316 C417.264,28.0670526 417.650533,27.8985789 417.7736,27.4209474 C417.860267,27.0926842 418.0648,26.2607368 418.156667,25.9151053 C418.281467,25.4461579 418.232933,25.2794211 417.886267,24.8712632 C417.132267,23.9785263 416.6504,22.8252632 416.6504,21.1891579 C416.6504,16.4475789 420.189867,12.2027368 425.871733,12.2027368 C430.900133,12.2027368 433.663067,15.2821579 433.663067,19.3932632 C433.663067,24.8035263 431.274533,29.3714211 427.7264,29.3714211 C425.766,29.3714211 424.2996,27.7474737 424.771067,25.7553158 C425.332667,23.3793158 426.422933,20.814 426.422933,19.0962632 C426.422933,17.5626316 425.5996,16.2791053 423.897467,16.2791053 C421.895467,16.2791053 420.2852,18.3581053 420.2852,21.1370526 C420.2852,22.9086316 420.8832,24.1070526 420.8832,24.1070526 C420.8832,24.1070526 418.832667,32.8086316 418.473867,34.3335789 C417.758,37.3678421 418.3664,41.0881579 418.4184,41.4633158 C418.4496,41.6856316 418.733867,41.7377368 418.863867,41.571 C419.0476,41.3295789 421.432667,38.3786842 422.243867,35.4312632 C422.4744,34.5958421 423.562933,30.2711053 423.562933,30.2711053 C424.212933,31.5146842 426.112667,32.6123684 428.135467,32.6123684 C434.157067,32.6123684 438.2408,27.1117895 438.2408,19.7493158 C438.2408,14.1827368 433.536533,9 426.3848,9 C417.4876,9 413,15.3933158 413,20.7219474 Z" id="pinterest_F"></path>
                </g>
            </g>
        </g>
    </g>
</svg>