<?xml version="1.0" encoding="UTF-8" standalone="no"?>
<svg width="50px" height="50px" viewBox="0 0 50 50" version="1.1" xmlns="http://www.w3.org/2000/svg" xmlns:xlink="http://www.w3.org/1999/xlink" xmlns:sketch="http://www.bohemiancoding.com/sketch/ns">
    <!-- Generator: Sketch 3.1.1 (8761) - http://www.bohemiancoding.com/sketch -->
    <title>QQ_F</title>
    <desc>Created with Sketch.</desc>
    <defs></defs>
    <g id="Page-1" stroke="none" stroke-width="1" fill="none" fill-rule="evenodd" sketch:type="MSPage">
        <g id="Artboard-1" sketch:type="MSArtboardGroup" transform="translate(-1375.000000, -225.000000)" fill="#2F4074">
            <g id="full-icons" sketch:type="MSLayerGroup" transform="translate(1175.000000, 225.000000)">
                <g id="row-1-full-icons" sketch:type="MSShapeGroup">
                    <path d="M225,50 C238.807119,50 250,38.8071194 250,25 C250,11.1928806 238.807119,0 225,0 C211.192881,0 200,11.1928806 200,25 C200,38.8071194 211.192881,50 225,50 Z M213.159685,20.1511068 C212.990478,20.6036478 213.238562,20.8901477 213.159685,22.6130934 C213.138469,23.076522 211.163729,25.1742267 210.38003,27.3529396 C209.602575,29.5142904 209.495594,31.7721596 210.6959,32.6595554 C211.896205,33.5469513 213.013651,29.705727 213.159685,30.2646465 C213.223396,30.5084921 213.302847,30.7621756 213.39848,31.0228035 C213.782604,32.0696579 214.427798,33.2285502 215.362743,34.3119703 C215.552669,34.5320581 214.20584,34.936779 213.39848,36.3266068 C212.591119,37.7164345 213.629792,40.2433936 217.645037,40.2433929 C222.825304,40.2433929 223.983191,38.4003103 224.088783,38.4083862 C224.474499,38.4378867 224.501156,38.4083866 224.910045,38.4083867 C225.410279,38.4083868 225.203307,38.4490826 225.668133,38.4083862 C225.919165,38.3864079 228.436815,40.6141932 231.922356,40.2433929 C237.860711,39.6116562 236.952629,37.597665 236.486501,36.3266068 C236.000001,35 234.279746,34.3783759 234.355685,34.293448 C235.778228,32.702508 236.00364,31.7257712 236.4865,30.2646469 C236.684996,29.6640044 238.062935,33.5692002 239.12419,32.6595554 C239.566409,32.2805119 240.450844,30.7011604 239.566409,27.3529396 C238.681973,24.0047188 236.971895,23.2409315 237.00905,22.6130932 C237.086383,21.3063686 237.041484,20.388745 236.976275,20.1511068 C236.660405,19 236,19.2541683 236,19 C236,12.3725827 231.075133,7 225,7 C218.924867,7 214,12.3725827 214,19 C214,19.5260302 213.538729,19.1373615 213.159685,20.1511068 Z" id="QQ_F"></path>
                </g>
            </g>
        </g>
    </g>
</svg>