<?xml version="1.0" encoding="UTF-8" standalone="no"?>
<svg width="50px" height="50px" viewBox="0 0 50 50" version="1.1" xmlns="http://www.w3.org/2000/svg" xmlns:xlink="http://www.w3.org/1999/xlink" xmlns:sketch="http://www.bohemiancoding.com/sketch/ns">
    <!-- Generator: Sketch 3.1.1 (8761) - http://www.bohemiancoding.com/sketch -->
    <title>readability_F</title>
    <desc>Created with Sketch.</desc>
    <defs></defs>
    <g id="Page-1" stroke="none" stroke-width="1" fill="none" fill-rule="evenodd" sketch:type="MSPage">
        <g id="Artboard-1" sketch:type="MSArtboardGroup" transform="translate(-1675.000000, -726.000000)" fill="#2F4074">
            <g id="full-icons" sketch:type="MSLayerGroup" transform="translate(1175.000000, 225.000000)">
                <g id="row-6-full-icons" transform="translate(0.000000, 501.000000)" sketch:type="MSShapeGroup">
                    <path d="M525,50 C538.807119,50 550,38.8071194 550,25 C550,11.1928806 538.807119,0 525,0 C511.192881,0 500,11.1928806 500,25 C500,38.8071194 511.192881,50 525,50 Z M525,26.3107986 C530.104131,26.3185282 533.507574,28.6356157 533.507574,28.6118431 C533.507574,28.49575 533.901767,25.5798008 534.003143,25 C534.408609,22.6810217 535.803415,21.7254729 535.796121,21.677057 C534.960947,16.1331237 531.532124,11.9999989 525,12 C518.492631,12.0000011 515.065088,16.1018564 514.213486,21.6140871 C514.201891,21.6891437 515.644646,22.6453924 515.89149,24.1264601 C516.00271,24.7937798 516.493704,28.359902 516.493704,28.6118431 C516.493704,28.6670607 519.89587,26.3030687 525,26.3107986 Z M525.061419,26.8940919 C519.822874,26.8940922 516.689538,29.3909687 516.689538,29.3909687 L517.179122,34.1930961 L532.8458,34.1930963 L533.433301,29.3909687 C533.433301,29.3909687 530.299965,26.8940915 525.061419,26.8940919 Z M533.335384,34.9999997 C533.398342,35.5235348 533.335384,37.2730853 533.335384,37.2730853 L536.426377,37.2730853 L536.426377,34.9999997 C536.426377,34.9999997 538.662786,29.5837333 538.825999,29.5837333 C541.035138,29.5837333 542.657291,27.6987228 542.657291,25.4895837 C542.657291,23.2804446 540.866431,21.4895837 538.657291,21.4895837 C536.613885,21.4895837 534.948355,23.0221146 534.691452,25.0000951 C534.670616,25.160521 533.316358,34.8417879 533.335384,34.9999997 Z M511.152718,29.4579675 C511.232259,29.4579675 513.662159,34.9999997 513.662159,34.9999997 L513.662159,37.2013871 L516.673488,37.2013871 L516.673488,34.9999997 C516.673488,34.9999997 515.349525,25.1180706 515.339359,25.0017809 C515.160682,22.9579453 513.444926,21.3547151 511.354715,21.3547151 C509.145576,21.3547151 507.354715,23.145576 507.354715,25.3547151 C507.354715,27.5638542 508.943578,29.4579675 511.152718,29.4579675 Z" id="readability_F"></path>
                </g>
            </g>
        </g>
    </g>
</svg>