<?xml version="1.0" encoding="UTF-8" standalone="no"?>
<svg width="50px" height="50px" viewBox="0 0 50 50" version="1.1" xmlns="http://www.w3.org/2000/svg" xmlns:xlink="http://www.w3.org/1999/xlink" xmlns:sketch="http://www.bohemiancoding.com/sketch/ns">
    <!-- Generator: Sketch 3.1.1 (8761) - http://www.bohemiancoding.com/sketch -->
    <title>reddit_L</title>
    <desc>Created with Sketch.</desc>
    <defs></defs>
    <g id="Page-1" stroke="none" stroke-width="1" fill="none" fill-rule="evenodd" sketch:type="MSPage">
        <g id="Artboard-1" sketch:type="MSArtboardGroup" transform="translate(-1275.000000, -726.000000)" fill="#2F4074">
            <g id="full-icons" sketch:type="MSLayerGroup" transform="translate(1175.000000, 225.000000)">
                <g id="row-6-full-icons" transform="translate(0.000000, 501.000000)" sketch:type="MSShapeGroup">
                    <path d="M133.010742,13.7045981 C132.696168,13.5936472 129.288629,12.4281005 127.812189,13.4642654 C126.263536,14.5511093 126.344694,18.0410684 126.497486,18.0516694 C129.879942,18.2863498 132.93198,19.3075504 135.275122,20.8503353 C135.489373,20.991404 137.512469,19.2317051 139.7158,19.5966775 C141.919131,19.96165 143.443098,22.0623636 142.777788,24.3289628 C142.112478,26.595562 139.930625,27.2844962 139.979702,27.9490086 C139.993179,28.1314794 140,28.3151821 140,28.5 C140,34.2989902 133.284272,39 125,39 C116.715728,39 110,34.2989902 110,28.5 C110,28.2089094 110.016922,27.9205854 110.050114,27.6354837 C110.054028,27.6018699 108.537468,26.7304465 107.936515,25.3778291 C107.363069,24.0871249 107.629551,22.4872532 108.217898,21.5663619 C109.155501,20.0988095 110.315484,19.5966775 111.875883,19.5966775 C113.436282,19.5966775 115.178491,20.5632932 115.249413,20.5207863 C117.789245,18.9985546 121.064409,18.0601912 124.650479,18.0027945 C124.766664,18.0009349 124.373356,13.7737502 126.817536,12.1854264 C129.261715,10.5971024 133.345794,12.1844278 133.389347,12.1854264 C133.398402,12.185634 133.396282,12.2218605 133.386209,12.2830291 C134.028736,10.9330783 135.405402,10 137,10 C139.209139,10 141,11.7908609 141,14 C141,16.2091391 139.209139,18 137,18 C134.790861,18 133,16.2091391 133,14 C133,13.900645 133.003622,13.8021361 133.010742,13.7045981 Z M125,50 C138.807119,50 150,38.8071194 150,25 C150,11.1928806 138.807119,0 125,0 C111.192881,0 100,11.1928806 100,25 C100,38.8071194 111.192881,50 125,50 Z M131,28 C132.10457,28 133,27.1045696 133,26 C133,24.8954304 132.10457,24 131,24 C129.89543,24 129,24.8954304 129,26 C129,27.1045696 129.89543,28 131,28 Z M119,28 C120.10457,28 121,27.1045696 121,26 C121,24.8954304 120.10457,24 119,24 C117.89543,24 117,24.8954304 117,26 C117,27.1045696 117.89543,28 119,28 Z M125.5,32.8182332 C121.89205,32.818233 119.961142,31.3896802 119.961142,31.3896802 C119.726758,31.2435751 119.431474,31.3275927 119.30864,31.5638118 L119.091081,31.9821948 C118.965098,32.2244701 119.030272,32.5662439 119.254154,32.7367097 C119.254154,32.7367097 120.907288,34.442227 125.5,34.4422268 C130.092711,34.4422266 131.630225,32.620093 131.630225,32.620093 C131.834446,32.4337343 131.866653,32.1017972 131.701515,31.8778139 L131.445065,31.5299803 C131.280217,31.3063895 130.968294,31.2579881 130.736075,31.4123447 C130.736075,31.4123447 129.10795,32.8182333 125.5,32.8182332 Z M137,16 C138.10457,16 139,15.1045696 139,14 C139,12.8954304 138.10457,12 137,12 C135.89543,12 135,12.8954304 135,14 C135,15.1045696 135.89543,16 137,16 Z" id="reddit_L"></path>
                </g>
            </g>
        </g>
    </g>
</svg>