<?xml version="1.0" encoding="UTF-8" standalone="no"?>
<svg width="50px" height="50px" viewBox="0 0 50 50" version="1.1" xmlns="http://www.w3.org/2000/svg" xmlns:xlink="http://www.w3.org/1999/xlink" xmlns:sketch="http://www.bohemiancoding.com/sketch/ns">
    <!-- Generator: Sketch 3.1.1 (8761) - http://www.bohemiancoding.com/sketch -->
    <title>renren_F</title>
    <desc>Created with Sketch.</desc>
    <defs></defs>
    <g id="Page-1" stroke="none" stroke-width="1" fill="none" fill-rule="evenodd" sketch:type="MSPage">
        <g id="Artboard-1" sketch:type="MSArtboardGroup" transform="translate(-1175.000000, -426.000000)" fill="#2F4074">
            <g id="full-icons" sketch:type="MSLayerGroup" transform="translate(1175.000000, 225.000000)">
                <g id="row-3-full-icons" transform="translate(0.000000, 200.000000)" sketch:type="MSShapeGroup">
                    <path d="M24.9583053,33.6660068 C24.5280509,33.5732175 22.3215421,32.4854955 20.2299509,29.6967064 C18.3648944,27.2099631 17.9998476,25.9999996 17.9998476,23.9456892 C17.9998475,21.8913788 17.9969359,14.1654028 17.9998475,14.1658913 C20.7704814,14.6306787 23.2191883,16.0448799 25.0000001,18.0625267 C23.1329098,20.1779262 22,22.9566603 22,26 C22,28.9092396 23.2340845,31.5885583 24.9583053,33.6660068 Z M25,51 C38.8071194,51 50,39.8071194 50,26 C50,12.1928806 38.8071194,1 25,1 C11.1928806,1 0,12.1928806 0,26 C0,39.8071194 11.1928806,51 25,51 Z M18.3185132,33.6000786 C17.1177165,32.0266212 16.0000002,29.6871384 16.0000002,29.6871384 C16.0000002,29.6871384 15.121573,31.8112145 13.7844713,33.6000786 C12.4741478,35.3531173 10.703905,36.7713277 10.771333,36.8040203 C12.351764,37.5702929 14.1257003,38 16,38 C17.8856713,38 19.6697576,37.5650629 21.2574115,36.7900359 C21.3129889,36.7629053 19.5193098,35.1735361 18.3185132,33.6000786 Z M6.78355392,33.6853274 C6.79509496,33.6991527 9.55279824,32.5507148 11.5050449,29.9151816 C13.4572916,27.2796482 14.0201759,26.0000003 14.0201759,23.7656044 C14.0201759,21.5312084 14.0303389,14.1608626 14.0201759,14.1625497 C8.33482547,15.1063803 4,20.0469632 4,26 C4,28.923881 5.04571624,31.6035217 6.78355392,33.6853274 Z M36.3185132,33.6000786 C35.1177165,32.0266212 34.0000002,29.6871384 34.0000002,29.6871384 C34.0000002,29.6871384 33.121573,31.8112145 31.7844713,33.6000786 C30.4741478,35.3531173 28.703905,36.7713277 28.771333,36.8040203 C30.351764,37.5702929 32.1257003,38 34,38 C35.8856713,38 37.6697576,37.5650629 39.2574115,36.7900359 C39.3129889,36.7629053 37.5193098,35.1735361 36.3185132,33.6000786 Z M38.2299509,29.6967064 C40.5205738,32.7508713 43.1438416,33.7725376 43.2260659,33.6737889 C44.9581421,31.5936248 46,28.918482 46,26 C46,20.0539538 41.6753494,15.1179845 35.9998475,14.1658913 C35.9969359,14.1654028 35.9998475,21.8913788 35.9998476,23.9456892 C35.9998476,25.9999996 36.3648944,27.2099631 38.2299509,29.6967064 Z M24.9583053,33.6660068 C24.9992475,33.6748364 25.0241055,33.6746569 25.03125,33.6660767 C26.7633262,31.5859126 28,28.918482 28,26 C28,22.9566604 26.8670903,20.1779263 25.0000001,18.0625267 C26.7851007,16.040021 29.2413172,14.6238708 32.0201759,14.1625497 C32.0303389,14.1608626 32.0201759,21.5312084 32.0201759,23.7656044 C32.0201759,26.0000003 31.4572916,27.2796482 29.5050449,29.9151816 C27.5527982,32.5507148 24.995916,33.711152 24.984375,33.6973267 C24.9756727,33.686902 24.9669828,33.676462 24.9583053,33.6660068 Z" id="renren_F"></path>
                </g>
            </g>
        </g>
    </g>
</svg>