<?xml version="1.0" encoding="UTF-8" standalone="no"?>
<svg width="50px" height="50px" viewBox="0 0 50 50" version="1.1" xmlns="http://www.w3.org/2000/svg" xmlns:xlink="http://www.w3.org/1999/xlink" xmlns:sketch="http://www.bohemiancoding.com/sketch/ns">
    <!-- Generator: Sketch 3.1.1 (8761) - http://www.bohemiancoding.com/sketch -->
    <title>snapchat_F</title>
    <desc>Created with Sketch.</desc>
    <defs></defs>
    <g id="Page-1" stroke="none" stroke-width="1" fill="none" fill-rule="evenodd" sketch:type="MSPage">
        <g id="Artboard-1" sketch:type="MSArtboardGroup" transform="translate(-1375.000000, -626.000000)" fill="#2F4074">
            <g id="full-icons" sketch:type="MSLayerGroup" transform="translate(1175.000000, 225.000000)">
                <g id="row-5-full-icons" transform="translate(0.000000, 401.000000)" sketch:type="MSShapeGroup">
                    <path d="M225,50 C238.807119,50 250,38.8071194 250,25 C250,11.1928806 238.807119,0 225,0 C211.192881,0 200,11.1928806 200,25 C200,38.8071194 211.192881,50 225,50 Z M215.305545,25.1997578 C214.272322,24.7560447 213.396344,24.5504284 213.095596,24.2239363 C212.321565,23.3836467 213.715148,22.6408662 214.329723,22.9687674 C216,23.8599293 216.941481,23.1954272 216.941481,23.1954272 C216.941481,23.1954272 216.941481,18.9734671 216.941481,16.9913767 C216.941481,15.0092862 219.176245,10.8781408 225.062227,10.8781417 C230.904286,10.8781425 233.12864,15.0406955 233.12864,16.9913767 C233.128639,18.9420579 233.12864,22.9687674 233.12864,22.9687674 C233.12864,22.9687674 233.616549,23.4045967 234.477568,23.4045966 C235.338587,23.4045966 235.859843,22.8976132 236.429211,22.9687674 C236.998579,23.0399216 237.864245,23.7647269 236.544014,24.5683444 C235.223784,25.3719618 233.444346,24.9701512 233.444346,26.9217952 C233.444346,28.8734391 236.470171,32.08791 239.729784,33.2359355 C242.989397,34.383961 236.269266,35.3587714 236.269266,35.3587714 C236.269266,35.3587714 236.056103,37.314997 235.769097,37.5123294 C235.629457,37.608339 234.563671,36.9383166 232.353722,37.0818198 C230.143772,37.225323 228.909645,40.0092852 225.062227,40.0092852 C221.214808,40.0092858 220.524411,37.5984714 218.23301,37.0818198 C215.941609,36.565168 214.530628,37.4836295 214.329723,37.3114264 C214.128819,37.1392234 214.243622,35.3587706 213.669609,35.3587706 C213.095596,35.3587706 207.211966,33.9534517 210.598641,33.2359355 C213.985316,32.5184195 216.708635,28.184624 216.711876,26.9217952 C216.714233,26.003378 216.338768,25.643471 215.305545,25.1997578 Z" id="snapchat_F"></path>
                </g>
            </g>
        </g>
    </g>
</svg>