<?xml version="1.0" encoding="UTF-8" standalone="no"?>
<svg width="50px" height="50px" viewBox="0 0 50 50" version="1.1" xmlns="http://www.w3.org/2000/svg" xmlns:xlink="http://www.w3.org/1999/xlink" xmlns:sketch="http://www.bohemiancoding.com/sketch/ns">
    <!-- Generator: Sketch 3.1.1 (8761) - http://www.bohemiancoding.com/sketch -->
    <title>taobao_F</title>
    <desc>Created with Sketch.</desc>
    <defs></defs>
    <g id="Page-1" stroke="none" stroke-width="1" fill="none" fill-rule="evenodd" sketch:type="MSPage">
        <g id="Artboard-1" sketch:type="MSArtboardGroup" transform="translate(-1275.000000, -326.000000)" fill="#2F4074">
            <g id="full-icons" sketch:type="MSLayerGroup" transform="translate(1175.000000, 225.000000)">
                <g id="row-2-full-icons" transform="translate(0.000000, 101.000000)" sketch:type="MSShapeGroup">
                    <path d="M125,50 C138.807119,50 150,38.8071194 150,25 C150,11.1928806 138.807119,0 125,0 C111.192881,0 100,11.1928806 100,25 C100,38.8071194 111.192881,50 125,50 Z M113,17 C114.656854,17 116,15.6568543 116,14 C116,12.3431457 114.656854,11 113,11 C111.343146,11 110,12.3431457 110,14 C110,15.6568543 111.343146,17 113,17 Z M110.265696,18.3672012 L107.982854,21.590037 C107.982854,21.590037 112.88425,24.0071635 113.287105,25.9542936 C113.689959,27.9014238 106.572864,33.7428134 106.572864,33.7428134 L111.654363,37.4356464 C111.654363,37.4356464 116.912795,28.2371353 116.50994,25.2157272 C116.107086,22.1943191 110.265696,18.3672012 110.265696,18.3672012 Z M117.987074,15.54722 C119.262779,13.3986628 119.732776,11.2501056 119.732776,11.2501056 L123.425609,12.7272387 L122.35133,14.8086534 C122.35133,14.8086534 122.6199,15.0772231 123.559894,14.9429382 C124.499888,14.8086534 130.676989,11.7201025 134.906961,12.458669 C139.194688,13.2073198 141.822629,16.5543554 141.822629,19.17291 L141.822629,31.7285411 C141.822629,31.7285411 141.352632,35.555659 138.062654,36.8985069 C134.772676,38.2413549 129.736996,37.2342187 129.736996,37.2342187 L130.005565,35.1528041 C130.005565,35.1528041 133.026974,35.8242279 134.906961,35.2199463 C136.786949,34.6156646 137.324088,33.1385316 137.324088,33.1385316 L137.324088,18.165774 C137.324088,18.165774 137.055518,16.6214985 135.309816,15.5472199 C133.564113,14.4729414 132.691262,14.6072262 130.811274,14.8757958 C128.931287,15.1443655 126.044163,16.4872137 126.044163,16.4872137 L124.432745,19.642907 L135.309816,19.642907 L135.309816,21.7914646 L128.662717,21.7914646 L128.662717,24.4771602 L135.578386,24.4771602 L135.578385,26.3571481 L128.797002,26.6257177 L128.797002,31.7285411 L132.019838,30.3185503 L131.751268,28.1028508 L134.369822,27.5657115 L136.316952,32.6685347 L133.094116,34.1456678 L132.691262,32.3328227 C132.691262,32.3328227 126.59653,34.9002715 124.151867,35.1015966 C121.707205,35.3029218 119.305583,34.71971 118.141262,33.067632 C116.97694,31.415554 117.248507,28.1028508 117.248507,28.1028508 L121.593985,28.2112314 C121.593985,28.2112314 121.255166,30.0989353 122.11028,31.2928677 C122.965394,32.4868 124.902742,32.1985379 124.902742,32.1985379 L124.902742,26.4914329 L118.188501,26.2900057 L118.188501,24.4771602 L124.969884,24.4771606 L124.902742,21.7914641 L122.821327,21.3886097 C122.821327,21.3886097 121.075625,24.0743061 119.934204,24.0071637 C118.792783,23.9400213 118.658498,22.3957458 118.658498,22.3957458 L122.35133,17.8300619 L120.337058,17.6286347 L117.31565,21.1871825 L115.032808,19.17291 C115.032808,19.17291 116.711368,17.6957773 117.987074,15.54722 Z" id="taobao_F"></path>
                </g>
            </g>
        </g>
    </g>
</svg>