<?xml version="1.0" encoding="UTF-8" standalone="no"?>
<svg width="50px" height="50px" viewBox="0 0 50 50" version="1.1" xmlns="http://www.w3.org/2000/svg" xmlns:xlink="http://www.w3.org/1999/xlink" xmlns:sketch="http://www.bohemiancoding.com/sketch/ns">
    <!-- Generator: Sketch 3.1.1 (8761) - http://www.bohemiancoding.com/sketch -->
    <title>tumblr_F</title>
    <desc>Created with Sketch.</desc>
    <defs></defs>
    <g id="Page-1" stroke="none" stroke-width="1" fill="none" fill-rule="evenodd" sketch:type="MSPage">
        <g id="Artboard-1" sketch:type="MSArtboardGroup" transform="translate(-1675.000000, -626.000000)" fill="#2F4074">
            <g id="full-icons" sketch:type="MSLayerGroup" transform="translate(1175.000000, 225.000000)">
                <g id="row-5-full-icons" transform="translate(0.000000, 401.000000)" sketch:type="MSShapeGroup">
                    <path d="M525,50 C538.807119,50 550,38.8071194 550,25 C550,11.1928806 538.807119,0 525,0 C511.192881,0 500,11.1928806 500,25 C500,38.8071194 511.192881,50 525,50 Z M525.814453,9.88378906 L525.814453,17.5878906 L533.046875,17.5878906 L533.046875,22.3720703 L525.814453,22.3720703 L525.814453,30.1884766 C525.814453,31.9554125 525.908039,33.0896785 526.095215,33.5913086 C526.28239,34.0929387 526.630531,34.4934881 527.139648,34.7929688 C527.81348,35.1972676 528.584631,35.3994141 529.453125,35.3994141 C530.99545,35.3994141 532.530266,34.8977915 534.057617,33.8945312 L534.057617,38.7011719 C532.754876,39.3151072 531.575689,39.7456042 530.52002,39.9926758 C529.46435,40.2397473 528.322597,40.3632812 527.094727,40.3632812 C525.702141,40.3632812 524.470546,40.187339 523.399902,39.8354492 C522.329259,39.4835594 521.415857,38.9819369 520.659668,38.3305664 C519.903479,37.679196 519.379396,36.9866573 519.087402,36.2529297 C518.795409,35.5192021 518.649414,34.4560617 518.649414,33.0634766 L518.649414,22.3720703 L515.280273,22.3720703 L515.280273,18.0595703 C516.478196,17.6702454 517.503902,17.1124711 518.357422,16.3862305 C519.210942,15.6599899 519.895994,14.7877655 520.412598,13.7695312 C520.929202,12.751297 521.28483,11.4560625 521.479492,9.88378906 L525.814453,9.88378906 Z" id="tumblr_F"></path>
                </g>
            </g>
        </g>
    </g>
</svg>