<?xml version="1.0" encoding="UTF-8" standalone="no"?>
<svg width="50px" height="50px" viewBox="0 0 50 50" version="1.1" xmlns="http://www.w3.org/2000/svg" xmlns:xlink="http://www.w3.org/1999/xlink" xmlns:sketch="http://www.bohemiancoding.com/sketch/ns">
    <!-- Generator: Sketch 3.1.1 (8761) - http://www.bohemiancoding.com/sketch -->
    <title>vine_F</title>
    <desc>Created with Sketch.</desc>
    <defs></defs>
    <g id="Page-1" stroke="none" stroke-width="1" fill="none" fill-rule="evenodd" sketch:type="MSPage">
        <g id="Artboard-1" sketch:type="MSArtboardGroup" transform="translate(-1475.000000, -626.000000)" fill="#2F4074">
            <g id="full-icons" sketch:type="MSLayerGroup" transform="translate(1175.000000, 225.000000)">
                <g id="row-5-full-icons" transform="translate(0.000000, 401.000000)" sketch:type="MSShapeGroup">
                    <path d="M325,50 C338.807119,50 350,38.8071194 350,25 C350,11.1928806 338.807119,0 325,0 C311.192881,0 300,11.1928806 300,25 C300,38.8071194 311.192881,50 325,50 Z M315.675003,28.7378862 C313.351856,22.8747041 312.079656,15 312.079656,15 L317.279081,15 C317.279081,15 317.666272,20.9387491 320.265985,27.2997473 C322.865698,33.6607455 325.133531,35.4307631 325.133531,35.4307631 C325.133531,35.4307631 326.967995,33.3476188 328.175748,31.6694773 C329.383502,29.9913357 330.388269,28.1294431 330.388269,28.1294431 C330.388269,28.1294431 328.131753,27.2284636 326.506365,24.7115572 C325.475589,23.1154039 324.795675,20.3034564 324.795675,18.4694584 C324.795675,13.7435067 327.156909,10.3186472 331.771095,10.3186472 C336.385281,10.3186472 338.401489,13.7110052 338.401489,17.0736874 C338.401488,20.4363696 337.191772,23.1512703 337.191772,23.1512703 C337.191772,23.1512703 335.806737,23.1512707 334.577932,22.5671709 C333.349126,21.9830711 333.043295,21.4365664 333.043295,21.4365664 C333.043295,21.4365664 333.651738,19.5760038 333.651739,17.8412192 C333.651739,16.1064346 332.703758,14.8553241 331.771095,14.8553241 C330.838432,14.8553242 329.402849,15.1444557 329.402849,18.4694584 C329.402849,21.7944611 331.672534,24.3834274 333.651739,24.9999998 C335.630943,25.6165722 338.401489,25.514221 338.401489,25.514221 L338.401489,28.842346 C338.401489,28.842346 337.686718,29.1007811 336.745239,29.1803911 C335.80376,29.260001 334.854614,29.1803911 334.854614,29.1803911 C334.854614,29.1803911 333.890284,31.2237348 331.881721,33.9926241 C329.818406,36.8369921 326.703122,40.1876829 325.133531,40.1876829 C322.036001,40.1876834 317.99815,34.6010683 315.675003,28.7378862 Z" id="vine_F"></path>
                </g>
            </g>
        </g>
    </g>
</svg>