<?xml version="1.0" encoding="UTF-8" standalone="no"?>
<svg width="50px" height="50px" viewBox="0 0 50 50" version="1.1" xmlns="http://www.w3.org/2000/svg" xmlns:xlink="http://www.w3.org/1999/xlink" xmlns:sketch="http://www.bohemiancoding.com/sketch/ns">
    <!-- Generator: Sketch 3.1.1 (8761) - http://www.bohemiancoding.com/sketch -->
    <title>wechat_moment_F</title>
    <desc>Created with Sketch.</desc>
    <defs></defs>
    <g id="Page-1" stroke="none" stroke-width="1" fill="none" fill-rule="evenodd" sketch:type="MSPage">
        <g id="Artboard-1" sketch:type="MSArtboardGroup" transform="translate(-1275.000000, -225.000000)" fill="#2F4074">
            <g id="full-icons" sketch:type="MSLayerGroup" transform="translate(1175.000000, 225.000000)">
                <g id="row-1-full-icons" sketch:type="MSShapeGroup">
                    <path d="M125,50 C138.807119,50 150,38.8071194 150,25 C150,11.1928806 138.807119,0 125,0 C111.192881,0 100,11.1928806 100,25 C100,38.8071194 111.192881,50 125,50 Z M130.462695,20.9040358 L119.688596,10.2530691 C119.688596,10.2530691 121.833706,9.28642423 125.075645,9.28642371 C128.317585,9.28642318 130.462695,10.1299365 130.462695,10.1299365 L130.462695,20.9040358 Z M131.801394,25.9213213 L131.714327,10.7715119 C131.714327,10.7715119 133.91467,11.6048127 136.207068,13.8972099 C138.499465,16.1896072 139.419833,18.3028827 139.419833,18.3028827 L131.801394,25.9213213 Z M129.200241,30.4156816 L139.851208,19.6415823 C139.851208,19.6415823 140.817853,21.7866924 140.817853,25.0286322 C140.817854,28.270572 139.974341,30.4156816 139.974341,30.4156816 L129.200241,30.4156816 Z M124.182956,31.7543812 L139.332765,31.6673133 C139.332765,31.6673133 138.499464,33.8676563 136.207067,36.1600543 C133.91467,38.4524523 131.801394,39.3728198 131.801394,39.3728198 L124.182956,31.7543812 Z M119.688596,29.1532281 L130.462695,39.8041948 C130.462695,39.8041948 128.317585,40.7708397 125.075645,40.7708402 C121.833705,40.7708407 119.688596,39.9273274 119.688596,39.9273274 L119.688596,29.1532281 Z M118.349896,24.1359426 L118.436964,39.285752 C118.436964,39.285752 116.236621,38.4524512 113.944223,36.160054 C111.651825,33.8676567 110.731457,31.7543812 110.731457,31.7543812 L118.349896,24.1359426 Z M120.951049,19.6415823 L110.300082,30.4156816 C110.300082,30.4156816 109.333437,28.2705715 109.333437,25.0286317 C109.333436,21.7866919 110.17695,19.6415823 110.17695,19.6415823 L120.951049,19.6415823 Z M125.968335,18.3028827 L110.818525,18.3899506 C110.818525,18.3899506 111.651826,16.1896076 113.944223,13.8972096 C116.23662,11.6048116 118.349896,10.6844441 118.349896,10.6844441 L125.968335,18.3028827 Z" id="wechat_moment_F"></path>
                </g>
            </g>
        </g>
    </g>
</svg>