<?xml version="1.0" encoding="UTF-8" standalone="no"?>
<svg width="50px" height="50px" viewBox="0 0 50 50" version="1.1" xmlns="http://www.w3.org/2000/svg" xmlns:xlink="http://www.w3.org/1999/xlink" xmlns:sketch="http://www.bohemiancoding.com/sketch/ns">
    <!-- Generator: Sketch 3.1.1 (8761) - http://www.bohemiancoding.com/sketch -->
    <title>whatsapp_F</title>
    <desc>Created with Sketch.</desc>
    <defs></defs>
    <g id="Page-1" stroke="none" stroke-width="1" fill="none" fill-rule="evenodd" sketch:type="MSPage">
        <g id="Artboard-1" sketch:type="MSArtboardGroup" transform="translate(-1575.000000, -626.000000)" fill="#2F4074">
            <g id="full-icons" sketch:type="MSLayerGroup" transform="translate(1175.000000, 225.000000)">
                <g id="row-5-full-icons" transform="translate(0.000000, 401.000000)" sketch:type="MSShapeGroup">
                    <path d="M425,50 C438.807119,50 450,38.8071194 450,25 C450,11.1928806 438.807119,0 425,0 C411.192881,0 400,11.1928806 400,25 C400,38.8071194 411.192881,50 425,50 Z M413.351549,31.0667732 C413.54071,31.3627553 410.44629,38.5200222 410.672765,38.6956673 C410.807012,38.7997837 418.425598,35.9508756 418.560434,36.028039 C420.753022,37.2828016 423.292756,38 426,38 C434.284272,38 441,31.2842717 441,23 C441,14.7157283 434.284272,8 426,8 C417.715728,8 411,14.7157283 411,23 C411,25.9694758 411.862867,28.737418 413.351549,31.0667732 Z M416.276045,30.0331746 C416.377351,30.1729945 414.595017,34.692739 414.700472,34.7718296 C414.788182,34.837612 419.245192,32.9247535 419.511486,33.0962457 C421.382237,34.3010015 423.609488,35 426,35 C432.627417,35 438,29.6274173 438,23 C438,16.3725827 432.627417,11 426,11 C419.372583,11 414,16.3725827 414,23 C414,25.627047 414.84417,28.0569273 416.276045,30.0331746 Z M422.511363,17.1653759 C423.328654,18.3621243 423.766489,19.7340064 423.766489,20.4053531 C423.766489,21.0766998 422.686496,22.0399363 422.686496,22.0399363 C422.686496,22.0399363 422.898393,23.5577638 425,25.2507251 C427.101607,26.9436862 428.057269,26.7101739 428.057269,26.7101739 C428.057269,26.7101739 429.078884,24.7545116 429.866987,24.9999998 C430.65509,25.2454879 431.910215,25.8345039 432.990207,26.4474733 C434.0702,27.0604427 432.785885,29.7750165 431.034546,30.0960958 C429.283207,30.4171751 426.451876,30.0669067 423.44541,27.4398982 C420.438944,24.8128898 419.570248,23.0791619 419.183818,21.4561568 C418.162204,17.1653759 421.694071,15.9686274 422.511363,17.1653759 Z" id="whatsapp_F"></path>
                </g>
            </g>
        </g>
    </g>
</svg>