<?xml version="1.0" encoding="UTF-8" standalone="no"?>
<svg width="50px" height="50px" viewBox="0 0 50 50" version="1.1" xmlns="http://www.w3.org/2000/svg" xmlns:xlink="http://www.w3.org/1999/xlink" xmlns:sketch="http://www.bohemiancoding.com/sketch/ns">
    <!-- Generator: Sketch 3.1.1 (8761) - http://www.bohemiancoding.com/sketch -->
    <title>zhihu_F</title>
    <desc>Created with Sketch.</desc>
    <defs></defs>
    <g id="Page-1" stroke="none" stroke-width="1" fill="none" fill-rule="evenodd" sketch:type="MSPage">
        <g id="Artboard-1" sketch:type="MSArtboardGroup" transform="translate(-1475.000000, -327.000000)" fill="#2F4074">
            <g id="full-icons" sketch:type="MSLayerGroup" transform="translate(1175.000000, 225.000000)">
                <g id="row-2-full-icons" transform="translate(0.000000, 101.000000)" sketch:type="MSShapeGroup">
                    <path d="M325,51 C338.807119,51 350,39.8071194 350,26 C350,12.1928806 338.807119,1 325,1 C311.192881,1 300,12.1928806 300,26 C300,39.8071194 311.192881,51 325,51 Z M316.390365,11.6746981 C316.390365,11.6746981 314.26893,11.7994883 313.520188,13.109787 C312.771446,14.4200855 310.338034,21.1587641 310.338034,21.1587641 C310.338034,21.1587641 311.149171,21.5331349 312.521865,20.5348122 C313.894558,19.5364897 314.331325,17.7894246 314.331325,17.7894246 L316.827132,17.6646344 L316.889527,24.7776838 C316.889527,24.7776838 312.58426,24.7152879 311.710728,24.7776834 C310.837195,24.840079 310.338034,27.1486999 310.338034,27.1486999 L316.889527,27.1486999 C316.889527,27.1486999 316.32797,31.0795958 314.643301,33.949774 C312.958631,36.8199522 309.776477,39.0661775 309.776477,39.0661775 C309.776477,39.0661775 312.085099,40.0021059 314.331325,38.6918067 C316.577551,37.3815074 318.2337,31.6189768 318.2337,31.6189768 L323.503415,38.067855 C323.503415,38.067855 323.9843,34.9985601 323.418088,34.1315462 C322.851875,33.2645323 319.773092,29.778784 319.773092,29.778784 L318.428336,30.9642927 L319.385334,27.1486999 L325.125689,27.1487002 C325.125689,27.1487002 325.12569,24.9024741 324.002576,24.7776834 C322.879463,24.6528928 319.385334,24.7776834 319.385334,24.7776834 L319.385334,17.7894246 L324.564133,17.7894247 C324.564133,17.7894247 324.501738,15.4808034 323.503415,15.4808034 C322.505092,15.4808034 315.080067,15.4808034 315.080067,15.4808034 L316.390365,11.6746981 Z M326.351066,15.2603489 L338.158072,15.2603489 L338.158072,36.2696454 L332.939926,36.2696454 L329.227668,38.9070298 L328.460556,36.2696454 L326.351066,36.2696454 L326.351066,15.2603489 Z M328.850898,17.5986274 L335.758338,17.5986274 L335.758338,33.8834384 L333.304594,33.8834384 L330.17695,36.2413543 L329.495037,33.8834384 L328.850898,33.8834384 L328.850898,17.5986274 Z" id="zhihu_F"></path>
                </g>
            </g>
        </g>
    </g>
</svg>