<?xml version="1.0" encoding="UTF-8" standalone="no"?>
<svg width="50px" height="50px" viewBox="0 0 50 50" version="1.1" xmlns="http://www.w3.org/2000/svg" xmlns:xlink="http://www.w3.org/1999/xlink" xmlns:sketch="http://www.bohemiancoding.com/sketch/ns">
    <!-- Generator: Sketch 3.1.1 (8761) - http://www.bohemiancoding.com/sketch -->
    <title>googleplus_c</title>
    <desc>Created with Sketch.</desc>
    <defs></defs>
    <g id="Page-1" stroke="none" stroke-width="1" fill="none" fill-rule="evenodd" sketch:type="MSPage">
        <g id="circle-icons" sketch:type="MSLayerGroup" transform="translate(-300.000000, -300.000000)" fill="#F35E47">
            <g id="row-4-circle-icons" transform="translate(0.000000, 300.000000)" sketch:type="MSShapeGroup">
                <path d="M325,50 C338.807119,50 350,38.8071194 350,25 C350,11.1928806 338.807119,0 325,0 C311.192881,0 300,11.1928806 300,25 C300,38.8071194 311.192881,50 325,50 Z M320.96,12.32 C321.200001,12.5066676 321.479998,12.7533318 321.8,13.06 C322.120002,13.3666682 322.426665,13.7399978 322.72,14.18 C323.013335,14.6200022 323.266666,15.1333304 323.48,15.72 C323.693334,16.3066696 323.8,16.9733296 323.8,17.72 C323.8,18.4666704 323.706668,19.1199972 323.52,19.68 C323.333332,20.2400028 323.080002,20.7399978 322.76,21.18 C322.439998,21.6200022 322.080002,22.0199982 321.68,22.38 C321.279998,22.7400018 320.866669,23.0799984 320.44,23.4 C320.173332,23.666668 319.920001,23.9466652 319.68,24.24 C319.439999,24.5333348 319.32,24.9066644 319.32,25.36 C319.32,25.8133356 319.439999,26.1666654 319.68,26.42 C319.920001,26.6733346 320.146666,26.8933324 320.36,27.08 L321.8,28.2 C322.226669,28.5733352 322.646665,28.9466648 323.06,29.32 C323.473335,29.6933352 323.833332,30.0933312 324.14,30.52 C324.446668,30.9466688 324.693332,31.426664 324.88,31.96 C325.066668,32.493336 325.16,33.1066632 325.16,33.8 C325.16,34.733338 324.933336,35.6533288 324.48,36.56 C324.026664,37.4666712 323.360004,38.2733298 322.48,38.98 C321.599996,39.6866702 320.500007,40.2599978 319.18,40.7 C317.859993,41.1400022 316.346675,41.36 314.64,41.36 C313.199993,41.36 311.940005,41.2000016 310.86,40.88 C309.779995,40.5599984 308.880004,40.133336 308.16,39.6 C307.439996,39.066664 306.906668,38.4600034 306.56,37.78 C306.213332,37.0999966 306.04,36.3866704 306.04,35.64 C306.04,34.9199964 306.259998,34.1000046 306.7,33.18 C307.140002,32.2599954 307.946661,31.4533368 309.12,30.76 C309.733336,30.3866648 310.39333,30.0866678 311.1,29.86 C311.80667,29.6333322 312.506663,29.453334 313.2,29.32 C313.893337,29.186666 314.546664,29.0933336 315.16,29.04 C315.773336,28.9866664 316.306664,28.9466668 316.76,28.92 C316.466665,28.5466648 316.193335,28.1533354 315.94,27.74 C315.686665,27.3266646 315.56,26.8133364 315.56,26.2 C315.56,25.8533316 315.6,25.5666678 315.68,25.34 C315.76,25.1133322 315.853333,24.8800012 315.96,24.64 C315.746666,24.6666668 315.533334,24.6866666 315.32,24.7 C315.106666,24.7133334 314.893334,24.72 314.68,24.72 C313.613328,24.72 312.666671,24.5400018 311.84,24.18 C311.013329,23.8199982 310.320003,23.3466696 309.76,22.76 C309.199997,22.1733304 308.773335,21.5000038 308.48,20.74 C308.186665,19.9799962 308.04,19.2133372 308.04,18.44 C308.04,17.506662 308.253331,16.5666714 308.68,15.62 C309.106669,14.6733286 309.746662,13.8266704 310.6,13.08 C311.746672,12.146662 312.953327,11.546668 314.22,11.28 C315.486673,11.013332 316.666661,10.88 317.76,10.88 L326,10.88 L323.44,12.32 L320.96,12.32 Z M316.56,23.6 C317.066669,23.6 317.566664,23.4933344 318.06,23.28 C318.553336,23.0666656 318.959998,22.8000016 319.28,22.48 C319.733336,22.0266644 320.013333,21.5200028 320.12,20.96 C320.226667,20.3999972 320.28,19.9333352 320.28,19.56 C320.28,18.8399964 320.173334,18.0533376 319.96,17.2 C319.746666,16.3466624 319.426669,15.5466704 319,14.8 C318.573331,14.0533296 318.04667,13.4333358 317.42,12.94 C316.79333,12.4466642 316.066671,12.2 315.24,12.2 C314.706664,12.2 314.186669,12.3199988 313.68,12.56 C313.173331,12.8000012 312.760002,13.119998 312.44,13.52 C312.093332,13.9466688 311.860001,14.4133308 311.74,14.92 C311.619999,15.4266692 311.56,15.946664 311.56,16.48 C311.56,17.14667 311.659999,17.8933292 311.86,18.72 C312.060001,19.5466708 312.366665,20.3199964 312.78,21.04 C313.193335,21.7600036 313.71333,22.3666642 314.34,22.86 C314.96667,23.3533358 315.706662,23.6 316.56,23.6 Z M322.48,35.36 C322.48,34.8533308 322.393334,34.3933354 322.22,33.98 C322.046666,33.5666646 321.786668,33.160002 321.44,32.76 C321.093332,32.359998 320.640003,31.9466688 320.08,31.52 C319.519997,31.0933312 318.86667,30.613336 318.12,30.08 C317.959999,30.0533332 317.820001,30.04 317.7,30.04 L317.2,30.04 C317.12,30.04 316.933335,30.0466666 316.64,30.06 C316.346665,30.0733334 316.000002,30.0999998 315.6,30.14 C315.199998,30.1800002 314.773336,30.2466662 314.32,30.34 C313.866664,30.4333338 313.426669,30.546666 313,30.68 C312.786666,30.7600004 312.486669,30.8866658 312.1,31.06 C311.713331,31.2333342 311.333335,31.4799984 310.96,31.8 C310.586665,32.1200016 310.260001,32.5199976 309.98,33 C309.699999,33.4800024 309.56,34.0799964 309.56,34.8 C309.56,36.2400072 310.193327,37.4133288 311.46,38.32 C312.726673,39.2266712 314.439989,39.68 316.6,39.68 C318.52001,39.68 319.979995,39.2733374 320.98,38.46 C321.980005,37.6466626 322.48,36.6133396 322.48,35.36 Z M344.92,18.52 L337.36,18.52 L337.36,26.12 L334.96,26.12 L334.96,18.52 L327.36,18.52 L327.36,16.12 L334.96,16.12 L334.96,8.64 L337.36,8.64 L337.36,16.12 L344.92,16.12 L344.92,18.52 Z" id="googleplus_c"></path>
            </g>
        </g>
    </g>
</svg>