<?xml version="1.0" encoding="UTF-8" standalone="no"?>
<svg width="50px" height="50px" viewBox="0 0 50 50" version="1.1" xmlns="http://www.w3.org/2000/svg" xmlns:xlink="http://www.w3.org/1999/xlink" xmlns:sketch="http://www.bohemiancoding.com/sketch/ns">
    <!-- Generator: Sketch 3.1.1 (8761) - http://www.bohemiancoding.com/sketch -->
    <title>alipay_F</title>
    <desc>Created with Sketch.</desc>
    <defs></defs>
    <g id="Page-1" stroke="none" stroke-width="1" fill="none" fill-rule="evenodd" sketch:type="MSPage">
        <g id="Artboard-1" sketch:type="MSArtboardGroup" transform="translate(-1375.000000, -326.000000)" fill="#2F4074">
            <g id="full-icons" sketch:type="MSLayerGroup" transform="translate(1175.000000, 225.000000)">
                <g id="row-2-full-icons" transform="translate(0.000000, 101.000000)" sketch:type="MSShapeGroup">
                    <path d="M225,50 C238.807119,50 250,38.8071194 250,25 C250,11.1928806 238.807119,0 225,0 C211.192881,0 200,11.1928806 200,25 C200,38.8071194 211.192881,50 225,50 Z M222.557375,15.7491315 L222.557375,11.6526888 L227.08829,11.6526888 L227.08829,15.7491315 L236.336317,15.7491315 L236.336317,17.549083 L227.088289,17.6111505 L227.08829,20.1559103 L234.724459,20.2179773 C234.724459,20.2179773 234.586205,21.6455257 233.618426,24.2419775 C232.650646,26.8384292 231.743337,28.1625933 231.743337,28.1625933 L246.558535,33.0239866 C246.558535,33.0239866 246.027285,34.4146116 245.38666,35.6333616 C244.746035,36.8521116 243.85541,38.1646116 243.85541,38.1646116 L229.695116,31.4521607 C229.695116,31.4521607 227.017234,34.413656 224.286272,35.7170694 C221.55531,37.0204827 218.419011,37.8313708 215.023247,37.030483 C211.627483,36.2295952 209.216574,34.0580194 209.631336,30.0486505 C210.046099,26.0392816 214.331976,24.6567404 217.857456,24.65674 C221.382936,24.65674 228.071728,26.9413479 228.071728,26.9413479 C228.071728,26.9413479 228.633863,25.6817482 229.179689,24.2419775 C229.725515,22.8022068 229.881318,21.6455257 229.881318,21.6455257 L215.636658,21.6455257 L215.636658,20.2179773 L222.557375,20.2179773 L222.557375,17.4870159 L213.930019,17.5490832 L213.930019,15.7491315 L222.557375,15.7491315 Z M226.366583,29.7964412 C226.366583,29.7964412 222.12593,34.8348415 217.129517,34.8348411 C212.133104,34.8348407 211.083437,32.4416013 211.083437,30.7201479 C211.083437,28.9986945 212.122443,27.1279919 216.373757,26.8573747 C220.625071,26.5867575 226.366583,29.7964412 226.366583,29.7964412 Z" id="alipay_F"></path>
                </g>
            </g>
        </g>
    </g>
</svg>