<?xml version="1.0" encoding="UTF-8" standalone="no"?>
<svg width="50px" height="50px" viewBox="0 0 50 50" version="1.1" xmlns="http://www.w3.org/2000/svg" xmlns:xlink="http://www.w3.org/1999/xlink" xmlns:sketch="http://www.bohemiancoding.com/sketch/ns">
    <!-- Generator: Sketch 3.1.1 (8761) - http://www.bohemiancoding.com/sketch -->
    <title>bitcoin_F</title>
    <desc>Created with Sketch.</desc>
    <defs></defs>
    <g id="Page-1" stroke="none" stroke-width="1" fill="none" fill-rule="evenodd" sketch:type="MSPage">
        <g id="Artboard-1" sketch:type="MSArtboardGroup" transform="translate(-1375.000000, -726.000000)" fill="#2F4074">
            <g id="full-icons" sketch:type="MSLayerGroup" transform="translate(1175.000000, 225.000000)">
                <g id="row-6-full-icons" transform="translate(0.000000, 501.000000)" sketch:type="MSShapeGroup">
                    <path d="M225,50 C238.807119,50 250,38.8071194 250,25 C250,11.1928806 238.807119,0 225,0 C211.192881,0 200,11.1928806 200,25 C200,38.8071194 211.192881,50 225,50 Z M216.678661,11.2606414 L215.972151,14.0943007 C215.972151,14.0943007 218.812089,14.8023767 219.127518,14.8810221 C219.442947,14.9596675 219.402531,15.1217695 219.375581,15.2298576 C219.348632,15.3379457 215.758617,29.7367077 215.71116,29.9270485 C215.663703,30.1173893 215.63543,30.230784 215.370032,30.1646131 C215.104634,30.0984422 212.353639,29.412542 212.353639,29.412542 L211.56851,32.5615198 L217.136924,33.9498812 L215.997823,38.5185651 L218.967393,39.2589621 L220.106494,34.6902781 L221.955484,35.151282 L220.816383,39.7199666 L223.644249,40.4250334 L224.78335,35.8563494 C224.78335,35.8563494 225.496223,36.0340888 226.911133,36.3868653 C228.326044,36.7396419 233.697936,36.7962315 234.882313,32.0459525 C236.066691,27.2956735 232.200897,25.297235 232.200897,25.297235 C232.200897,25.297235 235.487859,24.2687935 235.991765,21.202208 C236.495671,18.1356224 234.338636,16.7232316 233.132499,15.941488 C231.926363,15.1597442 230.082507,14.6025953 230.082507,14.6025953 L231.272931,9.82806359 L228.553828,9.15011521 L227.363404,13.924647 L225.188122,13.3822882 L226.378546,8.6077564 L223.626504,7.92159537 L222.43608,12.6961271 L216.678661,11.2606414 Z M224.444822,16.2139395 L223.004267,21.99169 C223.004267,21.99169 225.943177,22.7244423 226.699697,22.9130643 C227.456218,23.1016864 229.863287,23.2032107 230.466519,20.7837778 C231.069751,18.3643449 228.39294,17.1983159 227.815809,17.054421 C227.238679,16.9105262 224.444822,16.2139395 224.444822,16.2139395 Z M222.325652,25.00602 L220.813069,31.0726579 C220.813069,31.0726579 225.297815,32.1908306 225.871862,32.3339567 C226.44591,32.4770828 228.96705,32.3002028 229.534269,30.0252136 C230.101487,27.7502245 228.572479,26.5635289 227.563835,26.3120457 C226.555191,26.0605626 222.325652,25.00602 222.325652,25.00602 Z" id="bitcoin_F"></path>
                </g>
            </g>
        </g>
    </g>
</svg>