<?xml version="1.0" encoding="UTF-8" standalone="no"?>
<svg width="50px" height="50px" viewBox="0 0 50 50" version="1.1" xmlns="http://www.w3.org/2000/svg" xmlns:xlink="http://www.w3.org/1999/xlink" xmlns:sketch="http://www.bohemiancoding.com/sketch/ns">
    <!-- Generator: Sketch 3.1.1 (8761) - http://www.bohemiancoding.com/sketch -->
    <title>douban_F</title>
    <desc>Created with Sketch.</desc>
    <defs></defs>
    <g id="Page-1" stroke="none" stroke-width="1" fill="none" fill-rule="evenodd" sketch:type="MSPage">
        <g id="Artboard-1" sketch:type="MSArtboardGroup" transform="translate(-1675.000000, -327.000000)" fill="#2F4074">
            <g id="full-icons" sketch:type="MSLayerGroup" transform="translate(1175.000000, 225.000000)">
                <g id="row-2-full-icons" transform="translate(0.000000, 101.000000)" sketch:type="MSShapeGroup">
                    <path d="M525,51 C538.807119,51 550,39.8071194 550,26 C550,12.1928806 538.807119,1 525,1 C511.192881,1 500,12.1928806 500,26 C500,39.8071194 511.192881,51 525,51 Z M537.509766,16.5546875 L512.724609,16.5546875 L512.724609,14.0351562 L537.509766,14.0351562 L537.509766,16.5546875 Z M538.081055,38.8056641 L511.977539,38.8056641 L511.977539,36.2568359 L519.785156,36.2568359 C518.82812,34.1767474 517.817388,32.3798904 516.75293,30.8662109 L518.759766,29.5771484 L515.244141,29.5771484 L515.244141,19.5136719 L535.078125,19.5136719 L535.078125,29.5771484 L531.386719,29.5771484 L533.393555,30.8955078 C532.446284,32.9755963 531.459966,34.7626878 530.43457,36.2568359 L538.081055,36.2568359 L538.081055,38.8056641 Z M532.294922,27.0429688 L532.294922,22.1064453 L518.012695,22.1064453 L518.012695,27.0429688 L532.294922,27.0429688 Z M530.90332,29.5771484 L519.272461,29.5771484 C520.522467,31.657237 521.660151,33.8837772 522.685547,36.2568359 L527.431641,36.2568359 C528.886726,34.0009653 530.043941,31.774425 530.90332,29.5771484 Z" id="douban_F"></path>
                </g>
            </g>
        </g>
    </g>
</svg>