<?xml version="1.0" encoding="UTF-8" standalone="no"?>
<svg width="50px" height="50px" viewBox="0 0 50 50" version="1.1" xmlns="http://www.w3.org/2000/svg" xmlns:xlink="http://www.w3.org/1999/xlink" xmlns:sketch="http://www.bohemiancoding.com/sketch/ns">
    <!-- Generator: Sketch 3.1.1 (8761) - http://www.bohemiancoding.com/sketch -->
    <title>googleplus_F</title>
    <desc>Created with Sketch.</desc>
    <defs></defs>
    <g id="Page-1" stroke="none" stroke-width="1" fill="none" fill-rule="evenodd" sketch:type="MSPage">
        <g id="Artboard-1" sketch:type="MSArtboardGroup" transform="translate(-1475.000000, -525.000000)" fill="#2F4074">
            <g id="full-icons" sketch:type="MSLayerGroup" transform="translate(1175.000000, 225.000000)">
                <g id="row-4-full-icons" transform="translate(0.000000, 300.000000)" sketch:type="MSShapeGroup">
                    <path d="M325,50 C338.807119,50 350,38.8071194 350,25 C350,11.1928806 338.807119,0 325,0 C311.192881,0 300,11.1928806 300,25 C300,38.8071194 311.192881,50 325,50 Z M321.96,12.32 C322.200001,12.5066676 322.479998,12.7533318 322.8,13.06 C323.120002,13.3666682 323.426665,13.7399978 323.72,14.18 C324.013335,14.6200022 324.266666,15.1333304 324.48,15.72 C324.693334,16.3066696 324.8,16.9733296 324.8,17.72 C324.8,18.4666704 324.706668,19.1199972 324.52,19.68 C324.333332,20.2400028 324.080002,20.7399978 323.76,21.18 C323.439998,21.6200022 323.080002,22.0199982 322.68,22.38 C322.279998,22.7400018 321.866669,23.0799984 321.44,23.4 C321.173332,23.666668 320.920001,23.9466652 320.68,24.24 C320.439999,24.5333348 320.32,24.9066644 320.32,25.36 C320.32,25.8133356 320.439999,26.1666654 320.68,26.42 C320.920001,26.6733346 321.146666,26.8933324 321.36,27.08 L322.8,28.2 C323.226669,28.5733352 323.646665,28.9466648 324.06,29.32 C324.473335,29.6933352 324.833332,30.0933312 325.14,30.52 C325.446668,30.9466688 325.693332,31.426664 325.88,31.96 C326.066668,32.493336 326.16,33.1066632 326.16,33.8 C326.16,34.733338 325.933336,35.6533288 325.48,36.56 C325.026664,37.4666712 324.360004,38.2733298 323.48,38.98 C322.599996,39.6866702 321.500007,40.2599978 320.18,40.7 C318.859993,41.1400022 317.346675,41.36 315.64,41.36 C314.199993,41.36 312.940005,41.2000016 311.86,40.88 C310.779995,40.5599984 309.880004,40.133336 309.16,39.6 C308.439996,39.066664 307.906668,38.4600034 307.56,37.78 C307.213332,37.0999966 307.04,36.3866704 307.04,35.64 C307.04,34.9199964 307.259998,34.1000046 307.7,33.18 C308.140002,32.2599954 308.946661,31.4533368 310.12,30.76 C310.733336,30.3866648 311.39333,30.0866678 312.1,29.86 C312.80667,29.6333322 313.506663,29.453334 314.2,29.32 C314.893337,29.186666 315.546664,29.0933336 316.16,29.04 C316.773336,28.9866664 317.306664,28.9466668 317.76,28.92 C317.466665,28.5466648 317.193335,28.1533354 316.94,27.74 C316.686665,27.3266646 316.56,26.8133364 316.56,26.2 C316.56,25.8533316 316.6,25.5666678 316.68,25.34 C316.76,25.1133322 316.853333,24.8800012 316.96,24.64 C316.746666,24.6666668 316.533334,24.6866666 316.32,24.7 C316.106666,24.7133334 315.893334,24.72 315.68,24.72 C314.613328,24.72 313.666671,24.5400018 312.84,24.18 C312.013329,23.8199982 311.320003,23.3466696 310.76,22.76 C310.199997,22.1733304 309.773335,21.5000038 309.48,20.74 C309.186665,19.9799962 309.04,19.2133372 309.04,18.44 C309.04,17.506662 309.253331,16.5666714 309.68,15.62 C310.106669,14.6733286 310.746662,13.8266704 311.6,13.08 C312.746672,12.146662 313.953327,11.546668 315.22,11.28 C316.486673,11.013332 317.666661,10.88 318.76,10.88 L327,10.88 L324.44,12.32 L321.96,12.32 Z M317.56,23.6 C318.066669,23.6 318.566664,23.4933344 319.06,23.28 C319.553336,23.0666656 319.959998,22.8000016 320.28,22.48 C320.733336,22.0266644 321.013333,21.5200028 321.12,20.96 C321.226667,20.3999972 321.28,19.9333352 321.28,19.56 C321.28,18.8399964 321.173334,18.0533376 320.96,17.2 C320.746666,16.3466624 320.426669,15.5466704 320,14.8 C319.573331,14.0533296 319.04667,13.4333358 318.42,12.94 C317.79333,12.4466642 317.066671,12.2 316.24,12.2 C315.706664,12.2 315.186669,12.3199988 314.68,12.56 C314.173331,12.8000012 313.760002,13.119998 313.44,13.52 C313.093332,13.9466688 312.860001,14.4133308 312.74,14.92 C312.619999,15.4266692 312.56,15.946664 312.56,16.48 C312.56,17.14667 312.659999,17.8933292 312.86,18.72 C313.060001,19.5466708 313.366665,20.3199964 313.78,21.04 C314.193335,21.7600036 314.71333,22.3666642 315.34,22.86 C315.96667,23.3533358 316.706662,23.6 317.56,23.6 Z M323.48,35.36 C323.48,34.8533308 323.393334,34.3933354 323.22,33.98 C323.046666,33.5666646 322.786668,33.160002 322.44,32.76 C322.093332,32.359998 321.640003,31.9466688 321.08,31.52 C320.519997,31.0933312 319.86667,30.613336 319.12,30.08 C318.959999,30.0533332 318.820001,30.04 318.7,30.04 L318.2,30.04 C318.12,30.04 317.933335,30.0466666 317.64,30.06 C317.346665,30.0733334 317.000002,30.0999998 316.6,30.14 C316.199998,30.1800002 315.773336,30.2466662 315.32,30.34 C314.866664,30.4333338 314.426669,30.546666 314,30.68 C313.786666,30.7600004 313.486669,30.8866658 313.1,31.06 C312.713331,31.2333342 312.333335,31.4799984 311.96,31.8 C311.586665,32.1200016 311.260001,32.5199976 310.98,33 C310.699999,33.4800024 310.56,34.0799964 310.56,34.8 C310.56,36.2400072 311.193327,37.4133288 312.46,38.32 C313.726673,39.2266712 315.439989,39.68 317.6,39.68 C319.52001,39.68 320.979995,39.2733374 321.98,38.46 C322.980005,37.6466626 323.48,36.6133396 323.48,35.36 Z M345.92,18.52 L338.36,18.52 L338.36,26.12 L335.96,26.12 L335.96,18.52 L328.36,18.52 L328.36,16.12 L335.96,16.12 L335.96,8.64 L338.36,8.64 L338.36,16.12 L345.92,16.12 L345.92,18.52 Z" id="googleplus_F"></path>
                </g>
            </g>
        </g>
    </g>
</svg>