<?xml version="1.0" encoding="UTF-8" standalone="no"?>
<svg width="50px" height="50px" viewBox="0 0 50 50" version="1.1" xmlns="http://www.w3.org/2000/svg" xmlns:xlink="http://www.w3.org/1999/xlink" xmlns:sketch="http://www.bohemiancoding.com/sketch/ns">
    <!-- Generator: Sketch 3.1.1 (8761) - http://www.bohemiancoding.com/sketch -->
    <title>instagram_F</title>
    <desc>Created with Sketch.</desc>
    <defs></defs>
    <g id="Page-1" stroke="none" stroke-width="1" fill="none" fill-rule="evenodd" sketch:type="MSPage">
        <g id="Artboard-1" sketch:type="MSArtboardGroup" transform="translate(-1375.000000, -426.000000)" fill="#2F4074">
            <g id="full-icons" sketch:type="MSLayerGroup" transform="translate(1175.000000, 225.000000)">
                <g id="row-3-full-icons" transform="translate(0.000000, 200.000000)" sketch:type="MSShapeGroup">
                    <path d="M213,11.1264204 C211.27481,11.5720476 210,13.1433748 210,14.9999433 L210,20 L218.29168,20 L218.29168,20 C219.939642,18.1587519 222.3345,17 225,17 C227.6655,17 230.060358,18.1587519 231.70832,20 L240,20 L240,14.9999433 C240,12.7908356 238.213205,11 236.000725,11 L213.999275,11 C213.889846,11 213.781444,11.0044174 213.674235,11.013082 C213.949037,10.9856667 214,11 214,11 L214,17 L213,17 L213,11.1264204 L213,11.1264204 Z M213.372756,11.0490202 C213.472082,11.033322 213.572622,11.0212943 213.674235,11.013082 L213.372756,11.0490202 Z M233.06448,22 L240,22 L240,35.0013241 C240,38.318062 237.314226,41 234.001155,41 L215.998845,41 C212.688701,41 210,38.3143013 210,35.0013241 L210,22 L216.93552,22 C216.336706,23.2049589 216,24.5631585 216,26 C216,30.970563 220.029437,35 225,35 C229.970563,35 234,30.970563 234,26 C234,24.5631585 233.663294,23.2049589 233.06448,22 L233.06448,22 Z M225,51 C238.807119,51 250,39.8071194 250,26 C250,12.1928806 238.807119,1 225,1 C211.192881,1 200,12.1928806 200,26 C200,39.8071194 211.192881,51 225,51 Z M217,11 L217,17 L218,17 L218,11 L217,11 Z M215,11 L215,17 L216,17 L216,11 L215,11 Z M232.999807,13 C232.447629,13 232,13.4437166 232,13.9998075 L232,17.0001925 C232,17.5523709 232.443717,18 232.999807,18 L236.000193,18 C236.552371,18 237,17.5562834 237,17.0001925 L237,13.9998075 C237,13.4476291 236.556283,13 236.000193,13 L232.999807,13 Z M225,33 C228.865993,33 232,29.8659934 232,26 C232,22.1340066 228.865993,19 225,19 C221.134007,19 218,22.1340066 218,26 C218,29.8659934 221.134007,33 225,33 Z" id="instagram_F"></path>
                </g>
            </g>
        </g>
    </g>
</svg>