<?xml version="1.0" encoding="UTF-8" standalone="no"?>
<svg width="50px" height="50px" viewBox="0 0 50 50" version="1.1" xmlns="http://www.w3.org/2000/svg" xmlns:xlink="http://www.w3.org/1999/xlink" xmlns:sketch="http://www.bohemiancoding.com/sketch/ns">
    <!-- Generator: Sketch 3.1.1 (8761) - http://www.bohemiancoding.com/sketch -->
    <title>instapaper_F</title>
    <desc>Created with Sketch.</desc>
    <defs></defs>
    <g id="Page-1" stroke="none" stroke-width="1" fill="none" fill-rule="evenodd" sketch:type="MSPage">
        <g id="Artboard-1" sketch:type="MSArtboardGroup" transform="translate(-1575.000000, -726.000000)" fill="#2F4074">
            <g id="full-icons" sketch:type="MSLayerGroup" transform="translate(1175.000000, 225.000000)">
                <g id="row-6-full-icons" transform="translate(0.000000, 501.000000)" sketch:type="MSShapeGroup">
                    <path d="M425,50 C438.807119,50 450,38.8071194 450,25 C450,11.1928806 438.807119,0 425,0 C411.192881,0 400,11.1928806 400,25 C400,38.8071194 411.192881,50 425,50 Z M433.838379,40.7333984 L416.161621,40.7333984 L416.161621,38.9814453 C416.56592,38.9514972 417.161129,38.9065758 417.947266,38.8466797 C418.733402,38.7867836 419.276203,38.6969407 419.575684,38.5771484 C420.129723,38.3525379 420.507811,38.0568052 420.709961,37.6899414 C420.91211,37.3230776 421.013184,36.8551461 421.013184,36.2861328 L421.013184,13.6904297 C421.013184,13.1813126 420.915854,12.7320983 420.721191,12.3427734 C420.526529,11.9534486 420.144697,11.6389986 419.575684,11.3994141 C419.216307,11.2496737 418.684737,11.0961922 417.980957,10.9389648 C417.277177,10.7817375 416.670738,10.6731774 416.161621,10.6132812 L416.161621,8.86132812 L433.838379,8.86132812 L433.838379,10.6132812 C433.389158,10.6582033 432.82764,10.721842 432.153809,10.8041992 C431.479977,10.8865564 430.910972,11.0026034 430.446777,11.1523438 C429.86279,11.3470062 429.473471,11.6502258 429.278809,12.0620117 C429.084146,12.4737976 428.986816,12.9417292 428.986816,13.4658203 L428.986816,36.0390625 C428.986816,36.5781277 429.08789,37.0385723 429.290039,37.4204102 C429.492189,37.802248 429.877764,38.1129545 430.446777,38.3525391 C430.761232,38.4873054 431.281572,38.6183262 432.007812,38.7456055 C432.734053,38.8728848 433.344236,38.9514972 433.838379,38.9814453 L433.838379,40.7333984 Z" id="instapaper_F"></path>
                </g>
            </g>
        </g>
    </g>
</svg>