<?xml version="1.0" encoding="UTF-8" standalone="no"?>
<svg width="50px" height="50px" viewBox="0 0 50 50" version="1.1" xmlns="http://www.w3.org/2000/svg" xmlns:xlink="http://www.w3.org/1999/xlink" xmlns:sketch="http://www.bohemiancoding.com/sketch/ns">
    <!-- Generator: Sketch 3.1.1 (8761) - http://www.bohemiancoding.com/sketch -->
    <title>quora_F</title>
    <desc>Created with Sketch.</desc>
    <defs></defs>
    <g id="Page-1" stroke="none" stroke-width="1" fill="none" fill-rule="evenodd" sketch:type="MSPage">
        <g id="Artboard-1" sketch:type="MSArtboardGroup" transform="translate(-1175.000000, -726.000000)" fill="#2F4074">
            <g id="full-icons" sketch:type="MSLayerGroup" transform="translate(1175.000000, 225.000000)">
                <g id="row-6-full-icons" transform="translate(0.000000, 501.000000)" sketch:type="MSShapeGroup">
                    <path d="M25,50 C38.8071194,50 50,38.8071194 50,25 C50,11.1928806 38.8071194,0 25,0 C11.1928806,0 0,11.1928806 0,25 C0,38.8071194 11.1928806,50 25,50 Z M36.078125,40.3098145 C36.078125,40.3098145 33.0683613,41.0933552 31.219717,40.037962 C29.78852,39.2208898 28.6243399,37.4124766 28.5269022,37.3258324 C27.6727247,37.6503906 25.7688275,37.6503906 25.3673477,37.6503906 C21.5131414,37.6503906 18.4275285,36.4082155 16.1104164,33.9238281 C13.7933043,31.4394407 12.6347656,28.1289269 12.6347656,23.9921875 C12.6347656,19.8085728 13.7990396,16.4863404 16.1276226,14.0253906 C18.4562056,11.5644408 21.5991719,10.3339844 25.5566158,10.3339844 C29.5140598,10.3339844 32.6541584,11.5673705 34.977006,14.0341797 C37.2998535,16.5009889 38.4612598,19.8378696 38.4612598,24.0449219 C38.4612598,29.5283549 36.5085696,33.4713456 32.6031348,35.8739931 C32.585937,35.8845733 32.953125,36.6223145 33.640625,36.9973145 C34.328125,37.3723145 35.625,37.3258324 35.625,37.3258324 L36.078125,40.3098145 Z M27.0472009,33.5246477 C27.3566769,33.4403358 26.7244391,32.6904837 26.0000002,32.1594355 C25.0819566,31.4864657 23.620331,31.4021704 23.620331,31.4021704 L23.620331,29.2795679 C23.620331,29.2795679 25.6288406,28.7206242 27.4243261,29.2795679 C29.2198116,29.8385117 29.960075,31.5654271 30.079137,31.4021704 C30.1280037,31.3351648 30.2982441,31.1255869 30.3458008,31.0558592 C31.5639709,29.2697766 32.1730469,26.8441975 32.1730469,23.7790493 C32.1730469,20.7945629 31.5639709,18.4035527 30.3458008,16.6059469 C29.1276306,14.8083412 27.5060648,13.9095518 25.4810547,13.9095518 C23.4454976,13.9095518 21.8186584,14.8083412 20.6004883,16.6059469 C19.3823181,18.4035527 18.7732422,20.8060858 18.7732422,23.8136185 C18.7732422,26.7981049 19.3796814,29.1977573 20.5925781,31.0126477 C21.8054748,32.8275381 23.4085838,33.7349697 25.4019531,33.7349697 C25.9841111,33.7349697 26.5325267,33.6648626 27.0472009,33.5246477 Z" id="quora_F"></path>
                </g>
            </g>
        </g>
    </g>
</svg>