<?xml version="1.0" encoding="UTF-8" standalone="no"?>
<svg width="50px" height="50px" viewBox="0 0 50 50" version="1.1" xmlns="http://www.w3.org/2000/svg" xmlns:xlink="http://www.w3.org/1999/xlink" xmlns:sketch="http://www.bohemiancoding.com/sketch/ns">
    <!-- Generator: Sketch 3.1.1 (8761) - http://www.bohemiancoding.com/sketch -->
    <title>qzone_F</title>
    <desc>Created with Sketch.</desc>
    <defs></defs>
    <g id="Page-1" stroke="none" stroke-width="1" fill="none" fill-rule="evenodd" sketch:type="MSPage">
        <g id="Artboard-1" sketch:type="MSArtboardGroup" transform="translate(-1475.000000, -225.000000)" fill="#2F4074">
            <g id="full-icons" sketch:type="MSLayerGroup" transform="translate(1175.000000, 225.000000)">
                <g id="row-1-full-icons" sketch:type="MSShapeGroup">
                    <path d="M325,50 C338.807119,50 350,38.8071194 350,25 C350,11.1928806 338.807119,0 325,0 C311.192881,0 300,11.1928806 300,25 C300,38.8071194 311.192881,50 325,50 Z M326,35 C326,35 316.035683,41.0571327 315.419866,40.5623065 C314.80405,40.0674803 317.440491,28.7811533 317.440491,28.7811533 C317.440491,28.7811533 308.515837,21.350275 308.880983,20.4376945 C309.246128,19.525114 320.709934,18.7188458 320.709934,18.7188458 C320.709934,18.7188458 324.968812,8.00000015 326,8 C327.031188,7.99999985 331.290069,18.7188485 331.290069,18.7188485 C331.290069,18.7188485 342.80189,19.5298327 343.11902,20.4377031 C343.43615,21.3455734 334.559508,28.7811555 334.559508,28.7811555 C334.559508,28.7811555 334.670369,29.5027724 334.797753,30.0402164 C334.8062,30.0758551 330.654821,30.1704398 327.252123,30.0402164 C325.464735,29.9718118 323.313779,29.6404362 323.313779,29.6404362 L333.164523,22.6164322 C333.164523,22.6164322 329.601992,21.9747136 326.000001,21.8468428 C322.055344,21.7068074 318.017172,22.085316 317.440491,22.231638 C317.078431,22.3235039 319.990968,22.3164028 323.313779,22.6164322 C325.639578,22.8264376 328.700904,23.3860216 328.700904,23.3860216 L318.85016,30.7190228 C318.85016,30.7190228 323.068651,30.9753454 326.852652,30.950264 C331.11207,30.9220313 334.956125,30.392209 334.97968,30.4941559 C335.721052,33.7029087 337.089373,40.0446675 336.580133,40.5623068 C335.887042,41.2668304 326,35 326,35 Z" id="qzone_F"></path>
                </g>
            </g>
        </g>
    </g>
</svg>