<?xml version="1.0" encoding="UTF-8" standalone="no"?>
<svg width="50px" height="50px" viewBox="0 0 50 50" version="1.1" xmlns="http://www.w3.org/2000/svg" xmlns:xlink="http://www.w3.org/1999/xlink" xmlns:sketch="http://www.bohemiancoding.com/sketch/ns">
    <!-- Generator: Sketch 3.1.1 (8761) - http://www.bohemiancoding.com/sketch -->
    <title>sina_weibo_F</title>
    <desc>Created with Sketch.</desc>
    <defs></defs>
    <g id="Page-1" stroke="none" stroke-width="1" fill="none" fill-rule="evenodd" sketch:type="MSPage">
        <g id="Artboard-1" sketch:type="MSArtboardGroup" transform="translate(-1675.000000, -225.000000)" fill="#2F4074">
            <g id="full-icons" sketch:type="MSLayerGroup" transform="translate(1175.000000, 225.000000)">
                <g id="row-1-full-icons" sketch:type="MSShapeGroup">
                    <path d="M525,50 C538.807119,50 550,38.8071194 550,25 C550,11.1928806 538.807119,0 525,0 C511.192881,0 500,11.1928806 500,25 C500,38.8071194 511.192881,50 525,50 Z M522.5,38 C531.060414,38 537.933212,33.5228478 537.933212,28 C537.933212,23.334301 532.090445,23.334301 532.090445,23.0331268 C532.090445,22.7319527 535,20.0213909 532.090445,18.3348184 C529.180889,16.6482458 523.858948,19.2124566 524.018991,18.9371657 C526.307911,15 523.036296,13.756979 521.368663,13.756979 C517.39317,13.756979 507,22.4771522 507,28 C507,33.5228478 513.939586,38 522.5,38 Z M522.904625,34.9367424 C528.373725,34.1681106 532.402291,30.6631839 531.902681,27.108269 C531.40307,23.5533541 526.564475,21.2946257 521.095375,22.0632576 C515.626275,22.8318894 511.597709,26.3368161 512.097319,29.891731 C512.59693,33.4466459 517.435525,35.7053743 522.904625,34.9367424 Z M521.89381,33.9683706 C525.146637,33.3360852 527.356433,30.6260695 526.829528,27.9153808 C526.302624,25.204692 523.238547,23.5198134 519.98572,24.1520988 C516.732894,24.7843842 514.523098,27.4943999 515.050002,30.2050887 C515.576907,32.9157775 518.640984,34.6006561 521.89381,33.9683706 Z M522,29 C522.552285,29 523,28.5522848 523,28 C523,27.4477152 522.552285,27 522,27 C521.447715,27 521,27.4477152 521,28 C521,28.5522848 521.447715,29 522,29 Z M519.694162,31.2811048 C520.695242,30.8142935 521.222959,29.8272166 520.87285,29.0764066 C520.522742,28.3255966 519.427387,28.0953702 518.426307,28.5621814 C517.425227,29.0289927 516.897511,30.0160696 517.247619,30.7668796 C517.597728,31.5176896 518.693082,31.747916 519.694162,31.2811048 Z M535.885232,15.9254292 C534.07819,14.2990914 531.990781,14.8689792 531.990781,14.8689792 C531.443588,14.94134 531,15.4488832 531,15.9938303 L531,15.7146504 C531,16.2635277 531.439556,16.6793045 531.994147,16.675116 C531.994147,16.675116 533.716782,16.4073074 534.680537,17.551767 C535.644293,18.6962267 534.956652,20.2688732 534.956652,20.2688732 C534.804158,20.797527 535.127636,21.2260854 535.68525,21.2260854 L535.78404,21.2260854 C536.338928,21.2260853 536.875438,20.7893301 536.95291,20.2414445 C536.95291,20.2414445 537.692274,17.5517671 535.885232,15.9254292 Z M539.258377,12.6727538 C535.945467,9.54054748 531.496957,9.98966964 531.496957,9.98966964 C530.670211,9.99537494 530,10.6744486 530,11.492665 L530,11.1800888 C530,12.0044649 530.679948,12.6392265 531.492743,12.6400384 C531.492743,12.6400384 535.764763,12.1470597 537.752509,15.0000002 C539.740254,17.8529408 538.924435,21.0067557 538.924435,21.0067557 C538.809465,21.8264891 539.385054,22.4910142 540.21183,22.4910142 L539.871027,22.4910142 C540.697005,22.4910142 541.458872,21.8279629 541.534153,21.0090508 C541.534153,21.0090508 542.571287,15.8049598 539.258377,12.6727538 Z" id="sina_weibo_F"></path>
                </g>
            </g>
        </g>
    </g>
</svg>