<?xml version="1.0" encoding="UTF-8" standalone="no"?>
<svg width="50px" height="50px" viewBox="0 0 50 50" version="1.1" xmlns="http://www.w3.org/2000/svg" xmlns:xlink="http://www.w3.org/1999/xlink" xmlns:sketch="http://www.bohemiancoding.com/sketch/ns">
    <!-- Generator: Sketch 3.1.1 (8761) - http://www.bohemiancoding.com/sketch -->
    <title>tencent_weibo_F</title>
    <desc>Created with Sketch.</desc>
    <defs></defs>
    <g id="Page-1" stroke="none" stroke-width="1" fill="none" fill-rule="evenodd" sketch:type="MSPage">
        <g id="Artboard-1" sketch:type="MSArtboardGroup" transform="translate(-1575.000000, -225.000000)" fill="#2F4074">
            <g id="full-icons" sketch:type="MSLayerGroup" transform="translate(1175.000000, 225.000000)">
                <g id="row-1-full-icons" sketch:type="MSShapeGroup">
                    <path d="M425,50 C438.807119,50 450,38.8071194 450,25 C450,11.1928806 438.807119,0 425,0 C411.192881,0 400,11.1928806 400,25 C400,38.8071194 411.192881,50 425,50 Z M415.954876,29.5082446 C415.520444,30.4857169 417.318434,30.724088 418.509201,30.7240878 C424.616369,30.7240878 427.13351,25.5702912 427.323629,22.3944184 C427.554197,18.5428449 424.715475,13.1084296 418.642926,13.1084296 C412.570376,13.1084296 409.606673,17.8835713 409.606673,22.3944188 C409.606673,25.2038071 410.907166,26.7001344 411.782166,26.2157594 C412.657166,25.7313844 411.277567,24.0751345 411.277565,22.3944188 C411.277561,19.5685686 412.950614,14.7334949 418.5092,14.7334957 C423.97753,14.7334965 425.840699,19.4466883 425.688604,22.3944184 C425.536508,25.3421485 422.688575,29.1009637 418.509201,29.1009647 C418.258299,29.1009647 416.389308,28.5307723 415.954876,29.5082446 Z M415.898026,22.8137779 C415.932493,22.8996694 412.77263,25.8433866 411.349081,30.8258065 C409.925533,35.8082265 410.485046,38.5785522 410.641296,39.4287604 C410.797546,40.2789687 411.922546,40.5316772 412.063171,39.4287604 C412.203796,38.3258437 411.647184,34.9999999 412.799782,31.3058757 C414.120471,27.0730078 416.775168,24.044245 416.906921,24.1447143 C417.404113,24.5238493 417.957103,24.648035 418.642926,24.648035 C420.29978,24.648035 421.548191,23.3453198 421.548191,21.6884655 C421.548191,20.0316112 420.29978,18.8103522 418.642926,18.8103522 C416.986071,18.8103522 415.683356,20.0316112 415.683356,21.6884655 C415.683356,22.0886902 415.75937,22.468251 415.898026,22.8137779 Z M439.587708,16.53125 C439.900208,15.171875 439.70524,14.1946096 439.015275,12.8942926 C438.232359,11.418797 435.276489,9.40955999 432.129809,11.1891652 C428.983128,12.9687702 429.255062,17.030825 430.943405,18.8027662 C432.631749,20.5747074 434.847626,20.4152877 434.847626,20.4152877 C435.12692,20.418926 435.332335,20.2074613 435.304232,19.9204903 L435.32559,20.1385921 C435.298473,19.8616848 435.055157,19.623195 434.775314,19.5966225 C434.775314,19.5966225 434.103333,19.5937504 433.197083,19.2500004 C432.775184,19.0899699 431.107226,18.296875 430.682632,16.3175759 C430.258039,14.3382768 431.396498,12.6858494 432.665833,11.984375 C434.448217,10.999373 436.353333,11.1874999 437.962708,13.015625 C438.905545,14.0866151 438.915833,16.0625 438.531639,16.96875 C438.147446,17.875 437.96413,17.941147 437.96413,17.941147 C437.782126,18.1376101 437.801285,18.4418336 438.010798,18.6240189 L437.977117,18.5947315 C438.184895,18.7754081 438.493798,18.7504003 438.661499,18.5238955 C438.661499,18.5238955 439.275208,17.890625 439.587708,16.53125 Z M434.61952,16.981003 C434.642492,16.981003 435.536744,19.5276484 437.761939,21.4126959 C439.987133,23.2977432 441.948861,23.7661026 442.050662,23.7479586 C442.123405,23.7349938 442.820237,23.2172169 441.944513,22.9518466 C441.068789,22.6864762 439.234682,21.6471873 438.176248,20.7227316 C436.079818,18.8916725 435.551772,16.7580812 435.613477,16.7184724 C435.899972,16.5345706 436.292115,16.264502 436.292115,15.5 C436.292115,14.7354979 435.840985,13.7434794 434.61952,13.7434792 C433.398056,13.743479 433,14.735498 433,15.5 C433,16.264502 433.850704,16.981003 434.61952,16.981003 Z" id="tencent_weibo_F"></path>
                </g>
            </g>
        </g>
    </g>
</svg>