<?xml version="1.0" encoding="UTF-8" standalone="no"?>
<svg width="50px" height="50px" viewBox="0 0 50 50" version="1.1" xmlns="http://www.w3.org/2000/svg" xmlns:xlink="http://www.w3.org/1999/xlink" xmlns:sketch="http://www.bohemiancoding.com/sketch/ns">
    <!-- Generator: Sketch 3.1.1 (8761) - http://www.bohemiancoding.com/sketch -->
    <title>twitter_F</title>
    <desc>Created with Sketch.</desc>
    <defs></defs>
    <g id="Page-1" stroke="none" stroke-width="1" fill="none" fill-rule="evenodd" sketch:type="MSPage">
        <g id="Artboard-1" sketch:type="MSArtboardGroup" transform="translate(-1275.000000, -525.000000)" fill="#2F4074">
            <g id="full-icons" sketch:type="MSLayerGroup" transform="translate(1175.000000, 225.000000)">
                <g id="row-4-full-icons" transform="translate(0.000000, 300.000000)" sketch:type="MSShapeGroup">
                    <path d="M125,50 C138.807119,50 150,38.8071194 150,25 C150,11.1928806 138.807119,0 125,0 C111.192881,0 100,11.1928806 100,25 C100,38.8071194 111.192881,50 125,50 Z M117.651122,18.5969065 C122.457788,21.0235727 126.519975,20.8835728 126.519975,20.8835728 C126.519975,20.8835728 124.979975,15.5169067 129.739974,13.1369075 C134.499973,10.756908 137.775537,14.7695102 137.775537,14.7695102 C137.775537,14.7695102 138.605701,14.5416219 139.224255,14.3137337 C139.842809,14.0858455 140.738084,13.6789022 140.738084,13.6789022 L139.27131,16.2970109 L141.529919,16.0575978 C141.529919,16.0575978 141.25154,16.4646222 140.347607,17.2936522 C139.443674,18.1226821 139.071118,18.550969 139.071118,18.550969 C139.071118,18.550969 139.394028,25.0108185 135.991119,29.9843002 C132.58821,34.9577817 128.191452,37.942736 121.804455,38.5709653 C115.417457,39.1991946 111.25779,36.6109657 111.25779,36.6109657 C111.25779,36.6109657 114.05114,36.4515477 115.831123,35.7709658 C117.611106,35.0903841 120.171122,33.297633 120.171122,33.297633 C120.171122,33.297633 116.531123,32.1776332 115.224456,30.9176334 C113.91779,29.6576336 113.591123,28.9109671 113.591123,28.9109671 L117.184456,28.8643004 C117.184456,28.8643004 113.404456,26.8576342 112.331123,25.2709678 C111.25779,23.6843015 111.11779,22.1443017 111.11779,22.1443017 L113.880377,23.2598853 C113.880377,23.2598853 111.584457,20.1376354 111.25779,17.7109692 C110.931124,15.284303 111.67779,13.9776365 111.67779,13.9776365 C111.67779,13.9776365 112.844457,16.1702403 117.651122,18.5969065 Z" id="twitter_F"></path>
                </g>
            </g>
        </g>
    </g>
</svg>