<?xml version="1.0" encoding="UTF-8" standalone="no"?>
<svg width="50px" height="50px" viewBox="0 0 50 50" version="1.1" xmlns="http://www.w3.org/2000/svg" xmlns:xlink="http://www.w3.org/1999/xlink" xmlns:sketch="http://www.bohemiancoding.com/sketch/ns">
    <!-- Generator: Sketch 3.1.1 (8761) - http://www.bohemiancoding.com/sketch -->
    <title>wechat_F</title>
    <desc>Created with Sketch.</desc>
    <defs></defs>
    <g id="Page-1" stroke="none" stroke-width="1" fill="none" fill-rule="evenodd" sketch:type="MSPage">
        <g id="Artboard-1" sketch:type="MSArtboardGroup" transform="translate(-1175.000000, -225.000000)" fill="#2F4074">
            <g id="full-icons" sketch:type="MSLayerGroup" transform="translate(1175.000000, 225.000000)">
                <g id="row-1-full-icons" sketch:type="MSShapeGroup">
                    <path d="M22.5818678,31.71349 C21.906665,31.8201846 21.2108648,31.8759226 20.5,31.8759226 C19.0813191,31.8759226 17.7226381,31.6539257 16.4679363,31.2479377 C15.8369252,31.0437593 13.5312811,33.4583658 12.9584621,33.1659495 C12.6171915,32.9917354 13.9881731,30.1373983 13.6707262,29.9346027 C10.8373094,28.1245223 9,25.2166612 9,21.9379613 C9,16.4493766 14.1487251,12 20.5,12 C26.4887062,12 31.4082411,15.9558822 31.950398,21.0087917 C36.9879721,21.2058777 41,24.6917757 41,28.963141 C41,31.6157194 39.4527269,33.9653755 37.0734414,35.4125598 C36.6253143,35.68513 38.0437122,37.9833522 37.5413346,38.1878882 C37.231698,38.3139523 35.0166252,36.3686672 34.6893143,36.466427 C33.6924546,36.764165 32.6188134,36.9262819 31.5,36.9262819 C27.4065495,36.9262819 23.9177915,34.7561207 22.5818678,31.71349 L22.5818678,31.71349 Z M22.0560746,29.8333609 C21.5497574,29.9033498 21.0299462,29.9397533 20.5,29.9397533 C19.1737844,29.9397533 17.911041,29.7117672 16.7644182,29.2999635 C16.6500415,29.2588856 16.242183,29.1358252 16.0215435,29.2999639 C15.5255557,29.6689406 14.8604646,30.434826 14.8604646,30.434826 C14.8604646,30.434826 15.1039515,29.8771525 15.1855665,29.0627797 C15.2228582,28.6906748 14.654947,28.4297633 14.5416073,28.3531011 C12.381737,26.8921787 11,24.4786686 11,21.9698767 C11,17.5682351 15.2532946,14 20.5,14 C25.3988472,14 29.4316437,17.1107699 29.944861,21.1061734 C25.4379506,21.7282549 22,25.0091601 22,28.963141 C22,29.2572095 22.0190164,29.5475551 22.0560746,29.8333609 L22.0560746,29.8333609 Z M25,50 C38.8071194,50 50,38.8071194 50,25 C50,11.1928806 38.8071194,0 25,0 C11.1928806,0 0,11.1928806 0,25 C0,38.8071194 11.1928806,50 25,50 Z M16.5,20 C17.3284272,20 18,19.3284272 18,18.5 C18,17.6715728 17.3284272,17 16.5,17 C15.6715728,17 15,17.6715728 15,18.5 C15,19.3284272 15.6715728,20 16.5,20 Z M24.5,20 C25.3284272,20 26,19.3284272 26,18.5 C26,17.6715728 25.3284272,17 24.5,17 C23.6715728,17 23,17.6715728 23,18.5 C23,19.3284272 23.6715728,20 24.5,20 Z M28,27 C28.5522848,27 29,26.5522848 29,26 C29,25.4477152 28.5522848,25 28,25 C27.4477152,25 27,25.4477152 27,26 C27,26.5522848 27.4477152,27 28,27 Z M34,27 C34.5522848,27 35,26.5522848 35,26 C35,25.4477152 34.5522848,25 34,25 C33.4477152,25 33,25.4477152 33,26 C33,26.5522848 33.4477152,27 34,27 Z" id="wechat_F"></path>
                </g>
            </g>
        </g>
    </g>
</svg>