<?xml version="1.0" encoding="UTF-8" standalone="no"?>
<svg width="50px" height="48px" viewBox="0 0 50 48" version="1.1" xmlns="http://www.w3.org/2000/svg" xmlns:xlink="http://www.w3.org/1999/xlink" xmlns:sketch="http://www.bohemiancoding.com/sketch/ns">
    <!-- Generator: Sketch 3.1.1 (8761) - http://www.bohemiancoding.com/sketch -->
    <title>email_c</title>
    <desc>Created with Sketch.</desc>
    <defs></defs>
    <g id="Page-1" stroke="none" stroke-width="1" fill="none" fill-rule="evenodd" sketch:type="MSPage">
        <g id="circle-icons" sketch:type="MSLayerGroup" transform="translate(-200.000000, -300.000000)" fill="#708A97">
            <g id="row-4-circle-icons" transform="translate(0.000000, 300.000000)" sketch:type="MSShapeGroup">
                <path d="M225,48 C238.807119,48 250,37.2548347 250,24 C250,10.7451653 238.807119,0 225,0 C211.192881,0 200,10.7451653 200,24 C200,37.2548347 211.192881,48 225,48 Z M210.953125,15.9828601 L225.043363,29.1036429 L239,15.9828601 L210.953125,15.9828601 Z M210,17.8924516 L217.798048,25.0503195 L210,32.0727084 L210,17.8924516 Z M240,17.7874361 L240,32.0727079 L231.988514,25.0306728 L240,17.7874361 Z M230.661754,26.2216489 L225.011019,31.4870732 L219.274739,26.2216489 L210.981335,34 L239.040703,34 L230.661754,26.2216489 Z" id="email_c"></path>
            </g>
        </g>
    </g>
</svg>