<?xml version="1.0" encoding="UTF-8" standalone="no"?>
<svg width="50px" height="50px" viewBox="0 0 50 50" version="1.1" xmlns="http://www.w3.org/2000/svg" xmlns:xlink="http://www.w3.org/1999/xlink" xmlns:sketch="http://www.bohemiancoding.com/sketch/ns">
    <!-- Generator: Sketch 3.1.1 (8761) - http://www.bohemiancoding.com/sketch -->
    <title>wechat_moment_c</title>
    <desc>Created with Sketch.</desc>
    <defs></defs>
    <g id="Page-1" stroke="none" stroke-width="1" fill="none" fill-rule="evenodd" sketch:type="MSPage">
        <g id="circle-icons" sketch:type="MSLayerGroup" transform="translate(-100.000000, 0.000000)">
            <g id="row-1-circle-icons" sketch:type="MSShapeGroup">
                <g id="wechat_moment_c" transform="translate(100.000000, 0.000000)">
                    <circle id="wechat-moment-F" fill="#506975" cx="25" cy="25" r="25"></circle>
                    <path d="M25,42 C34.3888412,42 42,34.3888412 42,25 C42,15.6111588 34.3888412,8 25,8 C15.6111588,8 8,15.6111588 8,25 C8,34.3888412 15.6111588,42 25,42 Z M25,30 C27.7614239,30 30,27.7614239 30,25 C30,22.2385761 27.7614239,20 25,20 C22.2385761,20 20,22.2385761 20,25 C20,27.7614239 22.2385761,30 25,30 Z" id="Oval-327" fill="#FFFFFF"></path>
                    <path d="M30.4626948,20.9040358 L19.6885955,10.2530691 C19.6885955,10.2530691 21.8337056,9.28642423 25.0756454,9.28642371 C28.3175852,9.28642318 30.4626948,10.1299365 30.4626948,10.1299365 L30.4626948,20.9040358 Z" id="Path" fill="#FC6B4F"></path>
                    <path d="M31.8013944,25.9213213 L31.7143265,10.7715119 C31.7143265,10.7715119 33.9146695,11.6048127 36.2070675,13.8972099 C38.4994655,16.1896072 39.419833,18.3028827 39.419833,18.3028827 L31.8013944,25.9213213 Z" id="Path" fill="#7838F2"></path>
                    <path d="M29.2002413,30.4156816 L39.851208,19.6415823 C39.851208,19.6415823 40.8178529,21.7866924 40.8178534,25.0286322 C40.8178539,28.270572 39.9743406,30.4156816 39.9743406,30.4156816 L29.2002413,30.4156816 Z" id="Path" fill="#5698F3"></path>
                    <path d="M24.1829558,31.7543812 L39.3327652,31.6673133 C39.3327652,31.6673133 38.4994644,33.8676563 36.2070672,36.1600543 C33.9146699,38.4524523 31.8013944,39.3728198 31.8013944,39.3728198 L24.1829558,31.7543812 Z" id="Path" fill="#20E9F4"></path>
                    <path d="M19.6885955,29.1532281 L30.4626948,39.8041948 C30.4626948,39.8041948 28.3175847,40.7708397 25.0756449,40.7708402 C21.8337051,40.7708407 19.6885955,39.9273274 19.6885955,39.9273274 L19.6885955,29.1532281 Z" id="Path" fill="#00FD60"></path>
                    <path d="M18.3498959,24.1359426 L18.4369638,39.285752 C18.4369638,39.285752 16.2366208,38.4524512 13.9442228,36.160054 C11.6518248,33.8676567 10.7314573,31.7543812 10.7314573,31.7543812 L18.3498959,24.1359426 Z" id="Path" fill="#ABFB5B"></path>
                    <path d="M20.951049,19.6415823 L10.3000823,30.4156816 C10.3000823,30.4156816 9.33343743,28.2705715 9.33343691,25.0286317 C9.33343638,21.7866919 10.1769497,19.6415823 10.1769497,19.6415823 L20.951049,19.6415823 Z" id="Path" fill="#F0E254"></path>
                    <path d="M25.9683345,18.3028827 L10.8185251,18.3899506 C10.8185251,18.3899506 11.6518259,16.1896076 13.9442231,13.8972096 C16.2366204,11.6048116 18.3498959,10.6844441 18.3498959,10.6844441 L25.9683345,18.3028827 Z" id="Path" fill="#F6B351"></path>
                </g>
            </g>
        </g>
    </g>
</svg>